M48
; DRILL file {KiCad 9.0.7-9.0.7~ubuntu24.04.1} date 2026-01-30T14:49:18-0500
; FORMAT={-:-/ absolute / metric / decimal}
; #@! TF.CreationDate,2026-01-30T14:49:18-05:00
; #@! TF.GenerationSoftware,Kicad,Pcbnew,9.0.7-9.0.7~ubuntu24.04.1
; #@! TF.FileFunction,Plated,1,2,PTH
FMAT,2
METRIC
; #@! TA.AperFunction,Plated,PTH,ViaDrill
T1C0.300
; #@! TA.AperFunction,Plated,PTH,ComponentDrill
T2C1.000
; #@! TA.AperFunction,Plated,PTH,ComponentDrill
T3C1.200
; #@! TA.AperFunction,Plated,PTH,ComponentDrill
T4C1.600
%
G90
G05
T1
X126.003Y-60.897
X130.803Y-85.197
T2
X118.796Y-49.2
X121.336Y-49.2
X123.876Y-49.2
X126.416Y-49.2
X127.94Y-97.46
X128.956Y-49.2
X130.48Y-97.46
X131.496Y-49.2
X133.02Y-97.46
X134.036Y-49.2
X135.56Y-97.46
X136.576Y-49.2
X138.1Y-97.46
X139.116Y-49.2
X140.64Y-97.46
X141.656Y-49.2
X143.18Y-97.46
X143.942Y-64.35
X143.942Y-66.89
X143.942Y-69.43
X143.942Y-71.97
X143.942Y-74.51
X143.942Y-77.05
X143.942Y-79.59
X143.942Y-82.13
X145.72Y-49.2
X145.72Y-97.46
X148.26Y-49.2
X150.8Y-49.2
X150.8Y-97.46
X153.34Y-49.2
X153.34Y-97.46
X155.88Y-49.2
X155.88Y-97.46
X156.642Y-64.35
X156.642Y-66.89
X156.642Y-69.43
X156.642Y-71.97
X156.642Y-74.51
X156.642Y-77.05
X156.642Y-79.59
X156.642Y-82.13
X158.42Y-49.2
X158.42Y-97.46
X160.96Y-49.2
X160.96Y-97.46
X163.5Y-49.2
X163.5Y-97.46
X166.04Y-97.46
X168.58Y-49.2
X168.58Y-97.46
X171.12Y-49.2
X173.66Y-49.2
X173.66Y-97.46
X176.2Y-49.2
X176.2Y-97.46
X178.74Y-49.2
X178.74Y-97.46
X179.92Y-67.4
X179.92Y-72.0
X179.92Y-76.6
X181.28Y-49.2
X181.28Y-97.46
X182.46Y-67.4
X182.46Y-72.0
X182.46Y-76.6
X183.82Y-49.2
X183.82Y-97.46
X185.0Y-67.4
X185.0Y-72.0
X185.0Y-76.6
X186.36Y-49.2
X186.36Y-97.46
X188.9Y-97.46
X191.44Y-97.46
X193.98Y-49.2
X193.98Y-51.74
X193.98Y-54.28
X193.98Y-56.82
X193.98Y-59.36
X193.98Y-61.9
X193.98Y-64.44
X193.98Y-66.98
X193.98Y-69.52
X193.98Y-72.06
X193.98Y-74.6
X193.98Y-77.14
X193.98Y-79.68
X193.98Y-82.22
X193.98Y-84.76
X193.98Y-87.3
X193.98Y-89.84
X193.98Y-92.38
X196.52Y-49.2
X196.52Y-51.74
X196.52Y-54.28
X196.52Y-56.82
X196.52Y-59.36
X196.52Y-61.9
X196.52Y-64.44
X196.52Y-66.98
X196.52Y-69.52
X196.52Y-72.06
X196.52Y-74.6
X196.52Y-77.14
X196.52Y-79.68
X196.52Y-82.22
X196.52Y-84.76
X196.52Y-87.3
X196.52Y-89.84
X196.52Y-92.38
T3
X141.0Y-57.5
X141.703Y-89.597
X144.5Y-57.5
X145.203Y-89.597
X148.0Y-57.5
X148.703Y-89.597
X151.5Y-57.5
X152.203Y-89.597
X155.0Y-57.5
X155.703Y-89.597
X158.5Y-57.5
X159.203Y-89.597
T4
X106.0Y-52.58
X106.0Y-57.66
X106.0Y-64.58
X106.0Y-69.66
X106.0Y-76.66
X106.0Y-81.74
X106.0Y-88.58
X106.0Y-93.66
M30
