%TF.GenerationSoftware,KiCad,Pcbnew,9.0.7-9.0.7~ubuntu24.04.1*%
%TF.CreationDate,2026-01-30T14:52:11-05:00*%
%TF.ProjectId,MegaShield,4d656761-5368-4696-956c-642e6b696361,rev?*%
%TF.SameCoordinates,Original*%
%TF.FileFunction,Legend,Top*%
%TF.FilePolarity,Positive*%
%FSLAX46Y46*%
G04 Gerber Fmt 4.6, Leading zero omitted, Abs format (unit mm)*
G04 Created by KiCad (PCBNEW 9.0.7-9.0.7~ubuntu24.04.1) date 2026-01-30 14:52:11*
%MOMM*%
%LPD*%
G01*
G04 APERTURE LIST*
%ADD10C,0.150000*%
%ADD11C,0.120000*%
G04 APERTURE END LIST*
D10*
X139969851Y-81651634D02*
X139969851Y-82365919D01*
X139969851Y-82365919D02*
X139922232Y-82508776D01*
X139922232Y-82508776D02*
X139826994Y-82604015D01*
X139826994Y-82604015D02*
X139684137Y-82651634D01*
X139684137Y-82651634D02*
X139588899Y-82651634D01*
X140493661Y-82651634D02*
X140684137Y-82651634D01*
X140684137Y-82651634D02*
X140779375Y-82604015D01*
X140779375Y-82604015D02*
X140826994Y-82556395D01*
X140826994Y-82556395D02*
X140922232Y-82413538D01*
X140922232Y-82413538D02*
X140969851Y-82223062D01*
X140969851Y-82223062D02*
X140969851Y-81842110D01*
X140969851Y-81842110D02*
X140922232Y-81746872D01*
X140922232Y-81746872D02*
X140874613Y-81699253D01*
X140874613Y-81699253D02*
X140779375Y-81651634D01*
X140779375Y-81651634D02*
X140588899Y-81651634D01*
X140588899Y-81651634D02*
X140493661Y-81699253D01*
X140493661Y-81699253D02*
X140446042Y-81746872D01*
X140446042Y-81746872D02*
X140398423Y-81842110D01*
X140398423Y-81842110D02*
X140398423Y-82080205D01*
X140398423Y-82080205D02*
X140446042Y-82175443D01*
X140446042Y-82175443D02*
X140493661Y-82223062D01*
X140493661Y-82223062D02*
X140588899Y-82270681D01*
X140588899Y-82270681D02*
X140779375Y-82270681D01*
X140779375Y-82270681D02*
X140874613Y-82223062D01*
X140874613Y-82223062D02*
X140922232Y-82175443D01*
X140922232Y-82175443D02*
X140969851Y-82080205D01*
X176604819Y-68209523D02*
X177319104Y-68209523D01*
X177319104Y-68209523D02*
X177461961Y-68257142D01*
X177461961Y-68257142D02*
X177557200Y-68352380D01*
X177557200Y-68352380D02*
X177604819Y-68495237D01*
X177604819Y-68495237D02*
X177604819Y-68590475D01*
X177604819Y-67209523D02*
X177604819Y-67780951D01*
X177604819Y-67495237D02*
X176604819Y-67495237D01*
X176604819Y-67495237D02*
X176747676Y-67590475D01*
X176747676Y-67590475D02*
X176842914Y-67685713D01*
X176842914Y-67685713D02*
X176890533Y-67780951D01*
X177033390Y-66638094D02*
X176985771Y-66733332D01*
X176985771Y-66733332D02*
X176938152Y-66780951D01*
X176938152Y-66780951D02*
X176842914Y-66828570D01*
X176842914Y-66828570D02*
X176795295Y-66828570D01*
X176795295Y-66828570D02*
X176700057Y-66780951D01*
X176700057Y-66780951D02*
X176652438Y-66733332D01*
X176652438Y-66733332D02*
X176604819Y-66638094D01*
X176604819Y-66638094D02*
X176604819Y-66447618D01*
X176604819Y-66447618D02*
X176652438Y-66352380D01*
X176652438Y-66352380D02*
X176700057Y-66304761D01*
X176700057Y-66304761D02*
X176795295Y-66257142D01*
X176795295Y-66257142D02*
X176842914Y-66257142D01*
X176842914Y-66257142D02*
X176938152Y-66304761D01*
X176938152Y-66304761D02*
X176985771Y-66352380D01*
X176985771Y-66352380D02*
X177033390Y-66447618D01*
X177033390Y-66447618D02*
X177033390Y-66638094D01*
X177033390Y-66638094D02*
X177081009Y-66733332D01*
X177081009Y-66733332D02*
X177128628Y-66780951D01*
X177128628Y-66780951D02*
X177223866Y-66828570D01*
X177223866Y-66828570D02*
X177414342Y-66828570D01*
X177414342Y-66828570D02*
X177509580Y-66780951D01*
X177509580Y-66780951D02*
X177557200Y-66733332D01*
X177557200Y-66733332D02*
X177604819Y-66638094D01*
X177604819Y-66638094D02*
X177604819Y-66447618D01*
X177604819Y-66447618D02*
X177557200Y-66352380D01*
X177557200Y-66352380D02*
X177509580Y-66304761D01*
X177509580Y-66304761D02*
X177414342Y-66257142D01*
X177414342Y-66257142D02*
X177223866Y-66257142D01*
X177223866Y-66257142D02*
X177128628Y-66304761D01*
X177128628Y-66304761D02*
X177081009Y-66352380D01*
X177081009Y-66352380D02*
X177033390Y-66447618D01*
X176604819Y-72809523D02*
X177319104Y-72809523D01*
X177319104Y-72809523D02*
X177461961Y-72857142D01*
X177461961Y-72857142D02*
X177557200Y-72952380D01*
X177557200Y-72952380D02*
X177604819Y-73095237D01*
X177604819Y-73095237D02*
X177604819Y-73190475D01*
X177604819Y-71809523D02*
X177604819Y-72380951D01*
X177604819Y-72095237D02*
X176604819Y-72095237D01*
X176604819Y-72095237D02*
X176747676Y-72190475D01*
X176747676Y-72190475D02*
X176842914Y-72285713D01*
X176842914Y-72285713D02*
X176890533Y-72380951D01*
X176604819Y-71476189D02*
X176604819Y-70809523D01*
X176604819Y-70809523D02*
X177604819Y-71238094D01*
X176604819Y-77409523D02*
X177319104Y-77409523D01*
X177319104Y-77409523D02*
X177461961Y-77457142D01*
X177461961Y-77457142D02*
X177557200Y-77552380D01*
X177557200Y-77552380D02*
X177604819Y-77695237D01*
X177604819Y-77695237D02*
X177604819Y-77790475D01*
X177604819Y-76409523D02*
X177604819Y-76980951D01*
X177604819Y-76695237D02*
X176604819Y-76695237D01*
X176604819Y-76695237D02*
X176747676Y-76790475D01*
X176747676Y-76790475D02*
X176842914Y-76885713D01*
X176842914Y-76885713D02*
X176890533Y-76980951D01*
X176604819Y-75552380D02*
X176604819Y-75742856D01*
X176604819Y-75742856D02*
X176652438Y-75838094D01*
X176652438Y-75838094D02*
X176700057Y-75885713D01*
X176700057Y-75885713D02*
X176842914Y-75980951D01*
X176842914Y-75980951D02*
X177033390Y-76028570D01*
X177033390Y-76028570D02*
X177414342Y-76028570D01*
X177414342Y-76028570D02*
X177509580Y-75980951D01*
X177509580Y-75980951D02*
X177557200Y-75933332D01*
X177557200Y-75933332D02*
X177604819Y-75838094D01*
X177604819Y-75838094D02*
X177604819Y-75647618D01*
X177604819Y-75647618D02*
X177557200Y-75552380D01*
X177557200Y-75552380D02*
X177509580Y-75504761D01*
X177509580Y-75504761D02*
X177414342Y-75457142D01*
X177414342Y-75457142D02*
X177176247Y-75457142D01*
X177176247Y-75457142D02*
X177081009Y-75504761D01*
X177081009Y-75504761D02*
X177033390Y-75552380D01*
X177033390Y-75552380D02*
X176985771Y-75647618D01*
X176985771Y-75647618D02*
X176985771Y-75838094D01*
X176985771Y-75838094D02*
X177033390Y-75933332D01*
X177033390Y-75933332D02*
X177081009Y-75980951D01*
X177081009Y-75980951D02*
X177176247Y-76028570D01*
X111474819Y-92229523D02*
X112189104Y-92229523D01*
X112189104Y-92229523D02*
X112331961Y-92277142D01*
X112331961Y-92277142D02*
X112427200Y-92372380D01*
X112427200Y-92372380D02*
X112474819Y-92515237D01*
X112474819Y-92515237D02*
X112474819Y-92610475D01*
X112474819Y-91229523D02*
X112474819Y-91800951D01*
X112474819Y-91515237D02*
X111474819Y-91515237D01*
X111474819Y-91515237D02*
X111617676Y-91610475D01*
X111617676Y-91610475D02*
X111712914Y-91705713D01*
X111712914Y-91705713D02*
X111760533Y-91800951D01*
X111474819Y-90324761D02*
X111474819Y-90800951D01*
X111474819Y-90800951D02*
X111951009Y-90848570D01*
X111951009Y-90848570D02*
X111903390Y-90800951D01*
X111903390Y-90800951D02*
X111855771Y-90705713D01*
X111855771Y-90705713D02*
X111855771Y-90467618D01*
X111855771Y-90467618D02*
X111903390Y-90372380D01*
X111903390Y-90372380D02*
X111951009Y-90324761D01*
X111951009Y-90324761D02*
X112046247Y-90277142D01*
X112046247Y-90277142D02*
X112284342Y-90277142D01*
X112284342Y-90277142D02*
X112379580Y-90324761D01*
X112379580Y-90324761D02*
X112427200Y-90372380D01*
X112427200Y-90372380D02*
X112474819Y-90467618D01*
X112474819Y-90467618D02*
X112474819Y-90705713D01*
X112474819Y-90705713D02*
X112427200Y-90800951D01*
X112427200Y-90800951D02*
X112379580Y-90848570D01*
X111474819Y-80309523D02*
X112189104Y-80309523D01*
X112189104Y-80309523D02*
X112331961Y-80357142D01*
X112331961Y-80357142D02*
X112427200Y-80452380D01*
X112427200Y-80452380D02*
X112474819Y-80595237D01*
X112474819Y-80595237D02*
X112474819Y-80690475D01*
X112474819Y-79309523D02*
X112474819Y-79880951D01*
X112474819Y-79595237D02*
X111474819Y-79595237D01*
X111474819Y-79595237D02*
X111617676Y-79690475D01*
X111617676Y-79690475D02*
X111712914Y-79785713D01*
X111712914Y-79785713D02*
X111760533Y-79880951D01*
X111808152Y-78452380D02*
X112474819Y-78452380D01*
X111427200Y-78690475D02*
X112141485Y-78928570D01*
X112141485Y-78928570D02*
X112141485Y-78309523D01*
X111474819Y-68229523D02*
X112189104Y-68229523D01*
X112189104Y-68229523D02*
X112331961Y-68277142D01*
X112331961Y-68277142D02*
X112427200Y-68372380D01*
X112427200Y-68372380D02*
X112474819Y-68515237D01*
X112474819Y-68515237D02*
X112474819Y-68610475D01*
X112474819Y-67229523D02*
X112474819Y-67800951D01*
X112474819Y-67515237D02*
X111474819Y-67515237D01*
X111474819Y-67515237D02*
X111617676Y-67610475D01*
X111617676Y-67610475D02*
X111712914Y-67705713D01*
X111712914Y-67705713D02*
X111760533Y-67800951D01*
X111474819Y-66896189D02*
X111474819Y-66277142D01*
X111474819Y-66277142D02*
X111855771Y-66610475D01*
X111855771Y-66610475D02*
X111855771Y-66467618D01*
X111855771Y-66467618D02*
X111903390Y-66372380D01*
X111903390Y-66372380D02*
X111951009Y-66324761D01*
X111951009Y-66324761D02*
X112046247Y-66277142D01*
X112046247Y-66277142D02*
X112284342Y-66277142D01*
X112284342Y-66277142D02*
X112379580Y-66324761D01*
X112379580Y-66324761D02*
X112427200Y-66372380D01*
X112427200Y-66372380D02*
X112474819Y-66467618D01*
X112474819Y-66467618D02*
X112474819Y-66753332D01*
X112474819Y-66753332D02*
X112427200Y-66848570D01*
X112427200Y-66848570D02*
X112379580Y-66896189D01*
X111474819Y-56229523D02*
X112189104Y-56229523D01*
X112189104Y-56229523D02*
X112331961Y-56277142D01*
X112331961Y-56277142D02*
X112427200Y-56372380D01*
X112427200Y-56372380D02*
X112474819Y-56515237D01*
X112474819Y-56515237D02*
X112474819Y-56610475D01*
X112474819Y-55229523D02*
X112474819Y-55800951D01*
X112474819Y-55515237D02*
X111474819Y-55515237D01*
X111474819Y-55515237D02*
X111617676Y-55610475D01*
X111617676Y-55610475D02*
X111712914Y-55705713D01*
X111712914Y-55705713D02*
X111760533Y-55800951D01*
X111570057Y-54848570D02*
X111522438Y-54800951D01*
X111522438Y-54800951D02*
X111474819Y-54705713D01*
X111474819Y-54705713D02*
X111474819Y-54467618D01*
X111474819Y-54467618D02*
X111522438Y-54372380D01*
X111522438Y-54372380D02*
X111570057Y-54324761D01*
X111570057Y-54324761D02*
X111665295Y-54277142D01*
X111665295Y-54277142D02*
X111760533Y-54277142D01*
X111760533Y-54277142D02*
X111903390Y-54324761D01*
X111903390Y-54324761D02*
X112474819Y-54896189D01*
X112474819Y-54896189D02*
X112474819Y-54277142D01*
X161993661Y-57351634D02*
X161993661Y-58065919D01*
X161993661Y-58065919D02*
X161946042Y-58208776D01*
X161946042Y-58208776D02*
X161850804Y-58304015D01*
X161850804Y-58304015D02*
X161707947Y-58351634D01*
X161707947Y-58351634D02*
X161612709Y-58351634D01*
X162993661Y-58351634D02*
X162422233Y-58351634D01*
X162707947Y-58351634D02*
X162707947Y-57351634D01*
X162707947Y-57351634D02*
X162612709Y-57494491D01*
X162612709Y-57494491D02*
X162517471Y-57589729D01*
X162517471Y-57589729D02*
X162422233Y-57637348D01*
X163946042Y-58351634D02*
X163374614Y-58351634D01*
X163660328Y-58351634D02*
X163660328Y-57351634D01*
X163660328Y-57351634D02*
X163565090Y-57494491D01*
X163565090Y-57494491D02*
X163469852Y-57589729D01*
X163469852Y-57589729D02*
X163374614Y-57637348D01*
D11*
%TO.C,J9*%
X142612000Y-80860000D02*
X142612000Y-63020000D01*
X142612000Y-83460000D02*
X142612000Y-82130000D01*
X143942000Y-83460000D02*
X142612000Y-83460000D01*
X145272000Y-63020000D02*
X142612000Y-63020000D01*
X145272000Y-80860000D02*
X142612000Y-80860000D01*
X145272000Y-80860000D02*
X145272000Y-63020000D01*
%TO.C,J8*%
X157972000Y-80860000D02*
X157972000Y-63020000D01*
X157972000Y-80860000D02*
X155312000Y-80860000D01*
X157972000Y-63020000D02*
X155312000Y-63020000D01*
X156642000Y-83460000D02*
X155312000Y-83460000D01*
X155312000Y-83460000D02*
X155312000Y-82130000D01*
X155312000Y-80860000D02*
X155312000Y-63020000D01*
%TO.C,J18*%
X181190000Y-68730000D02*
X186330000Y-68730000D01*
X181190000Y-68730000D02*
X181190000Y-66070000D01*
X186330000Y-68730000D02*
X186330000Y-66070000D01*
X178590000Y-67400000D02*
X178590000Y-66070000D01*
X178590000Y-66070000D02*
X179920000Y-66070000D01*
X181190000Y-66070000D02*
X186330000Y-66070000D01*
%TO.C,J17*%
X181190000Y-73330000D02*
X186330000Y-73330000D01*
X181190000Y-73330000D02*
X181190000Y-70670000D01*
X186330000Y-73330000D02*
X186330000Y-70670000D01*
X178590000Y-72000000D02*
X178590000Y-70670000D01*
X178590000Y-70670000D02*
X179920000Y-70670000D01*
X181190000Y-70670000D02*
X186330000Y-70670000D01*
%TO.C,J16*%
X181190000Y-77930000D02*
X186330000Y-77930000D01*
X181190000Y-77930000D02*
X181190000Y-75270000D01*
X186330000Y-77930000D02*
X186330000Y-75270000D01*
X178590000Y-76600000D02*
X178590000Y-75270000D01*
X178590000Y-75270000D02*
X179920000Y-75270000D01*
X181190000Y-75270000D02*
X186330000Y-75270000D01*
%TO.C,J15*%
X111020000Y-85920000D02*
X111020000Y-96920000D01*
X109400000Y-85920000D02*
X109400000Y-96920000D01*
X101650000Y-85920000D02*
X101650000Y-96920000D01*
X100530000Y-85920000D02*
X111020000Y-85920000D01*
X100530000Y-88280000D02*
X100530000Y-85920000D01*
X111020000Y-96920000D02*
X100530000Y-96920000D01*
X100530000Y-96920000D02*
X100530000Y-88880000D01*
X100530000Y-88580000D02*
X99920000Y-89020000D01*
X99920000Y-88140000D01*
X100530000Y-88580000D01*
G36*
X100530000Y-88580000D02*
G01*
X99920000Y-89020000D01*
X99920000Y-88140000D01*
X100530000Y-88580000D01*
G37*
%TO.C,J14*%
X111020000Y-74000000D02*
X111020000Y-85000000D01*
X109400000Y-74000000D02*
X109400000Y-85000000D01*
X101650000Y-74000000D02*
X101650000Y-85000000D01*
X100530000Y-74000000D02*
X111020000Y-74000000D01*
X100530000Y-76360000D02*
X100530000Y-74000000D01*
X111020000Y-85000000D02*
X100530000Y-85000000D01*
X100530000Y-85000000D02*
X100530000Y-76960000D01*
X100530000Y-76660000D02*
X99920000Y-77100000D01*
X99920000Y-76220000D01*
X100530000Y-76660000D01*
G36*
X100530000Y-76660000D02*
G01*
X99920000Y-77100000D01*
X99920000Y-76220000D01*
X100530000Y-76660000D01*
G37*
%TO.C,J13*%
X111020000Y-61920000D02*
X111020000Y-72920000D01*
X109400000Y-61920000D02*
X109400000Y-72920000D01*
X101650000Y-61920000D02*
X101650000Y-72920000D01*
X100530000Y-61920000D02*
X111020000Y-61920000D01*
X100530000Y-64280000D02*
X100530000Y-61920000D01*
X111020000Y-72920000D02*
X100530000Y-72920000D01*
X100530000Y-72920000D02*
X100530000Y-64880000D01*
X100530000Y-64580000D02*
X99920000Y-65020000D01*
X99920000Y-64140000D01*
X100530000Y-64580000D01*
G36*
X100530000Y-64580000D02*
G01*
X99920000Y-65020000D01*
X99920000Y-64140000D01*
X100530000Y-64580000D01*
G37*
%TO.C,J12*%
X111020000Y-49920000D02*
X111020000Y-60920000D01*
X109400000Y-49920000D02*
X109400000Y-60920000D01*
X101650000Y-49920000D02*
X101650000Y-60920000D01*
X100530000Y-49920000D02*
X111020000Y-49920000D01*
X100530000Y-52280000D02*
X100530000Y-49920000D01*
X111020000Y-60920000D02*
X100530000Y-60920000D01*
X100530000Y-60920000D02*
X100530000Y-52880000D01*
X100530000Y-52580000D02*
X99920000Y-53020000D01*
X99920000Y-52140000D01*
X100530000Y-52580000D01*
G36*
X100530000Y-52580000D02*
G01*
X99920000Y-53020000D01*
X99920000Y-52140000D01*
X100530000Y-52580000D01*
G37*
%TO.C,J11*%
X160720000Y-61020000D02*
X138780000Y-61020000D01*
X160720000Y-55400000D02*
X138780000Y-55400000D01*
X160720000Y-53780000D02*
X160720000Y-61020000D01*
X158800000Y-53780000D02*
X160720000Y-53780000D01*
X138780000Y-61020000D02*
X138780000Y-53780000D01*
X138780000Y-53780000D02*
X158200000Y-53780000D01*
X158500000Y-53780000D02*
X158060000Y-53170000D01*
X158940000Y-53170000D01*
X158500000Y-53780000D01*
G36*
X158500000Y-53780000D02*
G01*
X158060000Y-53170000D01*
X158940000Y-53170000D01*
X158500000Y-53780000D01*
G37*
%TO.C,J10*%
X139483185Y-86076815D02*
X161423185Y-86076815D01*
X139483185Y-91696815D02*
X161423185Y-91696815D01*
X139483185Y-93316815D02*
X139483185Y-86076815D01*
X141403185Y-93316815D02*
X139483185Y-93316815D01*
X161423185Y-86076815D02*
X161423185Y-93316815D01*
X161423185Y-93316815D02*
X142003185Y-93316815D01*
X142143185Y-93926815D02*
X141263185Y-93926815D01*
X141703185Y-93316815D01*
X142143185Y-93926815D01*
G36*
X142143185Y-93926815D02*
G01*
X141263185Y-93926815D01*
X141703185Y-93316815D01*
X142143185Y-93926815D01*
G37*
%TO.C,J7*%
X197850000Y-93710000D02*
X197850000Y-47870000D01*
X197850000Y-93710000D02*
X195250000Y-93710000D01*
X197850000Y-47870000D02*
X192650000Y-47870000D01*
X195250000Y-93710000D02*
X195250000Y-91110000D01*
X195250000Y-91110000D02*
X192650000Y-91110000D01*
X193980000Y-93710000D02*
X192650000Y-93710000D01*
X192650000Y-93710000D02*
X192650000Y-92380000D01*
X192650000Y-91110000D02*
X192650000Y-47870000D01*
%TO.C,J1*%
X129210000Y-98790000D02*
X147050000Y-98790000D01*
X129210000Y-98790000D02*
X129210000Y-96130000D01*
X147050000Y-98790000D02*
X147050000Y-96130000D01*
X126610000Y-97460000D02*
X126610000Y-96130000D01*
X126610000Y-96130000D02*
X127940000Y-96130000D01*
X129210000Y-96130000D02*
X147050000Y-96130000D01*
%TO.C,J3*%
X152070000Y-98790000D02*
X169910000Y-98790000D01*
X152070000Y-98790000D02*
X152070000Y-96130000D01*
X169910000Y-98790000D02*
X169910000Y-96130000D01*
X149470000Y-97460000D02*
X149470000Y-96130000D01*
X149470000Y-96130000D02*
X150800000Y-96130000D01*
X152070000Y-96130000D02*
X169910000Y-96130000D01*
%TO.C,J5*%
X174930000Y-98790000D02*
X192770000Y-98790000D01*
X174930000Y-98790000D02*
X174930000Y-96130000D01*
X192770000Y-98790000D02*
X192770000Y-96130000D01*
X172330000Y-97460000D02*
X172330000Y-96130000D01*
X172330000Y-96130000D02*
X173660000Y-96130000D01*
X174930000Y-96130000D02*
X192770000Y-96130000D01*
%TO.C,J2*%
X120066000Y-50530000D02*
X142986000Y-50530000D01*
X120066000Y-50530000D02*
X120066000Y-47870000D01*
X142986000Y-50530000D02*
X142986000Y-47870000D01*
X117466000Y-49200000D02*
X117466000Y-47870000D01*
X117466000Y-47870000D02*
X118796000Y-47870000D01*
X120066000Y-47870000D02*
X142986000Y-47870000D01*
%TO.C,J4*%
X146990000Y-50530000D02*
X164830000Y-50530000D01*
X146990000Y-50530000D02*
X146990000Y-47870000D01*
X164830000Y-50530000D02*
X164830000Y-47870000D01*
X144390000Y-49200000D02*
X144390000Y-47870000D01*
X144390000Y-47870000D02*
X145720000Y-47870000D01*
X146990000Y-47870000D02*
X164830000Y-47870000D01*
%TO.C,J6*%
X169850000Y-50530000D02*
X187690000Y-50530000D01*
X169850000Y-50530000D02*
X169850000Y-47870000D01*
X187690000Y-50530000D02*
X187690000Y-47870000D01*
X167250000Y-49200000D02*
X167250000Y-47870000D01*
X167250000Y-47870000D02*
X168580000Y-47870000D01*
X169850000Y-47870000D02*
X187690000Y-47870000D01*
%TD*%
M02*
