M48
; DRILL file {KiCad 9.0.7-9.0.7~ubuntu24.04.1} date 2026-02-04T21:28:14-0500
; FORMAT={-:-/ absolute / inch / decimal}
; #@! TF.CreationDate,2026-02-04T21:28:14-05:00
; #@! TF.GenerationSoftware,Kicad,Pcbnew,9.0.7-9.0.7~ubuntu24.04.1
; #@! TF.FileFunction,Plated,1,2,PTH
FMAT,2
INCH
; #@! TA.AperFunction,Plated,PTH,ComponentDrill
T1C0.0079
; #@! TA.AperFunction,Plated,PTH,ViaDrill
T2C0.0118
; #@! TA.AperFunction,Plated,PTH,ComponentDrill
T3C0.0118
; #@! TA.AperFunction,Plated,PTH,ComponentDrill
T4C0.0394
%
G90
G05
T1
X4.2106Y-3.5197
X4.2106Y-3.5512
X4.2106Y-3.5827
X4.2421Y-3.5197
X4.2421Y-3.5512
X4.2421Y-3.5827
X4.2736Y-3.5197
X4.2736Y-3.5512
X4.2736Y-3.5827
T2
X3.5717Y-3.6744
X3.5724Y-3.6335
X3.6598Y-3.9173
X3.7079Y-5.0846
X3.7079Y-5.1339
X3.7079Y-5.1831
X3.7079Y-5.2323
X3.7157Y-3.9185
X3.7177Y-4.8878
X3.7571Y-5.0846
X3.7571Y-5.1339
X3.7571Y-5.1831
X3.7571Y-5.2323
X3.9244Y-3.7657
X3.9567Y-4.2043
X4.0157Y-3.7402
X4.0157Y-3.7953
X4.0236Y-5.1063
X4.0236Y-5.1614
X4.0236Y-5.2165
X4.0472Y-3.7677
X4.0787Y-5.1063
X4.0787Y-5.1614
X4.0787Y-5.2165
X4.0823Y-3.6146
X4.2118Y-3.8602
X4.2118Y-3.9154
X4.5386Y-3.6961
X4.5945Y-3.6972
X4.648Y-5.1547
X4.6528Y-3.6992
X4.7197Y-3.6992
X4.811Y-5.1181
X4.9315Y-4.9496
X4.9874Y-4.3957
X4.9874Y-5.1732
X5.0236Y-5.0591
X5.0465Y-3.687
X5.0465Y-5.1732
X5.0748Y-5.0591
X5.1339Y-5.0591
X5.1449Y-5.1732
X5.1811Y-5.0591
X5.1941Y-5.1732
X5.2874Y-4.9173
T3
X4.685Y-4.9213
X4.685Y-4.9646
X4.685Y-5.0157
X4.685Y-5.063
X4.7323Y-4.9213
X4.7323Y-4.9646
X4.7323Y-5.0157
X4.7323Y-5.063
T4
X3.5197Y-4.9764
X3.6197Y-4.9764
X3.6803Y-3.4114
X3.7197Y-4.9764
X3.7803Y-3.4114
X3.8197Y-4.9764
X3.8803Y-3.4114
X3.9197Y-4.9764
X4.0197Y-4.9764
X4.2138Y-4.4368
X4.2138Y-4.5368
X4.2138Y-4.6368
X4.9898Y-3.4193
X5.0898Y-3.4193
X5.1898Y-3.4193
M30
