%TF.GenerationSoftware,KiCad,Pcbnew,9.0.7-9.0.7~ubuntu24.04.1*%
%TF.CreationDate,2026-02-04T21:28:14-05:00*%
%TF.ProjectId,PCBA_Board,50434241-5f42-46f6-9172-642e6b696361,rev?*%
%TF.SameCoordinates,Original*%
%TF.FileFunction,Copper,L1,Top*%
%TF.FilePolarity,Positive*%
%FSLAX46Y46*%
G04 Gerber Fmt 4.6, Leading zero omitted, Abs format (unit mm)*
G04 Created by KiCad (PCBNEW 9.0.7-9.0.7~ubuntu24.04.1) date 2026-02-04 21:28:14*
%MOMM*%
%LPD*%
G01*
G04 APERTURE LIST*
G04 Aperture macros list*
%AMRoundRect*
0 Rectangle with rounded corners*
0 $1 Rounding radius*
0 $2 $3 $4 $5 $6 $7 $8 $9 X,Y pos of 4 corners*
0 Add a 4 corners polygon primitive as box body*
4,1,4,$2,$3,$4,$5,$6,$7,$8,$9,$2,$3,0*
0 Add four circle primitives for the rounded corners*
1,1,$1+$1,$2,$3*
1,1,$1+$1,$4,$5*
1,1,$1+$1,$6,$7*
1,1,$1+$1,$8,$9*
0 Add four rect primitives between the rounded corners*
20,1,$1+$1,$2,$3,$4,$5,0*
20,1,$1+$1,$4,$5,$6,$7,0*
20,1,$1+$1,$6,$7,$8,$9,0*
20,1,$1+$1,$8,$9,$2,$3,0*%
%AMFreePoly0*
4,1,37,0.800000,0.796148,0.878414,0.796148,1.032228,0.765552,1.177117,0.705537,1.307515,0.618408,1.418408,0.507515,1.505537,0.377117,1.565552,0.232228,1.596148,0.078414,1.596148,-0.078414,1.565552,-0.232228,1.505537,-0.377117,1.418408,-0.507515,1.307515,-0.618408,1.177117,-0.705537,1.032228,-0.765552,0.878414,-0.796148,0.800000,-0.796148,0.800000,-0.800000,-1.400000,-0.800000,
-1.403843,-0.796157,-1.439018,-0.796157,-1.511114,-0.766294,-1.566294,-0.711114,-1.596157,-0.639018,-1.596157,-0.603843,-1.600000,-0.600000,-1.600000,0.600000,-1.596157,0.603843,-1.596157,0.639018,-1.566294,0.711114,-1.511114,0.766294,-1.439018,0.796157,-1.403843,0.796157,-1.400000,0.800000,0.800000,0.800000,0.800000,0.796148,0.800000,0.796148,$1*%
%AMFreePoly1*
4,1,37,1.403843,0.796157,1.439018,0.796157,1.511114,0.766294,1.566294,0.711114,1.596157,0.639018,1.596157,0.603843,1.600000,0.600000,1.600000,-0.600000,1.596157,-0.603843,1.596157,-0.639018,1.566294,-0.711114,1.511114,-0.766294,1.439018,-0.796157,1.403843,-0.796157,1.400000,-0.800000,-0.800000,-0.800000,-0.800000,-0.796148,-0.878414,-0.796148,-1.032228,-0.765552,-1.177117,-0.705537,
-1.307515,-0.618408,-1.418408,-0.507515,-1.505537,-0.377117,-1.565552,-0.232228,-1.596148,-0.078414,-1.596148,0.078414,-1.565552,0.232228,-1.505537,0.377117,-1.418408,0.507515,-1.307515,0.618408,-1.177117,0.705537,-1.032228,0.765552,-0.878414,0.796148,-0.800000,0.796148,-0.800000,0.800000,1.400000,0.800000,1.403843,0.796157,1.403843,0.796157,$1*%
G04 Aperture macros list end*
%TA.AperFunction,SMDPad,CuDef*%
%ADD10RoundRect,0.250000X0.250000X2.500000X-0.250000X2.500000X-0.250000X-2.500000X0.250000X-2.500000X0*%
%TD*%
%TA.AperFunction,SMDPad,CuDef*%
%ADD11RoundRect,0.250000X0.550000X1.250000X-0.550000X1.250000X-0.550000X-1.250000X0.550000X-1.250000X0*%
%TD*%
%TA.AperFunction,SMDPad,CuDef*%
%ADD12RoundRect,0.200000X0.200000X0.275000X-0.200000X0.275000X-0.200000X-0.275000X0.200000X-0.275000X0*%
%TD*%
%TA.AperFunction,ComponentPad*%
%ADD13C,1.600000*%
%TD*%
%TA.AperFunction,ComponentPad*%
%ADD14RoundRect,0.200000X-0.600000X0.600000X-0.600000X-0.600000X0.600000X-0.600000X0.600000X0.600000X0*%
%TD*%
%TA.AperFunction,SMDPad,CuDef*%
%ADD15RoundRect,0.800000X-0.000010X0.800000X-0.000010X-0.800000X0.000010X-0.800000X0.000010X0.800000X0*%
%TD*%
%TA.AperFunction,SMDPad,CuDef*%
%ADD16FreePoly0,270.000000*%
%TD*%
%TA.AperFunction,SMDPad,CuDef*%
%ADD17FreePoly1,270.000000*%
%TD*%
%TA.AperFunction,SMDPad,CuDef*%
%ADD18RoundRect,0.140000X-0.140000X-0.170000X0.140000X-0.170000X0.140000X0.170000X-0.140000X0.170000X0*%
%TD*%
%TA.AperFunction,SMDPad,CuDef*%
%ADD19RoundRect,0.140000X0.140000X0.170000X-0.140000X0.170000X-0.140000X-0.170000X0.140000X-0.170000X0*%
%TD*%
%TA.AperFunction,SMDPad,CuDef*%
%ADD20RoundRect,0.250000X-0.450000X0.262500X-0.450000X-0.262500X0.450000X-0.262500X0.450000X0.262500X0*%
%TD*%
%TA.AperFunction,SMDPad,CuDef*%
%ADD21RoundRect,0.200000X0.275000X-0.200000X0.275000X0.200000X-0.275000X0.200000X-0.275000X-0.200000X0*%
%TD*%
%TA.AperFunction,SMDPad,CuDef*%
%ADD22RoundRect,0.200000X-0.275000X0.200000X-0.275000X-0.200000X0.275000X-0.200000X0.275000X0.200000X0*%
%TD*%
%TA.AperFunction,SMDPad,CuDef*%
%ADD23RoundRect,0.250000X0.600000X2.600000X-0.600000X2.600000X-0.600000X-2.600000X0.600000X-2.600000X0*%
%TD*%
%TA.AperFunction,ComponentPad*%
%ADD24R,1.700000X1.700000*%
%TD*%
%TA.AperFunction,ComponentPad*%
%ADD25C,1.700000*%
%TD*%
%TA.AperFunction,SMDPad,CuDef*%
%ADD26RoundRect,0.250000X0.325000X1.100000X-0.325000X1.100000X-0.325000X-1.100000X0.325000X-1.100000X0*%
%TD*%
%TA.AperFunction,SMDPad,CuDef*%
%ADD27RoundRect,0.250000X-0.475000X0.250000X-0.475000X-0.250000X0.475000X-0.250000X0.475000X0.250000X0*%
%TD*%
%TA.AperFunction,SMDPad,CuDef*%
%ADD28RoundRect,0.225000X0.225000X0.250000X-0.225000X0.250000X-0.225000X-0.250000X0.225000X-0.250000X0*%
%TD*%
%TA.AperFunction,SMDPad,CuDef*%
%ADD29RoundRect,0.250000X-0.250000X-0.475000X0.250000X-0.475000X0.250000X0.475000X-0.250000X0.475000X0*%
%TD*%
%TA.AperFunction,SMDPad,CuDef*%
%ADD30RoundRect,0.225000X-0.225000X-0.250000X0.225000X-0.250000X0.225000X0.250000X-0.225000X0.250000X0*%
%TD*%
%TA.AperFunction,SMDPad,CuDef*%
%ADD31RoundRect,0.250000X-1.100000X0.325000X-1.100000X-0.325000X1.100000X-0.325000X1.100000X0.325000X0*%
%TD*%
%TA.AperFunction,SMDPad,CuDef*%
%ADD32R,1.550000X0.600000*%
%TD*%
%TA.AperFunction,ComponentPad*%
%ADD33C,0.600000*%
%TD*%
%TA.AperFunction,SMDPad,CuDef*%
%ADD34R,2.600000X3.100000*%
%TD*%
%TA.AperFunction,SMDPad,CuDef*%
%ADD35R,2.950000X4.500000*%
%TD*%
%TA.AperFunction,SMDPad,CuDef*%
%ADD36RoundRect,0.087500X-0.087500X0.425000X-0.087500X-0.425000X0.087500X-0.425000X0.087500X0.425000X0*%
%TD*%
%TA.AperFunction,SMDPad,CuDef*%
%ADD37RoundRect,0.087500X-0.425000X0.087500X-0.425000X-0.087500X0.425000X-0.087500X0.425000X0.087500X0*%
%TD*%
%TA.AperFunction,HeatsinkPad*%
%ADD38C,0.500000*%
%TD*%
%TA.AperFunction,HeatsinkPad*%
%ADD39R,2.100000X2.100000*%
%TD*%
%TA.AperFunction,SMDPad,CuDef*%
%ADD40RoundRect,0.150000X0.150000X-0.587500X0.150000X0.587500X-0.150000X0.587500X-0.150000X-0.587500X0*%
%TD*%
%TA.AperFunction,SMDPad,CuDef*%
%ADD41RoundRect,0.150000X0.625000X-0.150000X0.625000X0.150000X-0.625000X0.150000X-0.625000X-0.150000X0*%
%TD*%
%TA.AperFunction,SMDPad,CuDef*%
%ADD42RoundRect,0.250000X0.650000X-0.350000X0.650000X0.350000X-0.650000X0.350000X-0.650000X-0.350000X0*%
%TD*%
%TA.AperFunction,SMDPad,CuDef*%
%ADD43RoundRect,0.250000X-1.000000X-0.650000X1.000000X-0.650000X1.000000X0.650000X-1.000000X0.650000X0*%
%TD*%
%TA.AperFunction,ViaPad*%
%ADD44C,0.600000*%
%TD*%
%TA.AperFunction,Conductor*%
%ADD45C,1.000000*%
%TD*%
%TA.AperFunction,Conductor*%
%ADD46C,0.300000*%
%TD*%
%TA.AperFunction,Conductor*%
%ADD47C,0.500000*%
%TD*%
%TA.AperFunction,Conductor*%
%ADD48C,0.700000*%
%TD*%
G04 APERTURE END LIST*
D10*
%TO.P,J2,1,Pin_1*%
%TO.N,Net-(J1-Pin_2)*%
X124890000Y-136560000D03*
%TO.P,J2,2,Pin_2*%
%TO.N,GND*%
X122890000Y-136560000D03*
D11*
%TO.P,J2,MP,MountPin*%
X127290000Y-138810000D03*
X120490000Y-138810000D03*
%TD*%
D10*
%TO.P,J1,1,Pin_1*%
%TO.N,+BATT*%
X134570000Y-136600000D03*
%TO.P,J1,2,Pin_2*%
%TO.N,Net-(J1-Pin_2)*%
X132570000Y-136600000D03*
D11*
%TO.P,J1,MP,MountPin*%
%TO.N,GND*%
X136970000Y-138850000D03*
X130170000Y-138850000D03*
%TD*%
D12*
%TO.P,R6,2*%
%TO.N,GND*%
X127575000Y-124800000D03*
%TO.P,R6,1*%
%TO.N,/VbatSense*%
X129225000Y-124800000D03*
%TD*%
D13*
%TO.P,A1,D3*%
%TO.N,N/C*%
X107030000Y-117774100D03*
%TO.P,A1,D2*%
X107030000Y-115234100D03*
D14*
%TO.P,A1,D1*%
X107030000Y-112694100D03*
D15*
%TO.P,A1,40,VBUS*%
%TO.N,unconnected-(A1-VBUS-Pad40)*%
X136860000Y-121800000D03*
%TO.P,A1,39,VSYS*%
%TO.N,+5V*%
X134320000Y-121800000D03*
D16*
%TO.P,A1,38,GND*%
%TO.N,GND*%
X131780000Y-121800000D03*
D15*
%TO.P,A1,37,3V3_EN*%
%TO.N,unconnected-(A1-3V3_EN-Pad37)*%
X129240000Y-121800000D03*
%TO.P,A1,36,3V3*%
%TO.N,+3.3V*%
X126700000Y-121800000D03*
%TO.P,A1,35,ADC_VREF*%
%TO.N,unconnected-(A1-ADC_VREF-Pad35)*%
X124160000Y-121800000D03*
%TO.P,A1,34,GPIO28_ADC2*%
%TO.N,/VbatSense*%
X121620000Y-121800000D03*
D16*
%TO.P,A1,33,AGND*%
%TO.N,unconnected-(A1-AGND-Pad33)*%
X119080000Y-121800000D03*
D15*
%TO.P,A1,32,GPIO27_ADC1*%
%TO.N,unconnected-(A1-GPIO27_ADC1-Pad32)*%
X116540000Y-121800000D03*
%TO.P,A1,31,GPIO26_ADC0*%
%TO.N,unconnected-(A1-GPIO26_ADC0-Pad31)*%
X114000000Y-121800000D03*
%TO.P,A1,30,RUN*%
%TO.N,unconnected-(A1-RUN-Pad30)*%
X111460000Y-121800000D03*
%TO.P,A1,29,GPIO22*%
%TO.N,unconnected-(A1-GPIO22-Pad29)*%
X108920000Y-121800000D03*
D16*
%TO.P,A1,28,GND*%
%TO.N,GND*%
X106380000Y-121800000D03*
D15*
%TO.P,A1,27,GPIO21*%
%TO.N,unconnected-(A1-GPIO21-Pad27)*%
X103840000Y-121800000D03*
%TO.P,A1,26,GPIO20*%
%TO.N,unconnected-(A1-GPIO20-Pad26)*%
X101300000Y-121800000D03*
%TO.P,A1,25,GPIO19*%
%TO.N,/MOSI*%
X98760000Y-121800000D03*
%TO.P,A1,24,GPIO18*%
%TO.N,/SCK*%
X96220000Y-121800000D03*
D16*
%TO.P,A1,23,GND*%
%TO.N,GND*%
X93680000Y-121800000D03*
D15*
%TO.P,A1,22,GPIO17*%
%TO.N,/CS*%
X91140000Y-121800000D03*
%TO.P,A1,21,GPIO16*%
%TO.N,/MISO*%
X88600000Y-121800000D03*
%TO.P,A1,20,GPIO15*%
%TO.N,/ServoB_PWR*%
X88600000Y-102420000D03*
%TO.P,A1,19,GPIO14*%
%TO.N,/ServoB_PWM*%
X91140000Y-102420000D03*
D17*
%TO.P,A1,18,GND*%
%TO.N,GND*%
X93680000Y-102420000D03*
D15*
%TO.P,A1,17,GPIO13*%
%TO.N,/ENC_B1*%
X96220000Y-102420000D03*
%TO.P,A1,16,GPIO12*%
%TO.N,/ENC_B2*%
X98760000Y-102420000D03*
%TO.P,A1,15,GPIO11*%
%TO.N,/BIN1*%
X101300000Y-102420000D03*
%TO.P,A1,14,GPIO10*%
%TO.N,/BIN2*%
X103840000Y-102420000D03*
D17*
%TO.P,A1,13,GND*%
%TO.N,GND*%
X106380000Y-102420000D03*
D15*
%TO.P,A1,12,GPIO9*%
%TO.N,/AIN2*%
X108920000Y-102420000D03*
%TO.P,A1,11,GPIO8*%
%TO.N,/AIN1*%
X111460000Y-102420000D03*
%TO.P,A1,10,GPIO7*%
%TO.N,/nSleep*%
X114000000Y-102420000D03*
%TO.P,A1,9,GPIO6*%
%TO.N,unconnected-(A1-GPIO6-Pad9)*%
X116540000Y-102420000D03*
D17*
%TO.P,A1,8,GND*%
%TO.N,GND*%
X119080000Y-102420000D03*
D15*
%TO.P,A1,7,GPIO5*%
%TO.N,/ENC_A2*%
X121620000Y-102420000D03*
%TO.P,A1,6,GPIO4*%
%TO.N,/ENC_A1*%
X124160000Y-102420000D03*
%TO.P,A1,5,GPIO3*%
%TO.N,unconnected-(A1-GPIO3-Pad5)*%
X126700000Y-102420000D03*
%TO.P,A1,4,GPIO2*%
%TO.N,unconnected-(A1-GPIO2-Pad4)*%
X129240000Y-102420000D03*
D17*
%TO.P,A1,3,GND*%
%TO.N,GND*%
X131780000Y-102420000D03*
D15*
%TO.P,A1,2,GPIO1*%
%TO.N,/ServoA_PWM*%
X134320000Y-102420000D03*
D16*
%TO.P,A1,1,GPIO0*%
%TO.N,/ServoA_PWR*%
X136860000Y-102420000D03*
%TD*%
D18*
%TO.P,C12,1*%
%TO.N,GND*%
X108120000Y-93500000D03*
%TO.P,C12,2*%
%TO.N,Net-(U1-VINT)*%
X109080000Y-93500000D03*
%TD*%
D19*
%TO.P,C10,1*%
%TO.N,+BATT*%
X107180000Y-93500000D03*
%TO.P,C10,2*%
%TO.N,Net-(U1-VCP)*%
X106220000Y-93500000D03*
%TD*%
D20*
%TO.P,R7,1*%
%TO.N,Net-(Q2-G)*%
X88880000Y-96325000D03*
%TO.P,R7,2*%
%TO.N,/ServoB_PWR*%
X88880000Y-98150000D03*
%TD*%
%TO.P,R2,1*%
%TO.N,Net-(Q1-G)*%
X136880000Y-97137500D03*
%TO.P,R2,2*%
%TO.N,/ServoA_PWR*%
X136880000Y-98962500D03*
%TD*%
D21*
%TO.P,R3,2*%
%TO.N,/Vsns*%
X105200000Y-124975000D03*
%TO.P,R3,1*%
%TO.N,+5V*%
X105200000Y-126625000D03*
%TD*%
D22*
%TO.P,R4,2*%
%TO.N,GND*%
X106900000Y-126625000D03*
%TO.P,R4,1*%
%TO.N,/Vsns*%
X106900000Y-124975000D03*
%TD*%
D23*
%TO.P,L1,1,1*%
%TO.N,Net-(D2-K)*%
X110890000Y-132200000D03*
%TO.P,L1,2,2*%
%TO.N,+5V*%
X106390000Y-132200000D03*
%TD*%
D12*
%TO.P,R5,1*%
%TO.N,+BATT*%
X132525000Y-124800000D03*
%TO.P,R5,2*%
%TO.N,/VbatSense*%
X130875000Y-124800000D03*
%TD*%
D22*
%TO.P,R1,1*%
%TO.N,Net-(C6-Pad2)*%
X108700000Y-124975000D03*
%TO.P,R1,2*%
%TO.N,GND*%
X108700000Y-126625000D03*
%TD*%
D24*
%TO.P,J7,1,Pin_1*%
%TO.N,/ServoB_PWM*%
X98560000Y-86650000D03*
D25*
%TO.P,J7,2,Pin_2*%
%TO.N,+5V*%
X96020000Y-86650000D03*
%TO.P,J7,3,Pin_3*%
%TO.N,Net-(J7-Pin_3)*%
X93480000Y-86650000D03*
%TD*%
%TO.P,J5,6,Pin_6*%
%TO.N,GND*%
X89400000Y-126400000D03*
%TO.P,J5,5,Pin_5*%
%TO.N,/MISO*%
X91940000Y-126400000D03*
%TO.P,J5,4,Pin_4*%
%TO.N,/CS*%
X94480000Y-126400000D03*
%TO.P,J5,3,Pin_3*%
%TO.N,/SCK*%
X97020000Y-126400000D03*
%TO.P,J5,2,Pin_2*%
%TO.N,/MOSI*%
X99560000Y-126400000D03*
D24*
%TO.P,J5,1,Pin_1*%
%TO.N,+5V*%
X102100000Y-126400000D03*
%TD*%
D26*
%TO.P,C11,1*%
%TO.N,+BATT*%
X107000000Y-95750000D03*
%TO.P,C11,2*%
%TO.N,GND*%
X104050000Y-95750000D03*
%TD*%
%TO.P,C9,1*%
%TO.N,+5V*%
X99975000Y-133600000D03*
%TO.P,C9,2*%
%TO.N,GND*%
X97025000Y-133600000D03*
%TD*%
%TO.P,C8,1*%
%TO.N,+5V*%
X100075000Y-130000000D03*
%TO.P,C8,2*%
%TO.N,GND*%
X97125000Y-130000000D03*
%TD*%
D27*
%TO.P,C7,1*%
%TO.N,Net-(U2-COMP)*%
X114200000Y-125650000D03*
%TO.P,C7,2*%
%TO.N,GND*%
X114200000Y-127550000D03*
%TD*%
D28*
%TO.P,C6,1*%
%TO.N,Net-(U2-COMP)*%
X112175000Y-125500000D03*
%TO.P,C6,2*%
%TO.N,Net-(C6-Pad2)*%
X110625000Y-125500000D03*
%TD*%
D29*
%TO.P,C5,1*%
%TO.N,Net-(D2-K)*%
X115030000Y-130700000D03*
%TO.P,C5,2*%
%TO.N,Net-(U2-BOOT)*%
X116930000Y-130700000D03*
%TD*%
D30*
%TO.P,C4,1*%
%TO.N,Net-(U2-SS)*%
X124300000Y-124800000D03*
%TO.P,C4,2*%
%TO.N,GND*%
X125850000Y-124800000D03*
%TD*%
D27*
%TO.P,C3,1*%
%TO.N,+BATT*%
X124700000Y-127150000D03*
%TO.P,C3,2*%
%TO.N,GND*%
X124700000Y-129050000D03*
%TD*%
D31*
%TO.P,C2,1*%
%TO.N,+BATT*%
X131200000Y-127025000D03*
%TO.P,C2,2*%
%TO.N,GND*%
X131200000Y-129975000D03*
%TD*%
%TO.P,C1,1*%
%TO.N,+BATT*%
X127600000Y-127025000D03*
%TO.P,C1,2*%
%TO.N,GND*%
X127600000Y-129975000D03*
%TD*%
D32*
%TO.P,U2,1,BOOT*%
%TO.N,Net-(U2-BOOT)*%
X122300000Y-128705000D03*
%TO.P,U2,2,Vin*%
%TO.N,+BATT*%
X122300000Y-127435000D03*
%TO.P,U2,3,EN*%
%TO.N,unconnected-(U2-EN-Pad3)*%
X122300000Y-126165000D03*
%TO.P,U2,4,SS*%
%TO.N,Net-(U2-SS)*%
X122300000Y-124895000D03*
%TO.P,U2,5,Vsense*%
%TO.N,/Vsns*%
X116900000Y-124895000D03*
%TO.P,U2,6,COMP*%
%TO.N,Net-(U2-COMP)*%
X116900000Y-126165000D03*
%TO.P,U2,7,GND*%
%TO.N,GND*%
X116900000Y-127435000D03*
%TO.P,U2,8,PH*%
%TO.N,Net-(D2-K)*%
X116900000Y-128705000D03*
D33*
%TO.P,U2,9,EP*%
%TO.N,GND*%
X120200000Y-128600000D03*
X120200000Y-127400000D03*
X120200000Y-126100000D03*
X120200000Y-125000000D03*
D34*
X119600000Y-126800000D03*
D35*
X119600000Y-126800000D03*
D33*
X119000000Y-128600000D03*
X119000000Y-127400000D03*
X119000000Y-126100000D03*
X119000000Y-125000000D03*
%TD*%
D36*
%TO.P,U1,1,AISEN*%
%TO.N,GND*%
X108725000Y-88337500D03*
%TO.P,U1,2,AOUT2*%
%TO.N,/AOUT2*%
X108075000Y-88337500D03*
%TO.P,U1,3,BOUT2*%
%TO.N,/BOUT2*%
X107425000Y-88337500D03*
%TO.P,U1,4,BISEN*%
%TO.N,GND*%
X106775000Y-88337500D03*
D37*
%TO.P,U1,5,BOUT1*%
%TO.N,/BOUT1*%
X105887500Y-89225000D03*
%TO.P,U1,6,~{FAULT}*%
%TO.N,unconnected-(U1-~{FAULT}-Pad6)*%
X105887500Y-89875000D03*
%TO.P,U1,7,BIN1*%
%TO.N,/BIN1*%
X105887500Y-90525000D03*
%TO.P,U1,8,BIN2*%
%TO.N,/BIN2*%
X105887500Y-91175000D03*
D36*
%TO.P,U1,9,VCP*%
%TO.N,Net-(U1-VCP)*%
X106775000Y-92062500D03*
%TO.P,U1,10,VM*%
%TO.N,+BATT*%
X107425000Y-92062500D03*
%TO.P,U1,11,GND*%
%TO.N,GND*%
X108075000Y-92062500D03*
%TO.P,U1,12,VINT*%
%TO.N,Net-(U1-VINT)*%
X108725000Y-92062500D03*
D37*
%TO.P,U1,13,AIN2*%
%TO.N,/AIN2*%
X109612500Y-91175000D03*
%TO.P,U1,14,AIN1*%
%TO.N,/AIN1*%
X109612500Y-90525000D03*
%TO.P,U1,15,~{SLEEP}*%
%TO.N,/nSleep*%
X109612500Y-89875000D03*
%TO.P,U1,16,AOUT1*%
%TO.N,/AOUT1*%
X109612500Y-89225000D03*
D38*
%TO.P,U1,17,GND*%
%TO.N,GND*%
X108550000Y-89400000D03*
X107750000Y-89400000D03*
X106950000Y-89400000D03*
X108550000Y-90200000D03*
X107750000Y-90200000D03*
D39*
X107750000Y-90200000D03*
D38*
X106950000Y-90200000D03*
X108550000Y-91000000D03*
X107750000Y-91000000D03*
X106950000Y-91000000D03*
%TD*%
D40*
%TO.P,Q2,1,G*%
%TO.N,Net-(Q2-G)*%
X88980000Y-90750000D03*
%TO.P,Q2,2,S*%
%TO.N,GND*%
X90880000Y-90750000D03*
%TO.P,Q2,3,D*%
%TO.N,Net-(J7-Pin_3)*%
X89930000Y-88875000D03*
%TD*%
%TO.P,Q1,1,G*%
%TO.N,Net-(Q1-G)*%
X135430000Y-93487500D03*
%TO.P,Q1,2,S*%
%TO.N,GND*%
X137330000Y-93487500D03*
%TO.P,Q1,3,D*%
%TO.N,Net-(J6-Pin_3)*%
X136380000Y-91612500D03*
%TD*%
D41*
%TO.P,J4,1,Pin_1*%
%TO.N,GND*%
X96325000Y-96500000D03*
%TO.P,J4,2,Pin_2*%
%TO.N,/ENC_B1*%
X96325000Y-95500000D03*
%TO.P,J4,3,Pin_3*%
%TO.N,/ENC_B2*%
X96325000Y-94500000D03*
%TO.P,J4,4,Pin_4*%
%TO.N,+3.3V*%
X96325000Y-93500000D03*
%TO.P,J4,5,Pin_5*%
%TO.N,/BOUT1*%
X96325000Y-92500000D03*
%TO.P,J4,6,Pin_6*%
%TO.N,/BOUT2*%
X96325000Y-91500000D03*
D42*
%TO.P,J4,MP,MountPin*%
%TO.N,GND*%
X93800000Y-97800000D03*
X93800000Y-90200000D03*
%TD*%
D41*
%TO.P,J3,1,Pin_1*%
%TO.N,GND*%
X131825000Y-96500000D03*
%TO.P,J3,2,Pin_2*%
%TO.N,/ENC_A1*%
X131825000Y-95500000D03*
%TO.P,J3,3,Pin_3*%
%TO.N,/ENC_A2*%
X131825000Y-94500000D03*
%TO.P,J3,4,Pin_4*%
%TO.N,+3.3V*%
X131825000Y-93500000D03*
%TO.P,J3,5,Pin_5*%
%TO.N,/AOUT1*%
X131825000Y-92500000D03*
%TO.P,J3,6,Pin_6*%
%TO.N,/AOUT2*%
X131825000Y-91500000D03*
D42*
%TO.P,J3,MP,MountPin*%
%TO.N,GND*%
X129300000Y-97800000D03*
X129300000Y-90200000D03*
%TD*%
D43*
%TO.P,D2,1,K*%
%TO.N,Net-(D2-K)*%
X114170000Y-133600000D03*
%TO.P,D2,2,A*%
%TO.N,GND*%
X118170000Y-133600000D03*
%TD*%
D24*
%TO.P,J6,1,Pin_1*%
%TO.N,/ServoA_PWM*%
X126740000Y-86850000D03*
D25*
%TO.P,J6,2,Pin_2*%
%TO.N,+5V*%
X129280000Y-86850000D03*
%TO.P,J6,3,Pin_3*%
%TO.N,Net-(J6-Pin_3)*%
X131820000Y-86850000D03*
%TD*%
D44*
%TO.N,GND*%
X125260000Y-125720000D03*
X94380000Y-99530000D03*
X92960000Y-99500000D03*
X103690000Y-91810000D03*
X119880000Y-93960000D03*
X118180000Y-93960000D03*
X116700000Y-93910000D03*
X115280000Y-93880000D03*
X131930000Y-131400000D03*
X130680000Y-131400000D03*
X128180000Y-131400000D03*
X126680000Y-131400000D03*
X94180000Y-129150000D03*
X94180000Y-130400000D03*
X94180000Y-131650000D03*
X94180000Y-132900000D03*
X95430000Y-132900000D03*
X95430000Y-131650000D03*
X95430000Y-130400000D03*
X95430000Y-129150000D03*
X94430000Y-124150000D03*
X90720000Y-93330000D03*
X90740000Y-92290000D03*
%TO.N,+3.3V*%
X99680000Y-95650000D03*
X100500000Y-106790000D03*
X126680000Y-111650000D03*
X128180000Y-93650000D03*
%TO.N,+BATT*%
X106980000Y-98050000D03*
X106980000Y-99450000D03*
X131600000Y-128500000D03*
X130400000Y-128500000D03*
X128900000Y-128500000D03*
X127600000Y-128500000D03*
%TO.N,+5V*%
X134300000Y-124900000D03*
X103600000Y-132500000D03*
X102200000Y-132500000D03*
X103600000Y-131100000D03*
X102200000Y-131100000D03*
X103600000Y-129700000D03*
X102200000Y-129700000D03*
%TO.N,Net-(U2-BOOT)*%
X118060000Y-130930000D03*
X122200000Y-130000000D03*
%TO.N,GND*%
X102800000Y-95700000D03*
X102000000Y-96400000D03*
X102000000Y-95000000D03*
%TD*%
D45*
%TO.N,+BATT*%
X134570000Y-136600000D02*
X134570000Y-128840000D01*
X134570000Y-128840000D02*
X132755000Y-127025000D01*
X132755000Y-127025000D02*
X131200000Y-127025000D01*
D46*
%TO.N,Net-(U2-BOOT)*%
X118060000Y-130930000D02*
X117480000Y-130930000D01*
X117040000Y-130910000D02*
X116950000Y-131000000D01*
X117480000Y-130930000D02*
X117460000Y-130910000D01*
X117460000Y-130910000D02*
X117040000Y-130910000D01*
%TO.N,+BATT*%
X107180000Y-93500000D02*
X107180000Y-95570000D01*
X107180000Y-95570000D02*
X107000000Y-95750000D01*
X107425000Y-92062500D02*
X107425000Y-93255000D01*
X107425000Y-93255000D02*
X107180000Y-93500000D01*
%TO.N,Net-(U1-VCP)*%
X106220000Y-93500000D02*
X106220000Y-92617500D01*
X106220000Y-92617500D02*
X106775000Y-92062500D01*
%TO.N,+3.3V*%
X100500000Y-106790000D02*
X100500000Y-107620000D01*
X100500000Y-107620000D02*
X103030000Y-110150000D01*
X103030000Y-110150000D02*
X119200000Y-110150000D01*
X119200000Y-110150000D02*
X126700000Y-117650000D01*
%TO.N,GND*%
X106775000Y-88337500D02*
X106775000Y-89225000D01*
X106775000Y-89225000D02*
X106950000Y-89400000D01*
X108725000Y-88337500D02*
X108725000Y-89225000D01*
X108725000Y-89225000D02*
X108550000Y-89400000D01*
D47*
%TO.N,/AOUT2*%
X131825000Y-91500000D02*
X116530000Y-91500000D01*
X116530000Y-91500000D02*
X112404000Y-87374000D01*
X112404000Y-87374000D02*
X108412020Y-87374000D01*
X108412020Y-87374000D02*
X108075000Y-87711020D01*
X108075000Y-87711020D02*
X108075000Y-88337500D01*
%TO.N,/AOUT1*%
X109612500Y-89225000D02*
X112255000Y-89225000D01*
X112255000Y-89225000D02*
X115530000Y-92500000D01*
X115530000Y-92500000D02*
X131825000Y-92500000D01*
D46*
%TO.N,+3.3V*%
X126680000Y-111650000D02*
X126680000Y-116150000D01*
X126680000Y-116150000D02*
X126700000Y-116170000D01*
X126700000Y-116170000D02*
X126700000Y-117650000D01*
X96325000Y-93500000D02*
X97530000Y-93500000D01*
X97530000Y-93500000D02*
X99680000Y-95650000D01*
X126700000Y-121800000D02*
X126700000Y-117650000D01*
X128330000Y-93500000D02*
X131825000Y-93500000D01*
X128180000Y-93650000D02*
X128330000Y-93500000D01*
%TO.N,/ServoB_PWM*%
X98560000Y-86650000D02*
X96660000Y-88550000D01*
X96660000Y-88550000D02*
X93480000Y-88550000D01*
X93480000Y-88550000D02*
X91980000Y-90050000D01*
X91980000Y-90050000D02*
X91980000Y-93850000D01*
X91980000Y-93850000D02*
X91080000Y-94750000D01*
X91080000Y-94750000D02*
X91140000Y-94810000D01*
X91140000Y-94810000D02*
X91140000Y-102420000D01*
D47*
%TO.N,Net-(J7-Pin_3)*%
X89930000Y-88875000D02*
X89930000Y-87900000D01*
X89930000Y-87900000D02*
X91180000Y-86650000D01*
X91180000Y-86650000D02*
X93480000Y-86650000D01*
%TO.N,Net-(Q2-G)*%
X88880000Y-96325000D02*
X88880000Y-90850000D01*
X88880000Y-90850000D02*
X88980000Y-90750000D01*
%TO.N,/ServoB_PWR*%
X88600000Y-102420000D02*
X88600000Y-98430000D01*
X88600000Y-98430000D02*
X88880000Y-98150000D01*
D46*
%TO.N,/ServoA_PWM*%
X126740000Y-86850000D02*
X126740000Y-87110000D01*
X126740000Y-87110000D02*
X128380000Y-88750000D01*
X131980000Y-88750000D02*
X134320000Y-91090000D01*
X128380000Y-88750000D02*
X131980000Y-88750000D01*
X134320000Y-91090000D02*
X134320000Y-102420000D01*
D47*
%TO.N,Net-(J6-Pin_3)*%
X136380000Y-91612500D02*
X131820000Y-87052500D01*
X131820000Y-87052500D02*
X131820000Y-86850000D01*
%TO.N,Net-(Q1-G)*%
X135430000Y-93487500D02*
X135430000Y-95687500D01*
X135430000Y-95687500D02*
X136880000Y-97137500D01*
%TO.N,/ServoA_PWR*%
X136860000Y-102420000D02*
X136860000Y-98982500D01*
X136860000Y-98982500D02*
X136880000Y-98962500D01*
D48*
%TO.N,+BATT*%
X106980000Y-99450000D02*
X106980000Y-95770000D01*
X106980000Y-95770000D02*
X107000000Y-95750000D01*
%TO.N,+5V*%
X134300000Y-121820000D02*
X134320000Y-121800000D01*
X134300000Y-124900000D02*
X134300000Y-121820000D01*
D47*
%TO.N,/VbatSense*%
X129225000Y-124800000D02*
X128299000Y-123874000D01*
X128299000Y-123874000D02*
X122094000Y-123874000D01*
X122094000Y-123874000D02*
X121620000Y-123400000D01*
X121620000Y-123400000D02*
X121620000Y-121800000D01*
%TO.N,Net-(C6-Pad2)*%
X108700000Y-124975000D02*
X108700000Y-125000000D01*
X108700000Y-125000000D02*
X109200000Y-125500000D01*
X109200000Y-125500000D02*
X110625000Y-125500000D01*
%TO.N,+BATT*%
X132525000Y-124800000D02*
X132525000Y-124825000D01*
%TO.N,/VbatSense*%
X129225000Y-124800000D02*
X130875000Y-124800000D01*
%TO.N,unconnected-(A1-3V3_EN-Pad37)*%
X129225000Y-121815000D02*
X129240000Y-121800000D01*
%TO.N,Net-(U2-SS)*%
X122300000Y-124895000D02*
X124205000Y-124895000D01*
X124205000Y-124895000D02*
X124300000Y-124800000D01*
%TO.N,Net-(U2-COMP)*%
X114200000Y-125650000D02*
X112325000Y-125650000D01*
X112325000Y-125650000D02*
X112175000Y-125500000D01*
X114200000Y-125650000D02*
X114200000Y-125700000D01*
X114200000Y-125700000D02*
X114665000Y-126165000D01*
X114665000Y-126165000D02*
X116900000Y-126165000D01*
%TO.N,/Vsns*%
X106900000Y-124975000D02*
X107775000Y-124100000D01*
X107775000Y-124100000D02*
X116105000Y-124100000D01*
X116105000Y-124100000D02*
X116900000Y-124895000D01*
X105200000Y-124975000D02*
X106900000Y-124975000D01*
D46*
%TO.N,Net-(U2-BOOT)*%
X122300000Y-128705000D02*
X122300000Y-129900000D01*
X122300000Y-129900000D02*
X122200000Y-130000000D01*
%TO.N,/Vsns*%
X116679000Y-124674000D02*
X116900000Y-124895000D01*
%TO.N,Net-(U2-BOOT)*%
X122400000Y-128805000D02*
X122300000Y-128705000D01*
D47*
%TO.N,/MOSI*%
X98760000Y-121800000D02*
X98760000Y-125600000D01*
X98760000Y-125600000D02*
X99560000Y-126400000D01*
%TO.N,/SCK*%
X96220000Y-121800000D02*
X96220000Y-125600000D01*
X96220000Y-125600000D02*
X97020000Y-126400000D01*
%TO.N,/CS*%
X94480000Y-126400000D02*
X91140000Y-123060000D01*
X91140000Y-123060000D02*
X91140000Y-121800000D01*
%TO.N,/MISO*%
X91940000Y-126400000D02*
X88600000Y-123060000D01*
X88600000Y-123060000D02*
X88600000Y-121800000D01*
%TO.N,/BOUT2*%
X107425000Y-88337500D02*
X107425000Y-87711020D01*
X100000000Y-91500000D02*
X96325000Y-91500000D01*
X107425000Y-87711020D02*
X107087980Y-87374000D01*
X107087980Y-87374000D02*
X104126000Y-87374000D01*
X104126000Y-87374000D02*
X100000000Y-91500000D01*
%TO.N,/BOUT1*%
X96325000Y-92500000D02*
X100700000Y-92500000D01*
X100700000Y-92500000D02*
X103975000Y-89225000D01*
X103975000Y-89225000D02*
X105887500Y-89225000D01*
D46*
%TO.N,/nSleep*%
X114000000Y-102420000D02*
X114000000Y-92800000D01*
X114000000Y-92800000D02*
X111100000Y-89900000D01*
X111100000Y-89900000D02*
X110149999Y-89900000D01*
X110149999Y-89900000D02*
X110124999Y-89875000D01*
X110124999Y-89875000D02*
X109612500Y-89875000D01*
%TO.N,/AIN2*%
X108920000Y-100680000D02*
X110300000Y-99300000D01*
X108920000Y-102420000D02*
X108920000Y-100680000D01*
X110300000Y-99300000D02*
X110300000Y-91862500D01*
X110300000Y-91862500D02*
X109612500Y-91175000D01*
%TO.N,/AIN1*%
X111460000Y-102420000D02*
X111460000Y-91860001D01*
X110124999Y-90525000D02*
X109612500Y-90525000D01*
X111460000Y-91860001D02*
X110124999Y-90525000D01*
%TO.N,/ENC_A2*%
X121620000Y-102420000D02*
X121620000Y-101480000D01*
X121620000Y-101480000D02*
X128600000Y-94500000D01*
X128600000Y-94500000D02*
X131825000Y-94500000D01*
%TO.N,/ENC_A1*%
X124160000Y-102420000D02*
X124160000Y-100820000D01*
X124160000Y-100820000D02*
X129480000Y-95500000D01*
X129480000Y-95500000D02*
X131825000Y-95500000D01*
%TO.N,/ENC_B2*%
X98760000Y-102420000D02*
X98760000Y-96160001D01*
X98760000Y-96160001D02*
X97099999Y-94500000D01*
X97099999Y-94500000D02*
X96325000Y-94500000D01*
%TO.N,/ENC_B1*%
X96325000Y-95500000D02*
X96812678Y-95500000D01*
X96812678Y-95500000D02*
X97451000Y-96138322D01*
X97451000Y-96138322D02*
X97451000Y-101189000D01*
X97451000Y-101189000D02*
X96220000Y-102420000D01*
%TO.N,/BIN2*%
X103840000Y-102420000D02*
X103840000Y-99660000D01*
X103840000Y-99660000D02*
X105500000Y-98000000D01*
X105500000Y-98000000D02*
X105500000Y-91562500D01*
X105500000Y-91562500D02*
X105887500Y-91175000D01*
%TO.N,/BIN1*%
X101300000Y-102420000D02*
X101300000Y-101100000D01*
X101300000Y-101100000D02*
X105024000Y-97376000D01*
X105024000Y-97376000D02*
X105024000Y-90876001D01*
X105024000Y-90876001D02*
X105375001Y-90525000D01*
X105375001Y-90525000D02*
X105887500Y-90525000D01*
%TO.N,Net-(U1-VINT)*%
X108725000Y-92062500D02*
X109100000Y-92437500D01*
X109100000Y-92437500D02*
X109100000Y-93100000D01*
X109100000Y-93100000D02*
X109080000Y-93120000D01*
X109080000Y-93120000D02*
X109080000Y-93500000D01*
%TO.N,GND*%
X108120000Y-93500000D02*
X108120000Y-92107500D01*
X108120000Y-92107500D02*
X108075000Y-92062500D01*
%TD*%
%TA.AperFunction,Conductor*%
%TO.N,+5V*%
G36*
X103227352Y-125314587D02*
G01*
X104700000Y-126100000D01*
X105765703Y-126011191D01*
X105834145Y-126025241D01*
X105884127Y-126074062D01*
X105900000Y-126134763D01*
X105900000Y-127200000D01*
X107572378Y-129265879D01*
X107599260Y-129330370D01*
X107600000Y-129343899D01*
X107600000Y-135025500D01*
X107580315Y-135092539D01*
X107527511Y-135138294D01*
X107476000Y-135149500D01*
X100330106Y-135149500D01*
X100324137Y-135149356D01*
X99418031Y-135105688D01*
X99352017Y-135082799D01*
X99308857Y-135027854D01*
X99300000Y-134981832D01*
X99300000Y-128663402D01*
X99319685Y-128596363D01*
X99351397Y-128562879D01*
X101100000Y-127300000D01*
X101100000Y-125424000D01*
X101119685Y-125356961D01*
X101172489Y-125311206D01*
X101224000Y-125300000D01*
X103169000Y-125300000D01*
X103227352Y-125314587D01*
G37*
%TD.AperFunction*%
%TD*%
%TA.AperFunction,Conductor*%
%TO.N,Net-(D2-K)*%
G36*
X115960481Y-128207818D02*
G01*
X116017517Y-128229091D01*
X116017516Y-128229091D01*
X116024444Y-128229835D01*
X116077127Y-128235500D01*
X117500500Y-128235499D01*
X117567539Y-128255184D01*
X117613294Y-128307987D01*
X117624500Y-128359499D01*
X117624500Y-129097870D01*
X117624501Y-129097881D01*
X117626358Y-129115154D01*
X117613950Y-129183913D01*
X117566338Y-129235049D01*
X117550019Y-129243173D01*
X117007121Y-129465268D01*
X116960170Y-129474500D01*
X116629999Y-129474500D01*
X116629980Y-129474501D01*
X116527203Y-129485000D01*
X116527200Y-129485001D01*
X116360668Y-129540185D01*
X116360663Y-129540187D01*
X116211342Y-129632289D01*
X116087288Y-129756343D01*
X116087285Y-129756347D01*
X116038188Y-129835946D01*
X115986240Y-129882671D01*
X115979601Y-129885617D01*
X115699999Y-130000000D01*
X115797470Y-134873520D01*
X115779130Y-134940940D01*
X115727252Y-134987742D01*
X115673495Y-135000000D01*
X113200000Y-135000000D01*
X112927181Y-135136409D01*
X112871728Y-135149500D01*
X110024000Y-135149500D01*
X109956961Y-135129815D01*
X109911206Y-135077011D01*
X109900000Y-135025500D01*
X109900000Y-129595446D01*
X109919685Y-129528407D01*
X109972489Y-129482652D01*
X109992259Y-129475578D01*
X113293650Y-128601680D01*
X113306486Y-128599002D01*
X113627321Y-128549642D01*
X113658772Y-128548843D01*
X113674991Y-128550500D01*
X114725008Y-128550499D01*
X114725016Y-128550498D01*
X114725019Y-128550498D01*
X114781302Y-128544748D01*
X114827797Y-128539999D01*
X114994334Y-128484814D01*
X115143656Y-128392712D01*
X115205187Y-128331180D01*
X115266508Y-128297697D01*
X115273985Y-128296309D01*
X115890627Y-128201442D01*
X115909482Y-128200000D01*
X115917148Y-128200000D01*
X115960481Y-128207818D01*
G37*
%TD.AperFunction*%
%TD*%
%TA.AperFunction,Conductor*%
%TO.N,GND*%
G36*
X104373500Y-97055192D02*
G01*
X104364855Y-97084632D01*
X104361512Y-97100000D01*
X101500000Y-97100000D01*
X101500000Y-94400000D01*
X104373500Y-94400000D01*
X104373500Y-97055192D01*
G37*
%TD.AperFunction*%
%TD*%
%TA.AperFunction,Conductor*%
%TO.N,Net-(J1-Pin_2)*%
G36*
X133113889Y-133690248D02*
G01*
X133160170Y-133742591D01*
X133171884Y-133793335D01*
X133258033Y-139431317D01*
X133239375Y-139498650D01*
X133187276Y-139545206D01*
X133131332Y-139557182D01*
X132010347Y-139532635D01*
X131943755Y-139511488D01*
X131899167Y-139457695D01*
X131889066Y-139409630D01*
X131870000Y-136950000D01*
X131160983Y-136966694D01*
X131093498Y-136948593D01*
X131092969Y-136948268D01*
X131087629Y-136944974D01*
X131039334Y-136915186D01*
X130872797Y-136860001D01*
X130872795Y-136860000D01*
X130770010Y-136849500D01*
X129569998Y-136849500D01*
X129569981Y-136849501D01*
X129467203Y-136860000D01*
X129467200Y-136860001D01*
X129300668Y-136915185D01*
X129300659Y-136915189D01*
X129168593Y-136996648D01*
X129106416Y-137015075D01*
X128426763Y-137031080D01*
X128359279Y-137012979D01*
X128336163Y-136994795D01*
X128308657Y-136967289D01*
X128308656Y-136967288D01*
X128159334Y-136875186D01*
X127992797Y-136820001D01*
X127992795Y-136820000D01*
X127890010Y-136809500D01*
X126689998Y-136809500D01*
X126689981Y-136809501D01*
X126587203Y-136820000D01*
X126587200Y-136820001D01*
X126420668Y-136875185D01*
X126420663Y-136875187D01*
X126355817Y-136915185D01*
X126271344Y-136967288D01*
X126271342Y-136967289D01*
X126271340Y-136967291D01*
X126189147Y-137049483D01*
X126127824Y-137082968D01*
X126104386Y-137085767D01*
X125499999Y-137100000D01*
X125405153Y-139139195D01*
X125382375Y-139205248D01*
X125327502Y-139248500D01*
X125289307Y-139257174D01*
X124448965Y-139311641D01*
X124380793Y-139296334D01*
X124331719Y-139246600D01*
X124316979Y-139190799D01*
X124192937Y-133885630D01*
X124211049Y-133818151D01*
X124262769Y-133771175D01*
X124315657Y-133758740D01*
X133046655Y-133671236D01*
X133113889Y-133690248D01*
G37*
%TD.AperFunction*%
%TD*%
%TA.AperFunction,Conductor*%
%TO.N,+BATT*%
G36*
X133007252Y-124214895D02*
G01*
X133056212Y-124264742D01*
X133070450Y-124333146D01*
X133069730Y-124339814D01*
X132630000Y-127589993D01*
X132629999Y-127590002D01*
X132666055Y-128743763D01*
X132648475Y-128811384D01*
X132597125Y-128858766D01*
X132543713Y-128871626D01*
X130380772Y-128899490D01*
X130379175Y-128899500D01*
X130050000Y-128899500D01*
X130049971Y-128899502D01*
X130007859Y-128903803D01*
X129996859Y-128904435D01*
X128900272Y-128918562D01*
X128859675Y-128912279D01*
X128852800Y-128910001D01*
X128750016Y-128899500D01*
X126463435Y-128899500D01*
X126396396Y-128879815D01*
X126374455Y-128861863D01*
X125469999Y-127929999D01*
X123910010Y-127879999D01*
X121699993Y-127888804D01*
X121632876Y-127869387D01*
X121586911Y-127816765D01*
X121575499Y-127764805D01*
X121575499Y-127089499D01*
X121595184Y-127022460D01*
X121647988Y-126976705D01*
X121699499Y-126965499D01*
X123122871Y-126965499D01*
X123122872Y-126965499D01*
X123182483Y-126959091D01*
X123317331Y-126908796D01*
X123432546Y-126822546D01*
X123450571Y-126798466D01*
X123506503Y-126756595D01*
X123539536Y-126749205D01*
X123650000Y-126740000D01*
X124026933Y-126326292D01*
X124086632Y-126289996D01*
X124108943Y-126286183D01*
X124594838Y-126248292D01*
X124663203Y-126262705D01*
X124692157Y-126284236D01*
X124749707Y-126341786D01*
X124749711Y-126341789D01*
X124880814Y-126429390D01*
X124880827Y-126429397D01*
X125026498Y-126489735D01*
X125026503Y-126489737D01*
X125142815Y-126512873D01*
X125181153Y-126520499D01*
X125181156Y-126520500D01*
X125181158Y-126520500D01*
X125338844Y-126520500D01*
X125338845Y-126520499D01*
X125493497Y-126489737D01*
X125639179Y-126429394D01*
X125770289Y-126341789D01*
X125881789Y-126230289D01*
X125906398Y-126193458D01*
X125908716Y-126191521D01*
X125909756Y-126188678D01*
X125935354Y-126169257D01*
X125960005Y-126148656D01*
X125963736Y-126147726D01*
X125965420Y-126146449D01*
X125999846Y-126138727D01*
X126235191Y-126120374D01*
X126244831Y-126120000D01*
X131120000Y-126120000D01*
X131270325Y-125791051D01*
X131316091Y-125738262D01*
X131346215Y-125724208D01*
X131364606Y-125718478D01*
X131510185Y-125630472D01*
X131630472Y-125510185D01*
X131718478Y-125364606D01*
X131769086Y-125202196D01*
X131775500Y-125131616D01*
X131775500Y-124712601D01*
X131786719Y-124661061D01*
X131939116Y-124327579D01*
X131984882Y-124274791D01*
X132044156Y-124255365D01*
X132939116Y-124199430D01*
X133007252Y-124214895D01*
G37*
%TD.AperFunction*%
%TD*%
%TA.AperFunction,Conductor*%
%TO.N,GND*%
G36*
X117874777Y-123149967D02*
G01*
X117916270Y-123195293D01*
X117947781Y-123254246D01*
X117950739Y-123259779D01*
X117950751Y-123259799D01*
X118038278Y-123390793D01*
X118038286Y-123390804D01*
X118038291Y-123390811D01*
X118101157Y-123467412D01*
X118212588Y-123578843D01*
X118289189Y-123641709D01*
X118289198Y-123641715D01*
X118289206Y-123641721D01*
X118420200Y-123729248D01*
X118420205Y-123729251D01*
X118420217Y-123729259D01*
X118420226Y-123729263D01*
X118420228Y-123729265D01*
X118507603Y-123775968D01*
X118507605Y-123775968D01*
X118507611Y-123775972D01*
X118653202Y-123836278D01*
X118748032Y-123865044D01*
X118902590Y-123895787D01*
X119001207Y-123905500D01*
X119001209Y-123905500D01*
X119158791Y-123905500D01*
X119158793Y-123905500D01*
X119257410Y-123895787D01*
X119411968Y-123865044D01*
X119506798Y-123836278D01*
X119652389Y-123775972D01*
X119739783Y-123729259D01*
X119870811Y-123641709D01*
X119947412Y-123578843D01*
X120058843Y-123467412D01*
X120121709Y-123390811D01*
X120209259Y-123259783D01*
X120243729Y-123195293D01*
X120292689Y-123145451D01*
X120360827Y-123129990D01*
X120426507Y-123153821D01*
X120465468Y-123201343D01*
X120489431Y-123252732D01*
X120489432Y-123252734D01*
X120619954Y-123439141D01*
X120780858Y-123600045D01*
X120780861Y-123600047D01*
X120894564Y-123679662D01*
X120905720Y-123687473D01*
X120913711Y-123696280D01*
X120921052Y-123700158D01*
X120932378Y-123716856D01*
X120942594Y-123728116D01*
X120946284Y-123734656D01*
X120954916Y-123755495D01*
X120972398Y-123781658D01*
X121037048Y-123878416D01*
X121167291Y-124008659D01*
X121197016Y-124038383D01*
X121230501Y-124099707D01*
X121225517Y-124169398D01*
X121183650Y-124225329D01*
X121167452Y-124237455D01*
X121081206Y-124352664D01*
X121081202Y-124352671D01*
X121030910Y-124487513D01*
X121030909Y-124487517D01*
X121024500Y-124547127D01*
X121024500Y-124547134D01*
X121024500Y-124547135D01*
X121024500Y-125242870D01*
X121024501Y-125242876D01*
X121030908Y-125302483D01*
X121081202Y-125437328D01*
X121081205Y-125437334D01*
X121094947Y-125455691D01*
X121119363Y-125521156D01*
X121104510Y-125589429D01*
X121094947Y-125604309D01*
X121081205Y-125622665D01*
X121081202Y-125622671D01*
X121030910Y-125757513D01*
X121030909Y-125757517D01*
X121024500Y-125817127D01*
X121024500Y-125817134D01*
X121024500Y-125817135D01*
X121024500Y-126512870D01*
X121024501Y-126512876D01*
X121030908Y-126572483D01*
X121081202Y-126707328D01*
X121081205Y-126707334D01*
X121094947Y-126725691D01*
X121119363Y-126791156D01*
X121104510Y-126859429D01*
X121094947Y-126874309D01*
X121081205Y-126892665D01*
X121081202Y-126892671D01*
X121030910Y-127027513D01*
X121030909Y-127027517D01*
X121024500Y-127087127D01*
X121024500Y-127087134D01*
X121024500Y-127087135D01*
X121024500Y-127782870D01*
X121024501Y-127782876D01*
X121030908Y-127842483D01*
X121081202Y-127977328D01*
X121081205Y-127977334D01*
X121094947Y-127995691D01*
X121119363Y-128061156D01*
X121104510Y-128129429D01*
X121094947Y-128144309D01*
X121081205Y-128162665D01*
X121081202Y-128162671D01*
X121030910Y-128297513D01*
X121030909Y-128297517D01*
X121024500Y-128357127D01*
X121024500Y-128357134D01*
X121024500Y-128357135D01*
X121024500Y-129052870D01*
X121024501Y-129052876D01*
X121030908Y-129112483D01*
X121081202Y-129247328D01*
X121081206Y-129247335D01*
X121167452Y-129362544D01*
X121167455Y-129362547D01*
X121282664Y-129448793D01*
X121282673Y-129448798D01*
X121404093Y-129494084D01*
X121460027Y-129535954D01*
X121484445Y-129601419D01*
X121475322Y-129657718D01*
X121430264Y-129766498D01*
X121430261Y-129766510D01*
X121399500Y-129921153D01*
X121399500Y-130078846D01*
X121430261Y-130233489D01*
X121430264Y-130233501D01*
X121490602Y-130379172D01*
X121490609Y-130379185D01*
X121578210Y-130510288D01*
X121578213Y-130510292D01*
X121689707Y-130621786D01*
X121689711Y-130621789D01*
X121820814Y-130709390D01*
X121820827Y-130709397D01*
X121966498Y-130769735D01*
X121966503Y-130769737D01*
X122121153Y-130800499D01*
X122121156Y-130800500D01*
X122121158Y-130800500D01*
X122278844Y-130800500D01*
X122278845Y-130800499D01*
X122433497Y-130769737D01*
X122579179Y-130709394D01*
X122710289Y-130621789D01*
X122821789Y-130510289D01*
X122909394Y-130379179D01*
X122969737Y-130233497D01*
X123000500Y-130078842D01*
X123000500Y-129921158D01*
X123000500Y-129921155D01*
X123000499Y-129921153D01*
X122969739Y-129766511D01*
X122969738Y-129766508D01*
X122969737Y-129766503D01*
X122959937Y-129742844D01*
X122958311Y-129734670D01*
X122955523Y-129730331D01*
X122950500Y-129695396D01*
X122950500Y-129629499D01*
X122970185Y-129562460D01*
X123022989Y-129516705D01*
X123074500Y-129505499D01*
X123122871Y-129505499D01*
X123122872Y-129505499D01*
X123182483Y-129499091D01*
X123317331Y-129448796D01*
X123432546Y-129362546D01*
X123518796Y-129247331D01*
X123569091Y-129112483D01*
X123575500Y-129052873D01*
X123575499Y-128510341D01*
X123577979Y-128501893D01*
X123576692Y-128493184D01*
X123587670Y-128468888D01*
X123595183Y-128443303D01*
X123601837Y-128437536D01*
X123605463Y-128429514D01*
X123627835Y-128415009D01*
X123647987Y-128397548D01*
X123658243Y-128395295D01*
X123664090Y-128391505D01*
X123699004Y-128386343D01*
X123900727Y-128385539D01*
X123905099Y-128385601D01*
X125199477Y-128427088D01*
X125265852Y-128448910D01*
X125284485Y-128464661D01*
X125388163Y-128571480D01*
X126011718Y-129213931D01*
X126054350Y-129253096D01*
X126076291Y-129271048D01*
X126087816Y-129279424D01*
X126123097Y-129305066D01*
X126123098Y-129305066D01*
X126123099Y-129305067D01*
X126253976Y-129364838D01*
X126321015Y-129384523D01*
X126321019Y-129384524D01*
X126463435Y-129405000D01*
X128717946Y-129405000D01*
X128730547Y-129405642D01*
X128740777Y-129406687D01*
X128767585Y-129409425D01*
X128779792Y-129411514D01*
X128779829Y-129411331D01*
X128782352Y-129411829D01*
X128782362Y-129411832D01*
X128822959Y-129418115D01*
X128906784Y-129424020D01*
X130003371Y-129409893D01*
X130025854Y-129409103D01*
X130036854Y-129408471D01*
X130052629Y-129407212D01*
X130059210Y-129406688D01*
X130069452Y-129405642D01*
X130082052Y-129405000D01*
X130379310Y-129405000D01*
X130381862Y-129404991D01*
X130382340Y-129404990D01*
X130383937Y-129404980D01*
X130387284Y-129404948D01*
X132550225Y-129377084D01*
X132662041Y-129363082D01*
X132715453Y-129350222D01*
X132821374Y-129311803D01*
X132834521Y-129302762D01*
X132868456Y-129279424D01*
X132939925Y-129230274D01*
X132991275Y-129182892D01*
X132991283Y-129182885D01*
X133082060Y-129071257D01*
X133105740Y-129014798D01*
X133113480Y-129003802D01*
X133130719Y-128990088D01*
X133144619Y-128972997D01*
X133157527Y-128968764D01*
X133168160Y-128960307D01*
X133190079Y-128958090D01*
X133211010Y-128951228D01*
X133224156Y-128954645D01*
X133237676Y-128953279D01*
X133257315Y-128963266D01*
X133278632Y-128968808D01*
X133298121Y-128984017D01*
X133299955Y-128984950D01*
X133300491Y-128985866D01*
X133302563Y-128987483D01*
X133367944Y-129052864D01*
X133533181Y-129218101D01*
X133566666Y-129279424D01*
X133569500Y-129305782D01*
X133569500Y-133155158D01*
X133549815Y-133222197D01*
X133497011Y-133267952D01*
X133427853Y-133277896D01*
X133391590Y-133264579D01*
X133391012Y-133265880D01*
X133251441Y-133203823D01*
X133251435Y-133203821D01*
X133195185Y-133187915D01*
X133188662Y-133185405D01*
X133184203Y-133184809D01*
X133041589Y-133165761D01*
X133041587Y-133165761D01*
X124310584Y-133253265D01*
X124310578Y-133253266D01*
X124199977Y-133266655D01*
X124199964Y-133266657D01*
X124199960Y-133266657D01*
X124199959Y-133266658D01*
X124184121Y-133270381D01*
X124147065Y-133279094D01*
X124042093Y-133316387D01*
X124042089Y-133316389D01*
X123922900Y-133396982D01*
X123864924Y-133449641D01*
X123860293Y-133457132D01*
X123779525Y-133554867D01*
X123722828Y-133687113D01*
X123704717Y-133754591D01*
X123687574Y-133897453D01*
X123811616Y-139202610D01*
X123811618Y-139202628D01*
X123828242Y-139319898D01*
X123828243Y-139319901D01*
X123842982Y-139375698D01*
X123842983Y-139375701D01*
X123857910Y-139413548D01*
X123886444Y-139485891D01*
X123942365Y-139561643D01*
X123971899Y-139601650D01*
X124003463Y-139633638D01*
X124020971Y-139651381D01*
X124020974Y-139651384D01*
X124135578Y-139738374D01*
X124270048Y-139789554D01*
X124338220Y-139804861D01*
X124481661Y-139816083D01*
X124571052Y-139810288D01*
X124586826Y-139810586D01*
X124586839Y-139810339D01*
X124589968Y-139810497D01*
X124589991Y-139810500D01*
X125190008Y-139810499D01*
X125190016Y-139810498D01*
X125190019Y-139810498D01*
X125246302Y-139804748D01*
X125292797Y-139799999D01*
X125459334Y-139744814D01*
X125477495Y-139733611D01*
X125505645Y-139720781D01*
X125515902Y-139717580D01*
X125640426Y-139645500D01*
X125695299Y-139602248D01*
X125695301Y-139602246D01*
X125794473Y-139498003D01*
X125860259Y-139370043D01*
X125883037Y-139303990D01*
X125910107Y-139162681D01*
X125977684Y-137709744D01*
X126000462Y-137643694D01*
X126055335Y-137600442D01*
X126098630Y-137591542D01*
X126116287Y-137591127D01*
X126164328Y-137587701D01*
X126187766Y-137584902D01*
X126235276Y-137576916D01*
X126235280Y-137576914D01*
X126235283Y-137576914D01*
X126370074Y-137526638D01*
X126370073Y-137526638D01*
X126370085Y-137526634D01*
X126431408Y-137493149D01*
X126546587Y-137406928D01*
X126576756Y-137376758D01*
X126599334Y-137358906D01*
X126604632Y-137355638D01*
X126623417Y-137344051D01*
X126649500Y-137331887D01*
X126680768Y-137321526D01*
X126707196Y-137315873D01*
X126709516Y-137315636D01*
X126722063Y-137315000D01*
X127857944Y-137315000D01*
X127870485Y-137315636D01*
X127872803Y-137315872D01*
X127899238Y-137321528D01*
X127930489Y-137331884D01*
X127956575Y-137344047D01*
X127989750Y-137364509D01*
X128006965Y-137377309D01*
X128023627Y-137392100D01*
X128046743Y-137410284D01*
X128096071Y-137444548D01*
X128228320Y-137501221D01*
X128295804Y-137519322D01*
X128295805Y-137519322D01*
X128295844Y-137519326D01*
X128301937Y-137520130D01*
X128303157Y-137520203D01*
X128311627Y-137521217D01*
X128438664Y-137536440D01*
X129118317Y-137520435D01*
X129250053Y-137499739D01*
X129312230Y-137481312D01*
X129433967Y-137426888D01*
X129503415Y-137384051D01*
X129529501Y-137371887D01*
X129534709Y-137370161D01*
X129560760Y-137361528D01*
X129587184Y-137355874D01*
X129589508Y-137355637D01*
X129602061Y-137355000D01*
X130737944Y-137355000D01*
X130750485Y-137355636D01*
X130752803Y-137355872D01*
X130779234Y-137361526D01*
X130794279Y-137366512D01*
X130811772Y-137372309D01*
X130829702Y-137379859D01*
X130830279Y-137380157D01*
X130830286Y-137380160D01*
X130830291Y-137380163D01*
X130962540Y-137436835D01*
X130962544Y-137436836D01*
X131030020Y-137454935D01*
X131030022Y-137454935D01*
X131030025Y-137454936D01*
X131172882Y-137472054D01*
X131242557Y-137470413D01*
X131310040Y-137488514D01*
X131357025Y-137540226D01*
X131369471Y-137593418D01*
X131369861Y-137643694D01*
X131383581Y-139413548D01*
X131394372Y-139513591D01*
X131394373Y-139513599D01*
X131394376Y-139513615D01*
X131404469Y-139561643D01*
X131404473Y-139561657D01*
X131434860Y-139657570D01*
X131509979Y-139780283D01*
X131509981Y-139780286D01*
X131554564Y-139834073D01*
X131554566Y-139834075D01*
X131554568Y-139834077D01*
X131554570Y-139834079D01*
X131661219Y-139930658D01*
X131790757Y-139993278D01*
X131790762Y-139993279D01*
X131790765Y-139993281D01*
X131817476Y-140001763D01*
X131857349Y-140014425D01*
X131999280Y-140038014D01*
X133120265Y-140062561D01*
X133237148Y-140051483D01*
X133293092Y-140039507D01*
X133404266Y-140001764D01*
X133524104Y-139922137D01*
X133576203Y-139875581D01*
X133576206Y-139875578D01*
X133668755Y-139765414D01*
X133675437Y-139750168D01*
X133720377Y-139696674D01*
X133787107Y-139675966D01*
X133854098Y-139694411D01*
X134000666Y-139784814D01*
X134167203Y-139839999D01*
X134269991Y-139850500D01*
X134870008Y-139850499D01*
X134870016Y-139850498D01*
X134870019Y-139850498D01*
X134926302Y-139844748D01*
X134972797Y-139839999D01*
X135139334Y-139784814D01*
X135288656Y-139692712D01*
X135412712Y-139568656D01*
X135504814Y-139419334D01*
X135559999Y-139252797D01*
X135570500Y-139150009D01*
X135570500Y-136698541D01*
X135570500Y-129034182D01*
X135590185Y-128967143D01*
X135642989Y-128921388D01*
X135712147Y-128911444D01*
X135756499Y-128926794D01*
X135793303Y-128948043D01*
X135934921Y-129006703D01*
X136001260Y-129034182D01*
X136035581Y-129048398D01*
X136288884Y-129116270D01*
X136548880Y-129150500D01*
X136548887Y-129150500D01*
X136811113Y-129150500D01*
X136811120Y-129150500D01*
X137071116Y-129116270D01*
X137324419Y-129048398D01*
X137520586Y-128967143D01*
X137566690Y-128948046D01*
X137566691Y-128948045D01*
X137566697Y-128948043D01*
X137793803Y-128816924D01*
X137980015Y-128674036D01*
X138045182Y-128648843D01*
X138113627Y-128662881D01*
X138163617Y-128711694D01*
X138179500Y-128772413D01*
X138179500Y-141875500D01*
X138159815Y-141942539D01*
X138107011Y-141988294D01*
X138055500Y-141999500D01*
X119633580Y-141999500D01*
X119566541Y-141979815D01*
X119520786Y-141927011D01*
X119509580Y-141875683D01*
X119506889Y-140051483D01*
X119500397Y-135649975D01*
X119500397Y-135584108D01*
X119500299Y-135583743D01*
X119500299Y-135583536D01*
X119490841Y-135548444D01*
X119466289Y-135456814D01*
X119466286Y-135456810D01*
X119466286Y-135456807D01*
X119466285Y-135456804D01*
X119466016Y-135456339D01*
X119466004Y-135456292D01*
X119461207Y-135448013D01*
X119400397Y-135342686D01*
X119307211Y-135249500D01*
X119250147Y-135216554D01*
X119193084Y-135183608D01*
X119129436Y-135166554D01*
X119065789Y-135149500D01*
X119065788Y-135149500D01*
X116407805Y-135149500D01*
X116340766Y-135129815D01*
X116295011Y-135077011D01*
X116284739Y-135010311D01*
X116302869Y-134863412D01*
X116245517Y-131995848D01*
X116263857Y-131928428D01*
X116315735Y-131881626D01*
X116384681Y-131870302D01*
X116408481Y-131875658D01*
X116527203Y-131914999D01*
X116629991Y-131925500D01*
X117230008Y-131925499D01*
X117230016Y-131925498D01*
X117230019Y-131925498D01*
X117286302Y-131919748D01*
X117332797Y-131914999D01*
X117499334Y-131859814D01*
X117648656Y-131767712D01*
X117690224Y-131726144D01*
X117751547Y-131692658D01*
X117821238Y-131697642D01*
X117825358Y-131699263D01*
X117826498Y-131699735D01*
X117826503Y-131699737D01*
X117959259Y-131726144D01*
X117981153Y-131730499D01*
X117981156Y-131730500D01*
X117981158Y-131730500D01*
X118138844Y-131730500D01*
X118138845Y-131730499D01*
X118293497Y-131699737D01*
X118439179Y-131639394D01*
X118570289Y-131551789D01*
X118681789Y-131440289D01*
X118769394Y-131309179D01*
X118829737Y-131163497D01*
X118860500Y-131008842D01*
X118860500Y-130851158D01*
X118860500Y-130851155D01*
X118860499Y-130851153D01*
X118844304Y-130769735D01*
X118829737Y-130696503D01*
X118798790Y-130621789D01*
X118769397Y-130550827D01*
X118769390Y-130550814D01*
X118681789Y-130419711D01*
X118681786Y-130419707D01*
X118570292Y-130308213D01*
X118570288Y-130308210D01*
X118439185Y-130220609D01*
X118439172Y-130220602D01*
X118293501Y-130160264D01*
X118293489Y-130160261D01*
X118138845Y-130129500D01*
X118138842Y-130129500D01*
X118028527Y-130129500D01*
X117961488Y-130109815D01*
X117915733Y-130057011D01*
X117910821Y-130044505D01*
X117889835Y-129981175D01*
X117864814Y-129905666D01*
X117811562Y-129819330D01*
X117793122Y-129751938D01*
X117814045Y-129685275D01*
X117839294Y-129657683D01*
X117936301Y-129579516D01*
X117936306Y-129579511D01*
X117936307Y-129579511D01*
X117983909Y-129528384D01*
X117983913Y-129528380D01*
X118065973Y-129410199D01*
X118111415Y-129273684D01*
X118111737Y-129271894D01*
X118117585Y-129250577D01*
X118120247Y-129243440D01*
X118169091Y-129112483D01*
X118175500Y-129052873D01*
X118175499Y-128357128D01*
X118169091Y-128297517D01*
X118150907Y-128248764D01*
X118118797Y-128162671D01*
X118118795Y-128162668D01*
X118105334Y-128144687D01*
X118085273Y-128117888D01*
X118075069Y-128101036D01*
X117995324Y-127976954D01*
X117995323Y-127976953D01*
X117995322Y-127976951D01*
X117949567Y-127924148D01*
X117840836Y-127829932D01*
X117840832Y-127829930D01*
X117709960Y-127770161D01*
X117667910Y-127757814D01*
X117642920Y-127750476D01*
X117642918Y-127750475D01*
X117642916Y-127750475D01*
X117595443Y-127743649D01*
X117500500Y-127729999D01*
X117500498Y-127729999D01*
X116138560Y-127729999D01*
X116105757Y-127725581D01*
X116050233Y-127710350D01*
X116050225Y-127710348D01*
X116006891Y-127702530D01*
X115917152Y-127694500D01*
X115917148Y-127694500D01*
X115909482Y-127694500D01*
X115870935Y-127695972D01*
X115870927Y-127695972D01*
X115870916Y-127695973D01*
X115852081Y-127697413D01*
X115813765Y-127701819D01*
X115197137Y-127796683D01*
X115181731Y-127799298D01*
X115174242Y-127800688D01*
X115159060Y-127803748D01*
X115024251Y-127854028D01*
X115024244Y-127854031D01*
X114973117Y-127881947D01*
X114973106Y-127881954D01*
X114962931Y-127887511D01*
X114962923Y-127887515D01*
X114847742Y-127973740D01*
X114832335Y-127989145D01*
X114825682Y-127994212D01*
X114823129Y-127995187D01*
X114815658Y-128001095D01*
X114791581Y-128015946D01*
X114765489Y-128028113D01*
X114734238Y-128038469D01*
X114707848Y-128044121D01*
X114706399Y-128044269D01*
X114705548Y-128044356D01*
X114692935Y-128044999D01*
X113687390Y-128044999D01*
X113682657Y-128044909D01*
X113675926Y-128044651D01*
X113645934Y-128043506D01*
X113645932Y-128043506D01*
X113645931Y-128043506D01*
X113614488Y-128044304D01*
X113550459Y-128050019D01*
X113229627Y-128099378D01*
X113206459Y-128103574D01*
X113203245Y-128104157D01*
X113203241Y-128104157D01*
X113203229Y-128104160D01*
X113190433Y-128106829D01*
X113164271Y-128113017D01*
X110397600Y-128845371D01*
X110365870Y-128849500D01*
X110239999Y-128849500D01*
X110239980Y-128849501D01*
X110137203Y-128860000D01*
X110137200Y-128860001D01*
X110012300Y-128901389D01*
X109970666Y-128915186D01*
X109917394Y-128948044D01*
X109859077Y-128984013D01*
X109830777Y-128996888D01*
X109821955Y-128999628D01*
X109802198Y-129006698D01*
X109762495Y-129022833D01*
X109762492Y-129022835D01*
X109641462Y-129100617D01*
X109641451Y-129100625D01*
X109588659Y-129146369D01*
X109494433Y-129255110D01*
X109494430Y-129255114D01*
X109434664Y-129385980D01*
X109414976Y-129453028D01*
X109394500Y-129595447D01*
X109394500Y-135025500D01*
X109374815Y-135092539D01*
X109322011Y-135138294D01*
X109270500Y-135149500D01*
X108229500Y-135149500D01*
X108162461Y-135129815D01*
X108116706Y-135077011D01*
X108105500Y-135025500D01*
X108105500Y-129343903D01*
X108104746Y-129316301D01*
X108104746Y-129316291D01*
X108104006Y-129302762D01*
X108101742Y-129275212D01*
X108101349Y-129273688D01*
X108065851Y-129135892D01*
X108065848Y-129135881D01*
X108038962Y-129071381D01*
X107965278Y-128947824D01*
X107965271Y-128947813D01*
X106433122Y-127055158D01*
X106406240Y-126990666D01*
X106405500Y-126977137D01*
X106405500Y-126134760D01*
X106389554Y-126010749D01*
X106400528Y-125941747D01*
X106447065Y-125889631D01*
X106514391Y-125870949D01*
X106523732Y-125871442D01*
X106568384Y-125875500D01*
X106568389Y-125875500D01*
X107231613Y-125875500D01*
X107231616Y-125875500D01*
X107302196Y-125869086D01*
X107464606Y-125818478D01*
X107610185Y-125730472D01*
X107658334Y-125682323D01*
X107712319Y-125628339D01*
X107773642Y-125594854D01*
X107843334Y-125599838D01*
X107887681Y-125628339D01*
X107989811Y-125730469D01*
X107989813Y-125730470D01*
X107989815Y-125730472D01*
X108135394Y-125818478D01*
X108297804Y-125869086D01*
X108368384Y-125875500D01*
X108462770Y-125875500D01*
X108529809Y-125895185D01*
X108550451Y-125911819D01*
X108721578Y-126082947D01*
X108721581Y-126082950D01*
X108721584Y-126082952D01*
X108789627Y-126128416D01*
X108844505Y-126165084D01*
X108844506Y-126165084D01*
X108844507Y-126165085D01*
X108981082Y-126221656D01*
X108981087Y-126221658D01*
X108981091Y-126221658D01*
X108981092Y-126221659D01*
X109126079Y-126250500D01*
X109126082Y-126250500D01*
X109126083Y-126250500D01*
X109273918Y-126250500D01*
X109823126Y-126250500D01*
X109890165Y-126270185D01*
X109910807Y-126286819D01*
X109946955Y-126322967D01*
X109946959Y-126322970D01*
X110091294Y-126411998D01*
X110091297Y-126411999D01*
X110091303Y-126412003D01*
X110252292Y-126465349D01*
X110351655Y-126475500D01*
X110898344Y-126475499D01*
X110898352Y-126475498D01*
X110898355Y-126475498D01*
X110952760Y-126469940D01*
X110997708Y-126465349D01*
X111158697Y-126412003D01*
X111303044Y-126322968D01*
X111312319Y-126313693D01*
X111373642Y-126280208D01*
X111443334Y-126285192D01*
X111487681Y-126313693D01*
X111496955Y-126322967D01*
X111496959Y-126322970D01*
X111641294Y-126411998D01*
X111641297Y-126411999D01*
X111641303Y-126412003D01*
X111802292Y-126465349D01*
X111901655Y-126475500D01*
X112448344Y-126475499D01*
X112448352Y-126475498D01*
X112448355Y-126475498D01*
X112502760Y-126469940D01*
X112547708Y-126465349D01*
X112708697Y-126412003D01*
X112708698Y-126412001D01*
X112715552Y-126409731D01*
X112715802Y-126410487D01*
X112760855Y-126400500D01*
X113112770Y-126400500D01*
X113179809Y-126420185D01*
X113200451Y-126436819D01*
X113256344Y-126492712D01*
X113405666Y-126584814D01*
X113572203Y-126639999D01*
X113674991Y-126650500D01*
X114037769Y-126650499D01*
X114104808Y-126670183D01*
X114125450Y-126686818D01*
X114186580Y-126747948D01*
X114186584Y-126747951D01*
X114309498Y-126830080D01*
X114309511Y-126830087D01*
X114446082Y-126886656D01*
X114446087Y-126886658D01*
X114446091Y-126886658D01*
X114446092Y-126886659D01*
X114591079Y-126915500D01*
X114591082Y-126915500D01*
X115878271Y-126915500D01*
X115921604Y-126923318D01*
X116017517Y-126959091D01*
X116017516Y-126959091D01*
X116024444Y-126959835D01*
X116077127Y-126965500D01*
X117722872Y-126965499D01*
X117782483Y-126959091D01*
X117917331Y-126908796D01*
X118032546Y-126822546D01*
X118118796Y-126707331D01*
X118169091Y-126572483D01*
X118175500Y-126512873D01*
X118175499Y-125817128D01*
X118169091Y-125757517D01*
X118169090Y-125757513D01*
X118118797Y-125622670D01*
X118118796Y-125622669D01*
X118112965Y-125614880D01*
X118105053Y-125604311D01*
X118080635Y-125538850D01*
X118095485Y-125470576D01*
X118105050Y-125455691D01*
X118118796Y-125437331D01*
X118169091Y-125302483D01*
X118175500Y-125242873D01*
X118175499Y-124547128D01*
X118169091Y-124487517D01*
X118168299Y-124485394D01*
X118118797Y-124352671D01*
X118118793Y-124352664D01*
X118032547Y-124237455D01*
X118032544Y-124237452D01*
X117917335Y-124151206D01*
X117917328Y-124151202D01*
X117782482Y-124100908D01*
X117782483Y-124100908D01*
X117722883Y-124094501D01*
X117722881Y-124094500D01*
X117722873Y-124094500D01*
X117722865Y-124094500D01*
X117212230Y-124094500D01*
X117182789Y-124085855D01*
X117152803Y-124079332D01*
X117147787Y-124075577D01*
X117145191Y-124074815D01*
X117124549Y-124058181D01*
X117048027Y-123981659D01*
X117014542Y-123920336D01*
X117019526Y-123850644D01*
X117061398Y-123794711D01*
X117083301Y-123781597D01*
X117192734Y-123730568D01*
X117379139Y-123600047D01*
X117540047Y-123439139D01*
X117670568Y-123252734D01*
X117694532Y-123201341D01*
X117740702Y-123148905D01*
X117807895Y-123129752D01*
X117874777Y-123149967D01*
G37*
%TD.AperFunction*%
%TA.AperFunction,Conductor*%
G36*
X87925121Y-123715062D02*
G01*
X87947266Y-123730568D01*
X88153504Y-123826739D01*
X88153509Y-123826740D01*
X88153511Y-123826741D01*
X88184820Y-123835129D01*
X88328864Y-123873726D01*
X88384451Y-123905819D01*
X90569824Y-126091191D01*
X90603309Y-126152514D01*
X90604616Y-126198270D01*
X90589500Y-126293707D01*
X90589500Y-126506286D01*
X90618093Y-126686818D01*
X90622754Y-126716243D01*
X90680079Y-126892671D01*
X90688444Y-126918414D01*
X90784951Y-127107820D01*
X90909890Y-127279786D01*
X91060213Y-127430109D01*
X91232179Y-127555048D01*
X91232181Y-127555049D01*
X91232184Y-127555051D01*
X91421588Y-127651557D01*
X91623757Y-127717246D01*
X91833713Y-127750500D01*
X91833714Y-127750500D01*
X92046286Y-127750500D01*
X92046287Y-127750500D01*
X92256243Y-127717246D01*
X92458412Y-127651557D01*
X92647816Y-127555051D01*
X92805979Y-127440140D01*
X92819786Y-127430109D01*
X92819788Y-127430106D01*
X92819792Y-127430104D01*
X92970104Y-127279792D01*
X92970106Y-127279788D01*
X92970109Y-127279786D01*
X93095048Y-127107820D01*
X93095047Y-127107820D01*
X93095051Y-127107816D01*
X93099514Y-127099054D01*
X93147488Y-127048259D01*
X93215308Y-127031463D01*
X93281444Y-127053999D01*
X93320486Y-127099056D01*
X93324951Y-127107820D01*
X93449890Y-127279786D01*
X93600213Y-127430109D01*
X93772179Y-127555048D01*
X93772181Y-127555049D01*
X93772184Y-127555051D01*
X93961588Y-127651557D01*
X94163757Y-127717246D01*
X94373713Y-127750500D01*
X94373714Y-127750500D01*
X94586286Y-127750500D01*
X94586287Y-127750500D01*
X94796243Y-127717246D01*
X94998412Y-127651557D01*
X95187816Y-127555051D01*
X95345979Y-127440140D01*
X95359786Y-127430109D01*
X95359788Y-127430106D01*
X95359792Y-127430104D01*
X95510104Y-127279792D01*
X95510106Y-127279788D01*
X95510109Y-127279786D01*
X95635048Y-127107820D01*
X95635047Y-127107820D01*
X95635051Y-127107816D01*
X95639514Y-127099054D01*
X95687488Y-127048259D01*
X95755308Y-127031463D01*
X95821444Y-127053999D01*
X95860486Y-127099056D01*
X95864951Y-127107820D01*
X95989890Y-127279786D01*
X96140213Y-127430109D01*
X96312179Y-127555048D01*
X96312181Y-127555049D01*
X96312184Y-127555051D01*
X96501588Y-127651557D01*
X96703757Y-127717246D01*
X96913713Y-127750500D01*
X96913714Y-127750500D01*
X97126286Y-127750500D01*
X97126287Y-127750500D01*
X97336243Y-127717246D01*
X97538412Y-127651557D01*
X97727816Y-127555051D01*
X97885979Y-127440140D01*
X97899786Y-127430109D01*
X97899788Y-127430106D01*
X97899792Y-127430104D01*
X98050104Y-127279792D01*
X98050106Y-127279788D01*
X98050109Y-127279786D01*
X98175048Y-127107820D01*
X98175047Y-127107820D01*
X98175051Y-127107816D01*
X98179514Y-127099054D01*
X98227488Y-127048259D01*
X98295308Y-127031463D01*
X98361444Y-127053999D01*
X98400486Y-127099056D01*
X98404951Y-127107820D01*
X98529890Y-127279786D01*
X98680213Y-127430109D01*
X98852179Y-127555048D01*
X98852181Y-127555049D01*
X98852184Y-127555051D01*
X99041588Y-127651557D01*
X99243757Y-127717246D01*
X99287366Y-127724153D01*
X99350497Y-127754080D01*
X99387429Y-127813391D01*
X99386433Y-127883253D01*
X99347824Y-127941487D01*
X99340567Y-127947149D01*
X99055437Y-128153077D01*
X99055434Y-128153079D01*
X99055432Y-128153081D01*
X98984375Y-128215280D01*
X98984370Y-128215284D01*
X98984369Y-128215286D01*
X98984353Y-128215301D01*
X98952671Y-128248753D01*
X98952665Y-128248760D01*
X98894433Y-128323066D01*
X98834663Y-128453939D01*
X98814976Y-128520984D01*
X98794500Y-128663403D01*
X98794500Y-134981837D01*
X98797541Y-135013731D01*
X98784308Y-135082336D01*
X98736086Y-135132896D01*
X98674101Y-135149500D01*
X87306401Y-135149500D01*
X87239362Y-135129815D01*
X87193607Y-135077011D01*
X87182402Y-135025123D01*
X87186267Y-133754591D01*
X87187851Y-133233622D01*
X87207739Y-133166644D01*
X87260682Y-133121049D01*
X87311850Y-133110000D01*
X87730000Y-133110000D01*
X87730000Y-131509568D01*
X88179500Y-131509568D01*
X88179500Y-131790431D01*
X88210942Y-132069494D01*
X88210945Y-132069512D01*
X88273439Y-132343317D01*
X88273443Y-132343329D01*
X88366200Y-132608411D01*
X88488053Y-132861442D01*
X88488055Y-132861445D01*
X88637477Y-133099248D01*
X88706185Y-133185405D01*
X88780899Y-133279094D01*
X88812584Y-133318825D01*
X89011175Y-133517416D01*
X89230752Y-133692523D01*
X89468555Y-133841945D01*
X89721592Y-133963801D01*
X89920680Y-134033465D01*
X89986670Y-134056556D01*
X89986682Y-134056560D01*
X90260491Y-134119055D01*
X90260497Y-134119055D01*
X90260505Y-134119057D01*
X90446547Y-134140018D01*
X90539569Y-134150499D01*
X90539572Y-134150500D01*
X90539575Y-134150500D01*
X90820428Y-134150500D01*
X90820429Y-134150499D01*
X90963055Y-134134429D01*
X91099494Y-134119057D01*
X91099499Y-134119056D01*
X91099509Y-134119055D01*
X91373318Y-134056560D01*
X91638408Y-133963801D01*
X91891445Y-133841945D01*
X92129248Y-133692523D01*
X92348825Y-133517416D01*
X92547416Y-133318825D01*
X92722523Y-133099248D01*
X92871945Y-132861445D01*
X92993801Y-132608408D01*
X93086560Y-132343318D01*
X93149055Y-132069509D01*
X93180500Y-131790425D01*
X93180500Y-131509575D01*
X93149055Y-131230491D01*
X93086560Y-130956682D01*
X92993801Y-130691592D01*
X92871945Y-130438555D01*
X92722523Y-130200752D01*
X92547416Y-129981175D01*
X92348825Y-129782584D01*
X92129248Y-129607477D01*
X91891445Y-129458055D01*
X91891442Y-129458053D01*
X91638411Y-129336200D01*
X91373329Y-129243443D01*
X91373317Y-129243439D01*
X91099512Y-129180945D01*
X91099494Y-129180942D01*
X90820431Y-129149500D01*
X90820425Y-129149500D01*
X90539575Y-129149500D01*
X90539568Y-129149500D01*
X90260505Y-129180942D01*
X90260487Y-129180945D01*
X89986682Y-129243439D01*
X89986670Y-129243443D01*
X89721588Y-129336200D01*
X89468557Y-129458053D01*
X89230753Y-129607476D01*
X89011175Y-129782583D01*
X88812583Y-129981175D01*
X88637476Y-130200753D01*
X88488053Y-130438557D01*
X88366200Y-130691588D01*
X88273443Y-130956670D01*
X88273439Y-130956682D01*
X88210945Y-131230487D01*
X88210942Y-131230505D01*
X88179500Y-131509568D01*
X87730000Y-131509568D01*
X87730000Y-123816638D01*
X87749685Y-123749599D01*
X87802489Y-123703844D01*
X87871647Y-123693900D01*
X87925121Y-123715062D01*
G37*
%TD.AperFunction*%
%TA.AperFunction,Conductor*%
G36*
X128003809Y-124644185D02*
G01*
X128024451Y-124660819D01*
X128288181Y-124924549D01*
X128321666Y-124985872D01*
X128324500Y-125012230D01*
X128324500Y-125131613D01*
X128330913Y-125202192D01*
X128330913Y-125202194D01*
X128330914Y-125202196D01*
X128377581Y-125351958D01*
X128381522Y-125364606D01*
X128418848Y-125426350D01*
X128436684Y-125493905D01*
X128415166Y-125560378D01*
X128361126Y-125604666D01*
X128312731Y-125614500D01*
X126244831Y-125614500D01*
X126225234Y-125614880D01*
X126223158Y-125614960D01*
X126215569Y-125615254D01*
X126195927Y-125616401D01*
X125960550Y-125634756D01*
X125939526Y-125637917D01*
X125889208Y-125645483D01*
X125889199Y-125645484D01*
X125889192Y-125645486D01*
X125854784Y-125653204D01*
X125854770Y-125653207D01*
X125843704Y-125656533D01*
X125840876Y-125657382D01*
X125837744Y-125658164D01*
X125833664Y-125659548D01*
X125831537Y-125660188D01*
X125831512Y-125660197D01*
X125785833Y-125673925D01*
X125780617Y-125676124D01*
X125766613Y-125682322D01*
X125759001Y-125684907D01*
X125758256Y-125685161D01*
X125697152Y-125722903D01*
X125697153Y-125722904D01*
X125694643Y-125724454D01*
X125659981Y-125743662D01*
X125658297Y-125744939D01*
X125659312Y-125746278D01*
X125639267Y-125758661D01*
X125639265Y-125758661D01*
X125635856Y-125760767D01*
X125635844Y-125760776D01*
X125622731Y-125771734D01*
X125619191Y-125774584D01*
X125618417Y-125775184D01*
X125618315Y-125775223D01*
X125618192Y-125775350D01*
X125617467Y-125775899D01*
X125617395Y-125775968D01*
X125604221Y-125785963D01*
X125604220Y-125785963D01*
X125601355Y-125788865D01*
X125592646Y-125796879D01*
X125582263Y-125805556D01*
X125582234Y-125805581D01*
X125570651Y-125818477D01*
X125557795Y-125832788D01*
X125553799Y-125837031D01*
X125503180Y-125888300D01*
X125497911Y-125895433D01*
X125497455Y-125895096D01*
X125483640Y-125913552D01*
X125456693Y-125940499D01*
X125437903Y-125955920D01*
X125409885Y-125974641D01*
X125388446Y-125986100D01*
X125357328Y-125998989D01*
X125334071Y-126006045D01*
X125329889Y-126006877D01*
X125301031Y-126012617D01*
X125276841Y-126015000D01*
X125243159Y-126015000D01*
X125218970Y-126012617D01*
X125185924Y-126006044D01*
X125162666Y-125998988D01*
X125131547Y-125986098D01*
X125110111Y-125974640D01*
X125082101Y-125955925D01*
X125063306Y-125940500D01*
X125049599Y-125926792D01*
X125049598Y-125926791D01*
X124993816Y-125878613D01*
X124993800Y-125878599D01*
X124964846Y-125857068D01*
X124951534Y-125848603D01*
X124905527Y-125796020D01*
X124895252Y-125726910D01*
X124923971Y-125663216D01*
X124952973Y-125638431D01*
X124978044Y-125622968D01*
X125097968Y-125503044D01*
X125187003Y-125358697D01*
X125240349Y-125197708D01*
X125250500Y-125098345D01*
X125250499Y-124748499D01*
X125270183Y-124681461D01*
X125322987Y-124635706D01*
X125374499Y-124624500D01*
X127936770Y-124624500D01*
X128003809Y-124644185D01*
G37*
%TD.AperFunction*%
%TA.AperFunction,Conductor*%
G36*
X133239198Y-90929246D02*
G01*
X133242253Y-90932199D01*
X133633181Y-91323127D01*
X133666666Y-91384450D01*
X133669500Y-91410808D01*
X133669500Y-100423316D01*
X133649815Y-100490355D01*
X133616623Y-100524891D01*
X133480859Y-100619953D01*
X133319954Y-100780858D01*
X133189432Y-100967265D01*
X133189431Y-100967267D01*
X133093261Y-101173502D01*
X133093258Y-101173511D01*
X133034366Y-101393302D01*
X133034364Y-101393312D01*
X133019500Y-101563214D01*
X133019500Y-103276785D01*
X133034364Y-103446687D01*
X133034366Y-103446697D01*
X133093258Y-103666488D01*
X133093261Y-103666497D01*
X133189431Y-103872732D01*
X133189432Y-103872734D01*
X133319954Y-104059141D01*
X133480858Y-104220045D01*
X133480861Y-104220047D01*
X133667266Y-104350568D01*
X133873504Y-104446739D01*
X134093308Y-104505635D01*
X134263214Y-104520499D01*
X134263215Y-104520500D01*
X134263216Y-104520500D01*
X134376785Y-104520500D01*
X134376785Y-104520499D01*
X134546692Y-104505635D01*
X134766496Y-104446739D01*
X134972734Y-104350568D01*
X135159139Y-104220047D01*
X135320047Y-104059139D01*
X135450568Y-103872734D01*
X135474532Y-103821341D01*
X135520702Y-103768905D01*
X135587895Y-103749752D01*
X135654777Y-103769967D01*
X135696271Y-103815294D01*
X135730739Y-103879779D01*
X135730751Y-103879799D01*
X135818278Y-104010793D01*
X135818286Y-104010804D01*
X135818291Y-104010811D01*
X135881157Y-104087412D01*
X135992588Y-104198843D01*
X136069189Y-104261709D01*
X136069198Y-104261715D01*
X136069206Y-104261721D01*
X136200200Y-104349248D01*
X136200205Y-104349251D01*
X136200217Y-104349259D01*
X136200226Y-104349263D01*
X136200228Y-104349265D01*
X136287603Y-104395968D01*
X136287605Y-104395968D01*
X136287611Y-104395972D01*
X136433202Y-104456278D01*
X136528032Y-104485044D01*
X136682590Y-104515787D01*
X136781207Y-104525500D01*
X136781209Y-104525500D01*
X136938791Y-104525500D01*
X136938793Y-104525500D01*
X137037410Y-104515787D01*
X137191968Y-104485044D01*
X137286798Y-104456278D01*
X137432389Y-104395972D01*
X137519783Y-104349259D01*
X137650811Y-104261709D01*
X137727412Y-104198843D01*
X137838843Y-104087412D01*
X137901709Y-104010811D01*
X137952398Y-103934948D01*
X138006009Y-103890144D01*
X138075334Y-103881437D01*
X138138362Y-103911591D01*
X138175082Y-103971034D01*
X138179500Y-104003840D01*
X138179500Y-108738575D01*
X138159815Y-108805614D01*
X138107011Y-108851369D01*
X138037853Y-108861313D01*
X137974297Y-108832288D01*
X137945015Y-108794870D01*
X137928070Y-108761614D01*
X137885051Y-108677184D01*
X137872566Y-108660000D01*
X137760109Y-108505213D01*
X137609786Y-108354890D01*
X137437820Y-108229951D01*
X137248414Y-108133444D01*
X137248413Y-108133443D01*
X137248412Y-108133443D01*
X137046243Y-108067754D01*
X137046241Y-108067753D01*
X137046240Y-108067753D01*
X136884957Y-108042208D01*
X136836287Y-108034500D01*
X136623713Y-108034500D01*
X136575042Y-108042208D01*
X136413760Y-108067753D01*
X136211585Y-108133444D01*
X136022179Y-108229951D01*
X135850213Y-108354890D01*
X135699890Y-108505213D01*
X135574951Y-108677179D01*
X135478444Y-108866585D01*
X135412753Y-109068760D01*
X135379500Y-109278713D01*
X135379500Y-109491286D01*
X135403802Y-109644726D01*
X135412754Y-109701243D01*
X135415599Y-109710000D01*
X135478444Y-109903414D01*
X135574951Y-110092820D01*
X135699890Y-110264786D01*
X135850213Y-110415109D01*
X136026125Y-110542915D01*
X136025330Y-110544009D01*
X136068084Y-110591268D01*
X136080351Y-110649218D01*
X136080154Y-110655271D01*
X136080000Y-110660000D01*
X136080000Y-111110000D01*
X136080000Y-111560000D01*
X136082139Y-111625545D01*
X136116067Y-111752167D01*
X136181612Y-111865694D01*
X136274306Y-111958388D01*
X136343305Y-111998225D01*
X136343406Y-111998283D01*
X136391621Y-112048851D01*
X136404843Y-112117458D01*
X136378875Y-112182322D01*
X136343405Y-112213057D01*
X136259309Y-112261609D01*
X136259304Y-112261613D01*
X136166613Y-112354304D01*
X136166611Y-112354307D01*
X136101068Y-112467832D01*
X136067138Y-112594458D01*
X136065000Y-112659999D01*
X136065000Y-113560004D01*
X136065687Y-113581070D01*
X136048198Y-113648716D01*
X136014638Y-113685430D01*
X135850214Y-113804890D01*
X135850209Y-113804894D01*
X135699890Y-113955213D01*
X135574951Y-114127179D01*
X135478444Y-114316585D01*
X135412753Y-114518760D01*
X135379500Y-114728713D01*
X135379500Y-114941286D01*
X135412730Y-115151096D01*
X135412754Y-115151243D01*
X135472932Y-115336452D01*
X135478444Y-115353414D01*
X135574951Y-115542820D01*
X135699890Y-115714786D01*
X135850213Y-115865109D01*
X136022179Y-115990048D01*
X136022181Y-115990049D01*
X136022184Y-115990051D01*
X136211588Y-116086557D01*
X136413757Y-116152246D01*
X136623713Y-116185500D01*
X136623714Y-116185500D01*
X136836286Y-116185500D01*
X136836287Y-116185500D01*
X137046243Y-116152246D01*
X137248412Y-116086557D01*
X137437816Y-115990051D01*
X137459789Y-115974086D01*
X137609786Y-115865109D01*
X137609788Y-115865106D01*
X137609792Y-115865104D01*
X137760104Y-115714792D01*
X137760106Y-115714788D01*
X137760109Y-115714786D01*
X137885048Y-115542820D01*
X137885047Y-115542820D01*
X137885051Y-115542816D01*
X137945015Y-115425128D01*
X137992989Y-115374333D01*
X138060810Y-115357538D01*
X138126945Y-115380075D01*
X138170397Y-115434790D01*
X138179500Y-115481424D01*
X138179500Y-120223811D01*
X138159815Y-120290850D01*
X138107011Y-120336605D01*
X138037853Y-120346549D01*
X137974297Y-120317524D01*
X137953925Y-120294934D01*
X137860045Y-120160858D01*
X137699141Y-119999954D01*
X137512734Y-119869432D01*
X137512732Y-119869431D01*
X137306497Y-119773261D01*
X137306488Y-119773258D01*
X137086697Y-119714366D01*
X137086687Y-119714364D01*
X136916785Y-119699500D01*
X136916784Y-119699500D01*
X136803216Y-119699500D01*
X136803215Y-119699500D01*
X136633312Y-119714364D01*
X136633302Y-119714366D01*
X136413511Y-119773258D01*
X136413502Y-119773261D01*
X136207267Y-119869431D01*
X136207265Y-119869432D01*
X136020858Y-119999954D01*
X135859954Y-120160858D01*
X135729432Y-120347265D01*
X135729431Y-120347267D01*
X135702382Y-120405275D01*
X135656209Y-120457714D01*
X135589016Y-120476866D01*
X135522135Y-120456650D01*
X135477618Y-120405275D01*
X135450568Y-120347266D01*
X135320047Y-120160861D01*
X135320045Y-120160858D01*
X135159141Y-119999954D01*
X134972734Y-119869432D01*
X134972732Y-119869431D01*
X134766497Y-119773261D01*
X134766488Y-119773258D01*
X134546697Y-119714366D01*
X134546687Y-119714364D01*
X134376785Y-119699500D01*
X134376784Y-119699500D01*
X134263216Y-119699500D01*
X134263215Y-119699500D01*
X134093312Y-119714364D01*
X134093302Y-119714366D01*
X133873511Y-119773258D01*
X133873502Y-119773261D01*
X133667267Y-119869431D01*
X133667265Y-119869432D01*
X133480858Y-119999954D01*
X133319954Y-120160858D01*
X133189432Y-120347265D01*
X133189431Y-120347267D01*
X133093261Y-120553502D01*
X133093258Y-120553511D01*
X133034366Y-120773302D01*
X133034364Y-120773312D01*
X133019500Y-120943214D01*
X133019500Y-122656785D01*
X133034364Y-122826687D01*
X133034366Y-122826697D01*
X133093258Y-123046488D01*
X133093261Y-123046497D01*
X133189431Y-123252732D01*
X133189432Y-123252734D01*
X133319951Y-123439137D01*
X133319952Y-123439138D01*
X133319953Y-123439139D01*
X133413182Y-123532368D01*
X133427888Y-123559299D01*
X133444477Y-123585113D01*
X133445368Y-123591312D01*
X133446666Y-123593689D01*
X133449500Y-123620048D01*
X133449500Y-123672395D01*
X133429815Y-123739434D01*
X133377011Y-123785189D01*
X133307853Y-123795133D01*
X133262209Y-123775986D01*
X133261231Y-123777741D01*
X133253492Y-123773424D01*
X133206711Y-123755495D01*
X133119141Y-123721933D01*
X133119136Y-123721932D01*
X133119134Y-123721931D01*
X133051006Y-123706468D01*
X133051004Y-123706467D01*
X133051000Y-123706467D01*
X132907584Y-123694914D01*
X132907582Y-123694914D01*
X132907581Y-123694914D01*
X132012624Y-123750849D01*
X131886730Y-123775004D01*
X131886728Y-123775004D01*
X131886726Y-123775005D01*
X131883733Y-123775986D01*
X131827458Y-123794428D01*
X131827454Y-123794430D01*
X131827452Y-123794431D01*
X131825976Y-123795133D01*
X131711702Y-123849464D01*
X131711701Y-123849464D01*
X131615377Y-123932884D01*
X131551813Y-123961892D01*
X131482658Y-123951929D01*
X131470057Y-123945269D01*
X131364606Y-123881522D01*
X131202196Y-123830914D01*
X131202194Y-123830913D01*
X131202192Y-123830913D01*
X131152778Y-123826423D01*
X131131616Y-123824500D01*
X130618384Y-123824500D01*
X130599145Y-123826248D01*
X130547807Y-123830913D01*
X130385393Y-123881522D01*
X130239811Y-123969530D01*
X130239811Y-123969531D01*
X130196163Y-124013180D01*
X130169234Y-124027884D01*
X130143416Y-124044477D01*
X130137216Y-124045368D01*
X130134840Y-124046666D01*
X130108481Y-124049500D01*
X129991519Y-124049500D01*
X129924480Y-124029815D01*
X129903837Y-124013180D01*
X129860185Y-123969528D01*
X129850133Y-123963451D01*
X129802947Y-123911921D01*
X129791110Y-123843062D01*
X129818381Y-123778734D01*
X129861879Y-123744955D01*
X129892734Y-123730568D01*
X130079139Y-123600047D01*
X130240047Y-123439139D01*
X130370568Y-123252734D01*
X130466739Y-123046496D01*
X130525635Y-122826692D01*
X130540500Y-122656784D01*
X130540500Y-120943216D01*
X130525635Y-120773308D01*
X130466739Y-120553504D01*
X130370568Y-120347266D01*
X130240047Y-120160861D01*
X130240045Y-120160858D01*
X130079141Y-119999954D01*
X129892734Y-119869432D01*
X129892732Y-119869431D01*
X129686497Y-119773261D01*
X129686488Y-119773258D01*
X129466697Y-119714366D01*
X129466687Y-119714364D01*
X129296785Y-119699500D01*
X129296784Y-119699500D01*
X129183216Y-119699500D01*
X129183215Y-119699500D01*
X129013312Y-119714364D01*
X129013302Y-119714366D01*
X128793511Y-119773258D01*
X128793502Y-119773261D01*
X128587267Y-119869431D01*
X128587265Y-119869432D01*
X128400858Y-119999954D01*
X128239954Y-120160858D01*
X128109432Y-120347265D01*
X128109431Y-120347267D01*
X128082382Y-120405275D01*
X128036209Y-120457714D01*
X127969016Y-120476866D01*
X127902135Y-120456650D01*
X127857618Y-120405275D01*
X127830568Y-120347266D01*
X127700047Y-120160861D01*
X127700045Y-120160858D01*
X127539140Y-119999953D01*
X127403377Y-119904891D01*
X127359752Y-119850314D01*
X127350500Y-119803316D01*
X127350500Y-116105928D01*
X127332883Y-116017365D01*
X127330500Y-115993173D01*
X127330500Y-114442486D01*
X132524500Y-114442486D01*
X132524500Y-114627513D01*
X132553445Y-114810265D01*
X132610619Y-114986232D01*
X132610620Y-114986235D01*
X132684764Y-115131748D01*
X132694622Y-115151096D01*
X132803379Y-115300787D01*
X132934213Y-115431621D01*
X133083904Y-115540378D01*
X133164763Y-115581577D01*
X133248764Y-115624379D01*
X133248767Y-115624380D01*
X133336750Y-115652967D01*
X133424736Y-115681555D01*
X133607486Y-115710500D01*
X133607487Y-115710500D01*
X133792513Y-115710500D01*
X133792514Y-115710500D01*
X133975264Y-115681555D01*
X134151235Y-115624379D01*
X134316096Y-115540378D01*
X134465787Y-115431621D01*
X134596621Y-115300787D01*
X134705378Y-115151096D01*
X134789379Y-114986235D01*
X134846555Y-114810264D01*
X134875500Y-114627514D01*
X134875500Y-114442486D01*
X134846555Y-114259736D01*
X134803485Y-114127179D01*
X134789380Y-114083767D01*
X134789379Y-114083764D01*
X134732399Y-113971936D01*
X134705378Y-113918904D01*
X134596621Y-113769213D01*
X134465787Y-113638379D01*
X134316096Y-113529622D01*
X134151235Y-113445620D01*
X134151232Y-113445619D01*
X133975265Y-113388445D01*
X133883889Y-113373972D01*
X133792514Y-113359500D01*
X133607486Y-113359500D01*
X133546569Y-113369148D01*
X133424734Y-113388445D01*
X133248767Y-113445619D01*
X133248764Y-113445620D01*
X133083903Y-113529622D01*
X133013092Y-113581070D01*
X132934213Y-113638379D01*
X132934211Y-113638381D01*
X132934210Y-113638381D01*
X132803381Y-113769210D01*
X132803381Y-113769211D01*
X132803379Y-113769213D01*
X132777458Y-113804890D01*
X132694622Y-113918903D01*
X132610620Y-114083764D01*
X132610619Y-114083767D01*
X132553445Y-114259734D01*
X132524500Y-114442486D01*
X127330500Y-114442486D01*
X127330500Y-112154935D01*
X127350185Y-112087896D01*
X127351366Y-112086090D01*
X127389394Y-112029179D01*
X127449737Y-111883497D01*
X127480500Y-111728842D01*
X127480500Y-111660000D01*
X132780000Y-111660000D01*
X132780000Y-112110000D01*
X132780000Y-112560000D01*
X132782139Y-112625545D01*
X132816067Y-112752167D01*
X132881612Y-112865694D01*
X132974306Y-112958388D01*
X133087833Y-113023933D01*
X133214455Y-113057861D01*
X133280000Y-113060000D01*
X134180000Y-113060000D01*
X134245545Y-113057861D01*
X134372167Y-113023933D01*
X134485694Y-112958388D01*
X134578388Y-112865694D01*
X134643933Y-112752167D01*
X134677861Y-112625545D01*
X134680000Y-112560000D01*
X134680000Y-112110000D01*
X134680000Y-111660000D01*
X134677861Y-111594455D01*
X134643932Y-111467833D01*
X134578388Y-111354306D01*
X134485694Y-111261612D01*
X134372167Y-111196068D01*
X134372168Y-111196068D01*
X134333420Y-111185685D01*
X134245545Y-111162139D01*
X134245542Y-111162138D01*
X134245543Y-111162138D01*
X134180000Y-111160000D01*
X133280000Y-111160000D01*
X133214458Y-111162138D01*
X133087832Y-111196068D01*
X132974307Y-111261611D01*
X132974304Y-111261613D01*
X132881613Y-111354304D01*
X132881611Y-111354307D01*
X132816068Y-111467832D01*
X132782138Y-111594458D01*
X132780035Y-111658915D01*
X132780000Y-111660000D01*
X127480500Y-111660000D01*
X127480500Y-111571158D01*
X127480500Y-111571155D01*
X127480499Y-111571153D01*
X127449737Y-111416503D01*
X127423975Y-111354307D01*
X127389397Y-111270827D01*
X127389390Y-111270814D01*
X127301789Y-111139711D01*
X127301786Y-111139707D01*
X127190292Y-111028213D01*
X127190288Y-111028210D01*
X127059185Y-110940609D01*
X127059172Y-110940602D01*
X126913501Y-110880264D01*
X126913489Y-110880261D01*
X126758845Y-110849500D01*
X126758842Y-110849500D01*
X126601158Y-110849500D01*
X126601155Y-110849500D01*
X126446510Y-110880261D01*
X126446498Y-110880264D01*
X126300827Y-110940602D01*
X126300814Y-110940609D01*
X126169711Y-111028210D01*
X126169707Y-111028213D01*
X126058213Y-111139707D01*
X126058210Y-111139711D01*
X125970609Y-111270814D01*
X125970602Y-111270827D01*
X125910264Y-111416498D01*
X125910261Y-111416510D01*
X125879500Y-111571153D01*
X125879500Y-111728846D01*
X125910261Y-111883489D01*
X125910264Y-111883501D01*
X125970602Y-112029172D01*
X125970606Y-112029179D01*
X126008602Y-112086044D01*
X126029480Y-112152721D01*
X126029500Y-112154935D01*
X126029500Y-115760191D01*
X126009815Y-115827230D01*
X125957011Y-115872985D01*
X125887853Y-115882929D01*
X125824297Y-115853904D01*
X125817819Y-115847872D01*
X119614673Y-109644726D01*
X119614669Y-109644723D01*
X119508127Y-109573535D01*
X119389744Y-109524499D01*
X119389738Y-109524497D01*
X119264071Y-109499500D01*
X119264069Y-109499500D01*
X103350808Y-109499500D01*
X103283769Y-109479815D01*
X103263127Y-109463181D01*
X102959945Y-109159999D01*
X122780000Y-109159999D01*
X122780000Y-110060000D01*
X122782138Y-110125541D01*
X122782138Y-110125544D01*
X122782139Y-110125545D01*
X122816068Y-110252167D01*
X122881612Y-110365694D01*
X122974306Y-110458388D01*
X123087833Y-110523932D01*
X123214455Y-110557861D01*
X123280000Y-110560000D01*
X130680000Y-110560000D01*
X130745545Y-110557861D01*
X130872167Y-110523933D01*
X130985694Y-110458388D01*
X131078388Y-110365694D01*
X131143933Y-110252167D01*
X131177861Y-110125545D01*
X131180000Y-110060000D01*
X131180000Y-109592486D01*
X132524500Y-109592486D01*
X132524500Y-109777513D01*
X132553445Y-109960265D01*
X132610619Y-110136232D01*
X132610620Y-110136235D01*
X132669679Y-110252143D01*
X132694622Y-110301096D01*
X132803379Y-110450787D01*
X132934213Y-110581621D01*
X133083904Y-110690378D01*
X133154727Y-110726464D01*
X133248764Y-110774379D01*
X133248767Y-110774380D01*
X133329158Y-110800500D01*
X133424736Y-110831555D01*
X133607486Y-110860500D01*
X133607487Y-110860500D01*
X133792513Y-110860500D01*
X133792514Y-110860500D01*
X133975264Y-110831555D01*
X134151235Y-110774379D01*
X134316096Y-110690378D01*
X134465787Y-110581621D01*
X134596621Y-110450787D01*
X134705378Y-110301096D01*
X134789379Y-110136235D01*
X134846555Y-109960264D01*
X134875500Y-109777514D01*
X134875500Y-109592486D01*
X134846555Y-109409736D01*
X134817967Y-109321750D01*
X134789380Y-109233767D01*
X134789379Y-109233764D01*
X134705377Y-109068903D01*
X134705271Y-109068757D01*
X134596621Y-108919213D01*
X134465787Y-108788379D01*
X134316096Y-108679622D01*
X134277586Y-108660000D01*
X134151235Y-108595620D01*
X134151232Y-108595619D01*
X133975265Y-108538445D01*
X133883889Y-108523972D01*
X133792514Y-108509500D01*
X133607486Y-108509500D01*
X133546569Y-108519148D01*
X133424734Y-108538445D01*
X133248767Y-108595619D01*
X133248764Y-108595620D01*
X133083903Y-108679622D01*
X133002762Y-108738575D01*
X132934213Y-108788379D01*
X132934211Y-108788381D01*
X132934210Y-108788381D01*
X132803381Y-108919210D01*
X132803381Y-108919211D01*
X132803379Y-108919213D01*
X132756672Y-108983499D01*
X132694622Y-109068903D01*
X132610620Y-109233764D01*
X132610619Y-109233767D01*
X132553445Y-109409734D01*
X132524500Y-109592486D01*
X131180000Y-109592486D01*
X131180000Y-109160000D01*
X131177861Y-109094455D01*
X131143933Y-108967833D01*
X131078388Y-108854306D01*
X130985694Y-108761612D01*
X130872167Y-108696067D01*
X130745545Y-108662139D01*
X130680000Y-108660000D01*
X126980000Y-108660000D01*
X123280000Y-108660000D01*
X123214458Y-108662138D01*
X123087832Y-108696068D01*
X122974307Y-108761611D01*
X122974304Y-108761613D01*
X122881613Y-108854304D01*
X122881611Y-108854307D01*
X122816068Y-108967832D01*
X122782138Y-109094458D01*
X122780000Y-109159999D01*
X102959945Y-109159999D01*
X101186819Y-107386873D01*
X101172115Y-107359945D01*
X101155523Y-107334127D01*
X101154631Y-107327926D01*
X101153334Y-107325550D01*
X101150500Y-107299192D01*
X101150500Y-107294935D01*
X101170185Y-107227896D01*
X101171366Y-107226090D01*
X101209394Y-107169179D01*
X101269737Y-107023497D01*
X101300500Y-106868842D01*
X101300500Y-106711158D01*
X101300500Y-106711155D01*
X101300499Y-106711153D01*
X101269738Y-106556510D01*
X101269737Y-106556503D01*
X101269735Y-106556498D01*
X101209397Y-106410827D01*
X101209390Y-106410814D01*
X101121789Y-106279711D01*
X101121786Y-106279707D01*
X101010292Y-106168213D01*
X101010288Y-106168210D01*
X100879185Y-106080609D01*
X100879172Y-106080602D01*
X100733501Y-106020264D01*
X100733489Y-106020261D01*
X100578845Y-105989500D01*
X100578842Y-105989500D01*
X100421158Y-105989500D01*
X100421155Y-105989500D01*
X100266510Y-106020261D01*
X100266498Y-106020264D01*
X100120827Y-106080602D01*
X100120814Y-106080609D01*
X99989711Y-106168210D01*
X99989707Y-106168213D01*
X99878213Y-106279707D01*
X99878210Y-106279711D01*
X99790609Y-106410814D01*
X99790602Y-106410827D01*
X99730264Y-106556498D01*
X99730261Y-106556510D01*
X99699500Y-106711153D01*
X99699500Y-106868846D01*
X99730261Y-107023489D01*
X99730264Y-107023501D01*
X99790602Y-107169172D01*
X99790606Y-107169179D01*
X99828602Y-107226044D01*
X99849480Y-107292721D01*
X99849500Y-107294935D01*
X99849500Y-107684069D01*
X99849500Y-107684071D01*
X99849499Y-107684071D01*
X99874497Y-107809738D01*
X99874499Y-107809744D01*
X99923534Y-107928125D01*
X99994726Y-108034673D01*
X102615324Y-110655271D01*
X102615331Y-110655277D01*
X102721871Y-110726464D01*
X102721870Y-110726464D01*
X102756544Y-110740826D01*
X102840256Y-110775501D01*
X102840260Y-110775501D01*
X102840261Y-110775502D01*
X102965928Y-110800500D01*
X102965931Y-110800500D01*
X118879192Y-110800500D01*
X118946231Y-110820185D01*
X118966873Y-110836819D01*
X126013181Y-117883127D01*
X126046666Y-117944450D01*
X126049500Y-117970808D01*
X126049500Y-119803316D01*
X126029815Y-119870355D01*
X125996623Y-119904891D01*
X125860859Y-119999953D01*
X125699954Y-120160858D01*
X125569432Y-120347265D01*
X125569431Y-120347267D01*
X125542382Y-120405275D01*
X125496209Y-120457714D01*
X125429016Y-120476866D01*
X125362135Y-120456650D01*
X125317618Y-120405275D01*
X125290568Y-120347266D01*
X125160047Y-120160861D01*
X125160045Y-120160858D01*
X124999141Y-119999954D01*
X124812734Y-119869432D01*
X124812732Y-119869431D01*
X124606497Y-119773261D01*
X124606488Y-119773258D01*
X124386697Y-119714366D01*
X124386687Y-119714364D01*
X124216785Y-119699500D01*
X124216784Y-119699500D01*
X124103216Y-119699500D01*
X124103215Y-119699500D01*
X123933312Y-119714364D01*
X123933302Y-119714366D01*
X123713511Y-119773258D01*
X123713502Y-119773261D01*
X123507267Y-119869431D01*
X123507265Y-119869432D01*
X123320858Y-119999954D01*
X123159954Y-120160858D01*
X123029432Y-120347265D01*
X123029431Y-120347267D01*
X123002382Y-120405275D01*
X122956209Y-120457714D01*
X122889016Y-120476866D01*
X122822135Y-120456650D01*
X122777618Y-120405275D01*
X122750568Y-120347266D01*
X122620047Y-120160861D01*
X122620045Y-120160858D01*
X122459141Y-119999954D01*
X122272734Y-119869432D01*
X122272732Y-119869431D01*
X122066497Y-119773261D01*
X122066488Y-119773258D01*
X121846697Y-119714366D01*
X121846687Y-119714364D01*
X121676785Y-119699500D01*
X121676784Y-119699500D01*
X121563216Y-119699500D01*
X121563215Y-119699500D01*
X121393312Y-119714364D01*
X121393302Y-119714366D01*
X121173511Y-119773258D01*
X121173502Y-119773261D01*
X120967267Y-119869431D01*
X120967265Y-119869432D01*
X120780858Y-119999954D01*
X120619953Y-120160859D01*
X120573751Y-120226844D01*
X120519174Y-120270469D01*
X120449676Y-120277663D01*
X120387321Y-120246140D01*
X120352028Y-120186386D01*
X120347024Y-120166781D01*
X120347021Y-120166773D01*
X120344570Y-120160855D01*
X120316580Y-120093280D01*
X120316568Y-120093252D01*
X120293220Y-120044451D01*
X120293217Y-120044446D01*
X120212090Y-119936075D01*
X120206994Y-119929267D01*
X120206989Y-119929262D01*
X120206984Y-119929256D01*
X120150747Y-119873019D01*
X120150731Y-119873005D01*
X120110475Y-119836843D01*
X120110467Y-119836837D01*
X119986736Y-119763426D01*
X119986737Y-119763426D01*
X119937729Y-119743127D01*
X119913226Y-119732978D01*
X119913212Y-119732973D01*
X119913204Y-119732970D01*
X119862199Y-119714976D01*
X119814726Y-119708150D01*
X119719782Y-119694500D01*
X118440218Y-119694500D01*
X118440216Y-119694500D01*
X118386185Y-119697395D01*
X118386181Y-119697396D01*
X118246778Y-119732976D01*
X118246766Y-119732980D01*
X118173280Y-119763419D01*
X118173252Y-119763431D01*
X118124451Y-119786779D01*
X118124446Y-119786782D01*
X118009268Y-119873005D01*
X118009256Y-119873015D01*
X117953019Y-119929252D01*
X117916843Y-119969524D01*
X117916837Y-119969532D01*
X117843426Y-120093263D01*
X117812978Y-120166773D01*
X117803139Y-120194663D01*
X117762271Y-120251334D01*
X117697252Y-120276914D01*
X117628725Y-120263281D01*
X117584629Y-120224532D01*
X117540047Y-120160861D01*
X117540044Y-120160858D01*
X117540042Y-120160855D01*
X117379141Y-119999954D01*
X117192734Y-119869432D01*
X117192732Y-119869431D01*
X116986497Y-119773261D01*
X116986488Y-119773258D01*
X116766697Y-119714366D01*
X116766687Y-119714364D01*
X116596785Y-119699500D01*
X116596784Y-119699500D01*
X116483216Y-119699500D01*
X116483215Y-119699500D01*
X116313312Y-119714364D01*
X116313302Y-119714366D01*
X116093511Y-119773258D01*
X116093502Y-119773261D01*
X115887267Y-119869431D01*
X115887265Y-119869432D01*
X115700858Y-119999954D01*
X115539954Y-120160858D01*
X115409432Y-120347265D01*
X115409431Y-120347267D01*
X115382382Y-120405275D01*
X115336209Y-120457714D01*
X115269016Y-120476866D01*
X115202135Y-120456650D01*
X115157618Y-120405275D01*
X115130568Y-120347266D01*
X115000047Y-120160861D01*
X115000045Y-120160858D01*
X114839141Y-119999954D01*
X114652734Y-119869432D01*
X114652732Y-119869431D01*
X114446497Y-119773261D01*
X114446488Y-119773258D01*
X114226697Y-119714366D01*
X114226687Y-119714364D01*
X114056785Y-119699500D01*
X114056784Y-119699500D01*
X113943216Y-119699500D01*
X113943215Y-119699500D01*
X113773312Y-119714364D01*
X113773302Y-119714366D01*
X113553511Y-119773258D01*
X113553502Y-119773261D01*
X113347267Y-119869431D01*
X113347265Y-119869432D01*
X113160858Y-119999954D01*
X112999954Y-120160858D01*
X112869432Y-120347265D01*
X112869431Y-120347267D01*
X112842382Y-120405275D01*
X112796209Y-120457714D01*
X112729016Y-120476866D01*
X112662135Y-120456650D01*
X112617618Y-120405275D01*
X112590568Y-120347266D01*
X112460047Y-120160861D01*
X112460045Y-120160858D01*
X112299141Y-119999954D01*
X112112734Y-119869432D01*
X112112732Y-119869431D01*
X111906497Y-119773261D01*
X111906488Y-119773258D01*
X111686697Y-119714366D01*
X111686687Y-119714364D01*
X111516785Y-119699500D01*
X111516784Y-119699500D01*
X111403216Y-119699500D01*
X111403215Y-119699500D01*
X111233312Y-119714364D01*
X111233302Y-119714366D01*
X111013511Y-119773258D01*
X111013502Y-119773261D01*
X110807267Y-119869431D01*
X110807265Y-119869432D01*
X110620858Y-119999954D01*
X110459954Y-120160858D01*
X110329432Y-120347265D01*
X110329431Y-120347267D01*
X110302382Y-120405275D01*
X110256209Y-120457714D01*
X110189016Y-120476866D01*
X110122135Y-120456650D01*
X110077618Y-120405275D01*
X110050568Y-120347266D01*
X109920047Y-120160861D01*
X109920045Y-120160858D01*
X109759141Y-119999954D01*
X109572734Y-119869432D01*
X109572732Y-119869431D01*
X109366497Y-119773261D01*
X109366488Y-119773258D01*
X109146697Y-119714366D01*
X109146687Y-119714364D01*
X108976785Y-119699500D01*
X108976784Y-119699500D01*
X108863216Y-119699500D01*
X108863215Y-119699500D01*
X108693312Y-119714364D01*
X108693302Y-119714366D01*
X108473511Y-119773258D01*
X108473502Y-119773261D01*
X108267267Y-119869431D01*
X108267265Y-119869432D01*
X108080858Y-119999954D01*
X107919954Y-120160858D01*
X107789432Y-120347265D01*
X107789431Y-120347267D01*
X107693261Y-120553502D01*
X107693258Y-120553511D01*
X107634366Y-120773302D01*
X107634364Y-120773312D01*
X107619500Y-120943214D01*
X107619500Y-122656785D01*
X107634364Y-122826687D01*
X107634366Y-122826697D01*
X107693258Y-123046488D01*
X107693263Y-123046502D01*
X107756450Y-123182007D01*
X107766942Y-123251084D01*
X107738422Y-123314868D01*
X107679945Y-123353107D01*
X107668260Y-123356028D01*
X107556092Y-123378340D01*
X107556082Y-123378343D01*
X107419508Y-123434914D01*
X107419505Y-123434915D01*
X107419505Y-123434916D01*
X107370871Y-123467412D01*
X107370870Y-123467411D01*
X107296585Y-123517046D01*
X107296578Y-123517052D01*
X106775451Y-124038181D01*
X106714128Y-124071666D01*
X106687770Y-124074500D01*
X106568384Y-124074500D01*
X106549145Y-124076248D01*
X106497807Y-124080913D01*
X106335393Y-124131522D01*
X106272740Y-124169398D01*
X106211171Y-124206617D01*
X106194917Y-124211148D01*
X106181958Y-124219477D01*
X106147023Y-124224500D01*
X105952977Y-124224500D01*
X105888828Y-124206617D01*
X105764606Y-124131522D01*
X105602196Y-124080914D01*
X105602194Y-124080913D01*
X105602192Y-124080913D01*
X105552778Y-124076423D01*
X105531616Y-124074500D01*
X104868384Y-124074500D01*
X104849145Y-124076248D01*
X104797807Y-124080913D01*
X104635393Y-124131522D01*
X104489811Y-124219530D01*
X104369530Y-124339811D01*
X104281522Y-124485393D01*
X104230913Y-124647807D01*
X104224500Y-124718386D01*
X104224500Y-125066832D01*
X104204815Y-125133871D01*
X104152011Y-125179626D01*
X104082853Y-125189570D01*
X104042147Y-125176244D01*
X103734620Y-125012230D01*
X103465235Y-124868558D01*
X103420618Y-124851383D01*
X103349947Y-124824178D01*
X103349943Y-124824177D01*
X103291602Y-124809593D01*
X103291594Y-124809591D01*
X103291588Y-124809590D01*
X103291587Y-124809590D01*
X103226724Y-124801605D01*
X103169000Y-124794500D01*
X101224000Y-124794500D01*
X101223991Y-124794500D01*
X101223990Y-124794501D01*
X101116549Y-124806052D01*
X101116537Y-124806054D01*
X101065027Y-124817260D01*
X100962502Y-124851383D01*
X100962496Y-124851386D01*
X100841462Y-124929171D01*
X100841451Y-124929179D01*
X100788659Y-124974923D01*
X100694433Y-125083664D01*
X100694430Y-125083668D01*
X100634664Y-125214534D01*
X100614973Y-125281592D01*
X100614210Y-125284647D01*
X100612940Y-125284329D01*
X100583083Y-125341693D01*
X100522437Y-125376390D01*
X100452660Y-125372792D01*
X100420791Y-125356090D01*
X100267820Y-125244951D01*
X100078414Y-125148444D01*
X100078413Y-125148443D01*
X100078412Y-125148443D01*
X99876243Y-125082754D01*
X99876241Y-125082753D01*
X99876240Y-125082753D01*
X99705192Y-125055662D01*
X99666287Y-125049500D01*
X99666286Y-125049500D01*
X99634500Y-125049500D01*
X99567461Y-125029815D01*
X99521706Y-124977011D01*
X99510500Y-124925500D01*
X99510500Y-123726662D01*
X99530185Y-123659623D01*
X99563379Y-123625086D01*
X99599140Y-123600046D01*
X99760045Y-123439141D01*
X99760047Y-123439139D01*
X99890568Y-123252734D01*
X99917618Y-123194724D01*
X99963790Y-123142285D01*
X100030983Y-123123133D01*
X100097865Y-123143348D01*
X100142382Y-123194725D01*
X100169429Y-123252728D01*
X100169432Y-123252734D01*
X100299954Y-123439141D01*
X100460858Y-123600045D01*
X100460861Y-123600047D01*
X100647266Y-123730568D01*
X100853504Y-123826739D01*
X100853509Y-123826740D01*
X100853511Y-123826741D01*
X100869085Y-123830914D01*
X101073308Y-123885635D01*
X101243214Y-123900499D01*
X101243215Y-123900500D01*
X101243216Y-123900500D01*
X101356785Y-123900500D01*
X101356785Y-123900499D01*
X101526692Y-123885635D01*
X101746496Y-123826739D01*
X101952734Y-123730568D01*
X102139139Y-123600047D01*
X102300047Y-123439139D01*
X102430568Y-123252734D01*
X102457618Y-123194724D01*
X102503790Y-123142285D01*
X102570983Y-123123133D01*
X102637865Y-123143348D01*
X102682382Y-123194725D01*
X102709429Y-123252728D01*
X102709432Y-123252734D01*
X102839954Y-123439141D01*
X103000858Y-123600045D01*
X103000861Y-123600047D01*
X103187266Y-123730568D01*
X103393504Y-123826739D01*
X103393509Y-123826740D01*
X103393511Y-123826741D01*
X103409085Y-123830914D01*
X103613308Y-123885635D01*
X103783214Y-123900499D01*
X103783215Y-123900500D01*
X103783216Y-123900500D01*
X103896785Y-123900500D01*
X103896785Y-123900499D01*
X104066692Y-123885635D01*
X104286496Y-123826739D01*
X104492734Y-123730568D01*
X104679139Y-123600047D01*
X104840047Y-123439139D01*
X104970568Y-123252734D01*
X105066739Y-123046496D01*
X105125635Y-122826692D01*
X105140500Y-122656784D01*
X105140500Y-120943216D01*
X105125635Y-120773308D01*
X105066739Y-120553504D01*
X104970568Y-120347266D01*
X104840047Y-120160861D01*
X104840045Y-120160858D01*
X104679141Y-119999954D01*
X104492734Y-119869432D01*
X104492732Y-119869431D01*
X104286497Y-119773261D01*
X104286488Y-119773258D01*
X104066697Y-119714366D01*
X104066687Y-119714364D01*
X103896785Y-119699500D01*
X103896784Y-119699500D01*
X103783216Y-119699500D01*
X103783215Y-119699500D01*
X103613312Y-119714364D01*
X103613302Y-119714366D01*
X103393511Y-119773258D01*
X103393502Y-119773261D01*
X103187267Y-119869431D01*
X103187265Y-119869432D01*
X103000858Y-119999954D01*
X102839954Y-120160858D01*
X102709432Y-120347265D01*
X102709431Y-120347267D01*
X102682382Y-120405275D01*
X102636209Y-120457714D01*
X102569016Y-120476866D01*
X102502135Y-120456650D01*
X102457618Y-120405275D01*
X102430568Y-120347266D01*
X102300047Y-120160861D01*
X102300045Y-120160858D01*
X102139141Y-119999954D01*
X101952734Y-119869432D01*
X101952732Y-119869431D01*
X101746497Y-119773261D01*
X101746488Y-119773258D01*
X101526697Y-119714366D01*
X101526687Y-119714364D01*
X101356785Y-119699500D01*
X101356784Y-119699500D01*
X101243216Y-119699500D01*
X101243215Y-119699500D01*
X101073312Y-119714364D01*
X101073302Y-119714366D01*
X100853511Y-119773258D01*
X100853502Y-119773261D01*
X100647267Y-119869431D01*
X100647265Y-119869432D01*
X100460858Y-119999954D01*
X100299954Y-120160858D01*
X100169432Y-120347265D01*
X100169431Y-120347267D01*
X100142382Y-120405275D01*
X100096209Y-120457714D01*
X100029016Y-120476866D01*
X99962135Y-120456650D01*
X99917618Y-120405275D01*
X99890568Y-120347266D01*
X99760047Y-120160861D01*
X99760045Y-120160858D01*
X99599141Y-119999954D01*
X99412734Y-119869432D01*
X99412732Y-119869431D01*
X99206497Y-119773261D01*
X99206488Y-119773258D01*
X98986697Y-119714366D01*
X98986687Y-119714364D01*
X98816785Y-119699500D01*
X98816784Y-119699500D01*
X98703216Y-119699500D01*
X98703215Y-119699500D01*
X98533312Y-119714364D01*
X98533302Y-119714366D01*
X98313511Y-119773258D01*
X98313502Y-119773261D01*
X98107267Y-119869431D01*
X98107265Y-119869432D01*
X97920858Y-119999954D01*
X97759954Y-120160858D01*
X97629432Y-120347265D01*
X97629431Y-120347267D01*
X97602382Y-120405275D01*
X97556209Y-120457714D01*
X97489016Y-120476866D01*
X97422135Y-120456650D01*
X97377618Y-120405275D01*
X97350568Y-120347266D01*
X97220047Y-120160861D01*
X97220045Y-120160858D01*
X97059141Y-119999954D01*
X96872734Y-119869432D01*
X96872732Y-119869431D01*
X96666497Y-119773261D01*
X96666488Y-119773258D01*
X96446697Y-119714366D01*
X96446687Y-119714364D01*
X96276785Y-119699500D01*
X96276784Y-119699500D01*
X96240089Y-119699500D01*
X96173050Y-119679815D01*
X96127295Y-119627011D01*
X96117351Y-119557853D01*
X96132701Y-119513501D01*
X96196392Y-119403186D01*
X96230500Y-119275892D01*
X96230500Y-112037486D01*
X105729500Y-112037486D01*
X105729500Y-113350713D01*
X105735913Y-113421292D01*
X105735913Y-113421294D01*
X105735914Y-113421296D01*
X105786522Y-113583706D01*
X105828568Y-113653259D01*
X105874530Y-113729288D01*
X105994811Y-113849569D01*
X105994813Y-113849570D01*
X105994815Y-113849572D01*
X106140394Y-113937578D01*
X106227566Y-113964741D01*
X106285712Y-114003478D01*
X106313686Y-114067503D01*
X106302605Y-114136488D01*
X106263560Y-114183444D01*
X106182782Y-114242132D01*
X106038028Y-114386886D01*
X105917715Y-114552486D01*
X105824781Y-114734876D01*
X105761522Y-114929565D01*
X105729500Y-115131748D01*
X105729500Y-115336451D01*
X105761522Y-115538634D01*
X105824781Y-115733323D01*
X105872630Y-115827230D01*
X105895943Y-115872985D01*
X105917715Y-115915713D01*
X106038028Y-116081313D01*
X106182786Y-116226071D01*
X106337749Y-116338656D01*
X106348390Y-116346387D01*
X106439840Y-116392983D01*
X106441080Y-116393615D01*
X106491876Y-116441590D01*
X106508671Y-116509411D01*
X106486134Y-116575546D01*
X106441080Y-116614585D01*
X106348386Y-116661815D01*
X106182786Y-116782128D01*
X106038028Y-116926886D01*
X105917715Y-117092486D01*
X105824781Y-117274876D01*
X105761522Y-117469565D01*
X105729500Y-117671748D01*
X105729500Y-117876451D01*
X105761522Y-118078634D01*
X105824781Y-118273323D01*
X105917715Y-118455713D01*
X106038028Y-118621313D01*
X106182786Y-118766071D01*
X106337749Y-118878656D01*
X106348390Y-118886387D01*
X106464607Y-118945603D01*
X106530776Y-118979318D01*
X106530778Y-118979318D01*
X106530781Y-118979320D01*
X106635137Y-119013227D01*
X106725465Y-119042577D01*
X106826557Y-119058588D01*
X106927648Y-119074600D01*
X106927649Y-119074600D01*
X107132351Y-119074600D01*
X107132352Y-119074600D01*
X107334534Y-119042577D01*
X107529219Y-118979320D01*
X107711610Y-118886387D01*
X107804590Y-118818832D01*
X107877213Y-118766071D01*
X107877215Y-118766068D01*
X107877219Y-118766066D01*
X108021966Y-118621319D01*
X108021968Y-118621315D01*
X108021971Y-118621313D01*
X108074732Y-118548690D01*
X108142287Y-118455710D01*
X108235220Y-118273319D01*
X108298477Y-118078634D01*
X108330500Y-117876452D01*
X108330500Y-117671748D01*
X108298477Y-117469566D01*
X108235220Y-117274881D01*
X108235218Y-117274878D01*
X108235218Y-117274876D01*
X108201503Y-117208707D01*
X108142287Y-117092490D01*
X108134556Y-117081849D01*
X108021971Y-116926886D01*
X107877213Y-116782128D01*
X107711614Y-116661815D01*
X107705006Y-116658448D01*
X107618917Y-116614583D01*
X107568123Y-116566611D01*
X107551328Y-116498790D01*
X107573865Y-116432655D01*
X107618917Y-116393616D01*
X107711610Y-116346387D01*
X107732770Y-116331013D01*
X107877213Y-116226071D01*
X107877215Y-116226068D01*
X107877219Y-116226066D01*
X108021966Y-116081319D01*
X108021968Y-116081315D01*
X108021971Y-116081313D01*
X108086007Y-115993173D01*
X108142287Y-115915710D01*
X108235220Y-115733319D01*
X108298477Y-115538634D01*
X108330500Y-115336452D01*
X108330500Y-115131748D01*
X108307452Y-114986232D01*
X108298477Y-114929565D01*
X108235218Y-114734876D01*
X108201503Y-114668707D01*
X108142287Y-114552490D01*
X108117779Y-114518757D01*
X108021971Y-114386886D01*
X107877217Y-114242132D01*
X107877212Y-114242128D01*
X107796440Y-114183444D01*
X107753774Y-114128115D01*
X107747795Y-114058501D01*
X107780400Y-113996706D01*
X107832433Y-113964741D01*
X107919606Y-113937578D01*
X108065185Y-113849572D01*
X108185472Y-113729285D01*
X108273478Y-113583706D01*
X108324086Y-113421296D01*
X108330500Y-113350716D01*
X108330500Y-112037484D01*
X108324086Y-111966904D01*
X108273478Y-111804494D01*
X108185472Y-111658915D01*
X108185470Y-111658913D01*
X108185469Y-111658911D01*
X108065188Y-111538630D01*
X107919606Y-111450622D01*
X107757196Y-111400014D01*
X107757194Y-111400013D01*
X107757192Y-111400013D01*
X107707778Y-111395523D01*
X107686616Y-111393600D01*
X106373384Y-111393600D01*
X106354145Y-111395348D01*
X106302807Y-111400013D01*
X106140393Y-111450622D01*
X105994811Y-111538630D01*
X105874530Y-111658911D01*
X105786522Y-111804493D01*
X105735913Y-111966907D01*
X105729500Y-112037486D01*
X96230500Y-112037486D01*
X96230500Y-104944108D01*
X96196392Y-104816814D01*
X96132701Y-104706499D01*
X96116229Y-104638600D01*
X96139081Y-104572573D01*
X96194002Y-104529383D01*
X96240089Y-104520500D01*
X96276785Y-104520500D01*
X96276785Y-104520499D01*
X96446692Y-104505635D01*
X96666496Y-104446739D01*
X96872734Y-104350568D01*
X97059139Y-104220047D01*
X97220047Y-104059139D01*
X97350568Y-103872734D01*
X97377618Y-103814724D01*
X97423790Y-103762285D01*
X97490983Y-103743133D01*
X97557865Y-103763348D01*
X97602382Y-103814725D01*
X97629429Y-103872728D01*
X97629432Y-103872734D01*
X97759954Y-104059141D01*
X97920858Y-104220045D01*
X97920861Y-104220047D01*
X98107266Y-104350568D01*
X98313504Y-104446739D01*
X98533308Y-104505635D01*
X98703214Y-104520499D01*
X98703215Y-104520500D01*
X98703216Y-104520500D01*
X98816785Y-104520500D01*
X98816785Y-104520499D01*
X98986692Y-104505635D01*
X99206496Y-104446739D01*
X99412734Y-104350568D01*
X99599139Y-104220047D01*
X99760047Y-104059139D01*
X99890568Y-103872734D01*
X99917618Y-103814724D01*
X99963790Y-103762285D01*
X100030983Y-103743133D01*
X100097865Y-103763348D01*
X100142382Y-103814725D01*
X100169429Y-103872728D01*
X100169432Y-103872734D01*
X100299954Y-104059141D01*
X100460858Y-104220045D01*
X100460861Y-104220047D01*
X100647266Y-104350568D01*
X100853504Y-104446739D01*
X101073308Y-104505635D01*
X101243214Y-104520499D01*
X101243215Y-104520500D01*
X101243216Y-104520500D01*
X101356785Y-104520500D01*
X101356785Y-104520499D01*
X101526692Y-104505635D01*
X101746496Y-104446739D01*
X101952734Y-104350568D01*
X102139139Y-104220047D01*
X102300047Y-104059139D01*
X102430568Y-103872734D01*
X102457618Y-103814724D01*
X102503790Y-103762285D01*
X102570983Y-103743133D01*
X102637865Y-103763348D01*
X102682382Y-103814725D01*
X102709429Y-103872728D01*
X102709432Y-103872734D01*
X102839954Y-104059141D01*
X103000858Y-104220045D01*
X103000861Y-104220047D01*
X103187266Y-104350568D01*
X103393504Y-104446739D01*
X103613308Y-104505635D01*
X103783214Y-104520499D01*
X103783215Y-104520500D01*
X103783216Y-104520500D01*
X103896785Y-104520500D01*
X103896785Y-104520499D01*
X104066692Y-104505635D01*
X104286496Y-104446739D01*
X104492734Y-104350568D01*
X104679139Y-104220047D01*
X104840047Y-104059139D01*
X104970568Y-103872734D01*
X105066739Y-103666496D01*
X105125635Y-103446692D01*
X105140500Y-103276784D01*
X105140500Y-101563216D01*
X105125635Y-101393308D01*
X105066739Y-101173504D01*
X104970568Y-100967266D01*
X104840047Y-100780861D01*
X104840045Y-100780858D01*
X104679140Y-100619953D01*
X104543377Y-100524891D01*
X104499752Y-100470314D01*
X104490500Y-100423316D01*
X104490500Y-99980808D01*
X104510185Y-99913769D01*
X104526819Y-99893127D01*
X105917819Y-98502127D01*
X105979142Y-98468642D01*
X106048834Y-98473626D01*
X106104767Y-98515498D01*
X106129184Y-98580962D01*
X106129500Y-98589808D01*
X106129500Y-99533771D01*
X106162182Y-99698074D01*
X106162184Y-99698082D01*
X106226295Y-99852860D01*
X106319373Y-99992162D01*
X106437837Y-100110626D01*
X106530494Y-100172537D01*
X106577137Y-100203703D01*
X106731918Y-100267816D01*
X106896228Y-100300499D01*
X106896232Y-100300500D01*
X106896233Y-100300500D01*
X107063768Y-100300500D01*
X107063769Y-100300499D01*
X107228082Y-100267816D01*
X107382863Y-100203703D01*
X107522162Y-100110626D01*
X107640626Y-99992162D01*
X107733703Y-99852863D01*
X107797816Y-99698082D01*
X107830500Y-99533767D01*
X107830500Y-97457230D01*
X107850185Y-97390191D01*
X107866819Y-97369549D01*
X107917712Y-97318656D01*
X108009814Y-97169334D01*
X108064999Y-97002797D01*
X108075500Y-96900009D01*
X108075499Y-94599992D01*
X108064999Y-94497203D01*
X108009814Y-94330666D01*
X107917712Y-94181344D01*
X107887700Y-94151332D01*
X107854215Y-94090009D01*
X107859199Y-94020317D01*
X107868642Y-94000543D01*
X107912494Y-93926395D01*
X107957643Y-93770993D01*
X107960500Y-93734690D01*
X107960500Y-93662050D01*
X107970713Y-93612769D01*
X107975166Y-93602485D01*
X108001465Y-93563127D01*
X108050501Y-93444744D01*
X108054329Y-93425501D01*
X108056461Y-93414778D01*
X108061713Y-93402654D01*
X108075952Y-93385551D01*
X108086267Y-93365834D01*
X108097873Y-93359224D01*
X108106420Y-93348960D01*
X108127644Y-93342271D01*
X108146982Y-93331259D01*
X108160318Y-93331973D01*
X108173058Y-93327959D01*
X108194530Y-93333807D01*
X108216752Y-93334998D01*
X108227585Y-93342809D01*
X108240473Y-93346320D01*
X108255374Y-93362848D01*
X108273424Y-93375864D01*
X108278314Y-93388292D01*
X108287258Y-93398213D01*
X108290858Y-93420174D01*
X108299006Y-93440882D01*
X108299500Y-93451935D01*
X108299500Y-93734697D01*
X108302356Y-93770991D01*
X108302357Y-93770997D01*
X108347504Y-93926390D01*
X108347505Y-93926393D01*
X108347506Y-93926395D01*
X108384357Y-93988707D01*
X108429881Y-94065684D01*
X108429887Y-94065692D01*
X108544307Y-94180112D01*
X108544311Y-94180115D01*
X108544313Y-94180117D01*
X108683605Y-94262494D01*
X108691102Y-94264672D01*
X108839002Y-94307642D01*
X108839005Y-94307642D01*
X108839007Y-94307643D01*
X108875310Y-94310500D01*
X108875318Y-94310500D01*
X109284682Y-94310500D01*
X109284690Y-94310500D01*
X109320993Y-94307643D01*
X109320995Y-94307642D01*
X109320997Y-94307642D01*
X109483887Y-94260318D01*
X109484251Y-94261571D01*
X109545582Y-94253993D01*
X109608548Y-94284275D01*
X109645148Y-94343792D01*
X109649500Y-94376356D01*
X109649500Y-98979191D01*
X109629815Y-99046230D01*
X109613181Y-99066872D01*
X108414727Y-100265325D01*
X108414724Y-100265328D01*
X108356159Y-100352979D01*
X108343534Y-100371872D01*
X108343534Y-100371873D01*
X108319613Y-100429622D01*
X108275771Y-100484024D01*
X108267447Y-100489304D01*
X108080858Y-100619954D01*
X107919954Y-100780858D01*
X107789432Y-100967265D01*
X107789431Y-100967267D01*
X107693261Y-101173502D01*
X107693258Y-101173511D01*
X107634366Y-101393302D01*
X107634364Y-101393312D01*
X107619500Y-101563214D01*
X107619500Y-103276785D01*
X107634364Y-103446687D01*
X107634366Y-103446697D01*
X107693258Y-103666488D01*
X107693261Y-103666497D01*
X107789431Y-103872732D01*
X107789432Y-103872734D01*
X107919954Y-104059141D01*
X108080858Y-104220045D01*
X108080861Y-104220047D01*
X108267266Y-104350568D01*
X108473504Y-104446739D01*
X108693308Y-104505635D01*
X108863214Y-104520499D01*
X108863215Y-104520500D01*
X108863216Y-104520500D01*
X108976785Y-104520500D01*
X108976785Y-104520499D01*
X109146692Y-104505635D01*
X109366496Y-104446739D01*
X109572734Y-104350568D01*
X109759139Y-104220047D01*
X109920047Y-104059139D01*
X110050568Y-103872734D01*
X110077618Y-103814724D01*
X110123790Y-103762285D01*
X110190983Y-103743133D01*
X110257865Y-103763348D01*
X110302382Y-103814725D01*
X110329429Y-103872728D01*
X110329432Y-103872734D01*
X110459954Y-104059141D01*
X110620858Y-104220045D01*
X110620861Y-104220047D01*
X110807266Y-104350568D01*
X111013504Y-104446739D01*
X111233308Y-104505635D01*
X111403214Y-104520499D01*
X111403215Y-104520500D01*
X111403216Y-104520500D01*
X111516785Y-104520500D01*
X111516785Y-104520499D01*
X111686692Y-104505635D01*
X111906496Y-104446739D01*
X112112734Y-104350568D01*
X112299139Y-104220047D01*
X112460047Y-104059139D01*
X112590568Y-103872734D01*
X112617618Y-103814724D01*
X112663790Y-103762285D01*
X112730983Y-103743133D01*
X112797865Y-103763348D01*
X112842382Y-103814725D01*
X112869429Y-103872728D01*
X112869432Y-103872734D01*
X112999954Y-104059141D01*
X113160858Y-104220045D01*
X113160861Y-104220047D01*
X113347266Y-104350568D01*
X113553504Y-104446739D01*
X113773308Y-104505635D01*
X113943214Y-104520499D01*
X113943215Y-104520500D01*
X113943216Y-104520500D01*
X114056785Y-104520500D01*
X114056785Y-104520499D01*
X114226692Y-104505635D01*
X114446496Y-104446739D01*
X114652734Y-104350568D01*
X114839139Y-104220047D01*
X115000047Y-104059139D01*
X115130568Y-103872734D01*
X115157618Y-103814724D01*
X115203790Y-103762285D01*
X115270983Y-103743133D01*
X115337865Y-103763348D01*
X115382382Y-103814725D01*
X115409429Y-103872728D01*
X115409432Y-103872734D01*
X115539954Y-104059141D01*
X115700858Y-104220045D01*
X115700861Y-104220047D01*
X115887266Y-104350568D01*
X116093504Y-104446739D01*
X116313308Y-104505635D01*
X116483214Y-104520499D01*
X116483215Y-104520500D01*
X116483216Y-104520500D01*
X116596785Y-104520500D01*
X116596785Y-104520499D01*
X116766692Y-104505635D01*
X116986496Y-104446739D01*
X117192734Y-104350568D01*
X117379139Y-104220047D01*
X117540047Y-104059139D01*
X117670568Y-103872734D01*
X117766739Y-103666496D01*
X117825635Y-103446692D01*
X117840500Y-103276784D01*
X117840500Y-101563216D01*
X117825635Y-101393308D01*
X117766739Y-101173504D01*
X117670568Y-100967266D01*
X117540047Y-100780861D01*
X117540045Y-100780858D01*
X117379141Y-100619954D01*
X117192734Y-100489432D01*
X117192732Y-100489431D01*
X116986497Y-100393261D01*
X116986488Y-100393258D01*
X116766697Y-100334366D01*
X116766687Y-100334364D01*
X116596785Y-100319500D01*
X116596784Y-100319500D01*
X116483216Y-100319500D01*
X116483215Y-100319500D01*
X116313312Y-100334364D01*
X116313302Y-100334366D01*
X116093511Y-100393258D01*
X116093502Y-100393261D01*
X115887267Y-100489431D01*
X115887265Y-100489432D01*
X115700858Y-100619954D01*
X115539954Y-100780858D01*
X115409432Y-100967265D01*
X115409431Y-100967267D01*
X115382382Y-101025275D01*
X115336209Y-101077714D01*
X115269016Y-101096866D01*
X115202135Y-101076650D01*
X115157618Y-101025275D01*
X115150880Y-101010826D01*
X115130568Y-100967266D01*
X115000047Y-100780861D01*
X115000045Y-100780858D01*
X114839140Y-100619953D01*
X114703377Y-100524891D01*
X114659752Y-100470314D01*
X114650500Y-100423316D01*
X114650500Y-92981229D01*
X114656738Y-92959983D01*
X114658318Y-92937895D01*
X114666390Y-92927111D01*
X114670185Y-92914190D01*
X114686918Y-92899690D01*
X114700190Y-92881962D01*
X114712810Y-92877254D01*
X114722989Y-92868435D01*
X114744906Y-92865283D01*
X114765654Y-92857545D01*
X114778814Y-92860407D01*
X114792147Y-92858491D01*
X114812290Y-92867690D01*
X114833927Y-92872397D01*
X114851652Y-92885665D01*
X114855703Y-92887516D01*
X114862181Y-92893548D01*
X114947048Y-92978415D01*
X114947049Y-92978416D01*
X115001760Y-93033127D01*
X115051585Y-93082952D01*
X115174498Y-93165080D01*
X115174511Y-93165087D01*
X115311082Y-93221656D01*
X115311087Y-93221658D01*
X115311091Y-93221658D01*
X115311092Y-93221659D01*
X115456079Y-93250500D01*
X115456082Y-93250500D01*
X127293445Y-93250500D01*
X127360484Y-93270185D01*
X127406239Y-93322989D01*
X127416183Y-93392147D01*
X127411159Y-93410411D01*
X127412031Y-93410676D01*
X127410261Y-93416510D01*
X127379500Y-93571153D01*
X127379500Y-93728846D01*
X127410261Y-93883489D01*
X127410264Y-93883501D01*
X127470602Y-94029172D01*
X127470609Y-94029185D01*
X127558210Y-94160288D01*
X127558213Y-94160292D01*
X127669709Y-94271788D01*
X127675897Y-94275922D01*
X127687081Y-94283395D01*
X127731886Y-94337005D01*
X127740596Y-94406329D01*
X127710443Y-94469358D01*
X127705873Y-94474179D01*
X121886655Y-100293397D01*
X121825332Y-100326882D01*
X121788167Y-100329244D01*
X121676788Y-100319500D01*
X121676784Y-100319500D01*
X121563216Y-100319500D01*
X121563215Y-100319500D01*
X121393312Y-100334364D01*
X121393302Y-100334366D01*
X121173511Y-100393258D01*
X121173502Y-100393261D01*
X120967267Y-100489431D01*
X120967265Y-100489432D01*
X120780858Y-100619954D01*
X120619954Y-100780858D01*
X120489432Y-100967265D01*
X120489431Y-100967267D01*
X120393261Y-101173502D01*
X120393258Y-101173511D01*
X120334366Y-101393302D01*
X120334364Y-101393312D01*
X120319500Y-101563214D01*
X120319500Y-103276785D01*
X120334364Y-103446687D01*
X120334366Y-103446697D01*
X120393258Y-103666488D01*
X120393261Y-103666497D01*
X120489431Y-103872732D01*
X120489432Y-103872734D01*
X120619954Y-104059141D01*
X120780858Y-104220045D01*
X120780861Y-104220047D01*
X120967266Y-104350568D01*
X121173504Y-104446739D01*
X121393308Y-104505635D01*
X121563214Y-104520499D01*
X121563215Y-104520500D01*
X121563216Y-104520500D01*
X121676785Y-104520500D01*
X121676785Y-104520499D01*
X121846692Y-104505635D01*
X122066496Y-104446739D01*
X122272734Y-104350568D01*
X122459139Y-104220047D01*
X122620047Y-104059139D01*
X122750568Y-103872734D01*
X122777618Y-103814724D01*
X122823790Y-103762285D01*
X122890983Y-103743133D01*
X122957865Y-103763348D01*
X123002382Y-103814725D01*
X123029429Y-103872728D01*
X123029432Y-103872734D01*
X123159954Y-104059141D01*
X123320858Y-104220045D01*
X123320861Y-104220047D01*
X123507266Y-104350568D01*
X123713504Y-104446739D01*
X123933308Y-104505635D01*
X124103214Y-104520499D01*
X124103215Y-104520500D01*
X124103216Y-104520500D01*
X124216785Y-104520500D01*
X124216785Y-104520499D01*
X124386692Y-104505635D01*
X124606496Y-104446739D01*
X124812734Y-104350568D01*
X124999139Y-104220047D01*
X125160047Y-104059139D01*
X125290568Y-103872734D01*
X125317618Y-103814724D01*
X125363790Y-103762285D01*
X125430983Y-103743133D01*
X125497865Y-103763348D01*
X125542382Y-103814725D01*
X125569429Y-103872728D01*
X125569432Y-103872734D01*
X125699954Y-104059141D01*
X125860858Y-104220045D01*
X125860861Y-104220047D01*
X126047266Y-104350568D01*
X126253504Y-104446739D01*
X126473308Y-104505635D01*
X126643214Y-104520499D01*
X126643215Y-104520500D01*
X126643216Y-104520500D01*
X126756785Y-104520500D01*
X126756785Y-104520499D01*
X126926692Y-104505635D01*
X127146496Y-104446739D01*
X127352734Y-104350568D01*
X127539139Y-104220047D01*
X127700047Y-104059139D01*
X127830568Y-103872734D01*
X127857618Y-103814724D01*
X127903790Y-103762285D01*
X127970983Y-103743133D01*
X128037865Y-103763348D01*
X128082382Y-103814725D01*
X128109429Y-103872728D01*
X128109432Y-103872734D01*
X128239954Y-104059141D01*
X128400858Y-104220045D01*
X128400861Y-104220047D01*
X128587266Y-104350568D01*
X128793504Y-104446739D01*
X129013308Y-104505635D01*
X129183214Y-104520499D01*
X129183215Y-104520500D01*
X129183216Y-104520500D01*
X129296785Y-104520500D01*
X129296785Y-104520499D01*
X129466692Y-104505635D01*
X129686496Y-104446739D01*
X129892734Y-104350568D01*
X130079139Y-104220047D01*
X130240047Y-104059139D01*
X130370568Y-103872734D01*
X130466739Y-103666496D01*
X130525635Y-103446692D01*
X130540500Y-103276784D01*
X130540500Y-101563216D01*
X130525635Y-101393308D01*
X130466739Y-101173504D01*
X130370568Y-100967266D01*
X130240047Y-100780861D01*
X130240045Y-100780858D01*
X130079141Y-100619954D01*
X129892734Y-100489432D01*
X129892732Y-100489431D01*
X129686497Y-100393261D01*
X129686488Y-100393258D01*
X129466697Y-100334366D01*
X129466687Y-100334364D01*
X129296785Y-100319500D01*
X129296784Y-100319500D01*
X129183216Y-100319500D01*
X129183215Y-100319500D01*
X129013312Y-100334364D01*
X129013302Y-100334366D01*
X128793511Y-100393258D01*
X128793502Y-100393261D01*
X128587267Y-100489431D01*
X128587265Y-100489432D01*
X128400858Y-100619954D01*
X128239954Y-100780858D01*
X128109432Y-100967265D01*
X128109431Y-100967267D01*
X128082382Y-101025275D01*
X128036209Y-101077714D01*
X127969016Y-101096866D01*
X127902135Y-101076650D01*
X127857618Y-101025275D01*
X127850880Y-101010826D01*
X127830568Y-100967266D01*
X127700047Y-100780861D01*
X127700045Y-100780858D01*
X127539141Y-100619954D01*
X127352734Y-100489432D01*
X127352732Y-100489431D01*
X127146497Y-100393261D01*
X127146488Y-100393258D01*
X126926697Y-100334366D01*
X126926687Y-100334364D01*
X126756785Y-100319500D01*
X126756784Y-100319500D01*
X126643216Y-100319500D01*
X126643215Y-100319500D01*
X126473312Y-100334364D01*
X126473302Y-100334366D01*
X126253511Y-100393258D01*
X126253502Y-100393261D01*
X126047267Y-100489431D01*
X126047265Y-100489432D01*
X125860858Y-100619954D01*
X125699954Y-100780858D01*
X125569432Y-100967265D01*
X125569431Y-100967267D01*
X125542382Y-101025275D01*
X125536108Y-101032400D01*
X125533297Y-101041468D01*
X125513391Y-101058199D01*
X125496209Y-101077714D01*
X125487079Y-101080316D01*
X125479812Y-101086425D01*
X125454021Y-101089738D01*
X125429016Y-101096866D01*
X125419928Y-101094119D01*
X125410512Y-101095329D01*
X125387024Y-101084173D01*
X125362135Y-101076650D01*
X125354294Y-101068627D01*
X125347400Y-101065353D01*
X125335679Y-101049580D01*
X125324690Y-101038336D01*
X125320762Y-101032018D01*
X125290568Y-100967266D01*
X125200907Y-100839216D01*
X125199120Y-100836341D01*
X125190650Y-100805806D01*
X125180528Y-100775792D01*
X125181381Y-100772392D01*
X125180444Y-100769014D01*
X125189823Y-100738756D01*
X125197538Y-100708024D01*
X125200563Y-100704113D01*
X125201133Y-100702277D01*
X125203568Y-100700230D01*
X125216745Y-100683198D01*
X129713126Y-96186819D01*
X129774449Y-96153334D01*
X129800807Y-96150500D01*
X130734484Y-96150500D01*
X130797605Y-96167768D01*
X130835514Y-96190187D01*
X130939602Y-96251744D01*
X130981224Y-96263836D01*
X131097426Y-96297597D01*
X131097429Y-96297597D01*
X131097431Y-96297598D01*
X131134306Y-96300500D01*
X131134314Y-96300500D01*
X132515686Y-96300500D01*
X132515694Y-96300500D01*
X132552569Y-96297598D01*
X132552571Y-96297597D01*
X132552573Y-96297597D01*
X132641403Y-96271789D01*
X132710398Y-96251744D01*
X132851865Y-96168081D01*
X132968081Y-96051865D01*
X133051744Y-95910398D01*
X133097598Y-95752569D01*
X133100500Y-95715694D01*
X133100500Y-95284306D01*
X133097598Y-95247431D01*
X133051744Y-95089602D01*
X133036084Y-95063122D01*
X133018900Y-94995399D01*
X133036084Y-94936878D01*
X133051742Y-94910401D01*
X133051744Y-94910398D01*
X133097598Y-94752569D01*
X133100500Y-94715694D01*
X133100500Y-94284306D01*
X133100428Y-94283394D01*
X133097598Y-94247432D01*
X133097597Y-94247426D01*
X133051745Y-94089606D01*
X133051744Y-94089602D01*
X133037599Y-94065684D01*
X133036084Y-94063122D01*
X133018900Y-93995399D01*
X133036084Y-93936878D01*
X133051742Y-93910401D01*
X133051744Y-93910398D01*
X133097598Y-93752569D01*
X133100500Y-93715694D01*
X133100500Y-93284306D01*
X133097598Y-93247431D01*
X133092245Y-93229007D01*
X133051745Y-93089606D01*
X133051744Y-93089602D01*
X133051742Y-93089598D01*
X133036084Y-93063122D01*
X133018900Y-92995399D01*
X133036084Y-92936878D01*
X133051742Y-92910401D01*
X133051744Y-92910398D01*
X133097598Y-92752569D01*
X133100500Y-92715694D01*
X133100500Y-92284306D01*
X133097598Y-92247431D01*
X133094943Y-92238294D01*
X133051745Y-92089606D01*
X133051744Y-92089602D01*
X133036084Y-92063122D01*
X133018900Y-91995399D01*
X133036084Y-91936878D01*
X133051742Y-91910401D01*
X133051744Y-91910398D01*
X133097598Y-91752569D01*
X133100500Y-91715694D01*
X133100500Y-91284306D01*
X133097598Y-91247431D01*
X133051744Y-91089602D01*
X133047839Y-91083000D01*
X133030657Y-91015277D01*
X133052817Y-90949014D01*
X133107283Y-90905251D01*
X133176763Y-90897882D01*
X133239198Y-90929246D01*
G37*
%TD.AperFunction*%
%TA.AperFunction,Conductor*%
G36*
X95468005Y-119730185D02*
G01*
X95513760Y-119782989D01*
X95523704Y-119852147D01*
X95494679Y-119915703D01*
X95472089Y-119936075D01*
X95380858Y-119999954D01*
X95219954Y-120160858D01*
X95089432Y-120347265D01*
X95089431Y-120347267D01*
X94993261Y-120553502D01*
X94993258Y-120553511D01*
X94934366Y-120773302D01*
X94934364Y-120773312D01*
X94919500Y-120943214D01*
X94919500Y-122656785D01*
X94934364Y-122826687D01*
X94934366Y-122826697D01*
X94993258Y-123046488D01*
X94993261Y-123046497D01*
X95089431Y-123252732D01*
X95089432Y-123252734D01*
X95219954Y-123439141D01*
X95380859Y-123600046D01*
X95416621Y-123625086D01*
X95460247Y-123679662D01*
X95469500Y-123726662D01*
X95469500Y-125206239D01*
X95449815Y-125273278D01*
X95397011Y-125319033D01*
X95327853Y-125328977D01*
X95272616Y-125306558D01*
X95187818Y-125244950D01*
X94998414Y-125148444D01*
X94998413Y-125148443D01*
X94998412Y-125148443D01*
X94796243Y-125082754D01*
X94796241Y-125082753D01*
X94796240Y-125082753D01*
X94625192Y-125055662D01*
X94586287Y-125049500D01*
X94373713Y-125049500D01*
X94373708Y-125049500D01*
X94278270Y-125064616D01*
X94208977Y-125055662D01*
X94171191Y-125029824D01*
X92371249Y-123229881D01*
X92337764Y-123168558D01*
X92342748Y-123098866D01*
X92346548Y-123089794D01*
X92366736Y-123046502D01*
X92366739Y-123046496D01*
X92425635Y-122826692D01*
X92440500Y-122656784D01*
X92440500Y-120943216D01*
X92425635Y-120773308D01*
X92366739Y-120553504D01*
X92270568Y-120347266D01*
X92140047Y-120160861D01*
X92140045Y-120160858D01*
X91979141Y-119999954D01*
X91887911Y-119936075D01*
X91844286Y-119881499D01*
X91837092Y-119812000D01*
X91868614Y-119749645D01*
X91928844Y-119714231D01*
X91959034Y-119710500D01*
X95400966Y-119710500D01*
X95468005Y-119730185D01*
G37*
%TD.AperFunction*%
%TA.AperFunction,Conductor*%
G36*
X117630959Y-85170185D02*
G01*
X117676714Y-85222989D01*
X117686658Y-85292147D01*
X117657633Y-85355703D01*
X117617721Y-85386220D01*
X117468560Y-85458051D01*
X117230753Y-85607476D01*
X117011175Y-85782583D01*
X116812583Y-85981175D01*
X116637476Y-86200753D01*
X116488053Y-86438557D01*
X116366200Y-86691588D01*
X116273443Y-86956670D01*
X116273439Y-86956682D01*
X116210945Y-87230487D01*
X116210942Y-87230505D01*
X116179500Y-87509568D01*
X116179500Y-87790431D01*
X116210942Y-88069494D01*
X116210945Y-88069512D01*
X116273439Y-88343317D01*
X116273443Y-88343329D01*
X116366200Y-88608411D01*
X116488053Y-88861442D01*
X116488055Y-88861445D01*
X116637477Y-89099248D01*
X116659182Y-89126465D01*
X116811770Y-89317805D01*
X116812584Y-89318825D01*
X117011175Y-89517416D01*
X117230752Y-89692523D01*
X117468555Y-89841945D01*
X117721592Y-89963801D01*
X117858820Y-90011819D01*
X117986670Y-90056556D01*
X117986682Y-90056560D01*
X118260491Y-90119055D01*
X118260497Y-90119055D01*
X118260505Y-90119057D01*
X118446547Y-90140018D01*
X118539569Y-90150499D01*
X118539572Y-90150500D01*
X118539575Y-90150500D01*
X118820428Y-90150500D01*
X118820429Y-90150499D01*
X118963055Y-90134429D01*
X119099494Y-90119057D01*
X119099499Y-90119056D01*
X119099509Y-90119055D01*
X119373318Y-90056560D01*
X119638408Y-89963801D01*
X119891445Y-89841945D01*
X120129248Y-89692523D01*
X120348825Y-89517416D01*
X120547416Y-89318825D01*
X120722523Y-89099248D01*
X120871945Y-88861445D01*
X120993801Y-88608408D01*
X121086560Y-88343318D01*
X121149055Y-88069509D01*
X121149154Y-88068635D01*
X121167833Y-87902850D01*
X121180500Y-87790425D01*
X121180500Y-87509575D01*
X121164595Y-87368412D01*
X121149057Y-87230505D01*
X121149054Y-87230487D01*
X121086560Y-86956682D01*
X121086556Y-86956670D01*
X121062167Y-86886970D01*
X120993801Y-86691592D01*
X120871945Y-86438555D01*
X120722523Y-86200752D01*
X120547416Y-85981175D01*
X120348825Y-85782584D01*
X120310634Y-85752128D01*
X120238934Y-85694949D01*
X120129248Y-85607477D01*
X119957404Y-85499500D01*
X119891439Y-85458051D01*
X119742279Y-85386220D01*
X119690419Y-85339398D01*
X119672106Y-85271971D01*
X119693154Y-85205347D01*
X119746880Y-85160678D01*
X119796080Y-85150500D01*
X138055500Y-85150500D01*
X138122539Y-85170185D01*
X138168294Y-85222989D01*
X138179500Y-85274500D01*
X138179500Y-96385425D01*
X138159815Y-96452464D01*
X138107011Y-96498219D01*
X138037853Y-96508163D01*
X137974297Y-96479138D01*
X137949962Y-96450522D01*
X137922714Y-96406347D01*
X137922711Y-96406343D01*
X137798657Y-96282289D01*
X137798656Y-96282288D01*
X137649334Y-96190186D01*
X137482797Y-96135001D01*
X137482795Y-96135000D01*
X137380016Y-96124500D01*
X137380009Y-96124500D01*
X136979729Y-96124500D01*
X136912690Y-96104815D01*
X136892048Y-96088181D01*
X136216819Y-95412951D01*
X136183334Y-95351628D01*
X136180500Y-95325270D01*
X136180500Y-94357328D01*
X136185424Y-94322733D01*
X136227597Y-94177573D01*
X136227598Y-94177567D01*
X136230500Y-94140694D01*
X136230500Y-92974500D01*
X136250185Y-92907461D01*
X136302989Y-92861706D01*
X136354500Y-92850500D01*
X136595686Y-92850500D01*
X136595694Y-92850500D01*
X136632569Y-92847598D01*
X136632571Y-92847597D01*
X136632573Y-92847597D01*
X136674191Y-92835505D01*
X136790398Y-92801744D01*
X136931865Y-92718081D01*
X137048081Y-92601865D01*
X137131744Y-92460398D01*
X137177598Y-92302569D01*
X137180500Y-92265694D01*
X137180500Y-90959306D01*
X137177598Y-90922431D01*
X137170341Y-90897454D01*
X137131745Y-90764606D01*
X137131744Y-90764603D01*
X137131744Y-90764602D01*
X137048081Y-90623135D01*
X137048079Y-90623133D01*
X137048076Y-90623129D01*
X136931870Y-90506923D01*
X136931862Y-90506917D01*
X136790396Y-90423255D01*
X136790393Y-90423254D01*
X136632573Y-90377402D01*
X136632567Y-90377401D01*
X136595701Y-90374500D01*
X136595694Y-90374500D01*
X136254730Y-90374500D01*
X136187691Y-90354815D01*
X136167049Y-90338181D01*
X133156120Y-87327252D01*
X133122635Y-87265929D01*
X133125869Y-87201254D01*
X133137246Y-87166243D01*
X133170500Y-86956287D01*
X133170500Y-86743713D01*
X133137246Y-86533757D01*
X133071557Y-86331588D01*
X132975051Y-86142184D01*
X132975049Y-86142181D01*
X132975048Y-86142179D01*
X132850109Y-85970213D01*
X132699786Y-85819890D01*
X132527820Y-85694951D01*
X132338414Y-85598444D01*
X132338413Y-85598443D01*
X132338412Y-85598443D01*
X132136243Y-85532754D01*
X132136241Y-85532753D01*
X132136240Y-85532753D01*
X131974957Y-85507208D01*
X131926287Y-85499500D01*
X131713713Y-85499500D01*
X131665042Y-85507208D01*
X131503760Y-85532753D01*
X131301585Y-85598444D01*
X131112179Y-85694951D01*
X130940213Y-85819890D01*
X130789890Y-85970213D01*
X130664949Y-86142182D01*
X130660484Y-86150946D01*
X130612509Y-86201742D01*
X130544688Y-86218536D01*
X130478553Y-86195998D01*
X130439516Y-86150946D01*
X130435050Y-86142182D01*
X130310109Y-85970213D01*
X130159786Y-85819890D01*
X129987820Y-85694951D01*
X129798414Y-85598444D01*
X129798413Y-85598443D01*
X129798412Y-85598443D01*
X129596243Y-85532754D01*
X129596241Y-85532753D01*
X129596240Y-85532753D01*
X129434957Y-85507208D01*
X129386287Y-85499500D01*
X129173713Y-85499500D01*
X129125042Y-85507208D01*
X128963760Y-85532753D01*
X128761585Y-85598444D01*
X128572179Y-85694951D01*
X128400215Y-85819889D01*
X128286673Y-85933431D01*
X128225350Y-85966915D01*
X128155658Y-85961931D01*
X128099725Y-85920059D01*
X128082810Y-85889082D01*
X128033797Y-85757671D01*
X128033793Y-85757664D01*
X127947547Y-85642455D01*
X127947544Y-85642452D01*
X127832335Y-85556206D01*
X127832328Y-85556202D01*
X127697482Y-85505908D01*
X127697483Y-85505908D01*
X127637883Y-85499501D01*
X127637881Y-85499500D01*
X127637873Y-85499500D01*
X127637864Y-85499500D01*
X125842129Y-85499500D01*
X125842123Y-85499501D01*
X125782516Y-85505908D01*
X125647671Y-85556202D01*
X125647664Y-85556206D01*
X125532455Y-85642452D01*
X125532452Y-85642455D01*
X125446206Y-85757664D01*
X125446202Y-85757671D01*
X125395908Y-85892517D01*
X125389501Y-85952116D01*
X125389500Y-85952135D01*
X125389500Y-87747870D01*
X125389501Y-87747876D01*
X125395908Y-87807483D01*
X125446202Y-87942328D01*
X125446206Y-87942335D01*
X125532452Y-88057544D01*
X125532455Y-88057547D01*
X125647664Y-88143793D01*
X125647671Y-88143797D01*
X125782517Y-88194091D01*
X125782516Y-88194091D01*
X125789444Y-88194835D01*
X125842127Y-88200500D01*
X126859191Y-88200499D01*
X126926230Y-88220183D01*
X126946872Y-88236818D01*
X127965324Y-89255271D01*
X127965327Y-89255274D01*
X127965330Y-89255276D01*
X128030644Y-89298917D01*
X128071873Y-89326465D01*
X128190256Y-89375501D01*
X128190260Y-89375501D01*
X128190261Y-89375502D01*
X128315928Y-89400500D01*
X128315931Y-89400500D01*
X131659192Y-89400500D01*
X131726231Y-89420185D01*
X131746873Y-89436819D01*
X132867800Y-90557746D01*
X132901285Y-90619069D01*
X132896301Y-90688761D01*
X132854429Y-90744694D01*
X132788965Y-90769111D01*
X132720692Y-90754259D01*
X132717001Y-90752161D01*
X132710396Y-90748255D01*
X132710393Y-90748254D01*
X132552573Y-90702402D01*
X132552567Y-90702401D01*
X132515701Y-90699500D01*
X132515694Y-90699500D01*
X131134306Y-90699500D01*
X131134298Y-90699500D01*
X131097432Y-90702401D01*
X131097426Y-90702402D01*
X130952267Y-90744576D01*
X130917672Y-90749500D01*
X116892229Y-90749500D01*
X116825190Y-90729815D01*
X116804548Y-90713181D01*
X112882421Y-86791052D01*
X112882414Y-86791046D01*
X112781947Y-86723917D01*
X112781946Y-86723917D01*
X112759495Y-86708916D01*
X112759488Y-86708912D01*
X112622917Y-86652343D01*
X112622907Y-86652340D01*
X112477920Y-86623500D01*
X112477918Y-86623500D01*
X108485937Y-86623500D01*
X108338102Y-86623500D01*
X108338100Y-86623500D01*
X108193112Y-86652340D01*
X108193102Y-86652343D01*
X108056531Y-86708912D01*
X108056518Y-86708919D01*
X107933604Y-86791048D01*
X107837681Y-86886971D01*
X107776357Y-86920455D01*
X107706666Y-86915471D01*
X107662319Y-86886970D01*
X107566401Y-86791052D01*
X107566394Y-86791046D01*
X107465927Y-86723917D01*
X107465926Y-86723917D01*
X107443475Y-86708916D01*
X107443468Y-86708912D01*
X107306897Y-86652343D01*
X107306887Y-86652340D01*
X107161900Y-86623500D01*
X107161898Y-86623500D01*
X104199917Y-86623500D01*
X104052082Y-86623500D01*
X104052080Y-86623500D01*
X103907092Y-86652340D01*
X103907082Y-86652343D01*
X103770511Y-86708912D01*
X103770498Y-86708919D01*
X103647584Y-86791048D01*
X103647580Y-86791051D01*
X99725451Y-90713181D01*
X99664128Y-90746666D01*
X99637770Y-90749500D01*
X97232328Y-90749500D01*
X97197733Y-90744576D01*
X97052573Y-90702402D01*
X97052567Y-90702401D01*
X97015701Y-90699500D01*
X97015694Y-90699500D01*
X95634306Y-90699500D01*
X95634298Y-90699500D01*
X95597432Y-90702401D01*
X95597426Y-90702402D01*
X95439606Y-90748254D01*
X95439603Y-90748255D01*
X95298137Y-90831917D01*
X95298129Y-90831923D01*
X95181923Y-90948129D01*
X95181917Y-90948137D01*
X95098255Y-91089603D01*
X95098254Y-91089606D01*
X95052402Y-91247426D01*
X95052401Y-91247432D01*
X95049500Y-91284298D01*
X95049500Y-91715701D01*
X95052401Y-91752567D01*
X95052402Y-91752573D01*
X95098253Y-91910393D01*
X95113918Y-91936881D01*
X95131098Y-92004606D01*
X95113918Y-92063119D01*
X95098253Y-92089606D01*
X95052402Y-92247426D01*
X95052401Y-92247432D01*
X95049500Y-92284298D01*
X95049500Y-92715701D01*
X95052401Y-92752567D01*
X95052402Y-92752573D01*
X95098253Y-92910393D01*
X95113918Y-92936881D01*
X95131098Y-93004606D01*
X95113918Y-93063119D01*
X95098253Y-93089606D01*
X95052402Y-93247426D01*
X95052401Y-93247432D01*
X95049500Y-93284298D01*
X95049500Y-93715701D01*
X95052401Y-93752567D01*
X95052402Y-93752573D01*
X95098253Y-93910393D01*
X95113918Y-93936881D01*
X95131098Y-94004606D01*
X95113918Y-94063119D01*
X95098253Y-94089606D01*
X95052402Y-94247426D01*
X95052401Y-94247432D01*
X95049502Y-94284275D01*
X95049500Y-94284313D01*
X95049500Y-94715701D01*
X95052401Y-94752567D01*
X95052402Y-94752573D01*
X95098253Y-94910393D01*
X95113918Y-94936881D01*
X95131098Y-95004606D01*
X95113918Y-95063119D01*
X95098253Y-95089606D01*
X95052402Y-95247426D01*
X95052401Y-95247432D01*
X95049500Y-95284298D01*
X95049500Y-95715701D01*
X95052401Y-95752567D01*
X95052402Y-95752573D01*
X95098254Y-95910393D01*
X95098255Y-95910396D01*
X95181917Y-96051862D01*
X95181923Y-96051870D01*
X95298129Y-96168076D01*
X95298133Y-96168079D01*
X95298135Y-96168081D01*
X95439602Y-96251744D01*
X95481224Y-96263836D01*
X95597426Y-96297597D01*
X95597429Y-96297597D01*
X95597431Y-96297598D01*
X95634306Y-96300500D01*
X96641870Y-96300500D01*
X96671310Y-96309144D01*
X96701297Y-96315668D01*
X96706312Y-96319422D01*
X96708909Y-96320185D01*
X96729551Y-96336819D01*
X96764181Y-96371449D01*
X96797666Y-96432772D01*
X96800500Y-96459130D01*
X96800500Y-100267566D01*
X96780815Y-100334605D01*
X96728011Y-100380360D01*
X96658853Y-100390304D01*
X96644407Y-100387341D01*
X96446697Y-100334366D01*
X96446687Y-100334364D01*
X96276785Y-100319500D01*
X96276784Y-100319500D01*
X96163216Y-100319500D01*
X96163215Y-100319500D01*
X95993312Y-100334364D01*
X95993302Y-100334366D01*
X95773511Y-100393258D01*
X95773502Y-100393261D01*
X95567267Y-100489431D01*
X95567265Y-100489432D01*
X95380858Y-100619954D01*
X95219954Y-100780858D01*
X95089432Y-100967265D01*
X95089431Y-100967267D01*
X94993261Y-101173502D01*
X94993258Y-101173511D01*
X94934366Y-101393302D01*
X94934364Y-101393312D01*
X94919500Y-101563214D01*
X94919500Y-103276785D01*
X94934364Y-103446687D01*
X94934366Y-103446697D01*
X94993258Y-103666488D01*
X94993261Y-103666497D01*
X95089431Y-103872732D01*
X95089432Y-103872734D01*
X95219954Y-104059141D01*
X95380858Y-104220045D01*
X95472089Y-104283925D01*
X95515714Y-104338501D01*
X95522908Y-104408000D01*
X95491386Y-104470355D01*
X95431156Y-104505769D01*
X95400966Y-104509500D01*
X91959034Y-104509500D01*
X91891995Y-104489815D01*
X91846240Y-104437011D01*
X91836296Y-104367853D01*
X91865321Y-104304297D01*
X91887911Y-104283925D01*
X91919622Y-104261721D01*
X91979139Y-104220047D01*
X92140047Y-104059139D01*
X92270568Y-103872734D01*
X92366739Y-103666496D01*
X92425635Y-103446692D01*
X92440500Y-103276784D01*
X92440500Y-101563216D01*
X92425635Y-101393308D01*
X92366739Y-101173504D01*
X92270568Y-100967266D01*
X92140047Y-100780861D01*
X92140045Y-100780858D01*
X91979140Y-100619953D01*
X91843377Y-100524891D01*
X91799752Y-100470314D01*
X91790500Y-100423316D01*
X91790500Y-95010807D01*
X91810185Y-94943768D01*
X91826819Y-94923126D01*
X92485273Y-94264672D01*
X92485276Y-94264669D01*
X92556465Y-94158127D01*
X92605501Y-94039744D01*
X92614322Y-93995399D01*
X92630500Y-93914071D01*
X92630500Y-90370808D01*
X92650185Y-90303769D01*
X92666819Y-90283127D01*
X93713127Y-89236819D01*
X93774450Y-89203334D01*
X93800808Y-89200500D01*
X96724071Y-89200500D01*
X96817741Y-89181867D01*
X96849744Y-89175501D01*
X96968127Y-89126465D01*
X96995659Y-89108069D01*
X97074669Y-89055277D01*
X98093127Y-88036817D01*
X98154450Y-88003333D01*
X98180808Y-88000499D01*
X99457871Y-88000499D01*
X99457872Y-88000499D01*
X99517483Y-87994091D01*
X99652331Y-87943796D01*
X99767546Y-87857546D01*
X99853796Y-87742331D01*
X99904091Y-87607483D01*
X99910500Y-87547873D01*
X99910499Y-85752128D01*
X99904353Y-85694951D01*
X99904091Y-85692516D01*
X99853797Y-85557671D01*
X99853793Y-85557664D01*
X99767547Y-85442455D01*
X99767544Y-85442452D01*
X99675792Y-85373766D01*
X99633921Y-85317832D01*
X99628937Y-85248141D01*
X99662423Y-85186818D01*
X99723746Y-85153334D01*
X99750103Y-85150500D01*
X117563920Y-85150500D01*
X117630959Y-85170185D01*
G37*
%TD.AperFunction*%
%TA.AperFunction,Conductor*%
G36*
X92359818Y-87420185D02*
G01*
X92393097Y-87451615D01*
X92449892Y-87529788D01*
X92600213Y-87680109D01*
X92772179Y-87805048D01*
X92772181Y-87805049D01*
X92772184Y-87805051D01*
X92961588Y-87901557D01*
X92961596Y-87901559D01*
X92964711Y-87902850D01*
X92965718Y-87903661D01*
X92965929Y-87903769D01*
X92965906Y-87903813D01*
X93019120Y-87946684D01*
X93041193Y-88012975D01*
X93023923Y-88080676D01*
X93004954Y-88105098D01*
X91474726Y-89635326D01*
X91410221Y-89731867D01*
X91410220Y-89731869D01*
X91403533Y-89741875D01*
X91354499Y-89860255D01*
X91354497Y-89860261D01*
X91329500Y-89985928D01*
X91329500Y-93529191D01*
X91309815Y-93596230D01*
X91293181Y-93616872D01*
X90574727Y-94335325D01*
X90574726Y-94335326D01*
X90503534Y-94441874D01*
X90454499Y-94560255D01*
X90454497Y-94560263D01*
X90429501Y-94685926D01*
X90429501Y-94814073D01*
X90454497Y-94939736D01*
X90454499Y-94939744D01*
X90480061Y-95001455D01*
X90489500Y-95048908D01*
X90489500Y-100423316D01*
X90469815Y-100490355D01*
X90436623Y-100524891D01*
X90300859Y-100619953D01*
X90139954Y-100780858D01*
X90009432Y-100967265D01*
X90009431Y-100967267D01*
X89982382Y-101025275D01*
X89936209Y-101077714D01*
X89869016Y-101096866D01*
X89802135Y-101076650D01*
X89757618Y-101025275D01*
X89750880Y-101010826D01*
X89730568Y-100967266D01*
X89617514Y-100805806D01*
X89600048Y-100780862D01*
X89521463Y-100702277D01*
X89439139Y-100619953D01*
X89434373Y-100616615D01*
X89403375Y-100594910D01*
X89359751Y-100540332D01*
X89350500Y-100493336D01*
X89350500Y-99277991D01*
X89370185Y-99210952D01*
X89422989Y-99165197D01*
X89461899Y-99154633D01*
X89482797Y-99152499D01*
X89649334Y-99097314D01*
X89798656Y-99005212D01*
X89922712Y-98881156D01*
X90014814Y-98731834D01*
X90069999Y-98565297D01*
X90080500Y-98462509D01*
X90080499Y-97837492D01*
X90069999Y-97734703D01*
X90014814Y-97568166D01*
X89922712Y-97418844D01*
X89829049Y-97325181D01*
X89795564Y-97263858D01*
X89800548Y-97194166D01*
X89829049Y-97149819D01*
X89872314Y-97106554D01*
X89922712Y-97056156D01*
X90014814Y-96906834D01*
X90069999Y-96740297D01*
X90080500Y-96637509D01*
X90080499Y-96012492D01*
X90069999Y-95909703D01*
X90014814Y-95743166D01*
X89922712Y-95593844D01*
X89798656Y-95469788D01*
X89689402Y-95402400D01*
X89642679Y-95350453D01*
X89630500Y-95296862D01*
X89630500Y-91803015D01*
X89647768Y-91739894D01*
X89648081Y-91739365D01*
X89731744Y-91597898D01*
X89777598Y-91440069D01*
X89780500Y-91403194D01*
X89780500Y-90237000D01*
X89800185Y-90169961D01*
X89852989Y-90124206D01*
X89904500Y-90113000D01*
X90145686Y-90113000D01*
X90145694Y-90113000D01*
X90182569Y-90110098D01*
X90182571Y-90110097D01*
X90182573Y-90110097D01*
X90228347Y-90096798D01*
X90340398Y-90064244D01*
X90481865Y-89980581D01*
X90598081Y-89864365D01*
X90681744Y-89722898D01*
X90727598Y-89565069D01*
X90730500Y-89528194D01*
X90730500Y-88221806D01*
X90730499Y-88221798D01*
X90730404Y-88219368D01*
X90731175Y-88219337D01*
X90744876Y-88153973D01*
X90766471Y-88124895D01*
X91454549Y-87436819D01*
X91515872Y-87403334D01*
X91542230Y-87400500D01*
X92292779Y-87400500D01*
X92359818Y-87420185D01*
G37*
%TD.AperFunction*%
%TA.AperFunction,Conductor*%
G36*
X104772231Y-89995185D02*
G01*
X104817986Y-90047989D01*
X104827930Y-90117147D01*
X104798905Y-90180703D01*
X104792873Y-90187181D01*
X104518724Y-90461330D01*
X104518723Y-90461332D01*
X104459144Y-90550500D01*
X104447535Y-90567874D01*
X104447533Y-90567877D01*
X104398499Y-90686256D01*
X104398497Y-90686262D01*
X104373500Y-90811929D01*
X104373500Y-94400000D01*
X101500000Y-94400000D01*
X101500000Y-97100000D01*
X104360343Y-97100000D01*
X104353815Y-97122230D01*
X104337181Y-97142872D01*
X101184541Y-100295511D01*
X101123218Y-100328996D01*
X101107671Y-100331358D01*
X101085896Y-100333263D01*
X101073308Y-100334365D01*
X101073305Y-100334365D01*
X101073302Y-100334366D01*
X100853511Y-100393258D01*
X100853502Y-100393261D01*
X100647267Y-100489431D01*
X100647265Y-100489432D01*
X100460858Y-100619954D01*
X100299954Y-100780858D01*
X100169432Y-100967265D01*
X100169431Y-100967267D01*
X100142382Y-101025275D01*
X100096209Y-101077714D01*
X100029016Y-101096866D01*
X99962135Y-101076650D01*
X99917618Y-101025275D01*
X99910880Y-101010826D01*
X99890568Y-100967266D01*
X99760047Y-100780861D01*
X99760045Y-100780858D01*
X99599140Y-100619953D01*
X99463377Y-100524891D01*
X99419752Y-100470314D01*
X99410500Y-100423316D01*
X99410500Y-96563670D01*
X99430185Y-96496631D01*
X99482989Y-96450876D01*
X99552147Y-96440932D01*
X99558692Y-96442053D01*
X99601156Y-96450500D01*
X99601158Y-96450500D01*
X99758844Y-96450500D01*
X99758845Y-96450499D01*
X99913497Y-96419737D01*
X100059179Y-96359394D01*
X100190289Y-96271789D01*
X100301789Y-96160289D01*
X100389394Y-96029179D01*
X100449737Y-95883497D01*
X100480500Y-95728842D01*
X100480500Y-95571158D01*
X100480500Y-95571155D01*
X100480499Y-95571153D01*
X100470260Y-95519679D01*
X100449737Y-95416503D01*
X100443896Y-95402401D01*
X100389397Y-95270827D01*
X100389390Y-95270814D01*
X100301789Y-95139711D01*
X100301786Y-95139707D01*
X100190292Y-95028213D01*
X100190288Y-95028210D01*
X100059185Y-94940609D01*
X100059172Y-94940602D01*
X99913499Y-94880263D01*
X99913491Y-94880261D01*
X99846418Y-94866919D01*
X99784507Y-94834534D01*
X99782929Y-94832983D01*
X98412127Y-93462181D01*
X98378642Y-93400858D01*
X98383626Y-93331166D01*
X98425498Y-93275233D01*
X98490962Y-93250816D01*
X98499808Y-93250500D01*
X100773920Y-93250500D01*
X100881968Y-93229007D01*
X100918913Y-93221658D01*
X101055495Y-93165084D01*
X101118812Y-93122777D01*
X101178416Y-93082952D01*
X104249548Y-90011818D01*
X104310871Y-89978334D01*
X104337229Y-89975500D01*
X104705192Y-89975500D01*
X104772231Y-89995185D01*
G37*
%TD.AperFunction*%
%TA.AperFunction,Conductor*%
G36*
X108486783Y-89280939D02*
G01*
X108503052Y-89279190D01*
X108520301Y-89287824D01*
X108539197Y-89291706D01*
X108550900Y-89303141D01*
X108565531Y-89310465D01*
X108575374Y-89327054D01*
X108589172Y-89340536D01*
X108599987Y-89368536D01*
X108601184Y-89370553D01*
X108601599Y-89372710D01*
X108601889Y-89373459D01*
X108603206Y-89379196D01*
X108614635Y-89465999D01*
X108633742Y-89512129D01*
X108636065Y-89522239D01*
X108631888Y-89591984D01*
X108629774Y-89597451D01*
X108614635Y-89634000D01*
X108614635Y-89634002D01*
X108599500Y-89748952D01*
X108599500Y-90001047D01*
X108614635Y-90115997D01*
X108614635Y-90115999D01*
X108629774Y-90152549D01*
X108637241Y-90222019D01*
X108629774Y-90247451D01*
X108614635Y-90284000D01*
X108614635Y-90284002D01*
X108599500Y-90398952D01*
X108599500Y-90651047D01*
X108604137Y-90686262D01*
X108613089Y-90754259D01*
X108614635Y-90765997D01*
X108614635Y-90765999D01*
X108629774Y-90802549D01*
X108632381Y-90826809D01*
X108639212Y-90850239D01*
X108636407Y-90864266D01*
X108637241Y-90872019D01*
X108634121Y-90885165D01*
X108632268Y-90891430D01*
X108614635Y-90934001D01*
X108610587Y-90964743D01*
X108607826Y-90974082D01*
X108593945Y-90995590D01*
X108583587Y-91019002D01*
X108575314Y-91024458D01*
X108569939Y-91032787D01*
X108546628Y-91043378D01*
X108525261Y-91057471D01*
X108506742Y-91061500D01*
X108506327Y-91061689D01*
X108506056Y-91061649D01*
X108505107Y-91061856D01*
X108484000Y-91064635D01*
X108483997Y-91064636D01*
X108340963Y-91123882D01*
X108218132Y-91218133D01*
X108173375Y-91276462D01*
X108116947Y-91317664D01*
X108047201Y-91321819D01*
X107986281Y-91287606D01*
X107976625Y-91276462D01*
X107931867Y-91218133D01*
X107809036Y-91123882D01*
X107809037Y-91123882D01*
X107666002Y-91064636D01*
X107666000Y-91064635D01*
X107665999Y-91064635D01*
X107640452Y-91061271D01*
X107551047Y-91049500D01*
X107551040Y-91049500D01*
X107298960Y-91049500D01*
X107298952Y-91049500D01*
X107196774Y-91062953D01*
X107184001Y-91064635D01*
X107184000Y-91064635D01*
X107147451Y-91079774D01*
X107123188Y-91082381D01*
X107099761Y-91089212D01*
X107085733Y-91086407D01*
X107077981Y-91087241D01*
X107064836Y-91084122D01*
X107058575Y-91082270D01*
X107015999Y-91064635D01*
X106985250Y-91060586D01*
X106975918Y-91057827D01*
X106954408Y-91043944D01*
X106930997Y-91033587D01*
X106925540Y-91025313D01*
X106917213Y-91019939D01*
X106906622Y-90996631D01*
X106892528Y-90975261D01*
X106888500Y-90956746D01*
X106888310Y-90956327D01*
X106888349Y-90956053D01*
X106888143Y-90955102D01*
X106885365Y-90934001D01*
X106870225Y-90897452D01*
X106862757Y-90827984D01*
X106870226Y-90802546D01*
X106881188Y-90776082D01*
X106885365Y-90765999D01*
X106900500Y-90651040D01*
X106900500Y-90398960D01*
X106885365Y-90284001D01*
X106870225Y-90247452D01*
X106862757Y-90177984D01*
X106870226Y-90152546D01*
X106885365Y-90115999D01*
X106900500Y-90001040D01*
X106900500Y-89748960D01*
X106885365Y-89634001D01*
X106870225Y-89597452D01*
X106862757Y-89527984D01*
X106863934Y-89522239D01*
X106866255Y-89512132D01*
X106885365Y-89465999D01*
X106896794Y-89379186D01*
X106898110Y-89373459D01*
X106912443Y-89347918D01*
X106924290Y-89321138D01*
X106929342Y-89317805D01*
X106932304Y-89312528D01*
X106958170Y-89298790D01*
X106982615Y-89282667D01*
X106988665Y-89282595D01*
X106994011Y-89279756D01*
X107023202Y-89282184D01*
X107052479Y-89281836D01*
X107063068Y-89285500D01*
X107063640Y-89285548D01*
X107063997Y-89285821D01*
X107066402Y-89286654D01*
X107184001Y-89335365D01*
X107298960Y-89350500D01*
X107298967Y-89350500D01*
X107551033Y-89350500D01*
X107551040Y-89350500D01*
X107665999Y-89335365D01*
X107702547Y-89320225D01*
X107772016Y-89312757D01*
X107797450Y-89320224D01*
X107834001Y-89335365D01*
X107948960Y-89350500D01*
X107948967Y-89350500D01*
X108201033Y-89350500D01*
X108201040Y-89350500D01*
X108315999Y-89335365D01*
X108433587Y-89286658D01*
X108452763Y-89284596D01*
X108470757Y-89277647D01*
X108486783Y-89280939D01*
G37*
%TD.AperFunction*%
%TA.AperFunction,Conductor*%
G36*
X106617539Y-88144185D02*
G01*
X106663294Y-88196989D01*
X106674500Y-88248500D01*
X106674500Y-88411418D01*
X106676524Y-88421595D01*
X106681176Y-88444982D01*
X106674947Y-88514574D01*
X106632084Y-88569750D01*
X106566194Y-88592994D01*
X106512106Y-88583733D01*
X106465999Y-88564635D01*
X106451629Y-88562743D01*
X106351047Y-88549500D01*
X106351040Y-88549500D01*
X106242513Y-88549500D01*
X106195060Y-88540061D01*
X106106413Y-88503342D01*
X106106407Y-88503340D01*
X105961420Y-88474500D01*
X105961418Y-88474500D01*
X104386229Y-88474500D01*
X104364983Y-88468261D01*
X104342895Y-88466682D01*
X104332111Y-88458609D01*
X104319190Y-88454815D01*
X104304690Y-88438081D01*
X104286962Y-88424810D01*
X104282254Y-88412189D01*
X104273435Y-88402011D01*
X104270283Y-88380093D01*
X104262545Y-88359346D01*
X104265407Y-88346185D01*
X104263491Y-88332853D01*
X104272690Y-88312709D01*
X104277397Y-88291073D01*
X104290665Y-88273347D01*
X104292516Y-88269297D01*
X104298548Y-88262819D01*
X104400548Y-88160819D01*
X104461871Y-88127334D01*
X104488229Y-88124500D01*
X106550500Y-88124500D01*
X106617539Y-88144185D01*
G37*
%TD.AperFunction*%
%TA.AperFunction,Conductor*%
G36*
X112108809Y-88144185D02*
G01*
X112129451Y-88160819D01*
X112231451Y-88262819D01*
X112264936Y-88324142D01*
X112259952Y-88393834D01*
X112218080Y-88449767D01*
X112152616Y-88474184D01*
X112143770Y-88474500D01*
X109538580Y-88474500D01*
X109393592Y-88503340D01*
X109393586Y-88503342D01*
X109304940Y-88540061D01*
X109257487Y-88549500D01*
X109148952Y-88549500D01*
X109046774Y-88562953D01*
X109034001Y-88564635D01*
X109034000Y-88564635D01*
X109033997Y-88564636D01*
X108987893Y-88583733D01*
X108918423Y-88591202D01*
X108855944Y-88559926D01*
X108820293Y-88499837D01*
X108818824Y-88444979D01*
X108825500Y-88411419D01*
X108825500Y-88248500D01*
X108845185Y-88181461D01*
X108897989Y-88135706D01*
X108949500Y-88124500D01*
X112041770Y-88124500D01*
X112108809Y-88144185D01*
G37*
%TD.AperFunction*%
%TD*%
M02*
