%TF.GenerationSoftware,KiCad,Pcbnew,9.0.7-9.0.7~ubuntu24.04.1*%
%TF.CreationDate,2026-02-04T21:28:14-05:00*%
%TF.ProjectId,PCBA_Board,50434241-5f42-46f6-9172-642e6b696361,rev?*%
%TF.SameCoordinates,Original*%
%TF.FileFunction,Soldermask,Top*%
%TF.FilePolarity,Negative*%
%FSLAX46Y46*%
G04 Gerber Fmt 4.6, Leading zero omitted, Abs format (unit mm)*
G04 Created by KiCad (PCBNEW 9.0.7-9.0.7~ubuntu24.04.1) date 2026-02-04 21:28:14*
%MOMM*%
%LPD*%
G01*
G04 APERTURE LIST*
G04 Aperture macros list*
%AMRoundRect*
0 Rectangle with rounded corners*
0 $1 Rounding radius*
0 $2 $3 $4 $5 $6 $7 $8 $9 X,Y pos of 4 corners*
0 Add a 4 corners polygon primitive as box body*
4,1,4,$2,$3,$4,$5,$6,$7,$8,$9,$2,$3,0*
0 Add four circle primitives for the rounded corners*
1,1,$1+$1,$2,$3*
1,1,$1+$1,$4,$5*
1,1,$1+$1,$6,$7*
1,1,$1+$1,$8,$9*
0 Add four rect primitives between the rounded corners*
20,1,$1+$1,$2,$3,$4,$5,0*
20,1,$1+$1,$4,$5,$6,$7,0*
20,1,$1+$1,$6,$7,$8,$9,0*
20,1,$1+$1,$8,$9,$2,$3,0*%
%AMFreePoly0*
4,1,37,0.800000,0.796148,0.878414,0.796148,1.032228,0.765552,1.177117,0.705537,1.307515,0.618408,1.418408,0.507515,1.505537,0.377117,1.565552,0.232228,1.596148,0.078414,1.596148,-0.078414,1.565552,-0.232228,1.505537,-0.377117,1.418408,-0.507515,1.307515,-0.618408,1.177117,-0.705537,1.032228,-0.765552,0.878414,-0.796148,0.800000,-0.796148,0.800000,-0.800000,-1.400000,-0.800000,
-1.403843,-0.796157,-1.439018,-0.796157,-1.511114,-0.766294,-1.566294,-0.711114,-1.596157,-0.639018,-1.596157,-0.603843,-1.600000,-0.600000,-1.600000,0.600000,-1.596157,0.603843,-1.596157,0.639018,-1.566294,0.711114,-1.511114,0.766294,-1.439018,0.796157,-1.403843,0.796157,-1.400000,0.800000,0.800000,0.800000,0.800000,0.796148,0.800000,0.796148,$1*%
%AMFreePoly1*
4,1,37,1.403843,0.796157,1.439018,0.796157,1.511114,0.766294,1.566294,0.711114,1.596157,0.639018,1.596157,0.603843,1.600000,0.600000,1.600000,-0.600000,1.596157,-0.603843,1.596157,-0.639018,1.566294,-0.711114,1.511114,-0.766294,1.439018,-0.796157,1.403843,-0.796157,1.400000,-0.800000,-0.800000,-0.800000,-0.800000,-0.796148,-0.878414,-0.796148,-1.032228,-0.765552,-1.177117,-0.705537,
-1.307515,-0.618408,-1.418408,-0.507515,-1.505537,-0.377117,-1.565552,-0.232228,-1.596148,-0.078414,-1.596148,0.078414,-1.565552,0.232228,-1.505537,0.377117,-1.418408,0.507515,-1.307515,0.618408,-1.177117,0.705537,-1.032228,0.765552,-0.878414,0.796148,-0.800000,0.796148,-0.800000,0.800000,1.400000,0.800000,1.403843,0.796157,1.403843,0.796157,$1*%
G04 Aperture macros list end*
%ADD10RoundRect,0.250000X0.250000X2.500000X-0.250000X2.500000X-0.250000X-2.500000X0.250000X-2.500000X0*%
%ADD11RoundRect,0.250000X0.550000X1.250000X-0.550000X1.250000X-0.550000X-1.250000X0.550000X-1.250000X0*%
%ADD12RoundRect,0.200000X0.200000X0.275000X-0.200000X0.275000X-0.200000X-0.275000X0.200000X-0.275000X0*%
%ADD13C,1.600000*%
%ADD14RoundRect,0.200000X-0.600000X0.600000X-0.600000X-0.600000X0.600000X-0.600000X0.600000X0.600000X0*%
%ADD15RoundRect,0.800000X-0.000010X0.800000X-0.000010X-0.800000X0.000010X-0.800000X0.000010X0.800000X0*%
%ADD16FreePoly0,270.000000*%
%ADD17FreePoly1,270.000000*%
%ADD18RoundRect,0.140000X-0.140000X-0.170000X0.140000X-0.170000X0.140000X0.170000X-0.140000X0.170000X0*%
%ADD19RoundRect,0.140000X0.140000X0.170000X-0.140000X0.170000X-0.140000X-0.170000X0.140000X-0.170000X0*%
%ADD20RoundRect,0.250000X-0.450000X0.262500X-0.450000X-0.262500X0.450000X-0.262500X0.450000X0.262500X0*%
%ADD21RoundRect,0.200000X0.275000X-0.200000X0.275000X0.200000X-0.275000X0.200000X-0.275000X-0.200000X0*%
%ADD22RoundRect,0.200000X-0.275000X0.200000X-0.275000X-0.200000X0.275000X-0.200000X0.275000X0.200000X0*%
%ADD23RoundRect,0.250000X0.600000X2.600000X-0.600000X2.600000X-0.600000X-2.600000X0.600000X-2.600000X0*%
%ADD24R,1.700000X1.700000*%
%ADD25C,1.700000*%
%ADD26RoundRect,0.250000X0.325000X1.100000X-0.325000X1.100000X-0.325000X-1.100000X0.325000X-1.100000X0*%
%ADD27RoundRect,0.250000X-0.475000X0.250000X-0.475000X-0.250000X0.475000X-0.250000X0.475000X0.250000X0*%
%ADD28RoundRect,0.225000X0.225000X0.250000X-0.225000X0.250000X-0.225000X-0.250000X0.225000X-0.250000X0*%
%ADD29RoundRect,0.250000X-0.250000X-0.475000X0.250000X-0.475000X0.250000X0.475000X-0.250000X0.475000X0*%
%ADD30RoundRect,0.225000X-0.225000X-0.250000X0.225000X-0.250000X0.225000X0.250000X-0.225000X0.250000X0*%
%ADD31RoundRect,0.250000X-1.100000X0.325000X-1.100000X-0.325000X1.100000X-0.325000X1.100000X0.325000X0*%
%ADD32R,1.550000X0.600000*%
%ADD33R,2.600000X3.100000*%
%ADD34RoundRect,0.087500X-0.087500X0.425000X-0.087500X-0.425000X0.087500X-0.425000X0.087500X0.425000X0*%
%ADD35RoundRect,0.087500X-0.425000X0.087500X-0.425000X-0.087500X0.425000X-0.087500X0.425000X0.087500X0*%
%ADD36R,2.100000X2.100000*%
%ADD37RoundRect,0.150000X0.150000X-0.587500X0.150000X0.587500X-0.150000X0.587500X-0.150000X-0.587500X0*%
%ADD38RoundRect,0.150000X0.625000X-0.150000X0.625000X0.150000X-0.625000X0.150000X-0.625000X-0.150000X0*%
%ADD39RoundRect,0.250000X0.650000X-0.350000X0.650000X0.350000X-0.650000X0.350000X-0.650000X-0.350000X0*%
%ADD40RoundRect,0.250000X-1.000000X-0.650000X1.000000X-0.650000X1.000000X0.650000X-1.000000X0.650000X0*%
G04 APERTURE END LIST*
D10*
%TO.C,J2*%
X124890000Y-136560000D03*
X122890000Y-136560000D03*
D11*
X127290000Y-138810000D03*
X120490000Y-138810000D03*
%TD*%
D10*
%TO.C,J1*%
X134570000Y-136600000D03*
X132570000Y-136600000D03*
D11*
X136970000Y-138850000D03*
X130170000Y-138850000D03*
%TD*%
D12*
%TO.C,R6*%
X127575000Y-124800000D03*
X129225000Y-124800000D03*
%TD*%
D13*
%TO.C,A1*%
X107030000Y-117774100D03*
X107030000Y-115234100D03*
D14*
X107030000Y-112694100D03*
D15*
X136860000Y-121800000D03*
X134320000Y-121800000D03*
D16*
X131780000Y-121800000D03*
D15*
X129240000Y-121800000D03*
X126700000Y-121800000D03*
X124160000Y-121800000D03*
X121620000Y-121800000D03*
D16*
X119080000Y-121800000D03*
D15*
X116540000Y-121800000D03*
X114000000Y-121800000D03*
X111460000Y-121800000D03*
X108920000Y-121800000D03*
D16*
X106380000Y-121800000D03*
D15*
X103840000Y-121800000D03*
X101300000Y-121800000D03*
X98760000Y-121800000D03*
X96220000Y-121800000D03*
D16*
X93680000Y-121800000D03*
D15*
X91140000Y-121800000D03*
X88600000Y-121800000D03*
X88600000Y-102420000D03*
X91140000Y-102420000D03*
D17*
X93680000Y-102420000D03*
D15*
X96220000Y-102420000D03*
X98760000Y-102420000D03*
X101300000Y-102420000D03*
X103840000Y-102420000D03*
D17*
X106380000Y-102420000D03*
D15*
X108920000Y-102420000D03*
X111460000Y-102420000D03*
X114000000Y-102420000D03*
X116540000Y-102420000D03*
D17*
X119080000Y-102420000D03*
D15*
X121620000Y-102420000D03*
X124160000Y-102420000D03*
X126700000Y-102420000D03*
X129240000Y-102420000D03*
D17*
X131780000Y-102420000D03*
D15*
X134320000Y-102420000D03*
D16*
X136860000Y-102420000D03*
%TD*%
D18*
%TO.C,C12*%
X108120000Y-93500000D03*
X109080000Y-93500000D03*
%TD*%
D19*
%TO.C,C10*%
X107180000Y-93500000D03*
X106220000Y-93500000D03*
%TD*%
D20*
%TO.C,R7*%
X88880000Y-96325000D03*
X88880000Y-98150000D03*
%TD*%
%TO.C,R2*%
X136880000Y-97137500D03*
X136880000Y-98962500D03*
%TD*%
D21*
%TO.C,R3*%
X105200000Y-124975000D03*
X105200000Y-126625000D03*
%TD*%
D22*
%TO.C,R4*%
X106900000Y-126625000D03*
X106900000Y-124975000D03*
%TD*%
D23*
%TO.C,L1*%
X110890000Y-132200000D03*
X106390000Y-132200000D03*
%TD*%
D12*
%TO.C,R5*%
X132525000Y-124800000D03*
X130875000Y-124800000D03*
%TD*%
D22*
%TO.C,R1*%
X108700000Y-124975000D03*
X108700000Y-126625000D03*
%TD*%
D24*
%TO.C,J7*%
X98560000Y-86650000D03*
D25*
X96020000Y-86650000D03*
X93480000Y-86650000D03*
%TD*%
%TO.C,J5*%
X89400000Y-126400000D03*
X91940000Y-126400000D03*
X94480000Y-126400000D03*
X97020000Y-126400000D03*
X99560000Y-126400000D03*
D24*
X102100000Y-126400000D03*
%TD*%
D26*
%TO.C,C11*%
X107000000Y-95750000D03*
X104050000Y-95750000D03*
%TD*%
%TO.C,C9*%
X99975000Y-133600000D03*
X97025000Y-133600000D03*
%TD*%
%TO.C,C8*%
X100075000Y-130000000D03*
X97125000Y-130000000D03*
%TD*%
D27*
%TO.C,C7*%
X114200000Y-125650000D03*
X114200000Y-127550000D03*
%TD*%
D28*
%TO.C,C6*%
X112175000Y-125500000D03*
X110625000Y-125500000D03*
%TD*%
D29*
%TO.C,C5*%
X115030000Y-130700000D03*
X116930000Y-130700000D03*
%TD*%
D30*
%TO.C,C4*%
X124300000Y-124800000D03*
X125850000Y-124800000D03*
%TD*%
D27*
%TO.C,C3*%
X124700000Y-127150000D03*
X124700000Y-129050000D03*
%TD*%
D31*
%TO.C,C2*%
X131200000Y-127025000D03*
X131200000Y-129975000D03*
%TD*%
%TO.C,C1*%
X127600000Y-127025000D03*
X127600000Y-129975000D03*
%TD*%
D32*
%TO.C,U2*%
X122300000Y-128705000D03*
X122300000Y-127435000D03*
X122300000Y-126165000D03*
X122300000Y-124895000D03*
X116900000Y-124895000D03*
X116900000Y-126165000D03*
X116900000Y-127435000D03*
X116900000Y-128705000D03*
D33*
X119600000Y-126800000D03*
%TD*%
D34*
%TO.C,U1*%
X108725000Y-88337500D03*
X108075000Y-88337500D03*
X107425000Y-88337500D03*
X106775000Y-88337500D03*
D35*
X105887500Y-89225000D03*
X105887500Y-89875000D03*
X105887500Y-90525000D03*
X105887500Y-91175000D03*
D34*
X106775000Y-92062500D03*
X107425000Y-92062500D03*
X108075000Y-92062500D03*
X108725000Y-92062500D03*
D35*
X109612500Y-91175000D03*
X109612500Y-90525000D03*
X109612500Y-89875000D03*
X109612500Y-89225000D03*
D36*
X107750000Y-90200000D03*
%TD*%
D37*
%TO.C,Q2*%
X88980000Y-90750000D03*
X90880000Y-90750000D03*
X89930000Y-88875000D03*
%TD*%
%TO.C,Q1*%
X135430000Y-93487500D03*
X137330000Y-93487500D03*
X136380000Y-91612500D03*
%TD*%
D38*
%TO.C,J4*%
X96325000Y-96500000D03*
X96325000Y-95500000D03*
X96325000Y-94500000D03*
X96325000Y-93500000D03*
X96325000Y-92500000D03*
X96325000Y-91500000D03*
D39*
X93800000Y-97800000D03*
X93800000Y-90200000D03*
%TD*%
D38*
%TO.C,J3*%
X131825000Y-96500000D03*
X131825000Y-95500000D03*
X131825000Y-94500000D03*
X131825000Y-93500000D03*
X131825000Y-92500000D03*
X131825000Y-91500000D03*
D39*
X129300000Y-97800000D03*
X129300000Y-90200000D03*
%TD*%
D40*
%TO.C,D2*%
X114170000Y-133600000D03*
X118170000Y-133600000D03*
%TD*%
D24*
%TO.C,J6*%
X126740000Y-86850000D03*
D25*
X129280000Y-86850000D03*
X131820000Y-86850000D03*
%TD*%
M02*
