%TF.GenerationSoftware,KiCad,Pcbnew,9.0.7-9.0.7~ubuntu24.04.1*%
%TF.CreationDate,2026-02-05T02:02:07-05:00*%
%TF.ProjectId,BasePCB,42617365-5043-4422-9e6b-696361645f70,rev?*%
%TF.SameCoordinates,Original*%
%TF.FileFunction,Copper,L2,Bot*%
%TF.FilePolarity,Positive*%
%FSLAX46Y46*%
G04 Gerber Fmt 4.6, Leading zero omitted, Abs format (unit mm)*
G04 Created by KiCad (PCBNEW 9.0.7-9.0.7~ubuntu24.04.1) date 2026-02-05 02:02:07*
%MOMM*%
%LPD*%
G01*
G04 APERTURE LIST*
G04 Aperture macros list*
%AMRoundRect*
0 Rectangle with rounded corners*
0 $1 Rounding radius*
0 $2 $3 $4 $5 $6 $7 $8 $9 X,Y pos of 4 corners*
0 Add a 4 corners polygon primitive as box body*
4,1,4,$2,$3,$4,$5,$6,$7,$8,$9,$2,$3,0*
0 Add four circle primitives for the rounded corners*
1,1,$1+$1,$2,$3*
1,1,$1+$1,$4,$5*
1,1,$1+$1,$6,$7*
1,1,$1+$1,$8,$9*
0 Add four rect primitives between the rounded corners*
20,1,$1+$1,$2,$3,$4,$5,0*
20,1,$1+$1,$4,$5,$6,$7,0*
20,1,$1+$1,$6,$7,$8,$9,0*
20,1,$1+$1,$8,$9,$2,$3,0*%
G04 Aperture macros list end*
%TA.AperFunction,ComponentPad*%
%ADD10R,1.700000X1.700000*%
%TD*%
%TA.AperFunction,ComponentPad*%
%ADD11C,1.700000*%
%TD*%
%TA.AperFunction,ComponentPad*%
%ADD12RoundRect,0.250000X-0.350000X-0.625000X0.350000X-0.625000X0.350000X0.625000X-0.350000X0.625000X0*%
%TD*%
%TA.AperFunction,ComponentPad*%
%ADD13O,1.200000X1.750000*%
%TD*%
%TA.AperFunction,ViaPad*%
%ADD14C,0.600000*%
%TD*%
%TA.AperFunction,Conductor*%
%ADD15C,0.700000*%
%TD*%
%TA.AperFunction,Conductor*%
%ADD16C,0.500000*%
%TD*%
G04 APERTURE END LIST*
D10*
%TO.P,J7,1,Pin_1*%
%TO.N,Net-(J7-Pin_1)*%
X124030000Y-81110000D03*
D11*
%TO.P,J7,2,Pin_2*%
%TO.N,+5V*%
X126570000Y-81110000D03*
%TO.P,J7,3,Pin_3*%
%TO.N,/SB_PWM*%
X129110000Y-81110000D03*
%TD*%
D10*
%TO.P,J6,1,Pin_1*%
%TO.N,Net-(J6-Pin_1)*%
X157110000Y-81110000D03*
D11*
%TO.P,J6,2,Pin_2*%
%TO.N,+5V*%
X154570000Y-81110000D03*
%TO.P,J6,3,Pin_3*%
%TO.N,/SA_PWM*%
X152030000Y-81110000D03*
%TD*%
D12*
%TO.P,J1,1,Pin_1*%
%TO.N,+BATT*%
X147570000Y-127110000D03*
D13*
%TO.P,J1,2,Pin_2*%
%TO.N,Net-(J1-Pin_2)*%
X149570000Y-127110000D03*
%TD*%
D12*
%TO.P,J2,1,Pin_1*%
%TO.N,Net-(J1-Pin_2)*%
X155570000Y-127110000D03*
D13*
%TO.P,J2,2,Pin_2*%
%TO.N,GND*%
X157570000Y-127110000D03*
%TD*%
D10*
%TO.P,J10,1,Pin_1*%
%TO.N,GND*%
X131680000Y-86110000D03*
D11*
%TO.P,J10,2,Pin_2*%
%TO.N,+BATT*%
X134220000Y-86110000D03*
%TO.P,J10,3,Pin_3*%
%TO.N,/MB1*%
X136760000Y-86110000D03*
%TO.P,J10,4,Pin_4*%
%TO.N,/MB2*%
X139300000Y-86110000D03*
%TO.P,J10,5,Pin_5*%
%TO.N,/MA2*%
X141840000Y-86110000D03*
%TO.P,J10,6,Pin_6*%
%TO.N,/MA1*%
X144380000Y-86110000D03*
%TO.P,J10,7,Pin_7*%
%TO.N,unconnected-(J10-Pin_7-Pad7)*%
X146920000Y-86110000D03*
%TO.P,J10,8,Pin_8*%
%TO.N,unconnected-(J10-Pin_8-Pad8)*%
X149460000Y-86110000D03*
%TD*%
D10*
%TO.P,J9,1,Pin_1*%
%TO.N,GND*%
X131680000Y-96270000D03*
D11*
%TO.P,J9,2,Pin_2*%
%TO.N,unconnected-(J9-Pin_2-Pad2)*%
X134220000Y-96270000D03*
%TO.P,J9,3,Pin_3*%
%TO.N,/BIN1*%
X136760000Y-96270000D03*
%TO.P,J9,4,Pin_4*%
%TO.N,/BIN2*%
X139300000Y-96270000D03*
%TO.P,J9,5,Pin_5*%
%TO.N,/AIN2*%
X141840000Y-96270000D03*
%TO.P,J9,6,Pin_6*%
%TO.N,/AIN1*%
X144380000Y-96270000D03*
%TO.P,J9,7,Pin_7*%
%TO.N,/nSLEEP*%
X146920000Y-96270000D03*
%TO.P,J9,8,Pin_8*%
%TO.N,unconnected-(J9-Pin_8-Pad8)*%
X149460000Y-96270000D03*
%TD*%
D10*
%TO.P,J8,1,Pin_1*%
%TO.N,/5V_EN*%
X142110000Y-128610000D03*
D11*
%TO.P,J8,2,Pin_2*%
%TO.N,+BATT*%
X139570000Y-128610000D03*
%TO.P,J8,3,Pin_3*%
%TO.N,GND*%
X137030000Y-128610000D03*
%TO.P,J8,4,Pin_4*%
%TO.N,+5V*%
X134490000Y-128610000D03*
%TD*%
D10*
%TO.P,J5,1,Pin_1*%
%TO.N,+5V*%
X117950000Y-124110000D03*
D11*
%TO.P,J5,2,Pin_2*%
%TO.N,/CLK*%
X120490000Y-124110000D03*
%TO.P,J5,3,Pin_3*%
%TO.N,/MOSI*%
X123030000Y-124110000D03*
%TO.P,J5,4,Pin_4*%
%TO.N,/MISO*%
X125570000Y-124110000D03*
%TO.P,J5,5,Pin_5*%
%TO.N,/CS*%
X128110000Y-124110000D03*
%TO.P,J5,6,Pin_6*%
%TO.N,GND*%
X130650000Y-124110000D03*
%TD*%
D14*
%TO.N,+5V*%
X161570000Y-122610000D03*
%TD*%
D15*
%TO.N,+BATT*%
X134220000Y-86110000D02*
X139220000Y-91110000D01*
X152570000Y-114610000D02*
X147570000Y-119610000D01*
X139220000Y-91110000D02*
X149570000Y-91110000D01*
X149570000Y-91110000D02*
X152570000Y-94110000D01*
X152570000Y-94110000D02*
X152570000Y-114610000D01*
X147570000Y-119610000D02*
X147570000Y-127110000D01*
%TO.N,+5V*%
X129070000Y-85110000D02*
X129070000Y-114110000D01*
X129070000Y-85110000D02*
X131669000Y-82511000D01*
X131669000Y-82511000D02*
X153169000Y-82511000D01*
X153169000Y-82511000D02*
X154570000Y-81110000D01*
X129070000Y-83610000D02*
X129070000Y-85110000D01*
X126570000Y-81110000D02*
X129070000Y-83610000D01*
X129070000Y-114110000D02*
X134490000Y-119530000D01*
X134490000Y-119530000D02*
X134490000Y-128610000D01*
D16*
X158070000Y-130110000D02*
X135990000Y-130110000D01*
X161570000Y-122610000D02*
X160070000Y-124110000D01*
X160070000Y-124110000D02*
X160070000Y-128110000D01*
X160070000Y-128110000D02*
X158070000Y-130110000D01*
X135990000Y-130110000D02*
X134490000Y-128610000D01*
%TD*%
%TA.AperFunction,Conductor*%
%TO.N,GND*%
G36*
X166012539Y-77630185D02*
G01*
X166058294Y-77682989D01*
X166069500Y-77734500D01*
X166069500Y-130485500D01*
X166049815Y-130552539D01*
X165997011Y-130598294D01*
X165945500Y-130609500D01*
X158931230Y-130609500D01*
X158864191Y-130589815D01*
X158818436Y-130537011D01*
X158808492Y-130467853D01*
X158837517Y-130404297D01*
X158843549Y-130397819D01*
X160652948Y-128588419D01*
X160652949Y-128588418D01*
X160652948Y-128588418D01*
X160652951Y-128588416D01*
X160684819Y-128540722D01*
X160735084Y-128465495D01*
X160791658Y-128328913D01*
X160810240Y-128235497D01*
X160820500Y-128183920D01*
X160820500Y-127984495D01*
X161655286Y-127984495D01*
X161655286Y-128235504D01*
X161688047Y-128484340D01*
X161688048Y-128484344D01*
X161703155Y-128540723D01*
X161753011Y-128726789D01*
X161849059Y-128958669D01*
X161849064Y-128958680D01*
X161884072Y-129019314D01*
X161974558Y-129176040D01*
X161974560Y-129176043D01*
X161974561Y-129176044D01*
X162127351Y-129375165D01*
X162127357Y-129375172D01*
X162304827Y-129552642D01*
X162304833Y-129552647D01*
X162503960Y-129705442D01*
X162607201Y-129765048D01*
X162721319Y-129830935D01*
X162721324Y-129830937D01*
X162721327Y-129830939D01*
X162953215Y-129926990D01*
X163195656Y-129991952D01*
X163444503Y-130024714D01*
X163444510Y-130024714D01*
X163695490Y-130024714D01*
X163695497Y-130024714D01*
X163944344Y-129991952D01*
X164186785Y-129926990D01*
X164418673Y-129830939D01*
X164636040Y-129705442D01*
X164835167Y-129552647D01*
X165012647Y-129375167D01*
X165165442Y-129176040D01*
X165290939Y-128958673D01*
X165386990Y-128726785D01*
X165451952Y-128484344D01*
X165484714Y-128235497D01*
X165484714Y-127984503D01*
X165482777Y-127969794D01*
X165471982Y-127887795D01*
X165451952Y-127735656D01*
X165386990Y-127493215D01*
X165290939Y-127261327D01*
X165290937Y-127261324D01*
X165290935Y-127261319D01*
X165246099Y-127183661D01*
X165165442Y-127043960D01*
X165012647Y-126844833D01*
X165012642Y-126844827D01*
X164835172Y-126667357D01*
X164835165Y-126667351D01*
X164636044Y-126514561D01*
X164636043Y-126514560D01*
X164636040Y-126514558D01*
X164549377Y-126464523D01*
X164418680Y-126389064D01*
X164418669Y-126389059D01*
X164186789Y-126293011D01*
X163944340Y-126228047D01*
X163695504Y-126195286D01*
X163695497Y-126195286D01*
X163444503Y-126195286D01*
X163444495Y-126195286D01*
X163195659Y-126228047D01*
X162953210Y-126293011D01*
X162721330Y-126389059D01*
X162721319Y-126389064D01*
X162503955Y-126514561D01*
X162304834Y-126667351D01*
X162304827Y-126667357D01*
X162127357Y-126844827D01*
X162127351Y-126844834D01*
X161974561Y-127043955D01*
X161849064Y-127261319D01*
X161849059Y-127261330D01*
X161753011Y-127493210D01*
X161688047Y-127735659D01*
X161655286Y-127984495D01*
X160820500Y-127984495D01*
X160820500Y-124472228D01*
X160840185Y-124405189D01*
X160856814Y-124384551D01*
X161885295Y-123356070D01*
X161925519Y-123329193D01*
X161949179Y-123319394D01*
X162080289Y-123231789D01*
X162191789Y-123120289D01*
X162279394Y-122989179D01*
X162339737Y-122843497D01*
X162370500Y-122688842D01*
X162370500Y-122531158D01*
X162370500Y-122531155D01*
X162370499Y-122531153D01*
X162339738Y-122376510D01*
X162339737Y-122376503D01*
X162305855Y-122294704D01*
X162279397Y-122230827D01*
X162279390Y-122230814D01*
X162191789Y-122099711D01*
X162191786Y-122099707D01*
X162080292Y-121988213D01*
X162080288Y-121988210D01*
X161949185Y-121900609D01*
X161949172Y-121900602D01*
X161803501Y-121840264D01*
X161803489Y-121840261D01*
X161648845Y-121809500D01*
X161648842Y-121809500D01*
X161491158Y-121809500D01*
X161491155Y-121809500D01*
X161336510Y-121840261D01*
X161336498Y-121840264D01*
X161190827Y-121900602D01*
X161190814Y-121900609D01*
X161059711Y-121988210D01*
X161059707Y-121988213D01*
X160948213Y-122099707D01*
X160948207Y-122099715D01*
X160860607Y-122230818D01*
X160860605Y-122230822D01*
X160850805Y-122254480D01*
X160823927Y-122294704D01*
X159487050Y-123631580D01*
X159487044Y-123631588D01*
X159437812Y-123705268D01*
X159437813Y-123705269D01*
X159404921Y-123754496D01*
X159404914Y-123754508D01*
X159348342Y-123891086D01*
X159348340Y-123891092D01*
X159319500Y-124036079D01*
X159319500Y-127747770D01*
X159299815Y-127814809D01*
X159283181Y-127835451D01*
X157795451Y-129323181D01*
X157734128Y-129356666D01*
X157707770Y-129359500D01*
X143584500Y-129359500D01*
X143517461Y-129339815D01*
X143471706Y-129287011D01*
X143460500Y-129235500D01*
X143460499Y-127712129D01*
X143460498Y-127712123D01*
X143454091Y-127652516D01*
X143403797Y-127517671D01*
X143403793Y-127517664D01*
X143317547Y-127402455D01*
X143317544Y-127402452D01*
X143202335Y-127316206D01*
X143202328Y-127316202D01*
X143067482Y-127265908D01*
X143067483Y-127265908D01*
X143007883Y-127259501D01*
X143007881Y-127259500D01*
X143007873Y-127259500D01*
X143007864Y-127259500D01*
X141212129Y-127259500D01*
X141212123Y-127259501D01*
X141152516Y-127265908D01*
X141017671Y-127316202D01*
X141017664Y-127316206D01*
X140902455Y-127402452D01*
X140902452Y-127402455D01*
X140816206Y-127517664D01*
X140816203Y-127517669D01*
X140767189Y-127649083D01*
X140725317Y-127705016D01*
X140659853Y-127729433D01*
X140591580Y-127714581D01*
X140563326Y-127693430D01*
X140449786Y-127579890D01*
X140277820Y-127454951D01*
X140088414Y-127358444D01*
X140088413Y-127358443D01*
X140088412Y-127358443D01*
X139886243Y-127292754D01*
X139886241Y-127292753D01*
X139886240Y-127292753D01*
X139724957Y-127267208D01*
X139676287Y-127259500D01*
X139463713Y-127259500D01*
X139415042Y-127267208D01*
X139253760Y-127292753D01*
X139051585Y-127358444D01*
X138862179Y-127454951D01*
X138690213Y-127579890D01*
X138539890Y-127730213D01*
X138414951Y-127902179D01*
X138318444Y-128091585D01*
X138252753Y-128293760D01*
X138219500Y-128503713D01*
X138219500Y-128716286D01*
X138251103Y-128915824D01*
X138252754Y-128926243D01*
X138263293Y-128958680D01*
X138318444Y-129128414D01*
X138344323Y-129179205D01*
X138357219Y-129247875D01*
X138330942Y-129312615D01*
X138273836Y-129352872D01*
X138233838Y-129359500D01*
X136352229Y-129359500D01*
X136285190Y-129339815D01*
X136264548Y-129323181D01*
X135860174Y-128918807D01*
X135826689Y-128857484D01*
X135825382Y-128811733D01*
X135840500Y-128716287D01*
X135840500Y-128503713D01*
X135807246Y-128293757D01*
X135741557Y-128091588D01*
X135645051Y-127902184D01*
X135645049Y-127902181D01*
X135645048Y-127902179D01*
X135520109Y-127730213D01*
X135376819Y-127586923D01*
X135343334Y-127525600D01*
X135340500Y-127499242D01*
X135340500Y-119446232D01*
X135340499Y-119446228D01*
X135307817Y-119281925D01*
X135307816Y-119281918D01*
X135276840Y-119207137D01*
X135243704Y-119127138D01*
X135204078Y-119067834D01*
X135150630Y-118987842D01*
X135150624Y-118987834D01*
X129956819Y-113794029D01*
X129923334Y-113732706D01*
X129920500Y-113706348D01*
X129920500Y-96163713D01*
X132869500Y-96163713D01*
X132869500Y-96376286D01*
X132902753Y-96586239D01*
X132968444Y-96788414D01*
X133064951Y-96977820D01*
X133189890Y-97149786D01*
X133340213Y-97300109D01*
X133512179Y-97425048D01*
X133512181Y-97425049D01*
X133512184Y-97425051D01*
X133701588Y-97521557D01*
X133903757Y-97587246D01*
X134113713Y-97620500D01*
X134113714Y-97620500D01*
X134326286Y-97620500D01*
X134326287Y-97620500D01*
X134536243Y-97587246D01*
X134738412Y-97521557D01*
X134927816Y-97425051D01*
X134949789Y-97409086D01*
X135099786Y-97300109D01*
X135099788Y-97300106D01*
X135099792Y-97300104D01*
X135250104Y-97149792D01*
X135250106Y-97149788D01*
X135250109Y-97149786D01*
X135375048Y-96977820D01*
X135375047Y-96977820D01*
X135375051Y-96977816D01*
X135379514Y-96969054D01*
X135427488Y-96918259D01*
X135495308Y-96901463D01*
X135561444Y-96923999D01*
X135600486Y-96969056D01*
X135604951Y-96977820D01*
X135729890Y-97149786D01*
X135880213Y-97300109D01*
X136052179Y-97425048D01*
X136052181Y-97425049D01*
X136052184Y-97425051D01*
X136241588Y-97521557D01*
X136443757Y-97587246D01*
X136653713Y-97620500D01*
X136653714Y-97620500D01*
X136866286Y-97620500D01*
X136866287Y-97620500D01*
X137076243Y-97587246D01*
X137278412Y-97521557D01*
X137467816Y-97425051D01*
X137489789Y-97409086D01*
X137639786Y-97300109D01*
X137639788Y-97300106D01*
X137639792Y-97300104D01*
X137790104Y-97149792D01*
X137790106Y-97149788D01*
X137790109Y-97149786D01*
X137915048Y-96977820D01*
X137915047Y-96977820D01*
X137915051Y-96977816D01*
X137919514Y-96969054D01*
X137967488Y-96918259D01*
X138035308Y-96901463D01*
X138101444Y-96923999D01*
X138140486Y-96969056D01*
X138144951Y-96977820D01*
X138269890Y-97149786D01*
X138420213Y-97300109D01*
X138592179Y-97425048D01*
X138592181Y-97425049D01*
X138592184Y-97425051D01*
X138781588Y-97521557D01*
X138983757Y-97587246D01*
X139193713Y-97620500D01*
X139193714Y-97620500D01*
X139406286Y-97620500D01*
X139406287Y-97620500D01*
X139616243Y-97587246D01*
X139818412Y-97521557D01*
X140007816Y-97425051D01*
X140029789Y-97409086D01*
X140179786Y-97300109D01*
X140179788Y-97300106D01*
X140179792Y-97300104D01*
X140330104Y-97149792D01*
X140330106Y-97149788D01*
X140330109Y-97149786D01*
X140455048Y-96977820D01*
X140455047Y-96977820D01*
X140455051Y-96977816D01*
X140459514Y-96969054D01*
X140507488Y-96918259D01*
X140575308Y-96901463D01*
X140641444Y-96923999D01*
X140680486Y-96969056D01*
X140684951Y-96977820D01*
X140809890Y-97149786D01*
X140960213Y-97300109D01*
X141132179Y-97425048D01*
X141132181Y-97425049D01*
X141132184Y-97425051D01*
X141321588Y-97521557D01*
X141523757Y-97587246D01*
X141733713Y-97620500D01*
X141733714Y-97620500D01*
X141946286Y-97620500D01*
X141946287Y-97620500D01*
X142156243Y-97587246D01*
X142358412Y-97521557D01*
X142547816Y-97425051D01*
X142569789Y-97409086D01*
X142719786Y-97300109D01*
X142719788Y-97300106D01*
X142719792Y-97300104D01*
X142870104Y-97149792D01*
X142870106Y-97149788D01*
X142870109Y-97149786D01*
X142995048Y-96977820D01*
X142995047Y-96977820D01*
X142995051Y-96977816D01*
X142999514Y-96969054D01*
X143047488Y-96918259D01*
X143115308Y-96901463D01*
X143181444Y-96923999D01*
X143220486Y-96969056D01*
X143224951Y-96977820D01*
X143349890Y-97149786D01*
X143500213Y-97300109D01*
X143672179Y-97425048D01*
X143672181Y-97425049D01*
X143672184Y-97425051D01*
X143861588Y-97521557D01*
X144063757Y-97587246D01*
X144273713Y-97620500D01*
X144273714Y-97620500D01*
X144486286Y-97620500D01*
X144486287Y-97620500D01*
X144696243Y-97587246D01*
X144898412Y-97521557D01*
X145087816Y-97425051D01*
X145109789Y-97409086D01*
X145259786Y-97300109D01*
X145259788Y-97300106D01*
X145259792Y-97300104D01*
X145410104Y-97149792D01*
X145410106Y-97149788D01*
X145410109Y-97149786D01*
X145535048Y-96977820D01*
X145535047Y-96977820D01*
X145535051Y-96977816D01*
X145539514Y-96969054D01*
X145587488Y-96918259D01*
X145655308Y-96901463D01*
X145721444Y-96923999D01*
X145760486Y-96969056D01*
X145764951Y-96977820D01*
X145889890Y-97149786D01*
X146040213Y-97300109D01*
X146212179Y-97425048D01*
X146212181Y-97425049D01*
X146212184Y-97425051D01*
X146401588Y-97521557D01*
X146603757Y-97587246D01*
X146813713Y-97620500D01*
X146813714Y-97620500D01*
X147026286Y-97620500D01*
X147026287Y-97620500D01*
X147236243Y-97587246D01*
X147438412Y-97521557D01*
X147627816Y-97425051D01*
X147649789Y-97409086D01*
X147799786Y-97300109D01*
X147799788Y-97300106D01*
X147799792Y-97300104D01*
X147950104Y-97149792D01*
X147950106Y-97149788D01*
X147950109Y-97149786D01*
X148075048Y-96977820D01*
X148075047Y-96977820D01*
X148075051Y-96977816D01*
X148079514Y-96969054D01*
X148127488Y-96918259D01*
X148195308Y-96901463D01*
X148261444Y-96923999D01*
X148300486Y-96969056D01*
X148304951Y-96977820D01*
X148429890Y-97149786D01*
X148580213Y-97300109D01*
X148752179Y-97425048D01*
X148752181Y-97425049D01*
X148752184Y-97425051D01*
X148941588Y-97521557D01*
X149143757Y-97587246D01*
X149353713Y-97620500D01*
X149353714Y-97620500D01*
X149566286Y-97620500D01*
X149566287Y-97620500D01*
X149776243Y-97587246D01*
X149978412Y-97521557D01*
X150167816Y-97425051D01*
X150189789Y-97409086D01*
X150339786Y-97300109D01*
X150339788Y-97300106D01*
X150339792Y-97300104D01*
X150490104Y-97149792D01*
X150490106Y-97149788D01*
X150490109Y-97149786D01*
X150615048Y-96977820D01*
X150615047Y-96977820D01*
X150615051Y-96977816D01*
X150711557Y-96788412D01*
X150777246Y-96586243D01*
X150810500Y-96376287D01*
X150810500Y-96163713D01*
X150777246Y-95953757D01*
X150711557Y-95751588D01*
X150615051Y-95562184D01*
X150615049Y-95562181D01*
X150615048Y-95562179D01*
X150490109Y-95390213D01*
X150339786Y-95239890D01*
X150167820Y-95114951D01*
X149978414Y-95018444D01*
X149978413Y-95018443D01*
X149978412Y-95018443D01*
X149776243Y-94952754D01*
X149776241Y-94952753D01*
X149776240Y-94952753D01*
X149614957Y-94927208D01*
X149566287Y-94919500D01*
X149353713Y-94919500D01*
X149305042Y-94927208D01*
X149143760Y-94952753D01*
X148941585Y-95018444D01*
X148752179Y-95114951D01*
X148580213Y-95239890D01*
X148429890Y-95390213D01*
X148304949Y-95562182D01*
X148300484Y-95570946D01*
X148252509Y-95621742D01*
X148184688Y-95638536D01*
X148118553Y-95615998D01*
X148079516Y-95570946D01*
X148075050Y-95562182D01*
X147950109Y-95390213D01*
X147799786Y-95239890D01*
X147627820Y-95114951D01*
X147438414Y-95018444D01*
X147438413Y-95018443D01*
X147438412Y-95018443D01*
X147236243Y-94952754D01*
X147236241Y-94952753D01*
X147236240Y-94952753D01*
X147074957Y-94927208D01*
X147026287Y-94919500D01*
X146813713Y-94919500D01*
X146765042Y-94927208D01*
X146603760Y-94952753D01*
X146401585Y-95018444D01*
X146212179Y-95114951D01*
X146040213Y-95239890D01*
X145889890Y-95390213D01*
X145764949Y-95562182D01*
X145760484Y-95570946D01*
X145712509Y-95621742D01*
X145644688Y-95638536D01*
X145578553Y-95615998D01*
X145539516Y-95570946D01*
X145535050Y-95562182D01*
X145410109Y-95390213D01*
X145259786Y-95239890D01*
X145087820Y-95114951D01*
X144898414Y-95018444D01*
X144898413Y-95018443D01*
X144898412Y-95018443D01*
X144696243Y-94952754D01*
X144696241Y-94952753D01*
X144696240Y-94952753D01*
X144534957Y-94927208D01*
X144486287Y-94919500D01*
X144273713Y-94919500D01*
X144225042Y-94927208D01*
X144063760Y-94952753D01*
X143861585Y-95018444D01*
X143672179Y-95114951D01*
X143500213Y-95239890D01*
X143349890Y-95390213D01*
X143224949Y-95562182D01*
X143220484Y-95570946D01*
X143172509Y-95621742D01*
X143104688Y-95638536D01*
X143038553Y-95615998D01*
X142999516Y-95570946D01*
X142995050Y-95562182D01*
X142870109Y-95390213D01*
X142719786Y-95239890D01*
X142547820Y-95114951D01*
X142358414Y-95018444D01*
X142358413Y-95018443D01*
X142358412Y-95018443D01*
X142156243Y-94952754D01*
X142156241Y-94952753D01*
X142156240Y-94952753D01*
X141994957Y-94927208D01*
X141946287Y-94919500D01*
X141733713Y-94919500D01*
X141685042Y-94927208D01*
X141523760Y-94952753D01*
X141321585Y-95018444D01*
X141132179Y-95114951D01*
X140960213Y-95239890D01*
X140809890Y-95390213D01*
X140684949Y-95562182D01*
X140680484Y-95570946D01*
X140632509Y-95621742D01*
X140564688Y-95638536D01*
X140498553Y-95615998D01*
X140459516Y-95570946D01*
X140455050Y-95562182D01*
X140330109Y-95390213D01*
X140179786Y-95239890D01*
X140007820Y-95114951D01*
X139818414Y-95018444D01*
X139818413Y-95018443D01*
X139818412Y-95018443D01*
X139616243Y-94952754D01*
X139616241Y-94952753D01*
X139616240Y-94952753D01*
X139454957Y-94927208D01*
X139406287Y-94919500D01*
X139193713Y-94919500D01*
X139145042Y-94927208D01*
X138983760Y-94952753D01*
X138781585Y-95018444D01*
X138592179Y-95114951D01*
X138420213Y-95239890D01*
X138269890Y-95390213D01*
X138144949Y-95562182D01*
X138140484Y-95570946D01*
X138092509Y-95621742D01*
X138024688Y-95638536D01*
X137958553Y-95615998D01*
X137919516Y-95570946D01*
X137915050Y-95562182D01*
X137790109Y-95390213D01*
X137639786Y-95239890D01*
X137467820Y-95114951D01*
X137278414Y-95018444D01*
X137278413Y-95018443D01*
X137278412Y-95018443D01*
X137076243Y-94952754D01*
X137076241Y-94952753D01*
X137076240Y-94952753D01*
X136914957Y-94927208D01*
X136866287Y-94919500D01*
X136653713Y-94919500D01*
X136605042Y-94927208D01*
X136443760Y-94952753D01*
X136241585Y-95018444D01*
X136052179Y-95114951D01*
X135880213Y-95239890D01*
X135729890Y-95390213D01*
X135604949Y-95562182D01*
X135600484Y-95570946D01*
X135552509Y-95621742D01*
X135484688Y-95638536D01*
X135418553Y-95615998D01*
X135379516Y-95570946D01*
X135375050Y-95562182D01*
X135250109Y-95390213D01*
X135099786Y-95239890D01*
X134927820Y-95114951D01*
X134738414Y-95018444D01*
X134738413Y-95018443D01*
X134738412Y-95018443D01*
X134536243Y-94952754D01*
X134536241Y-94952753D01*
X134536240Y-94952753D01*
X134374957Y-94927208D01*
X134326287Y-94919500D01*
X134113713Y-94919500D01*
X134065042Y-94927208D01*
X133903760Y-94952753D01*
X133701585Y-95018444D01*
X133512179Y-95114951D01*
X133340213Y-95239890D01*
X133189890Y-95390213D01*
X133064951Y-95562179D01*
X132968444Y-95751585D01*
X132902753Y-95953760D01*
X132869500Y-96163713D01*
X129920500Y-96163713D01*
X129920500Y-86003713D01*
X132869500Y-86003713D01*
X132869500Y-86216286D01*
X132902753Y-86426239D01*
X132968444Y-86628414D01*
X133064951Y-86817820D01*
X133189890Y-86989786D01*
X133340213Y-87140109D01*
X133512179Y-87265048D01*
X133512181Y-87265049D01*
X133512184Y-87265051D01*
X133701588Y-87361557D01*
X133903757Y-87427246D01*
X134113713Y-87460500D01*
X134113714Y-87460500D01*
X134316349Y-87460500D01*
X134383388Y-87480185D01*
X134404030Y-87496819D01*
X138677834Y-91770624D01*
X138677838Y-91770627D01*
X138817137Y-91863704D01*
X138817139Y-91863705D01*
X138817143Y-91863707D01*
X138899222Y-91897703D01*
X138926584Y-91909037D01*
X138971918Y-91927816D01*
X139136228Y-91960499D01*
X139136232Y-91960500D01*
X139136233Y-91960500D01*
X149166349Y-91960500D01*
X149233388Y-91980185D01*
X149254030Y-91996819D01*
X151683181Y-94425970D01*
X151716666Y-94487293D01*
X151719500Y-94513651D01*
X151719500Y-114206348D01*
X151699815Y-114273387D01*
X151683181Y-114294029D01*
X146909375Y-119067834D01*
X146909372Y-119067838D01*
X146816299Y-119207130D01*
X146816292Y-119207143D01*
X146785321Y-119281917D01*
X146752185Y-119361913D01*
X146752182Y-119361925D01*
X146719500Y-119526228D01*
X146719500Y-125872770D01*
X146699815Y-125939809D01*
X146683181Y-125960451D01*
X146627289Y-126016342D01*
X146535187Y-126165663D01*
X146535186Y-126165666D01*
X146480001Y-126332203D01*
X146480001Y-126332204D01*
X146480000Y-126332204D01*
X146469500Y-126434983D01*
X146469500Y-127785001D01*
X146469501Y-127785018D01*
X146480000Y-127887796D01*
X146480001Y-127887799D01*
X146535185Y-128054331D01*
X146535187Y-128054336D01*
X146558162Y-128091585D01*
X146627288Y-128203656D01*
X146751344Y-128327712D01*
X146900666Y-128419814D01*
X147067203Y-128474999D01*
X147169991Y-128485500D01*
X147970008Y-128485499D01*
X147970016Y-128485498D01*
X147970019Y-128485498D01*
X148026302Y-128479748D01*
X148072797Y-128474999D01*
X148239334Y-128419814D01*
X148388656Y-128327712D01*
X148512712Y-128203656D01*
X148552310Y-128139456D01*
X148604258Y-128092732D01*
X148673220Y-128081509D01*
X148737303Y-128109352D01*
X148745530Y-128116872D01*
X148853072Y-128224414D01*
X148993212Y-128326232D01*
X149147555Y-128404873D01*
X149312299Y-128458402D01*
X149483389Y-128485500D01*
X149483390Y-128485500D01*
X149656610Y-128485500D01*
X149656611Y-128485500D01*
X149827701Y-128458402D01*
X149992445Y-128404873D01*
X150146788Y-128326232D01*
X150286928Y-128224414D01*
X150409414Y-128101928D01*
X150511232Y-127961788D01*
X150589873Y-127807445D01*
X150643402Y-127642701D01*
X150670500Y-127471611D01*
X150670500Y-126748389D01*
X150643402Y-126577299D01*
X150597160Y-126434983D01*
X154469500Y-126434983D01*
X154469500Y-127785001D01*
X154469501Y-127785018D01*
X154480000Y-127887796D01*
X154480001Y-127887799D01*
X154535185Y-128054331D01*
X154535187Y-128054336D01*
X154558162Y-128091585D01*
X154627288Y-128203656D01*
X154751344Y-128327712D01*
X154900666Y-128419814D01*
X155067203Y-128474999D01*
X155169991Y-128485500D01*
X155970008Y-128485499D01*
X155970016Y-128485498D01*
X155970019Y-128485498D01*
X156026302Y-128479748D01*
X156072797Y-128474999D01*
X156239334Y-128419814D01*
X156388656Y-128327712D01*
X156512712Y-128203656D01*
X156604814Y-128054334D01*
X156659999Y-127887797D01*
X156670500Y-127785009D01*
X156670499Y-126434992D01*
X156659999Y-126332203D01*
X156604814Y-126165666D01*
X156512712Y-126016344D01*
X156388656Y-125892288D01*
X156263559Y-125815128D01*
X156239336Y-125800187D01*
X156239331Y-125800185D01*
X156237862Y-125799698D01*
X156072797Y-125745001D01*
X156072795Y-125745000D01*
X155970010Y-125734500D01*
X155169998Y-125734500D01*
X155169980Y-125734501D01*
X155067203Y-125745000D01*
X155067200Y-125745001D01*
X154900668Y-125800185D01*
X154900663Y-125800187D01*
X154751342Y-125892289D01*
X154627289Y-126016342D01*
X154535187Y-126165663D01*
X154535186Y-126165666D01*
X154480001Y-126332203D01*
X154480001Y-126332204D01*
X154480000Y-126332204D01*
X154469500Y-126434983D01*
X150597160Y-126434983D01*
X150589873Y-126412555D01*
X150511232Y-126258212D01*
X150409414Y-126118072D01*
X150286928Y-125995586D01*
X150146788Y-125893768D01*
X149992445Y-125815127D01*
X149827701Y-125761598D01*
X149827699Y-125761597D01*
X149827698Y-125761597D01*
X149696271Y-125740781D01*
X149656611Y-125734500D01*
X149483389Y-125734500D01*
X149443728Y-125740781D01*
X149312302Y-125761597D01*
X149147552Y-125815128D01*
X148993211Y-125893768D01*
X148853073Y-125995585D01*
X148745530Y-126103128D01*
X148731417Y-126110833D01*
X148720380Y-126122525D01*
X148701383Y-126127233D01*
X148684207Y-126136612D01*
X148668168Y-126135465D01*
X148652562Y-126139333D01*
X148634037Y-126133024D01*
X148614515Y-126131628D01*
X148600901Y-126121738D01*
X148586423Y-126116808D01*
X148569830Y-126099168D01*
X148560759Y-126092579D01*
X148556174Y-126086808D01*
X148512712Y-126016344D01*
X148451812Y-125955444D01*
X148447410Y-125949903D01*
X148436819Y-125923825D01*
X148423334Y-125899128D01*
X148422089Y-125887552D01*
X148421121Y-125885168D01*
X148421573Y-125882755D01*
X148420500Y-125872770D01*
X148420500Y-120013651D01*
X148440185Y-119946612D01*
X148456819Y-119925970D01*
X153230624Y-115152165D01*
X153230627Y-115152162D01*
X153323704Y-115012863D01*
X153369035Y-114903418D01*
X153369037Y-114903417D01*
X153387815Y-114858084D01*
X153387818Y-114858074D01*
X153420499Y-114693771D01*
X153420500Y-114693768D01*
X153420500Y-94026232D01*
X153420499Y-94026228D01*
X153387817Y-93861924D01*
X153387816Y-93861918D01*
X153369037Y-93816584D01*
X153323704Y-93707137D01*
X153230627Y-93567838D01*
X153230624Y-93567834D01*
X150112165Y-90449375D01*
X150112161Y-90449372D01*
X149972866Y-90356297D01*
X149972863Y-90356296D01*
X149863416Y-90310962D01*
X149863414Y-90310961D01*
X149818086Y-90292185D01*
X149818074Y-90292182D01*
X149653771Y-90259500D01*
X149653767Y-90259500D01*
X139623651Y-90259500D01*
X139556612Y-90239815D01*
X139535970Y-90223181D01*
X136958088Y-87645299D01*
X136924603Y-87583976D01*
X136929587Y-87514284D01*
X136971459Y-87458351D01*
X137026371Y-87435145D01*
X137076243Y-87427246D01*
X137278412Y-87361557D01*
X137467816Y-87265051D01*
X137489789Y-87249086D01*
X137639786Y-87140109D01*
X137639788Y-87140106D01*
X137639792Y-87140104D01*
X137790104Y-86989792D01*
X137790106Y-86989788D01*
X137790109Y-86989786D01*
X137915048Y-86817820D01*
X137915047Y-86817820D01*
X137915051Y-86817816D01*
X137919514Y-86809054D01*
X137967488Y-86758259D01*
X138035308Y-86741463D01*
X138101444Y-86763999D01*
X138140486Y-86809056D01*
X138144951Y-86817820D01*
X138269890Y-86989786D01*
X138420213Y-87140109D01*
X138592179Y-87265048D01*
X138592181Y-87265049D01*
X138592184Y-87265051D01*
X138781588Y-87361557D01*
X138983757Y-87427246D01*
X139193713Y-87460500D01*
X139193714Y-87460500D01*
X139406286Y-87460500D01*
X139406287Y-87460500D01*
X139616243Y-87427246D01*
X139818412Y-87361557D01*
X140007816Y-87265051D01*
X140029789Y-87249086D01*
X140179786Y-87140109D01*
X140179788Y-87140106D01*
X140179792Y-87140104D01*
X140330104Y-86989792D01*
X140330106Y-86989788D01*
X140330109Y-86989786D01*
X140455048Y-86817820D01*
X140455047Y-86817820D01*
X140455051Y-86817816D01*
X140459514Y-86809054D01*
X140507488Y-86758259D01*
X140575308Y-86741463D01*
X140641444Y-86763999D01*
X140680486Y-86809056D01*
X140684951Y-86817820D01*
X140809890Y-86989786D01*
X140960213Y-87140109D01*
X141132179Y-87265048D01*
X141132181Y-87265049D01*
X141132184Y-87265051D01*
X141321588Y-87361557D01*
X141523757Y-87427246D01*
X141733713Y-87460500D01*
X141733714Y-87460500D01*
X141946286Y-87460500D01*
X141946287Y-87460500D01*
X142156243Y-87427246D01*
X142358412Y-87361557D01*
X142547816Y-87265051D01*
X142569789Y-87249086D01*
X142719786Y-87140109D01*
X142719788Y-87140106D01*
X142719792Y-87140104D01*
X142870104Y-86989792D01*
X142870106Y-86989788D01*
X142870109Y-86989786D01*
X142995048Y-86817820D01*
X142995047Y-86817820D01*
X142995051Y-86817816D01*
X142999514Y-86809054D01*
X143047488Y-86758259D01*
X143115308Y-86741463D01*
X143181444Y-86763999D01*
X143220486Y-86809056D01*
X143224951Y-86817820D01*
X143349890Y-86989786D01*
X143500213Y-87140109D01*
X143672179Y-87265048D01*
X143672181Y-87265049D01*
X143672184Y-87265051D01*
X143861588Y-87361557D01*
X144063757Y-87427246D01*
X144273713Y-87460500D01*
X144273714Y-87460500D01*
X144486286Y-87460500D01*
X144486287Y-87460500D01*
X144696243Y-87427246D01*
X144898412Y-87361557D01*
X145087816Y-87265051D01*
X145109789Y-87249086D01*
X145259786Y-87140109D01*
X145259788Y-87140106D01*
X145259792Y-87140104D01*
X145410104Y-86989792D01*
X145410106Y-86989788D01*
X145410109Y-86989786D01*
X145535048Y-86817820D01*
X145535047Y-86817820D01*
X145535051Y-86817816D01*
X145539514Y-86809054D01*
X145587488Y-86758259D01*
X145655308Y-86741463D01*
X145721444Y-86763999D01*
X145760486Y-86809056D01*
X145764951Y-86817820D01*
X145889890Y-86989786D01*
X146040213Y-87140109D01*
X146212179Y-87265048D01*
X146212181Y-87265049D01*
X146212184Y-87265051D01*
X146401588Y-87361557D01*
X146603757Y-87427246D01*
X146813713Y-87460500D01*
X146813714Y-87460500D01*
X147026286Y-87460500D01*
X147026287Y-87460500D01*
X147236243Y-87427246D01*
X147438412Y-87361557D01*
X147627816Y-87265051D01*
X147649789Y-87249086D01*
X147799786Y-87140109D01*
X147799788Y-87140106D01*
X147799792Y-87140104D01*
X147950104Y-86989792D01*
X147950106Y-86989788D01*
X147950109Y-86989786D01*
X148075048Y-86817820D01*
X148075047Y-86817820D01*
X148075051Y-86817816D01*
X148079514Y-86809054D01*
X148127488Y-86758259D01*
X148195308Y-86741463D01*
X148261444Y-86763999D01*
X148300486Y-86809056D01*
X148304951Y-86817820D01*
X148429890Y-86989786D01*
X148580213Y-87140109D01*
X148752179Y-87265048D01*
X148752181Y-87265049D01*
X148752184Y-87265051D01*
X148941588Y-87361557D01*
X149143757Y-87427246D01*
X149353713Y-87460500D01*
X149353714Y-87460500D01*
X149566286Y-87460500D01*
X149566287Y-87460500D01*
X149776243Y-87427246D01*
X149978412Y-87361557D01*
X150167816Y-87265051D01*
X150189789Y-87249086D01*
X150339786Y-87140109D01*
X150339788Y-87140106D01*
X150339792Y-87140104D01*
X150490104Y-86989792D01*
X150490106Y-86989788D01*
X150490109Y-86989786D01*
X150615048Y-86817820D01*
X150615047Y-86817820D01*
X150615051Y-86817816D01*
X150711557Y-86628412D01*
X150777246Y-86426243D01*
X150810500Y-86216287D01*
X150810500Y-86003713D01*
X150777246Y-85793757D01*
X150711557Y-85591588D01*
X150615051Y-85402184D01*
X150615049Y-85402181D01*
X150615048Y-85402179D01*
X150490109Y-85230213D01*
X150339786Y-85079890D01*
X150167820Y-84954951D01*
X149978414Y-84858444D01*
X149978413Y-84858443D01*
X149978412Y-84858443D01*
X149776243Y-84792754D01*
X149776241Y-84792753D01*
X149776240Y-84792753D01*
X149614957Y-84767208D01*
X149566287Y-84759500D01*
X149353713Y-84759500D01*
X149305042Y-84767208D01*
X149143760Y-84792753D01*
X148941585Y-84858444D01*
X148752179Y-84954951D01*
X148580213Y-85079890D01*
X148429890Y-85230213D01*
X148304949Y-85402182D01*
X148300484Y-85410946D01*
X148252509Y-85461742D01*
X148184688Y-85478536D01*
X148118553Y-85455998D01*
X148079516Y-85410946D01*
X148075050Y-85402182D01*
X147950109Y-85230213D01*
X147799786Y-85079890D01*
X147627820Y-84954951D01*
X147438414Y-84858444D01*
X147438413Y-84858443D01*
X147438412Y-84858443D01*
X147236243Y-84792754D01*
X147236241Y-84792753D01*
X147236240Y-84792753D01*
X147074957Y-84767208D01*
X147026287Y-84759500D01*
X146813713Y-84759500D01*
X146765042Y-84767208D01*
X146603760Y-84792753D01*
X146401585Y-84858444D01*
X146212179Y-84954951D01*
X146040213Y-85079890D01*
X145889890Y-85230213D01*
X145764949Y-85402182D01*
X145760484Y-85410946D01*
X145712509Y-85461742D01*
X145644688Y-85478536D01*
X145578553Y-85455998D01*
X145539516Y-85410946D01*
X145535050Y-85402182D01*
X145410109Y-85230213D01*
X145259786Y-85079890D01*
X145087820Y-84954951D01*
X144898414Y-84858444D01*
X144898413Y-84858443D01*
X144898412Y-84858443D01*
X144696243Y-84792754D01*
X144696241Y-84792753D01*
X144696240Y-84792753D01*
X144534957Y-84767208D01*
X144486287Y-84759500D01*
X144273713Y-84759500D01*
X144225042Y-84767208D01*
X144063760Y-84792753D01*
X143861585Y-84858444D01*
X143672179Y-84954951D01*
X143500213Y-85079890D01*
X143349890Y-85230213D01*
X143224949Y-85402182D01*
X143220484Y-85410946D01*
X143172509Y-85461742D01*
X143104688Y-85478536D01*
X143038553Y-85455998D01*
X142999516Y-85410946D01*
X142995050Y-85402182D01*
X142870109Y-85230213D01*
X142719786Y-85079890D01*
X142547820Y-84954951D01*
X142358414Y-84858444D01*
X142358413Y-84858443D01*
X142358412Y-84858443D01*
X142156243Y-84792754D01*
X142156241Y-84792753D01*
X142156240Y-84792753D01*
X141994957Y-84767208D01*
X141946287Y-84759500D01*
X141733713Y-84759500D01*
X141685042Y-84767208D01*
X141523760Y-84792753D01*
X141321585Y-84858444D01*
X141132179Y-84954951D01*
X140960213Y-85079890D01*
X140809890Y-85230213D01*
X140684949Y-85402182D01*
X140680484Y-85410946D01*
X140632509Y-85461742D01*
X140564688Y-85478536D01*
X140498553Y-85455998D01*
X140459516Y-85410946D01*
X140455050Y-85402182D01*
X140330109Y-85230213D01*
X140179786Y-85079890D01*
X140007820Y-84954951D01*
X139818414Y-84858444D01*
X139818413Y-84858443D01*
X139818412Y-84858443D01*
X139616243Y-84792754D01*
X139616241Y-84792753D01*
X139616240Y-84792753D01*
X139454957Y-84767208D01*
X139406287Y-84759500D01*
X139193713Y-84759500D01*
X139145042Y-84767208D01*
X138983760Y-84792753D01*
X138781585Y-84858444D01*
X138592179Y-84954951D01*
X138420213Y-85079890D01*
X138269890Y-85230213D01*
X138144949Y-85402182D01*
X138140484Y-85410946D01*
X138092509Y-85461742D01*
X138024688Y-85478536D01*
X137958553Y-85455998D01*
X137919516Y-85410946D01*
X137915050Y-85402182D01*
X137790109Y-85230213D01*
X137639786Y-85079890D01*
X137467820Y-84954951D01*
X137278414Y-84858444D01*
X137278413Y-84858443D01*
X137278412Y-84858443D01*
X137076243Y-84792754D01*
X137076241Y-84792753D01*
X137076240Y-84792753D01*
X136914957Y-84767208D01*
X136866287Y-84759500D01*
X136653713Y-84759500D01*
X136605042Y-84767208D01*
X136443760Y-84792753D01*
X136241585Y-84858444D01*
X136052179Y-84954951D01*
X135880213Y-85079890D01*
X135729890Y-85230213D01*
X135604949Y-85402182D01*
X135600484Y-85410946D01*
X135552509Y-85461742D01*
X135484688Y-85478536D01*
X135418553Y-85455998D01*
X135379516Y-85410946D01*
X135375050Y-85402182D01*
X135250109Y-85230213D01*
X135099786Y-85079890D01*
X134927820Y-84954951D01*
X134738414Y-84858444D01*
X134738413Y-84858443D01*
X134738412Y-84858443D01*
X134536243Y-84792754D01*
X134536241Y-84792753D01*
X134536240Y-84792753D01*
X134374957Y-84767208D01*
X134326287Y-84759500D01*
X134113713Y-84759500D01*
X134065042Y-84767208D01*
X133903760Y-84792753D01*
X133701585Y-84858444D01*
X133512179Y-84954951D01*
X133340213Y-85079890D01*
X133189890Y-85230213D01*
X133064951Y-85402179D01*
X132968444Y-85591585D01*
X132902753Y-85793760D01*
X132869500Y-86003713D01*
X129920500Y-86003713D01*
X129920500Y-85513650D01*
X129940185Y-85446611D01*
X129956819Y-85425969D01*
X131984969Y-83397819D01*
X132046292Y-83364334D01*
X132072650Y-83361500D01*
X153252768Y-83361500D01*
X153252769Y-83361499D01*
X153307538Y-83350605D01*
X153417074Y-83328818D01*
X153417078Y-83328816D01*
X153417082Y-83328816D01*
X153462415Y-83310037D01*
X153571863Y-83264704D01*
X153711162Y-83171627D01*
X154385969Y-82496818D01*
X154447292Y-82463334D01*
X154473650Y-82460500D01*
X154676286Y-82460500D01*
X154676287Y-82460500D01*
X154886243Y-82427246D01*
X155088412Y-82361557D01*
X155277816Y-82265051D01*
X155449792Y-82140104D01*
X155563329Y-82026566D01*
X155624648Y-81993084D01*
X155694340Y-81998068D01*
X155750274Y-82039939D01*
X155767189Y-82070917D01*
X155816202Y-82202328D01*
X155816206Y-82202335D01*
X155902452Y-82317544D01*
X155902455Y-82317547D01*
X156017664Y-82403793D01*
X156017671Y-82403797D01*
X156152517Y-82454091D01*
X156152516Y-82454091D01*
X156159444Y-82454835D01*
X156212127Y-82460500D01*
X158007872Y-82460499D01*
X158067483Y-82454091D01*
X158202331Y-82403796D01*
X158317546Y-82317546D01*
X158403796Y-82202331D01*
X158454091Y-82067483D01*
X158460500Y-82007873D01*
X158460499Y-80212128D01*
X158454091Y-80152517D01*
X158454091Y-80152516D01*
X158406075Y-80023777D01*
X158403797Y-80017672D01*
X158403797Y-80017671D01*
X158403796Y-80017669D01*
X158403794Y-80017666D01*
X158403793Y-80017664D01*
X158378963Y-79984495D01*
X161655286Y-79984495D01*
X161655286Y-80235504D01*
X161687283Y-80478536D01*
X161688048Y-80484344D01*
X161716783Y-80591585D01*
X161753011Y-80726789D01*
X161849059Y-80958669D01*
X161849064Y-80958680D01*
X161884072Y-81019314D01*
X161974558Y-81176040D01*
X161974560Y-81176043D01*
X161974561Y-81176044D01*
X162127351Y-81375165D01*
X162127357Y-81375172D01*
X162304827Y-81552642D01*
X162304833Y-81552647D01*
X162503960Y-81705442D01*
X162593767Y-81757292D01*
X162721319Y-81830935D01*
X162721324Y-81830937D01*
X162721327Y-81830939D01*
X162953215Y-81926990D01*
X163195656Y-81991952D01*
X163444503Y-82024714D01*
X163444510Y-82024714D01*
X163695490Y-82024714D01*
X163695497Y-82024714D01*
X163944344Y-81991952D01*
X164186785Y-81926990D01*
X164418673Y-81830939D01*
X164636040Y-81705442D01*
X164835167Y-81552647D01*
X165012647Y-81375167D01*
X165165442Y-81176040D01*
X165290939Y-80958673D01*
X165386990Y-80726785D01*
X165451952Y-80484344D01*
X165484714Y-80235497D01*
X165484714Y-79984503D01*
X165451952Y-79735656D01*
X165386990Y-79493215D01*
X165290939Y-79261327D01*
X165290937Y-79261324D01*
X165290935Y-79261319D01*
X165246099Y-79183661D01*
X165165442Y-79043960D01*
X165012647Y-78844833D01*
X165012642Y-78844827D01*
X164835172Y-78667357D01*
X164835165Y-78667351D01*
X164636044Y-78514561D01*
X164636043Y-78514560D01*
X164636040Y-78514558D01*
X164549377Y-78464523D01*
X164418680Y-78389064D01*
X164418669Y-78389059D01*
X164186789Y-78293011D01*
X163944340Y-78228047D01*
X163695504Y-78195286D01*
X163695497Y-78195286D01*
X163444503Y-78195286D01*
X163444495Y-78195286D01*
X163195659Y-78228047D01*
X162953210Y-78293011D01*
X162721330Y-78389059D01*
X162721319Y-78389064D01*
X162503955Y-78514561D01*
X162304834Y-78667351D01*
X162304827Y-78667357D01*
X162127357Y-78844827D01*
X162127351Y-78844834D01*
X161974561Y-79043955D01*
X161849064Y-79261319D01*
X161849059Y-79261330D01*
X161753011Y-79493210D01*
X161688047Y-79735659D01*
X161655286Y-79984495D01*
X158378963Y-79984495D01*
X158317547Y-79902455D01*
X158317544Y-79902452D01*
X158202335Y-79816206D01*
X158202328Y-79816202D01*
X158067482Y-79765908D01*
X158067483Y-79765908D01*
X158007883Y-79759501D01*
X158007881Y-79759500D01*
X158007873Y-79759500D01*
X158007864Y-79759500D01*
X156212129Y-79759500D01*
X156212123Y-79759501D01*
X156152516Y-79765908D01*
X156017671Y-79816202D01*
X156017664Y-79816206D01*
X155902455Y-79902452D01*
X155902452Y-79902455D01*
X155816206Y-80017664D01*
X155816203Y-80017669D01*
X155767189Y-80149083D01*
X155725317Y-80205016D01*
X155659853Y-80229433D01*
X155591580Y-80214581D01*
X155563326Y-80193430D01*
X155449786Y-80079890D01*
X155277820Y-79954951D01*
X155088414Y-79858444D01*
X155088413Y-79858443D01*
X155088412Y-79858443D01*
X154886243Y-79792754D01*
X154886241Y-79792753D01*
X154886240Y-79792753D01*
X154724957Y-79767208D01*
X154676287Y-79759500D01*
X154463713Y-79759500D01*
X154415042Y-79767208D01*
X154253760Y-79792753D01*
X154051585Y-79858444D01*
X153862179Y-79954951D01*
X153690213Y-80079890D01*
X153539890Y-80230213D01*
X153414949Y-80402182D01*
X153410484Y-80410946D01*
X153362509Y-80461742D01*
X153294688Y-80478536D01*
X153228553Y-80455998D01*
X153189516Y-80410946D01*
X153185050Y-80402182D01*
X153060109Y-80230213D01*
X152909786Y-80079890D01*
X152737820Y-79954951D01*
X152548414Y-79858444D01*
X152548413Y-79858443D01*
X152548412Y-79858443D01*
X152346243Y-79792754D01*
X152346241Y-79792753D01*
X152346240Y-79792753D01*
X152184957Y-79767208D01*
X152136287Y-79759500D01*
X151923713Y-79759500D01*
X151875042Y-79767208D01*
X151713760Y-79792753D01*
X151511585Y-79858444D01*
X151322179Y-79954951D01*
X151150213Y-80079890D01*
X150999890Y-80230213D01*
X150874951Y-80402179D01*
X150778444Y-80591585D01*
X150712753Y-80793760D01*
X150679500Y-81003713D01*
X150679500Y-81216286D01*
X150712753Y-81426239D01*
X150736129Y-81498182D01*
X150738124Y-81568023D01*
X150702044Y-81627856D01*
X150639343Y-81658684D01*
X150618198Y-81660500D01*
X131585228Y-81660500D01*
X131420925Y-81693182D01*
X131420917Y-81693184D01*
X131391325Y-81705442D01*
X131391324Y-81705442D01*
X131266143Y-81757292D01*
X131126831Y-81850379D01*
X129907681Y-83069529D01*
X129846358Y-83103014D01*
X129776666Y-83098030D01*
X129732319Y-83069529D01*
X129308088Y-82645299D01*
X129274603Y-82583976D01*
X129279587Y-82514285D01*
X129321458Y-82458351D01*
X129376371Y-82435145D01*
X129426243Y-82427246D01*
X129628412Y-82361557D01*
X129817816Y-82265051D01*
X129904138Y-82202335D01*
X129989786Y-82140109D01*
X129989788Y-82140106D01*
X129989792Y-82140104D01*
X130140104Y-81989792D01*
X130140106Y-81989788D01*
X130140109Y-81989786D01*
X130265048Y-81817820D01*
X130265047Y-81817820D01*
X130265051Y-81817816D01*
X130361557Y-81628412D01*
X130427246Y-81426243D01*
X130460500Y-81216287D01*
X130460500Y-81003713D01*
X130427246Y-80793757D01*
X130361557Y-80591588D01*
X130265051Y-80402184D01*
X130265049Y-80402181D01*
X130265048Y-80402179D01*
X130140109Y-80230213D01*
X129989786Y-80079890D01*
X129817820Y-79954951D01*
X129628414Y-79858444D01*
X129628413Y-79858443D01*
X129628412Y-79858443D01*
X129426243Y-79792754D01*
X129426241Y-79792753D01*
X129426240Y-79792753D01*
X129264957Y-79767208D01*
X129216287Y-79759500D01*
X129003713Y-79759500D01*
X128955042Y-79767208D01*
X128793760Y-79792753D01*
X128591585Y-79858444D01*
X128402179Y-79954951D01*
X128230213Y-80079890D01*
X128079890Y-80230213D01*
X127954949Y-80402182D01*
X127950484Y-80410946D01*
X127902509Y-80461742D01*
X127834688Y-80478536D01*
X127768553Y-80455998D01*
X127729516Y-80410946D01*
X127725050Y-80402182D01*
X127600109Y-80230213D01*
X127449786Y-80079890D01*
X127277820Y-79954951D01*
X127088414Y-79858444D01*
X127088413Y-79858443D01*
X127088412Y-79858443D01*
X126886243Y-79792754D01*
X126886241Y-79792753D01*
X126886240Y-79792753D01*
X126724957Y-79767208D01*
X126676287Y-79759500D01*
X126463713Y-79759500D01*
X126415042Y-79767208D01*
X126253760Y-79792753D01*
X126051585Y-79858444D01*
X125862179Y-79954951D01*
X125690215Y-80079889D01*
X125576673Y-80193431D01*
X125515350Y-80226915D01*
X125445658Y-80221931D01*
X125389725Y-80180059D01*
X125372810Y-80149082D01*
X125323797Y-80017671D01*
X125323793Y-80017664D01*
X125237547Y-79902455D01*
X125237544Y-79902452D01*
X125122335Y-79816206D01*
X125122328Y-79816202D01*
X124987482Y-79765908D01*
X124987483Y-79765908D01*
X124927883Y-79759501D01*
X124927881Y-79759500D01*
X124927873Y-79759500D01*
X124927864Y-79759500D01*
X123132129Y-79759500D01*
X123132123Y-79759501D01*
X123072516Y-79765908D01*
X122937671Y-79816202D01*
X122937664Y-79816206D01*
X122822455Y-79902452D01*
X122822452Y-79902455D01*
X122736206Y-80017664D01*
X122736202Y-80017671D01*
X122685908Y-80152517D01*
X122679501Y-80212116D01*
X122679501Y-80212123D01*
X122679500Y-80212135D01*
X122679500Y-82007870D01*
X122679501Y-82007876D01*
X122685908Y-82067483D01*
X122736202Y-82202328D01*
X122736206Y-82202335D01*
X122822452Y-82317544D01*
X122822455Y-82317547D01*
X122937664Y-82403793D01*
X122937671Y-82403797D01*
X123072517Y-82454091D01*
X123072516Y-82454091D01*
X123079444Y-82454835D01*
X123132127Y-82460500D01*
X124927872Y-82460499D01*
X124987483Y-82454091D01*
X125122331Y-82403796D01*
X125237546Y-82317546D01*
X125323796Y-82202331D01*
X125372810Y-82070916D01*
X125414681Y-82014984D01*
X125480145Y-81990566D01*
X125548418Y-82005417D01*
X125576673Y-82026569D01*
X125690213Y-82140109D01*
X125862179Y-82265048D01*
X125862181Y-82265049D01*
X125862184Y-82265051D01*
X126051588Y-82361557D01*
X126253757Y-82427246D01*
X126463713Y-82460500D01*
X126463714Y-82460500D01*
X126666349Y-82460500D01*
X126733388Y-82480185D01*
X126754030Y-82496819D01*
X128183181Y-83925970D01*
X128216666Y-83987293D01*
X128219500Y-84013651D01*
X128219500Y-114193771D01*
X128252182Y-114358074D01*
X128252185Y-114358086D01*
X128270961Y-114403414D01*
X128270962Y-114403416D01*
X128316296Y-114512863D01*
X128316297Y-114512866D01*
X128409372Y-114652161D01*
X128409375Y-114652165D01*
X133603181Y-119845970D01*
X133636666Y-119907293D01*
X133639500Y-119933651D01*
X133639500Y-127499242D01*
X133619815Y-127566281D01*
X133603181Y-127586923D01*
X133459894Y-127730209D01*
X133459890Y-127730213D01*
X133334951Y-127902179D01*
X133238444Y-128091585D01*
X133172753Y-128293760D01*
X133139500Y-128503713D01*
X133139500Y-128716286D01*
X133171103Y-128915824D01*
X133172754Y-128926243D01*
X133183293Y-128958680D01*
X133238444Y-129128414D01*
X133334951Y-129317820D01*
X133459890Y-129489786D01*
X133610213Y-129640109D01*
X133782179Y-129765048D01*
X133782181Y-129765049D01*
X133782184Y-129765051D01*
X133971588Y-129861557D01*
X134173757Y-129927246D01*
X134383713Y-129960500D01*
X134383714Y-129960500D01*
X134596284Y-129960500D01*
X134596287Y-129960500D01*
X134691731Y-129945382D01*
X134761020Y-129954336D01*
X134798807Y-129980174D01*
X135216452Y-130397819D01*
X135249937Y-130459142D01*
X135244953Y-130528834D01*
X135203081Y-130584767D01*
X135137617Y-130609184D01*
X135128771Y-130609500D01*
X115694000Y-130609500D01*
X115626961Y-130589815D01*
X115581206Y-130537011D01*
X115570000Y-130485500D01*
X115570000Y-128908350D01*
X115589685Y-128841311D01*
X115642489Y-128795556D01*
X115711647Y-128785612D01*
X115775203Y-128814637D01*
X115808561Y-128860898D01*
X115849056Y-128958664D01*
X115849064Y-128958680D01*
X115884072Y-129019314D01*
X115974558Y-129176040D01*
X115974560Y-129176043D01*
X115974561Y-129176044D01*
X116127351Y-129375165D01*
X116127357Y-129375172D01*
X116304827Y-129552642D01*
X116304833Y-129552647D01*
X116503960Y-129705442D01*
X116607201Y-129765048D01*
X116721319Y-129830935D01*
X116721324Y-129830937D01*
X116721327Y-129830939D01*
X116953215Y-129926990D01*
X117195656Y-129991952D01*
X117444503Y-130024714D01*
X117444510Y-130024714D01*
X117695490Y-130024714D01*
X117695497Y-130024714D01*
X117944344Y-129991952D01*
X118186785Y-129926990D01*
X118418673Y-129830939D01*
X118636040Y-129705442D01*
X118835167Y-129552647D01*
X119012647Y-129375167D01*
X119165442Y-129176040D01*
X119290939Y-128958673D01*
X119386990Y-128726785D01*
X119451952Y-128484344D01*
X119484714Y-128235497D01*
X119484714Y-127984503D01*
X119482777Y-127969794D01*
X119471982Y-127887795D01*
X119451952Y-127735656D01*
X119386990Y-127493215D01*
X119290939Y-127261327D01*
X119290937Y-127261324D01*
X119290935Y-127261319D01*
X119246099Y-127183661D01*
X119165442Y-127043960D01*
X119012647Y-126844833D01*
X119012642Y-126844827D01*
X118835172Y-126667357D01*
X118835165Y-126667351D01*
X118636044Y-126514561D01*
X118636043Y-126514560D01*
X118636040Y-126514558D01*
X118549377Y-126464523D01*
X118418680Y-126389064D01*
X118418669Y-126389059D01*
X118186789Y-126293011D01*
X117944340Y-126228047D01*
X117695504Y-126195286D01*
X117695497Y-126195286D01*
X117444503Y-126195286D01*
X117444495Y-126195286D01*
X117195659Y-126228047D01*
X116953210Y-126293011D01*
X116721330Y-126389059D01*
X116721319Y-126389064D01*
X116503955Y-126514561D01*
X116304834Y-126667351D01*
X116304827Y-126667357D01*
X116127357Y-126844827D01*
X116127351Y-126844834D01*
X115974561Y-127043955D01*
X115849064Y-127261319D01*
X115849059Y-127261330D01*
X115808561Y-127359102D01*
X115764720Y-127413505D01*
X115698426Y-127435570D01*
X115630727Y-127418291D01*
X115583116Y-127367154D01*
X115570000Y-127311649D01*
X115570000Y-123212135D01*
X116599500Y-123212135D01*
X116599500Y-125007870D01*
X116599501Y-125007876D01*
X116605908Y-125067483D01*
X116656202Y-125202328D01*
X116656206Y-125202335D01*
X116742452Y-125317544D01*
X116742455Y-125317547D01*
X116857664Y-125403793D01*
X116857671Y-125403797D01*
X116992517Y-125454091D01*
X116992516Y-125454091D01*
X116999444Y-125454835D01*
X117052127Y-125460500D01*
X118847872Y-125460499D01*
X118907483Y-125454091D01*
X119042331Y-125403796D01*
X119157546Y-125317546D01*
X119243796Y-125202331D01*
X119292810Y-125070916D01*
X119334681Y-125014984D01*
X119400145Y-124990566D01*
X119468418Y-125005417D01*
X119496673Y-125026569D01*
X119610213Y-125140109D01*
X119782179Y-125265048D01*
X119782181Y-125265049D01*
X119782184Y-125265051D01*
X119971588Y-125361557D01*
X120173757Y-125427246D01*
X120383713Y-125460500D01*
X120383714Y-125460500D01*
X120596286Y-125460500D01*
X120596287Y-125460500D01*
X120806243Y-125427246D01*
X121008412Y-125361557D01*
X121197816Y-125265051D01*
X121284138Y-125202335D01*
X121369786Y-125140109D01*
X121369788Y-125140106D01*
X121369792Y-125140104D01*
X121520104Y-124989792D01*
X121520106Y-124989788D01*
X121520109Y-124989786D01*
X121645048Y-124817820D01*
X121645047Y-124817820D01*
X121645051Y-124817816D01*
X121649514Y-124809054D01*
X121697488Y-124758259D01*
X121765308Y-124741463D01*
X121831444Y-124763999D01*
X121870486Y-124809056D01*
X121874951Y-124817820D01*
X121999890Y-124989786D01*
X122150213Y-125140109D01*
X122322179Y-125265048D01*
X122322181Y-125265049D01*
X122322184Y-125265051D01*
X122511588Y-125361557D01*
X122713757Y-125427246D01*
X122923713Y-125460500D01*
X122923714Y-125460500D01*
X123136286Y-125460500D01*
X123136287Y-125460500D01*
X123346243Y-125427246D01*
X123548412Y-125361557D01*
X123737816Y-125265051D01*
X123824138Y-125202335D01*
X123909786Y-125140109D01*
X123909788Y-125140106D01*
X123909792Y-125140104D01*
X124060104Y-124989792D01*
X124060106Y-124989788D01*
X124060109Y-124989786D01*
X124185048Y-124817820D01*
X124185047Y-124817820D01*
X124185051Y-124817816D01*
X124189514Y-124809054D01*
X124237488Y-124758259D01*
X124305308Y-124741463D01*
X124371444Y-124763999D01*
X124410486Y-124809056D01*
X124414951Y-124817820D01*
X124539890Y-124989786D01*
X124690213Y-125140109D01*
X124862179Y-125265048D01*
X124862181Y-125265049D01*
X124862184Y-125265051D01*
X125051588Y-125361557D01*
X125253757Y-125427246D01*
X125463713Y-125460500D01*
X125463714Y-125460500D01*
X125676286Y-125460500D01*
X125676287Y-125460500D01*
X125886243Y-125427246D01*
X126088412Y-125361557D01*
X126277816Y-125265051D01*
X126364138Y-125202335D01*
X126449786Y-125140109D01*
X126449788Y-125140106D01*
X126449792Y-125140104D01*
X126600104Y-124989792D01*
X126600106Y-124989788D01*
X126600109Y-124989786D01*
X126725048Y-124817820D01*
X126725047Y-124817820D01*
X126725051Y-124817816D01*
X126729514Y-124809054D01*
X126777488Y-124758259D01*
X126845308Y-124741463D01*
X126911444Y-124763999D01*
X126950486Y-124809056D01*
X126954951Y-124817820D01*
X127079890Y-124989786D01*
X127230213Y-125140109D01*
X127402179Y-125265048D01*
X127402181Y-125265049D01*
X127402184Y-125265051D01*
X127591588Y-125361557D01*
X127793757Y-125427246D01*
X128003713Y-125460500D01*
X128003714Y-125460500D01*
X128216286Y-125460500D01*
X128216287Y-125460500D01*
X128426243Y-125427246D01*
X128628412Y-125361557D01*
X128817816Y-125265051D01*
X128904138Y-125202335D01*
X128989786Y-125140109D01*
X128989788Y-125140106D01*
X128989792Y-125140104D01*
X129140104Y-124989792D01*
X129140106Y-124989788D01*
X129140109Y-124989786D01*
X129265048Y-124817820D01*
X129265047Y-124817820D01*
X129265051Y-124817816D01*
X129361557Y-124628412D01*
X129427246Y-124426243D01*
X129460500Y-124216287D01*
X129460500Y-124003713D01*
X129427246Y-123793757D01*
X129361557Y-123591588D01*
X129265051Y-123402184D01*
X129265049Y-123402181D01*
X129265048Y-123402179D01*
X129140109Y-123230213D01*
X128989786Y-123079890D01*
X128817820Y-122954951D01*
X128628414Y-122858444D01*
X128628413Y-122858443D01*
X128628412Y-122858443D01*
X128426243Y-122792754D01*
X128426241Y-122792753D01*
X128426240Y-122792753D01*
X128264957Y-122767208D01*
X128216287Y-122759500D01*
X128003713Y-122759500D01*
X127955042Y-122767208D01*
X127793760Y-122792753D01*
X127692672Y-122825598D01*
X127637612Y-122843489D01*
X127591585Y-122858444D01*
X127402179Y-122954951D01*
X127230213Y-123079890D01*
X127079890Y-123230213D01*
X126954949Y-123402182D01*
X126950484Y-123410946D01*
X126902509Y-123461742D01*
X126834688Y-123478536D01*
X126768553Y-123455998D01*
X126729516Y-123410946D01*
X126725050Y-123402182D01*
X126600109Y-123230213D01*
X126449786Y-123079890D01*
X126277820Y-122954951D01*
X126088414Y-122858444D01*
X126088413Y-122858443D01*
X126088412Y-122858443D01*
X125886243Y-122792754D01*
X125886241Y-122792753D01*
X125886240Y-122792753D01*
X125724957Y-122767208D01*
X125676287Y-122759500D01*
X125463713Y-122759500D01*
X125415042Y-122767208D01*
X125253760Y-122792753D01*
X125152672Y-122825598D01*
X125097612Y-122843489D01*
X125051585Y-122858444D01*
X124862179Y-122954951D01*
X124690213Y-123079890D01*
X124539890Y-123230213D01*
X124414949Y-123402182D01*
X124410484Y-123410946D01*
X124362509Y-123461742D01*
X124294688Y-123478536D01*
X124228553Y-123455998D01*
X124189516Y-123410946D01*
X124185050Y-123402182D01*
X124060109Y-123230213D01*
X123909786Y-123079890D01*
X123737820Y-122954951D01*
X123548414Y-122858444D01*
X123548413Y-122858443D01*
X123548412Y-122858443D01*
X123346243Y-122792754D01*
X123346241Y-122792753D01*
X123346240Y-122792753D01*
X123184957Y-122767208D01*
X123136287Y-122759500D01*
X122923713Y-122759500D01*
X122875042Y-122767208D01*
X122713760Y-122792753D01*
X122612672Y-122825598D01*
X122557612Y-122843489D01*
X122511585Y-122858444D01*
X122322179Y-122954951D01*
X122150213Y-123079890D01*
X121999890Y-123230213D01*
X121874949Y-123402182D01*
X121870484Y-123410946D01*
X121822509Y-123461742D01*
X121754688Y-123478536D01*
X121688553Y-123455998D01*
X121649516Y-123410946D01*
X121645050Y-123402182D01*
X121520109Y-123230213D01*
X121369786Y-123079890D01*
X121197820Y-122954951D01*
X121008414Y-122858444D01*
X121008413Y-122858443D01*
X121008412Y-122858443D01*
X120806243Y-122792754D01*
X120806241Y-122792753D01*
X120806240Y-122792753D01*
X120644957Y-122767208D01*
X120596287Y-122759500D01*
X120383713Y-122759500D01*
X120335042Y-122767208D01*
X120173760Y-122792753D01*
X120072672Y-122825598D01*
X120017612Y-122843489D01*
X119971585Y-122858444D01*
X119782179Y-122954951D01*
X119610215Y-123079889D01*
X119496673Y-123193431D01*
X119435350Y-123226915D01*
X119365658Y-123221931D01*
X119309725Y-123180059D01*
X119292810Y-123149082D01*
X119243797Y-123017671D01*
X119243793Y-123017664D01*
X119157547Y-122902455D01*
X119157544Y-122902452D01*
X119042335Y-122816206D01*
X119042328Y-122816202D01*
X118907482Y-122765908D01*
X118907483Y-122765908D01*
X118847883Y-122759501D01*
X118847881Y-122759500D01*
X118847873Y-122759500D01*
X118847864Y-122759500D01*
X117052129Y-122759500D01*
X117052123Y-122759501D01*
X116992516Y-122765908D01*
X116857671Y-122816202D01*
X116857664Y-122816206D01*
X116742455Y-122902452D01*
X116742452Y-122902455D01*
X116656206Y-123017664D01*
X116656202Y-123017671D01*
X116605908Y-123152517D01*
X116599501Y-123212116D01*
X116599500Y-123212135D01*
X115570000Y-123212135D01*
X115570000Y-117834500D01*
X115589685Y-117767461D01*
X115642489Y-117721706D01*
X115694000Y-117710500D01*
X123635890Y-117710500D01*
X123635892Y-117710500D01*
X123763186Y-117676392D01*
X123877314Y-117610500D01*
X123970500Y-117517314D01*
X124036392Y-117403186D01*
X124070500Y-117275892D01*
X124070500Y-102944108D01*
X124036392Y-102816814D01*
X123970500Y-102702686D01*
X123877314Y-102609500D01*
X123820250Y-102576554D01*
X123763187Y-102543608D01*
X123699539Y-102526554D01*
X123635892Y-102509500D01*
X123635891Y-102509500D01*
X115694000Y-102509500D01*
X115626961Y-102489815D01*
X115581206Y-102437011D01*
X115570000Y-102385500D01*
X115570000Y-89110000D01*
X115194500Y-89110000D01*
X115127461Y-89090315D01*
X115081706Y-89037511D01*
X115070500Y-88986000D01*
X115070500Y-79984495D01*
X115655286Y-79984495D01*
X115655286Y-80235504D01*
X115687283Y-80478536D01*
X115688048Y-80484344D01*
X115716783Y-80591585D01*
X115753011Y-80726789D01*
X115849059Y-80958669D01*
X115849064Y-80958680D01*
X115884072Y-81019314D01*
X115974558Y-81176040D01*
X115974560Y-81176043D01*
X115974561Y-81176044D01*
X116127351Y-81375165D01*
X116127357Y-81375172D01*
X116304827Y-81552642D01*
X116304833Y-81552647D01*
X116503960Y-81705442D01*
X116593767Y-81757292D01*
X116721319Y-81830935D01*
X116721324Y-81830937D01*
X116721327Y-81830939D01*
X116953215Y-81926990D01*
X117195656Y-81991952D01*
X117444503Y-82024714D01*
X117444510Y-82024714D01*
X117695490Y-82024714D01*
X117695497Y-82024714D01*
X117944344Y-81991952D01*
X118186785Y-81926990D01*
X118418673Y-81830939D01*
X118636040Y-81705442D01*
X118835167Y-81552647D01*
X119012647Y-81375167D01*
X119165442Y-81176040D01*
X119290939Y-80958673D01*
X119386990Y-80726785D01*
X119451952Y-80484344D01*
X119484714Y-80235497D01*
X119484714Y-79984503D01*
X119451952Y-79735656D01*
X119386990Y-79493215D01*
X119290939Y-79261327D01*
X119290937Y-79261324D01*
X119290935Y-79261319D01*
X119246099Y-79183661D01*
X119165442Y-79043960D01*
X119012647Y-78844833D01*
X119012642Y-78844827D01*
X118835172Y-78667357D01*
X118835165Y-78667351D01*
X118636044Y-78514561D01*
X118636043Y-78514560D01*
X118636040Y-78514558D01*
X118549377Y-78464523D01*
X118418680Y-78389064D01*
X118418669Y-78389059D01*
X118186789Y-78293011D01*
X117944340Y-78228047D01*
X117695504Y-78195286D01*
X117695497Y-78195286D01*
X117444503Y-78195286D01*
X117444495Y-78195286D01*
X117195659Y-78228047D01*
X116953210Y-78293011D01*
X116721330Y-78389059D01*
X116721319Y-78389064D01*
X116503955Y-78514561D01*
X116304834Y-78667351D01*
X116304827Y-78667357D01*
X116127357Y-78844827D01*
X116127351Y-78844834D01*
X115974561Y-79043955D01*
X115849064Y-79261319D01*
X115849059Y-79261330D01*
X115753011Y-79493210D01*
X115688047Y-79735659D01*
X115655286Y-79984495D01*
X115070500Y-79984495D01*
X115070500Y-77734500D01*
X115090185Y-77667461D01*
X115142989Y-77621706D01*
X115194500Y-77610500D01*
X165945500Y-77610500D01*
X166012539Y-77630185D01*
G37*
%TD.AperFunction*%
%TD*%
M02*
