%TF.GenerationSoftware,KiCad,Pcbnew,9.0.7-9.0.7~ubuntu24.04.1*%
%TF.CreationDate,2026-02-04T17:35:08-05:00*%
%TF.ProjectId,PCBA_Board,50434241-5f42-46f6-9172-642e6b696361,rev?*%
%TF.SameCoordinates,Original*%
%TF.FileFunction,Copper,L2,Bot*%
%TF.FilePolarity,Positive*%
%FSLAX46Y46*%
G04 Gerber Fmt 4.6, Leading zero omitted, Abs format (unit mm)*
G04 Created by KiCad (PCBNEW 9.0.7-9.0.7~ubuntu24.04.1) date 2026-02-04 17:35:08*
%MOMM*%
%LPD*%
G01*
G04 APERTURE LIST*
G04 Aperture macros list*
%AMRoundRect*
0 Rectangle with rounded corners*
0 $1 Rounding radius*
0 $2 $3 $4 $5 $6 $7 $8 $9 X,Y pos of 4 corners*
0 Add a 4 corners polygon primitive as box body*
4,1,4,$2,$3,$4,$5,$6,$7,$8,$9,$2,$3,0*
0 Add four circle primitives for the rounded corners*
1,1,$1+$1,$2,$3*
1,1,$1+$1,$4,$5*
1,1,$1+$1,$6,$7*
1,1,$1+$1,$8,$9*
0 Add four rect primitives between the rounded corners*
20,1,$1+$1,$2,$3,$4,$5,0*
20,1,$1+$1,$4,$5,$6,$7,0*
20,1,$1+$1,$6,$7,$8,$9,0*
20,1,$1+$1,$8,$9,$2,$3,0*%
G04 Aperture macros list end*
%ADD10C,0.100000*%
%ADD11C,0.150000*%
%ADD12C,0.300000*%
%ADD13C,0.400000*%
%TA.AperFunction,ComponentPad*%
%ADD14C,1.600000*%
%TD*%
%TA.AperFunction,ComponentPad*%
%ADD15RoundRect,0.200000X-0.600000X0.600000X-0.600000X-0.600000X0.600000X-0.600000X0.600000X0.600000X0*%
%TD*%
%TA.AperFunction,ComponentPad*%
%ADD16R,1.700000X1.700000*%
%TD*%
%TA.AperFunction,ComponentPad*%
%ADD17C,1.700000*%
%TD*%
%TA.AperFunction,ComponentPad*%
%ADD18C,0.600000*%
%TD*%
%TA.AperFunction,SMDPad,CuDef*%
%ADD19R,2.950000X4.500000*%
%TD*%
%TA.AperFunction,HeatsinkPad*%
%ADD20C,0.500000*%
%TD*%
%TA.AperFunction,HeatsinkPad*%
%ADD21R,2.100000X2.100000*%
%TD*%
%TA.AperFunction,ViaPad*%
%ADD22C,0.600000*%
%TD*%
%TA.AperFunction,Conductor*%
%ADD23C,0.300000*%
%TD*%
%TA.AperFunction,Conductor*%
%ADD24C,0.700000*%
%TD*%
G04 APERTURE END LIST*
D10*
D11*
X177002200Y-166007200D02*
X285002200Y-166007200D01*
X285002200Y-198007200D01*
X177002200Y-198007200D01*
X177002200Y-166007200D01*
D10*
D11*
X10000000Y-10000000D02*
X287002200Y-10000000D01*
X287002200Y-200007200D01*
X10000000Y-200007200D01*
X10000000Y-10000000D01*
D10*
D11*
X12000000Y-12000000D02*
X285002200Y-12000000D01*
X285002200Y-198007200D01*
X12000000Y-198007200D01*
X12000000Y-12000000D01*
D10*
D11*
X60000000Y-12000000D02*
X60000000Y-10000000D01*
D10*
D11*
X110000000Y-12000000D02*
X110000000Y-10000000D01*
D10*
D11*
X160000000Y-12000000D02*
X160000000Y-10000000D01*
D10*
D11*
X210000000Y-12000000D02*
X210000000Y-10000000D01*
D10*
D11*
X260000000Y-12000000D02*
X260000000Y-10000000D01*
D10*
D11*
X36089160Y-11593604D02*
X35346303Y-11593604D01*
X35717731Y-11593604D02*
X35717731Y-10293604D01*
X35717731Y-10293604D02*
X35593922Y-10479319D01*
X35593922Y-10479319D02*
X35470112Y-10603128D01*
X35470112Y-10603128D02*
X35346303Y-10665033D01*
D10*
D11*
X85346303Y-10417414D02*
X85408207Y-10355509D01*
X85408207Y-10355509D02*
X85532017Y-10293604D01*
X85532017Y-10293604D02*
X85841541Y-10293604D01*
X85841541Y-10293604D02*
X85965350Y-10355509D01*
X85965350Y-10355509D02*
X86027255Y-10417414D01*
X86027255Y-10417414D02*
X86089160Y-10541223D01*
X86089160Y-10541223D02*
X86089160Y-10665033D01*
X86089160Y-10665033D02*
X86027255Y-10850747D01*
X86027255Y-10850747D02*
X85284398Y-11593604D01*
X85284398Y-11593604D02*
X86089160Y-11593604D01*
D10*
D11*
X135284398Y-10293604D02*
X136089160Y-10293604D01*
X136089160Y-10293604D02*
X135655826Y-10788842D01*
X135655826Y-10788842D02*
X135841541Y-10788842D01*
X135841541Y-10788842D02*
X135965350Y-10850747D01*
X135965350Y-10850747D02*
X136027255Y-10912652D01*
X136027255Y-10912652D02*
X136089160Y-11036461D01*
X136089160Y-11036461D02*
X136089160Y-11345985D01*
X136089160Y-11345985D02*
X136027255Y-11469795D01*
X136027255Y-11469795D02*
X135965350Y-11531700D01*
X135965350Y-11531700D02*
X135841541Y-11593604D01*
X135841541Y-11593604D02*
X135470112Y-11593604D01*
X135470112Y-11593604D02*
X135346303Y-11531700D01*
X135346303Y-11531700D02*
X135284398Y-11469795D01*
D10*
D11*
X185965350Y-10726938D02*
X185965350Y-11593604D01*
X185655826Y-10231700D02*
X185346303Y-11160271D01*
X185346303Y-11160271D02*
X186151064Y-11160271D01*
D10*
D11*
X236027255Y-10293604D02*
X235408207Y-10293604D01*
X235408207Y-10293604D02*
X235346303Y-10912652D01*
X235346303Y-10912652D02*
X235408207Y-10850747D01*
X235408207Y-10850747D02*
X235532017Y-10788842D01*
X235532017Y-10788842D02*
X235841541Y-10788842D01*
X235841541Y-10788842D02*
X235965350Y-10850747D01*
X235965350Y-10850747D02*
X236027255Y-10912652D01*
X236027255Y-10912652D02*
X236089160Y-11036461D01*
X236089160Y-11036461D02*
X236089160Y-11345985D01*
X236089160Y-11345985D02*
X236027255Y-11469795D01*
X236027255Y-11469795D02*
X235965350Y-11531700D01*
X235965350Y-11531700D02*
X235841541Y-11593604D01*
X235841541Y-11593604D02*
X235532017Y-11593604D01*
X235532017Y-11593604D02*
X235408207Y-11531700D01*
X235408207Y-11531700D02*
X235346303Y-11469795D01*
D10*
D11*
X285965350Y-10293604D02*
X285717731Y-10293604D01*
X285717731Y-10293604D02*
X285593922Y-10355509D01*
X285593922Y-10355509D02*
X285532017Y-10417414D01*
X285532017Y-10417414D02*
X285408207Y-10603128D01*
X285408207Y-10603128D02*
X285346303Y-10850747D01*
X285346303Y-10850747D02*
X285346303Y-11345985D01*
X285346303Y-11345985D02*
X285408207Y-11469795D01*
X285408207Y-11469795D02*
X285470112Y-11531700D01*
X285470112Y-11531700D02*
X285593922Y-11593604D01*
X285593922Y-11593604D02*
X285841541Y-11593604D01*
X285841541Y-11593604D02*
X285965350Y-11531700D01*
X285965350Y-11531700D02*
X286027255Y-11469795D01*
X286027255Y-11469795D02*
X286089160Y-11345985D01*
X286089160Y-11345985D02*
X286089160Y-11036461D01*
X286089160Y-11036461D02*
X286027255Y-10912652D01*
X286027255Y-10912652D02*
X285965350Y-10850747D01*
X285965350Y-10850747D02*
X285841541Y-10788842D01*
X285841541Y-10788842D02*
X285593922Y-10788842D01*
X285593922Y-10788842D02*
X285470112Y-10850747D01*
X285470112Y-10850747D02*
X285408207Y-10912652D01*
X285408207Y-10912652D02*
X285346303Y-11036461D01*
D10*
D11*
X60000000Y-198007200D02*
X60000000Y-200007200D01*
D10*
D11*
X110000000Y-198007200D02*
X110000000Y-200007200D01*
D10*
D11*
X160000000Y-198007200D02*
X160000000Y-200007200D01*
D10*
D11*
X210000000Y-198007200D02*
X210000000Y-200007200D01*
D10*
D11*
X260000000Y-198007200D02*
X260000000Y-200007200D01*
D10*
D11*
X36089160Y-199600804D02*
X35346303Y-199600804D01*
X35717731Y-199600804D02*
X35717731Y-198300804D01*
X35717731Y-198300804D02*
X35593922Y-198486519D01*
X35593922Y-198486519D02*
X35470112Y-198610328D01*
X35470112Y-198610328D02*
X35346303Y-198672233D01*
D10*
D11*
X85346303Y-198424614D02*
X85408207Y-198362709D01*
X85408207Y-198362709D02*
X85532017Y-198300804D01*
X85532017Y-198300804D02*
X85841541Y-198300804D01*
X85841541Y-198300804D02*
X85965350Y-198362709D01*
X85965350Y-198362709D02*
X86027255Y-198424614D01*
X86027255Y-198424614D02*
X86089160Y-198548423D01*
X86089160Y-198548423D02*
X86089160Y-198672233D01*
X86089160Y-198672233D02*
X86027255Y-198857947D01*
X86027255Y-198857947D02*
X85284398Y-199600804D01*
X85284398Y-199600804D02*
X86089160Y-199600804D01*
D10*
D11*
X135284398Y-198300804D02*
X136089160Y-198300804D01*
X136089160Y-198300804D02*
X135655826Y-198796042D01*
X135655826Y-198796042D02*
X135841541Y-198796042D01*
X135841541Y-198796042D02*
X135965350Y-198857947D01*
X135965350Y-198857947D02*
X136027255Y-198919852D01*
X136027255Y-198919852D02*
X136089160Y-199043661D01*
X136089160Y-199043661D02*
X136089160Y-199353185D01*
X136089160Y-199353185D02*
X136027255Y-199476995D01*
X136027255Y-199476995D02*
X135965350Y-199538900D01*
X135965350Y-199538900D02*
X135841541Y-199600804D01*
X135841541Y-199600804D02*
X135470112Y-199600804D01*
X135470112Y-199600804D02*
X135346303Y-199538900D01*
X135346303Y-199538900D02*
X135284398Y-199476995D01*
D10*
D11*
X185965350Y-198734138D02*
X185965350Y-199600804D01*
X185655826Y-198238900D02*
X185346303Y-199167471D01*
X185346303Y-199167471D02*
X186151064Y-199167471D01*
D10*
D11*
X236027255Y-198300804D02*
X235408207Y-198300804D01*
X235408207Y-198300804D02*
X235346303Y-198919852D01*
X235346303Y-198919852D02*
X235408207Y-198857947D01*
X235408207Y-198857947D02*
X235532017Y-198796042D01*
X235532017Y-198796042D02*
X235841541Y-198796042D01*
X235841541Y-198796042D02*
X235965350Y-198857947D01*
X235965350Y-198857947D02*
X236027255Y-198919852D01*
X236027255Y-198919852D02*
X236089160Y-199043661D01*
X236089160Y-199043661D02*
X236089160Y-199353185D01*
X236089160Y-199353185D02*
X236027255Y-199476995D01*
X236027255Y-199476995D02*
X235965350Y-199538900D01*
X235965350Y-199538900D02*
X235841541Y-199600804D01*
X235841541Y-199600804D02*
X235532017Y-199600804D01*
X235532017Y-199600804D02*
X235408207Y-199538900D01*
X235408207Y-199538900D02*
X235346303Y-199476995D01*
D10*
D11*
X285965350Y-198300804D02*
X285717731Y-198300804D01*
X285717731Y-198300804D02*
X285593922Y-198362709D01*
X285593922Y-198362709D02*
X285532017Y-198424614D01*
X285532017Y-198424614D02*
X285408207Y-198610328D01*
X285408207Y-198610328D02*
X285346303Y-198857947D01*
X285346303Y-198857947D02*
X285346303Y-199353185D01*
X285346303Y-199353185D02*
X285408207Y-199476995D01*
X285408207Y-199476995D02*
X285470112Y-199538900D01*
X285470112Y-199538900D02*
X285593922Y-199600804D01*
X285593922Y-199600804D02*
X285841541Y-199600804D01*
X285841541Y-199600804D02*
X285965350Y-199538900D01*
X285965350Y-199538900D02*
X286027255Y-199476995D01*
X286027255Y-199476995D02*
X286089160Y-199353185D01*
X286089160Y-199353185D02*
X286089160Y-199043661D01*
X286089160Y-199043661D02*
X286027255Y-198919852D01*
X286027255Y-198919852D02*
X285965350Y-198857947D01*
X285965350Y-198857947D02*
X285841541Y-198796042D01*
X285841541Y-198796042D02*
X285593922Y-198796042D01*
X285593922Y-198796042D02*
X285470112Y-198857947D01*
X285470112Y-198857947D02*
X285408207Y-198919852D01*
X285408207Y-198919852D02*
X285346303Y-199043661D01*
D10*
D11*
X10000000Y-60000000D02*
X12000000Y-60000000D01*
D10*
D11*
X10000000Y-110000000D02*
X12000000Y-110000000D01*
D10*
D11*
X10000000Y-160000000D02*
X12000000Y-160000000D01*
D10*
D11*
X10690476Y-35222176D02*
X11309523Y-35222176D01*
X10566666Y-35593604D02*
X10999999Y-34293604D01*
X10999999Y-34293604D02*
X11433333Y-35593604D01*
D10*
D11*
X11092857Y-84912652D02*
X11278571Y-84974557D01*
X11278571Y-84974557D02*
X11340476Y-85036461D01*
X11340476Y-85036461D02*
X11402380Y-85160271D01*
X11402380Y-85160271D02*
X11402380Y-85345985D01*
X11402380Y-85345985D02*
X11340476Y-85469795D01*
X11340476Y-85469795D02*
X11278571Y-85531700D01*
X11278571Y-85531700D02*
X11154761Y-85593604D01*
X11154761Y-85593604D02*
X10659523Y-85593604D01*
X10659523Y-85593604D02*
X10659523Y-84293604D01*
X10659523Y-84293604D02*
X11092857Y-84293604D01*
X11092857Y-84293604D02*
X11216666Y-84355509D01*
X11216666Y-84355509D02*
X11278571Y-84417414D01*
X11278571Y-84417414D02*
X11340476Y-84541223D01*
X11340476Y-84541223D02*
X11340476Y-84665033D01*
X11340476Y-84665033D02*
X11278571Y-84788842D01*
X11278571Y-84788842D02*
X11216666Y-84850747D01*
X11216666Y-84850747D02*
X11092857Y-84912652D01*
X11092857Y-84912652D02*
X10659523Y-84912652D01*
D10*
D11*
X11402380Y-135469795D02*
X11340476Y-135531700D01*
X11340476Y-135531700D02*
X11154761Y-135593604D01*
X11154761Y-135593604D02*
X11030952Y-135593604D01*
X11030952Y-135593604D02*
X10845238Y-135531700D01*
X10845238Y-135531700D02*
X10721428Y-135407890D01*
X10721428Y-135407890D02*
X10659523Y-135284080D01*
X10659523Y-135284080D02*
X10597619Y-135036461D01*
X10597619Y-135036461D02*
X10597619Y-134850747D01*
X10597619Y-134850747D02*
X10659523Y-134603128D01*
X10659523Y-134603128D02*
X10721428Y-134479319D01*
X10721428Y-134479319D02*
X10845238Y-134355509D01*
X10845238Y-134355509D02*
X11030952Y-134293604D01*
X11030952Y-134293604D02*
X11154761Y-134293604D01*
X11154761Y-134293604D02*
X11340476Y-134355509D01*
X11340476Y-134355509D02*
X11402380Y-134417414D01*
D10*
D11*
X10659523Y-185593604D02*
X10659523Y-184293604D01*
X10659523Y-184293604D02*
X10969047Y-184293604D01*
X10969047Y-184293604D02*
X11154761Y-184355509D01*
X11154761Y-184355509D02*
X11278571Y-184479319D01*
X11278571Y-184479319D02*
X11340476Y-184603128D01*
X11340476Y-184603128D02*
X11402380Y-184850747D01*
X11402380Y-184850747D02*
X11402380Y-185036461D01*
X11402380Y-185036461D02*
X11340476Y-185284080D01*
X11340476Y-185284080D02*
X11278571Y-185407890D01*
X11278571Y-185407890D02*
X11154761Y-185531700D01*
X11154761Y-185531700D02*
X10969047Y-185593604D01*
X10969047Y-185593604D02*
X10659523Y-185593604D01*
D10*
D11*
X287002200Y-60000000D02*
X285002200Y-60000000D01*
D10*
D11*
X287002200Y-110000000D02*
X285002200Y-110000000D01*
D10*
D11*
X287002200Y-160000000D02*
X285002200Y-160000000D01*
D10*
D11*
X285692676Y-35222176D02*
X286311723Y-35222176D01*
X285568866Y-35593604D02*
X286002199Y-34293604D01*
X286002199Y-34293604D02*
X286435533Y-35593604D01*
D10*
D11*
X286095057Y-84912652D02*
X286280771Y-84974557D01*
X286280771Y-84974557D02*
X286342676Y-85036461D01*
X286342676Y-85036461D02*
X286404580Y-85160271D01*
X286404580Y-85160271D02*
X286404580Y-85345985D01*
X286404580Y-85345985D02*
X286342676Y-85469795D01*
X286342676Y-85469795D02*
X286280771Y-85531700D01*
X286280771Y-85531700D02*
X286156961Y-85593604D01*
X286156961Y-85593604D02*
X285661723Y-85593604D01*
X285661723Y-85593604D02*
X285661723Y-84293604D01*
X285661723Y-84293604D02*
X286095057Y-84293604D01*
X286095057Y-84293604D02*
X286218866Y-84355509D01*
X286218866Y-84355509D02*
X286280771Y-84417414D01*
X286280771Y-84417414D02*
X286342676Y-84541223D01*
X286342676Y-84541223D02*
X286342676Y-84665033D01*
X286342676Y-84665033D02*
X286280771Y-84788842D01*
X286280771Y-84788842D02*
X286218866Y-84850747D01*
X286218866Y-84850747D02*
X286095057Y-84912652D01*
X286095057Y-84912652D02*
X285661723Y-84912652D01*
D10*
D11*
X286404580Y-135469795D02*
X286342676Y-135531700D01*
X286342676Y-135531700D02*
X286156961Y-135593604D01*
X286156961Y-135593604D02*
X286033152Y-135593604D01*
X286033152Y-135593604D02*
X285847438Y-135531700D01*
X285847438Y-135531700D02*
X285723628Y-135407890D01*
X285723628Y-135407890D02*
X285661723Y-135284080D01*
X285661723Y-135284080D02*
X285599819Y-135036461D01*
X285599819Y-135036461D02*
X285599819Y-134850747D01*
X285599819Y-134850747D02*
X285661723Y-134603128D01*
X285661723Y-134603128D02*
X285723628Y-134479319D01*
X285723628Y-134479319D02*
X285847438Y-134355509D01*
X285847438Y-134355509D02*
X286033152Y-134293604D01*
X286033152Y-134293604D02*
X286156961Y-134293604D01*
X286156961Y-134293604D02*
X286342676Y-134355509D01*
X286342676Y-134355509D02*
X286404580Y-134417414D01*
D10*
D11*
X285661723Y-185593604D02*
X285661723Y-184293604D01*
X285661723Y-184293604D02*
X285971247Y-184293604D01*
X285971247Y-184293604D02*
X286156961Y-184355509D01*
X286156961Y-184355509D02*
X286280771Y-184479319D01*
X286280771Y-184479319D02*
X286342676Y-184603128D01*
X286342676Y-184603128D02*
X286404580Y-184850747D01*
X286404580Y-184850747D02*
X286404580Y-185036461D01*
X286404580Y-185036461D02*
X286342676Y-185284080D01*
X286342676Y-185284080D02*
X286280771Y-185407890D01*
X286280771Y-185407890D02*
X286156961Y-185531700D01*
X286156961Y-185531700D02*
X285971247Y-185593604D01*
X285971247Y-185593604D02*
X285661723Y-185593604D01*
D10*
D11*
X200458026Y-193793328D02*
X200458026Y-192293328D01*
X200458026Y-192293328D02*
X200815169Y-192293328D01*
X200815169Y-192293328D02*
X201029455Y-192364757D01*
X201029455Y-192364757D02*
X201172312Y-192507614D01*
X201172312Y-192507614D02*
X201243741Y-192650471D01*
X201243741Y-192650471D02*
X201315169Y-192936185D01*
X201315169Y-192936185D02*
X201315169Y-193150471D01*
X201315169Y-193150471D02*
X201243741Y-193436185D01*
X201243741Y-193436185D02*
X201172312Y-193579042D01*
X201172312Y-193579042D02*
X201029455Y-193721900D01*
X201029455Y-193721900D02*
X200815169Y-193793328D01*
X200815169Y-193793328D02*
X200458026Y-193793328D01*
X202600884Y-193793328D02*
X202600884Y-193007614D01*
X202600884Y-193007614D02*
X202529455Y-192864757D01*
X202529455Y-192864757D02*
X202386598Y-192793328D01*
X202386598Y-192793328D02*
X202100884Y-192793328D01*
X202100884Y-192793328D02*
X201958026Y-192864757D01*
X202600884Y-193721900D02*
X202458026Y-193793328D01*
X202458026Y-193793328D02*
X202100884Y-193793328D01*
X202100884Y-193793328D02*
X201958026Y-193721900D01*
X201958026Y-193721900D02*
X201886598Y-193579042D01*
X201886598Y-193579042D02*
X201886598Y-193436185D01*
X201886598Y-193436185D02*
X201958026Y-193293328D01*
X201958026Y-193293328D02*
X202100884Y-193221900D01*
X202100884Y-193221900D02*
X202458026Y-193221900D01*
X202458026Y-193221900D02*
X202600884Y-193150471D01*
X203100884Y-192793328D02*
X203672312Y-192793328D01*
X203315169Y-192293328D02*
X203315169Y-193579042D01*
X203315169Y-193579042D02*
X203386598Y-193721900D01*
X203386598Y-193721900D02*
X203529455Y-193793328D01*
X203529455Y-193793328D02*
X203672312Y-193793328D01*
X204743741Y-193721900D02*
X204600884Y-193793328D01*
X204600884Y-193793328D02*
X204315170Y-193793328D01*
X204315170Y-193793328D02*
X204172312Y-193721900D01*
X204172312Y-193721900D02*
X204100884Y-193579042D01*
X204100884Y-193579042D02*
X204100884Y-193007614D01*
X204100884Y-193007614D02*
X204172312Y-192864757D01*
X204172312Y-192864757D02*
X204315170Y-192793328D01*
X204315170Y-192793328D02*
X204600884Y-192793328D01*
X204600884Y-192793328D02*
X204743741Y-192864757D01*
X204743741Y-192864757D02*
X204815170Y-193007614D01*
X204815170Y-193007614D02*
X204815170Y-193150471D01*
X204815170Y-193150471D02*
X204100884Y-193293328D01*
X205458026Y-193650471D02*
X205529455Y-193721900D01*
X205529455Y-193721900D02*
X205458026Y-193793328D01*
X205458026Y-193793328D02*
X205386598Y-193721900D01*
X205386598Y-193721900D02*
X205458026Y-193650471D01*
X205458026Y-193650471D02*
X205458026Y-193793328D01*
X205458026Y-192864757D02*
X205529455Y-192936185D01*
X205529455Y-192936185D02*
X205458026Y-193007614D01*
X205458026Y-193007614D02*
X205386598Y-192936185D01*
X205386598Y-192936185D02*
X205458026Y-192864757D01*
X205458026Y-192864757D02*
X205458026Y-193007614D01*
D10*
D11*
X177002200Y-194507200D02*
X285002200Y-194507200D01*
D10*
D11*
X178458026Y-196593328D02*
X178458026Y-195093328D01*
X179315169Y-196593328D02*
X178672312Y-195736185D01*
X179315169Y-195093328D02*
X178458026Y-195950471D01*
X179958026Y-196593328D02*
X179958026Y-195593328D01*
X179958026Y-195093328D02*
X179886598Y-195164757D01*
X179886598Y-195164757D02*
X179958026Y-195236185D01*
X179958026Y-195236185D02*
X180029455Y-195164757D01*
X180029455Y-195164757D02*
X179958026Y-195093328D01*
X179958026Y-195093328D02*
X179958026Y-195236185D01*
X181529455Y-196450471D02*
X181458027Y-196521900D01*
X181458027Y-196521900D02*
X181243741Y-196593328D01*
X181243741Y-196593328D02*
X181100884Y-196593328D01*
X181100884Y-196593328D02*
X180886598Y-196521900D01*
X180886598Y-196521900D02*
X180743741Y-196379042D01*
X180743741Y-196379042D02*
X180672312Y-196236185D01*
X180672312Y-196236185D02*
X180600884Y-195950471D01*
X180600884Y-195950471D02*
X180600884Y-195736185D01*
X180600884Y-195736185D02*
X180672312Y-195450471D01*
X180672312Y-195450471D02*
X180743741Y-195307614D01*
X180743741Y-195307614D02*
X180886598Y-195164757D01*
X180886598Y-195164757D02*
X181100884Y-195093328D01*
X181100884Y-195093328D02*
X181243741Y-195093328D01*
X181243741Y-195093328D02*
X181458027Y-195164757D01*
X181458027Y-195164757D02*
X181529455Y-195236185D01*
X182815170Y-196593328D02*
X182815170Y-195807614D01*
X182815170Y-195807614D02*
X182743741Y-195664757D01*
X182743741Y-195664757D02*
X182600884Y-195593328D01*
X182600884Y-195593328D02*
X182315170Y-195593328D01*
X182315170Y-195593328D02*
X182172312Y-195664757D01*
X182815170Y-196521900D02*
X182672312Y-196593328D01*
X182672312Y-196593328D02*
X182315170Y-196593328D01*
X182315170Y-196593328D02*
X182172312Y-196521900D01*
X182172312Y-196521900D02*
X182100884Y-196379042D01*
X182100884Y-196379042D02*
X182100884Y-196236185D01*
X182100884Y-196236185D02*
X182172312Y-196093328D01*
X182172312Y-196093328D02*
X182315170Y-196021900D01*
X182315170Y-196021900D02*
X182672312Y-196021900D01*
X182672312Y-196021900D02*
X182815170Y-195950471D01*
X184172313Y-196593328D02*
X184172313Y-195093328D01*
X184172313Y-196521900D02*
X184029455Y-196593328D01*
X184029455Y-196593328D02*
X183743741Y-196593328D01*
X183743741Y-196593328D02*
X183600884Y-196521900D01*
X183600884Y-196521900D02*
X183529455Y-196450471D01*
X183529455Y-196450471D02*
X183458027Y-196307614D01*
X183458027Y-196307614D02*
X183458027Y-195879042D01*
X183458027Y-195879042D02*
X183529455Y-195736185D01*
X183529455Y-195736185D02*
X183600884Y-195664757D01*
X183600884Y-195664757D02*
X183743741Y-195593328D01*
X183743741Y-195593328D02*
X184029455Y-195593328D01*
X184029455Y-195593328D02*
X184172313Y-195664757D01*
X186029455Y-195807614D02*
X186529455Y-195807614D01*
X186743741Y-196593328D02*
X186029455Y-196593328D01*
X186029455Y-196593328D02*
X186029455Y-195093328D01*
X186029455Y-195093328D02*
X186743741Y-195093328D01*
X187386598Y-196450471D02*
X187458027Y-196521900D01*
X187458027Y-196521900D02*
X187386598Y-196593328D01*
X187386598Y-196593328D02*
X187315170Y-196521900D01*
X187315170Y-196521900D02*
X187386598Y-196450471D01*
X187386598Y-196450471D02*
X187386598Y-196593328D01*
X188100884Y-196593328D02*
X188100884Y-195093328D01*
X188100884Y-195093328D02*
X188458027Y-195093328D01*
X188458027Y-195093328D02*
X188672313Y-195164757D01*
X188672313Y-195164757D02*
X188815170Y-195307614D01*
X188815170Y-195307614D02*
X188886599Y-195450471D01*
X188886599Y-195450471D02*
X188958027Y-195736185D01*
X188958027Y-195736185D02*
X188958027Y-195950471D01*
X188958027Y-195950471D02*
X188886599Y-196236185D01*
X188886599Y-196236185D02*
X188815170Y-196379042D01*
X188815170Y-196379042D02*
X188672313Y-196521900D01*
X188672313Y-196521900D02*
X188458027Y-196593328D01*
X188458027Y-196593328D02*
X188100884Y-196593328D01*
X189600884Y-196450471D02*
X189672313Y-196521900D01*
X189672313Y-196521900D02*
X189600884Y-196593328D01*
X189600884Y-196593328D02*
X189529456Y-196521900D01*
X189529456Y-196521900D02*
X189600884Y-196450471D01*
X189600884Y-196450471D02*
X189600884Y-196593328D01*
X190243742Y-196164757D02*
X190958028Y-196164757D01*
X190100885Y-196593328D02*
X190600885Y-195093328D01*
X190600885Y-195093328D02*
X191100885Y-196593328D01*
X191600884Y-196450471D02*
X191672313Y-196521900D01*
X191672313Y-196521900D02*
X191600884Y-196593328D01*
X191600884Y-196593328D02*
X191529456Y-196521900D01*
X191529456Y-196521900D02*
X191600884Y-196450471D01*
X191600884Y-196450471D02*
X191600884Y-196593328D01*
X193529456Y-196593328D02*
X193815170Y-196593328D01*
X193815170Y-196593328D02*
X193958027Y-196521900D01*
X193958027Y-196521900D02*
X194029456Y-196450471D01*
X194029456Y-196450471D02*
X194172313Y-196236185D01*
X194172313Y-196236185D02*
X194243742Y-195950471D01*
X194243742Y-195950471D02*
X194243742Y-195379042D01*
X194243742Y-195379042D02*
X194172313Y-195236185D01*
X194172313Y-195236185D02*
X194100885Y-195164757D01*
X194100885Y-195164757D02*
X193958027Y-195093328D01*
X193958027Y-195093328D02*
X193672313Y-195093328D01*
X193672313Y-195093328D02*
X193529456Y-195164757D01*
X193529456Y-195164757D02*
X193458027Y-195236185D01*
X193458027Y-195236185D02*
X193386599Y-195379042D01*
X193386599Y-195379042D02*
X193386599Y-195736185D01*
X193386599Y-195736185D02*
X193458027Y-195879042D01*
X193458027Y-195879042D02*
X193529456Y-195950471D01*
X193529456Y-195950471D02*
X193672313Y-196021900D01*
X193672313Y-196021900D02*
X193958027Y-196021900D01*
X193958027Y-196021900D02*
X194100885Y-195950471D01*
X194100885Y-195950471D02*
X194172313Y-195879042D01*
X194172313Y-195879042D02*
X194243742Y-195736185D01*
X194886598Y-196450471D02*
X194958027Y-196521900D01*
X194958027Y-196521900D02*
X194886598Y-196593328D01*
X194886598Y-196593328D02*
X194815170Y-196521900D01*
X194815170Y-196521900D02*
X194886598Y-196450471D01*
X194886598Y-196450471D02*
X194886598Y-196593328D01*
X195886599Y-195093328D02*
X196029456Y-195093328D01*
X196029456Y-195093328D02*
X196172313Y-195164757D01*
X196172313Y-195164757D02*
X196243742Y-195236185D01*
X196243742Y-195236185D02*
X196315170Y-195379042D01*
X196315170Y-195379042D02*
X196386599Y-195664757D01*
X196386599Y-195664757D02*
X196386599Y-196021900D01*
X196386599Y-196021900D02*
X196315170Y-196307614D01*
X196315170Y-196307614D02*
X196243742Y-196450471D01*
X196243742Y-196450471D02*
X196172313Y-196521900D01*
X196172313Y-196521900D02*
X196029456Y-196593328D01*
X196029456Y-196593328D02*
X195886599Y-196593328D01*
X195886599Y-196593328D02*
X195743742Y-196521900D01*
X195743742Y-196521900D02*
X195672313Y-196450471D01*
X195672313Y-196450471D02*
X195600884Y-196307614D01*
X195600884Y-196307614D02*
X195529456Y-196021900D01*
X195529456Y-196021900D02*
X195529456Y-195664757D01*
X195529456Y-195664757D02*
X195600884Y-195379042D01*
X195600884Y-195379042D02*
X195672313Y-195236185D01*
X195672313Y-195236185D02*
X195743742Y-195164757D01*
X195743742Y-195164757D02*
X195886599Y-195093328D01*
X197029455Y-196450471D02*
X197100884Y-196521900D01*
X197100884Y-196521900D02*
X197029455Y-196593328D01*
X197029455Y-196593328D02*
X196958027Y-196521900D01*
X196958027Y-196521900D02*
X197029455Y-196450471D01*
X197029455Y-196450471D02*
X197029455Y-196593328D01*
X197600884Y-195093328D02*
X198600884Y-195093328D01*
X198600884Y-195093328D02*
X197958027Y-196593328D01*
D10*
D11*
X177002200Y-191507200D02*
X285002200Y-191507200D01*
D10*
D12*
X264413853Y-193785528D02*
X263913853Y-193071242D01*
X263556710Y-193785528D02*
X263556710Y-192285528D01*
X263556710Y-192285528D02*
X264128139Y-192285528D01*
X264128139Y-192285528D02*
X264270996Y-192356957D01*
X264270996Y-192356957D02*
X264342425Y-192428385D01*
X264342425Y-192428385D02*
X264413853Y-192571242D01*
X264413853Y-192571242D02*
X264413853Y-192785528D01*
X264413853Y-192785528D02*
X264342425Y-192928385D01*
X264342425Y-192928385D02*
X264270996Y-192999814D01*
X264270996Y-192999814D02*
X264128139Y-193071242D01*
X264128139Y-193071242D02*
X263556710Y-193071242D01*
X265628139Y-193714100D02*
X265485282Y-193785528D01*
X265485282Y-193785528D02*
X265199568Y-193785528D01*
X265199568Y-193785528D02*
X265056710Y-193714100D01*
X265056710Y-193714100D02*
X264985282Y-193571242D01*
X264985282Y-193571242D02*
X264985282Y-192999814D01*
X264985282Y-192999814D02*
X265056710Y-192856957D01*
X265056710Y-192856957D02*
X265199568Y-192785528D01*
X265199568Y-192785528D02*
X265485282Y-192785528D01*
X265485282Y-192785528D02*
X265628139Y-192856957D01*
X265628139Y-192856957D02*
X265699568Y-192999814D01*
X265699568Y-192999814D02*
X265699568Y-193142671D01*
X265699568Y-193142671D02*
X264985282Y-193285528D01*
X266199567Y-192785528D02*
X266556710Y-193785528D01*
X266556710Y-193785528D02*
X266913853Y-192785528D01*
X267485281Y-193642671D02*
X267556710Y-193714100D01*
X267556710Y-193714100D02*
X267485281Y-193785528D01*
X267485281Y-193785528D02*
X267413853Y-193714100D01*
X267413853Y-193714100D02*
X267485281Y-193642671D01*
X267485281Y-193642671D02*
X267485281Y-193785528D01*
X267485281Y-192856957D02*
X267556710Y-192928385D01*
X267556710Y-192928385D02*
X267485281Y-192999814D01*
X267485281Y-192999814D02*
X267413853Y-192928385D01*
X267413853Y-192928385D02*
X267485281Y-192856957D01*
X267485281Y-192856957D02*
X267485281Y-192999814D01*
D10*
D11*
X178386598Y-193721900D02*
X178600884Y-193793328D01*
X178600884Y-193793328D02*
X178958026Y-193793328D01*
X178958026Y-193793328D02*
X179100884Y-193721900D01*
X179100884Y-193721900D02*
X179172312Y-193650471D01*
X179172312Y-193650471D02*
X179243741Y-193507614D01*
X179243741Y-193507614D02*
X179243741Y-193364757D01*
X179243741Y-193364757D02*
X179172312Y-193221900D01*
X179172312Y-193221900D02*
X179100884Y-193150471D01*
X179100884Y-193150471D02*
X178958026Y-193079042D01*
X178958026Y-193079042D02*
X178672312Y-193007614D01*
X178672312Y-193007614D02*
X178529455Y-192936185D01*
X178529455Y-192936185D02*
X178458026Y-192864757D01*
X178458026Y-192864757D02*
X178386598Y-192721900D01*
X178386598Y-192721900D02*
X178386598Y-192579042D01*
X178386598Y-192579042D02*
X178458026Y-192436185D01*
X178458026Y-192436185D02*
X178529455Y-192364757D01*
X178529455Y-192364757D02*
X178672312Y-192293328D01*
X178672312Y-192293328D02*
X179029455Y-192293328D01*
X179029455Y-192293328D02*
X179243741Y-192364757D01*
X179886597Y-193793328D02*
X179886597Y-192793328D01*
X179886597Y-192293328D02*
X179815169Y-192364757D01*
X179815169Y-192364757D02*
X179886597Y-192436185D01*
X179886597Y-192436185D02*
X179958026Y-192364757D01*
X179958026Y-192364757D02*
X179886597Y-192293328D01*
X179886597Y-192293328D02*
X179886597Y-192436185D01*
X180458026Y-192793328D02*
X181243741Y-192793328D01*
X181243741Y-192793328D02*
X180458026Y-193793328D01*
X180458026Y-193793328D02*
X181243741Y-193793328D01*
X182386598Y-193721900D02*
X182243741Y-193793328D01*
X182243741Y-193793328D02*
X181958027Y-193793328D01*
X181958027Y-193793328D02*
X181815169Y-193721900D01*
X181815169Y-193721900D02*
X181743741Y-193579042D01*
X181743741Y-193579042D02*
X181743741Y-193007614D01*
X181743741Y-193007614D02*
X181815169Y-192864757D01*
X181815169Y-192864757D02*
X181958027Y-192793328D01*
X181958027Y-192793328D02*
X182243741Y-192793328D01*
X182243741Y-192793328D02*
X182386598Y-192864757D01*
X182386598Y-192864757D02*
X182458027Y-193007614D01*
X182458027Y-193007614D02*
X182458027Y-193150471D01*
X182458027Y-193150471D02*
X181743741Y-193293328D01*
X183100883Y-193650471D02*
X183172312Y-193721900D01*
X183172312Y-193721900D02*
X183100883Y-193793328D01*
X183100883Y-193793328D02*
X183029455Y-193721900D01*
X183029455Y-193721900D02*
X183100883Y-193650471D01*
X183100883Y-193650471D02*
X183100883Y-193793328D01*
X183100883Y-192864757D02*
X183172312Y-192936185D01*
X183172312Y-192936185D02*
X183100883Y-193007614D01*
X183100883Y-193007614D02*
X183029455Y-192936185D01*
X183029455Y-192936185D02*
X183100883Y-192864757D01*
X183100883Y-192864757D02*
X183100883Y-193007614D01*
X184886598Y-193364757D02*
X185600884Y-193364757D01*
X184743741Y-193793328D02*
X185243741Y-192293328D01*
X185243741Y-192293328D02*
X185743741Y-193793328D01*
X186886598Y-192793328D02*
X186886598Y-193793328D01*
X186529455Y-192221900D02*
X186172312Y-193293328D01*
X186172312Y-193293328D02*
X187100883Y-193293328D01*
D10*
D11*
X263458026Y-196593328D02*
X263458026Y-195093328D01*
X264815170Y-196593328D02*
X264815170Y-195093328D01*
X264815170Y-196521900D02*
X264672312Y-196593328D01*
X264672312Y-196593328D02*
X264386598Y-196593328D01*
X264386598Y-196593328D02*
X264243741Y-196521900D01*
X264243741Y-196521900D02*
X264172312Y-196450471D01*
X264172312Y-196450471D02*
X264100884Y-196307614D01*
X264100884Y-196307614D02*
X264100884Y-195879042D01*
X264100884Y-195879042D02*
X264172312Y-195736185D01*
X264172312Y-195736185D02*
X264243741Y-195664757D01*
X264243741Y-195664757D02*
X264386598Y-195593328D01*
X264386598Y-195593328D02*
X264672312Y-195593328D01*
X264672312Y-195593328D02*
X264815170Y-195664757D01*
X265529455Y-196450471D02*
X265600884Y-196521900D01*
X265600884Y-196521900D02*
X265529455Y-196593328D01*
X265529455Y-196593328D02*
X265458027Y-196521900D01*
X265458027Y-196521900D02*
X265529455Y-196450471D01*
X265529455Y-196450471D02*
X265529455Y-196593328D01*
X265529455Y-195664757D02*
X265600884Y-195736185D01*
X265600884Y-195736185D02*
X265529455Y-195807614D01*
X265529455Y-195807614D02*
X265458027Y-195736185D01*
X265458027Y-195736185D02*
X265529455Y-195664757D01*
X265529455Y-195664757D02*
X265529455Y-195807614D01*
X267315170Y-195236185D02*
X267386598Y-195164757D01*
X267386598Y-195164757D02*
X267529456Y-195093328D01*
X267529456Y-195093328D02*
X267886598Y-195093328D01*
X267886598Y-195093328D02*
X268029456Y-195164757D01*
X268029456Y-195164757D02*
X268100884Y-195236185D01*
X268100884Y-195236185D02*
X268172313Y-195379042D01*
X268172313Y-195379042D02*
X268172313Y-195521900D01*
X268172313Y-195521900D02*
X268100884Y-195736185D01*
X268100884Y-195736185D02*
X267243741Y-196593328D01*
X267243741Y-196593328D02*
X268172313Y-196593328D01*
X269886598Y-195021900D02*
X268600884Y-196950471D01*
X270458027Y-196593328D02*
X270743741Y-196593328D01*
X270743741Y-196593328D02*
X270886598Y-196521900D01*
X270886598Y-196521900D02*
X270958027Y-196450471D01*
X270958027Y-196450471D02*
X271100884Y-196236185D01*
X271100884Y-196236185D02*
X271172313Y-195950471D01*
X271172313Y-195950471D02*
X271172313Y-195379042D01*
X271172313Y-195379042D02*
X271100884Y-195236185D01*
X271100884Y-195236185D02*
X271029456Y-195164757D01*
X271029456Y-195164757D02*
X270886598Y-195093328D01*
X270886598Y-195093328D02*
X270600884Y-195093328D01*
X270600884Y-195093328D02*
X270458027Y-195164757D01*
X270458027Y-195164757D02*
X270386598Y-195236185D01*
X270386598Y-195236185D02*
X270315170Y-195379042D01*
X270315170Y-195379042D02*
X270315170Y-195736185D01*
X270315170Y-195736185D02*
X270386598Y-195879042D01*
X270386598Y-195879042D02*
X270458027Y-195950471D01*
X270458027Y-195950471D02*
X270600884Y-196021900D01*
X270600884Y-196021900D02*
X270886598Y-196021900D01*
X270886598Y-196021900D02*
X271029456Y-195950471D01*
X271029456Y-195950471D02*
X271100884Y-195879042D01*
X271100884Y-195879042D02*
X271172313Y-195736185D01*
D10*
D11*
X177002200Y-187507200D02*
X285002200Y-187507200D01*
D10*
D13*
X178693928Y-188211638D02*
X179836785Y-188211638D01*
X179015357Y-190211638D02*
X179265357Y-188211638D01*
X180253452Y-190211638D02*
X180420119Y-188878304D01*
X180503452Y-188211638D02*
X180396309Y-188306876D01*
X180396309Y-188306876D02*
X180479643Y-188402114D01*
X180479643Y-188402114D02*
X180586786Y-188306876D01*
X180586786Y-188306876D02*
X180503452Y-188211638D01*
X180503452Y-188211638D02*
X180479643Y-188402114D01*
X181086786Y-188878304D02*
X181848690Y-188878304D01*
X181455833Y-188211638D02*
X181241548Y-189925923D01*
X181241548Y-189925923D02*
X181312976Y-190116400D01*
X181312976Y-190116400D02*
X181491548Y-190211638D01*
X181491548Y-190211638D02*
X181682024Y-190211638D01*
X182634405Y-190211638D02*
X182455833Y-190116400D01*
X182455833Y-190116400D02*
X182384405Y-189925923D01*
X182384405Y-189925923D02*
X182598690Y-188211638D01*
X184170119Y-190116400D02*
X183967738Y-190211638D01*
X183967738Y-190211638D02*
X183586785Y-190211638D01*
X183586785Y-190211638D02*
X183408214Y-190116400D01*
X183408214Y-190116400D02*
X183336785Y-189925923D01*
X183336785Y-189925923D02*
X183432024Y-189164019D01*
X183432024Y-189164019D02*
X183551071Y-188973542D01*
X183551071Y-188973542D02*
X183753452Y-188878304D01*
X183753452Y-188878304D02*
X184134404Y-188878304D01*
X184134404Y-188878304D02*
X184312976Y-188973542D01*
X184312976Y-188973542D02*
X184384404Y-189164019D01*
X184384404Y-189164019D02*
X184360595Y-189354495D01*
X184360595Y-189354495D02*
X183384404Y-189544971D01*
X185134405Y-190021161D02*
X185217738Y-190116400D01*
X185217738Y-190116400D02*
X185110595Y-190211638D01*
X185110595Y-190211638D02*
X185027262Y-190116400D01*
X185027262Y-190116400D02*
X185134405Y-190021161D01*
X185134405Y-190021161D02*
X185110595Y-190211638D01*
X185265357Y-188973542D02*
X185348690Y-189068780D01*
X185348690Y-189068780D02*
X185241548Y-189164019D01*
X185241548Y-189164019D02*
X185158214Y-189068780D01*
X185158214Y-189068780D02*
X185265357Y-188973542D01*
X185265357Y-188973542D02*
X185241548Y-189164019D01*
D10*
D11*
X178958026Y-185607614D02*
X178458026Y-185607614D01*
X178458026Y-186393328D02*
X178458026Y-184893328D01*
X178458026Y-184893328D02*
X179172312Y-184893328D01*
X179743740Y-186393328D02*
X179743740Y-185393328D01*
X179743740Y-184893328D02*
X179672312Y-184964757D01*
X179672312Y-184964757D02*
X179743740Y-185036185D01*
X179743740Y-185036185D02*
X179815169Y-184964757D01*
X179815169Y-184964757D02*
X179743740Y-184893328D01*
X179743740Y-184893328D02*
X179743740Y-185036185D01*
X180672312Y-186393328D02*
X180529455Y-186321900D01*
X180529455Y-186321900D02*
X180458026Y-186179042D01*
X180458026Y-186179042D02*
X180458026Y-184893328D01*
X181815169Y-186321900D02*
X181672312Y-186393328D01*
X181672312Y-186393328D02*
X181386598Y-186393328D01*
X181386598Y-186393328D02*
X181243740Y-186321900D01*
X181243740Y-186321900D02*
X181172312Y-186179042D01*
X181172312Y-186179042D02*
X181172312Y-185607614D01*
X181172312Y-185607614D02*
X181243740Y-185464757D01*
X181243740Y-185464757D02*
X181386598Y-185393328D01*
X181386598Y-185393328D02*
X181672312Y-185393328D01*
X181672312Y-185393328D02*
X181815169Y-185464757D01*
X181815169Y-185464757D02*
X181886598Y-185607614D01*
X181886598Y-185607614D02*
X181886598Y-185750471D01*
X181886598Y-185750471D02*
X181172312Y-185893328D01*
X182529454Y-186250471D02*
X182600883Y-186321900D01*
X182600883Y-186321900D02*
X182529454Y-186393328D01*
X182529454Y-186393328D02*
X182458026Y-186321900D01*
X182458026Y-186321900D02*
X182529454Y-186250471D01*
X182529454Y-186250471D02*
X182529454Y-186393328D01*
X182529454Y-185464757D02*
X182600883Y-185536185D01*
X182600883Y-185536185D02*
X182529454Y-185607614D01*
X182529454Y-185607614D02*
X182458026Y-185536185D01*
X182458026Y-185536185D02*
X182529454Y-185464757D01*
X182529454Y-185464757D02*
X182529454Y-185607614D01*
X184386597Y-186393328D02*
X184386597Y-184893328D01*
X184386597Y-184893328D02*
X184958026Y-184893328D01*
X184958026Y-184893328D02*
X185100883Y-184964757D01*
X185100883Y-184964757D02*
X185172312Y-185036185D01*
X185172312Y-185036185D02*
X185243740Y-185179042D01*
X185243740Y-185179042D02*
X185243740Y-185393328D01*
X185243740Y-185393328D02*
X185172312Y-185536185D01*
X185172312Y-185536185D02*
X185100883Y-185607614D01*
X185100883Y-185607614D02*
X184958026Y-185679042D01*
X184958026Y-185679042D02*
X184386597Y-185679042D01*
X186743740Y-186250471D02*
X186672312Y-186321900D01*
X186672312Y-186321900D02*
X186458026Y-186393328D01*
X186458026Y-186393328D02*
X186315169Y-186393328D01*
X186315169Y-186393328D02*
X186100883Y-186321900D01*
X186100883Y-186321900D02*
X185958026Y-186179042D01*
X185958026Y-186179042D02*
X185886597Y-186036185D01*
X185886597Y-186036185D02*
X185815169Y-185750471D01*
X185815169Y-185750471D02*
X185815169Y-185536185D01*
X185815169Y-185536185D02*
X185886597Y-185250471D01*
X185886597Y-185250471D02*
X185958026Y-185107614D01*
X185958026Y-185107614D02*
X186100883Y-184964757D01*
X186100883Y-184964757D02*
X186315169Y-184893328D01*
X186315169Y-184893328D02*
X186458026Y-184893328D01*
X186458026Y-184893328D02*
X186672312Y-184964757D01*
X186672312Y-184964757D02*
X186743740Y-185036185D01*
X187886597Y-185607614D02*
X188100883Y-185679042D01*
X188100883Y-185679042D02*
X188172312Y-185750471D01*
X188172312Y-185750471D02*
X188243740Y-185893328D01*
X188243740Y-185893328D02*
X188243740Y-186107614D01*
X188243740Y-186107614D02*
X188172312Y-186250471D01*
X188172312Y-186250471D02*
X188100883Y-186321900D01*
X188100883Y-186321900D02*
X187958026Y-186393328D01*
X187958026Y-186393328D02*
X187386597Y-186393328D01*
X187386597Y-186393328D02*
X187386597Y-184893328D01*
X187386597Y-184893328D02*
X187886597Y-184893328D01*
X187886597Y-184893328D02*
X188029455Y-184964757D01*
X188029455Y-184964757D02*
X188100883Y-185036185D01*
X188100883Y-185036185D02*
X188172312Y-185179042D01*
X188172312Y-185179042D02*
X188172312Y-185321900D01*
X188172312Y-185321900D02*
X188100883Y-185464757D01*
X188100883Y-185464757D02*
X188029455Y-185536185D01*
X188029455Y-185536185D02*
X187886597Y-185607614D01*
X187886597Y-185607614D02*
X187386597Y-185607614D01*
X188815169Y-185964757D02*
X189529455Y-185964757D01*
X188672312Y-186393328D02*
X189172312Y-184893328D01*
X189172312Y-184893328D02*
X189672312Y-186393328D01*
X189815169Y-186536185D02*
X190958026Y-186536185D01*
X191815168Y-185607614D02*
X192029454Y-185679042D01*
X192029454Y-185679042D02*
X192100883Y-185750471D01*
X192100883Y-185750471D02*
X192172311Y-185893328D01*
X192172311Y-185893328D02*
X192172311Y-186107614D01*
X192172311Y-186107614D02*
X192100883Y-186250471D01*
X192100883Y-186250471D02*
X192029454Y-186321900D01*
X192029454Y-186321900D02*
X191886597Y-186393328D01*
X191886597Y-186393328D02*
X191315168Y-186393328D01*
X191315168Y-186393328D02*
X191315168Y-184893328D01*
X191315168Y-184893328D02*
X191815168Y-184893328D01*
X191815168Y-184893328D02*
X191958026Y-184964757D01*
X191958026Y-184964757D02*
X192029454Y-185036185D01*
X192029454Y-185036185D02*
X192100883Y-185179042D01*
X192100883Y-185179042D02*
X192100883Y-185321900D01*
X192100883Y-185321900D02*
X192029454Y-185464757D01*
X192029454Y-185464757D02*
X191958026Y-185536185D01*
X191958026Y-185536185D02*
X191815168Y-185607614D01*
X191815168Y-185607614D02*
X191315168Y-185607614D01*
X193029454Y-186393328D02*
X192886597Y-186321900D01*
X192886597Y-186321900D02*
X192815168Y-186250471D01*
X192815168Y-186250471D02*
X192743740Y-186107614D01*
X192743740Y-186107614D02*
X192743740Y-185679042D01*
X192743740Y-185679042D02*
X192815168Y-185536185D01*
X192815168Y-185536185D02*
X192886597Y-185464757D01*
X192886597Y-185464757D02*
X193029454Y-185393328D01*
X193029454Y-185393328D02*
X193243740Y-185393328D01*
X193243740Y-185393328D02*
X193386597Y-185464757D01*
X193386597Y-185464757D02*
X193458026Y-185536185D01*
X193458026Y-185536185D02*
X193529454Y-185679042D01*
X193529454Y-185679042D02*
X193529454Y-186107614D01*
X193529454Y-186107614D02*
X193458026Y-186250471D01*
X193458026Y-186250471D02*
X193386597Y-186321900D01*
X193386597Y-186321900D02*
X193243740Y-186393328D01*
X193243740Y-186393328D02*
X193029454Y-186393328D01*
X194815169Y-186393328D02*
X194815169Y-185607614D01*
X194815169Y-185607614D02*
X194743740Y-185464757D01*
X194743740Y-185464757D02*
X194600883Y-185393328D01*
X194600883Y-185393328D02*
X194315169Y-185393328D01*
X194315169Y-185393328D02*
X194172311Y-185464757D01*
X194815169Y-186321900D02*
X194672311Y-186393328D01*
X194672311Y-186393328D02*
X194315169Y-186393328D01*
X194315169Y-186393328D02*
X194172311Y-186321900D01*
X194172311Y-186321900D02*
X194100883Y-186179042D01*
X194100883Y-186179042D02*
X194100883Y-186036185D01*
X194100883Y-186036185D02*
X194172311Y-185893328D01*
X194172311Y-185893328D02*
X194315169Y-185821900D01*
X194315169Y-185821900D02*
X194672311Y-185821900D01*
X194672311Y-185821900D02*
X194815169Y-185750471D01*
X195529454Y-186393328D02*
X195529454Y-185393328D01*
X195529454Y-185679042D02*
X195600883Y-185536185D01*
X195600883Y-185536185D02*
X195672312Y-185464757D01*
X195672312Y-185464757D02*
X195815169Y-185393328D01*
X195815169Y-185393328D02*
X195958026Y-185393328D01*
X197100883Y-186393328D02*
X197100883Y-184893328D01*
X197100883Y-186321900D02*
X196958025Y-186393328D01*
X196958025Y-186393328D02*
X196672311Y-186393328D01*
X196672311Y-186393328D02*
X196529454Y-186321900D01*
X196529454Y-186321900D02*
X196458025Y-186250471D01*
X196458025Y-186250471D02*
X196386597Y-186107614D01*
X196386597Y-186107614D02*
X196386597Y-185679042D01*
X196386597Y-185679042D02*
X196458025Y-185536185D01*
X196458025Y-185536185D02*
X196529454Y-185464757D01*
X196529454Y-185464757D02*
X196672311Y-185393328D01*
X196672311Y-185393328D02*
X196958025Y-185393328D01*
X196958025Y-185393328D02*
X197100883Y-185464757D01*
X197815168Y-186250471D02*
X197886597Y-186321900D01*
X197886597Y-186321900D02*
X197815168Y-186393328D01*
X197815168Y-186393328D02*
X197743740Y-186321900D01*
X197743740Y-186321900D02*
X197815168Y-186250471D01*
X197815168Y-186250471D02*
X197815168Y-186393328D01*
X198529454Y-186393328D02*
X198529454Y-184893328D01*
X198672312Y-185821900D02*
X199100883Y-186393328D01*
X199100883Y-185393328D02*
X198529454Y-185964757D01*
X199743740Y-186393328D02*
X199743740Y-185393328D01*
X199743740Y-184893328D02*
X199672312Y-184964757D01*
X199672312Y-184964757D02*
X199743740Y-185036185D01*
X199743740Y-185036185D02*
X199815169Y-184964757D01*
X199815169Y-184964757D02*
X199743740Y-184893328D01*
X199743740Y-184893328D02*
X199743740Y-185036185D01*
X201100884Y-186321900D02*
X200958026Y-186393328D01*
X200958026Y-186393328D02*
X200672312Y-186393328D01*
X200672312Y-186393328D02*
X200529455Y-186321900D01*
X200529455Y-186321900D02*
X200458026Y-186250471D01*
X200458026Y-186250471D02*
X200386598Y-186107614D01*
X200386598Y-186107614D02*
X200386598Y-185679042D01*
X200386598Y-185679042D02*
X200458026Y-185536185D01*
X200458026Y-185536185D02*
X200529455Y-185464757D01*
X200529455Y-185464757D02*
X200672312Y-185393328D01*
X200672312Y-185393328D02*
X200958026Y-185393328D01*
X200958026Y-185393328D02*
X201100884Y-185464757D01*
X202386598Y-186393328D02*
X202386598Y-185607614D01*
X202386598Y-185607614D02*
X202315169Y-185464757D01*
X202315169Y-185464757D02*
X202172312Y-185393328D01*
X202172312Y-185393328D02*
X201886598Y-185393328D01*
X201886598Y-185393328D02*
X201743740Y-185464757D01*
X202386598Y-186321900D02*
X202243740Y-186393328D01*
X202243740Y-186393328D02*
X201886598Y-186393328D01*
X201886598Y-186393328D02*
X201743740Y-186321900D01*
X201743740Y-186321900D02*
X201672312Y-186179042D01*
X201672312Y-186179042D02*
X201672312Y-186036185D01*
X201672312Y-186036185D02*
X201743740Y-185893328D01*
X201743740Y-185893328D02*
X201886598Y-185821900D01*
X201886598Y-185821900D02*
X202243740Y-185821900D01*
X202243740Y-185821900D02*
X202386598Y-185750471D01*
X203743741Y-186393328D02*
X203743741Y-184893328D01*
X203743741Y-186321900D02*
X203600883Y-186393328D01*
X203600883Y-186393328D02*
X203315169Y-186393328D01*
X203315169Y-186393328D02*
X203172312Y-186321900D01*
X203172312Y-186321900D02*
X203100883Y-186250471D01*
X203100883Y-186250471D02*
X203029455Y-186107614D01*
X203029455Y-186107614D02*
X203029455Y-185679042D01*
X203029455Y-185679042D02*
X203100883Y-185536185D01*
X203100883Y-185536185D02*
X203172312Y-185464757D01*
X203172312Y-185464757D02*
X203315169Y-185393328D01*
X203315169Y-185393328D02*
X203600883Y-185393328D01*
X203600883Y-185393328D02*
X203743741Y-185464757D01*
X204100884Y-186536185D02*
X205243741Y-186536185D01*
X205600883Y-185393328D02*
X205600883Y-186893328D01*
X205600883Y-185464757D02*
X205743741Y-185393328D01*
X205743741Y-185393328D02*
X206029455Y-185393328D01*
X206029455Y-185393328D02*
X206172312Y-185464757D01*
X206172312Y-185464757D02*
X206243741Y-185536185D01*
X206243741Y-185536185D02*
X206315169Y-185679042D01*
X206315169Y-185679042D02*
X206315169Y-186107614D01*
X206315169Y-186107614D02*
X206243741Y-186250471D01*
X206243741Y-186250471D02*
X206172312Y-186321900D01*
X206172312Y-186321900D02*
X206029455Y-186393328D01*
X206029455Y-186393328D02*
X205743741Y-186393328D01*
X205743741Y-186393328D02*
X205600883Y-186321900D01*
X207600884Y-186321900D02*
X207458026Y-186393328D01*
X207458026Y-186393328D02*
X207172312Y-186393328D01*
X207172312Y-186393328D02*
X207029455Y-186321900D01*
X207029455Y-186321900D02*
X206958026Y-186250471D01*
X206958026Y-186250471D02*
X206886598Y-186107614D01*
X206886598Y-186107614D02*
X206886598Y-185679042D01*
X206886598Y-185679042D02*
X206958026Y-185536185D01*
X206958026Y-185536185D02*
X207029455Y-185464757D01*
X207029455Y-185464757D02*
X207172312Y-185393328D01*
X207172312Y-185393328D02*
X207458026Y-185393328D01*
X207458026Y-185393328D02*
X207600884Y-185464757D01*
X208243740Y-186393328D02*
X208243740Y-184893328D01*
X208243740Y-185464757D02*
X208386598Y-185393328D01*
X208386598Y-185393328D02*
X208672312Y-185393328D01*
X208672312Y-185393328D02*
X208815169Y-185464757D01*
X208815169Y-185464757D02*
X208886598Y-185536185D01*
X208886598Y-185536185D02*
X208958026Y-185679042D01*
X208958026Y-185679042D02*
X208958026Y-186107614D01*
X208958026Y-186107614D02*
X208886598Y-186250471D01*
X208886598Y-186250471D02*
X208815169Y-186321900D01*
X208815169Y-186321900D02*
X208672312Y-186393328D01*
X208672312Y-186393328D02*
X208386598Y-186393328D01*
X208386598Y-186393328D02*
X208243740Y-186321900D01*
D10*
D11*
X177002200Y-181507200D02*
X285002200Y-181507200D01*
D10*
D11*
X178386598Y-183621900D02*
X178600884Y-183693328D01*
X178600884Y-183693328D02*
X178958026Y-183693328D01*
X178958026Y-183693328D02*
X179100884Y-183621900D01*
X179100884Y-183621900D02*
X179172312Y-183550471D01*
X179172312Y-183550471D02*
X179243741Y-183407614D01*
X179243741Y-183407614D02*
X179243741Y-183264757D01*
X179243741Y-183264757D02*
X179172312Y-183121900D01*
X179172312Y-183121900D02*
X179100884Y-183050471D01*
X179100884Y-183050471D02*
X178958026Y-182979042D01*
X178958026Y-182979042D02*
X178672312Y-182907614D01*
X178672312Y-182907614D02*
X178529455Y-182836185D01*
X178529455Y-182836185D02*
X178458026Y-182764757D01*
X178458026Y-182764757D02*
X178386598Y-182621900D01*
X178386598Y-182621900D02*
X178386598Y-182479042D01*
X178386598Y-182479042D02*
X178458026Y-182336185D01*
X178458026Y-182336185D02*
X178529455Y-182264757D01*
X178529455Y-182264757D02*
X178672312Y-182193328D01*
X178672312Y-182193328D02*
X179029455Y-182193328D01*
X179029455Y-182193328D02*
X179243741Y-182264757D01*
X179886597Y-183693328D02*
X179886597Y-182193328D01*
X180529455Y-183693328D02*
X180529455Y-182907614D01*
X180529455Y-182907614D02*
X180458026Y-182764757D01*
X180458026Y-182764757D02*
X180315169Y-182693328D01*
X180315169Y-182693328D02*
X180100883Y-182693328D01*
X180100883Y-182693328D02*
X179958026Y-182764757D01*
X179958026Y-182764757D02*
X179886597Y-182836185D01*
X181815169Y-183621900D02*
X181672312Y-183693328D01*
X181672312Y-183693328D02*
X181386598Y-183693328D01*
X181386598Y-183693328D02*
X181243740Y-183621900D01*
X181243740Y-183621900D02*
X181172312Y-183479042D01*
X181172312Y-183479042D02*
X181172312Y-182907614D01*
X181172312Y-182907614D02*
X181243740Y-182764757D01*
X181243740Y-182764757D02*
X181386598Y-182693328D01*
X181386598Y-182693328D02*
X181672312Y-182693328D01*
X181672312Y-182693328D02*
X181815169Y-182764757D01*
X181815169Y-182764757D02*
X181886598Y-182907614D01*
X181886598Y-182907614D02*
X181886598Y-183050471D01*
X181886598Y-183050471D02*
X181172312Y-183193328D01*
X183100883Y-183621900D02*
X182958026Y-183693328D01*
X182958026Y-183693328D02*
X182672312Y-183693328D01*
X182672312Y-183693328D02*
X182529454Y-183621900D01*
X182529454Y-183621900D02*
X182458026Y-183479042D01*
X182458026Y-183479042D02*
X182458026Y-182907614D01*
X182458026Y-182907614D02*
X182529454Y-182764757D01*
X182529454Y-182764757D02*
X182672312Y-182693328D01*
X182672312Y-182693328D02*
X182958026Y-182693328D01*
X182958026Y-182693328D02*
X183100883Y-182764757D01*
X183100883Y-182764757D02*
X183172312Y-182907614D01*
X183172312Y-182907614D02*
X183172312Y-183050471D01*
X183172312Y-183050471D02*
X182458026Y-183193328D01*
X183600883Y-182693328D02*
X184172311Y-182693328D01*
X183815168Y-182193328D02*
X183815168Y-183479042D01*
X183815168Y-183479042D02*
X183886597Y-183621900D01*
X183886597Y-183621900D02*
X184029454Y-183693328D01*
X184029454Y-183693328D02*
X184172311Y-183693328D01*
X184672311Y-183550471D02*
X184743740Y-183621900D01*
X184743740Y-183621900D02*
X184672311Y-183693328D01*
X184672311Y-183693328D02*
X184600883Y-183621900D01*
X184600883Y-183621900D02*
X184672311Y-183550471D01*
X184672311Y-183550471D02*
X184672311Y-183693328D01*
X184672311Y-182764757D02*
X184743740Y-182836185D01*
X184743740Y-182836185D02*
X184672311Y-182907614D01*
X184672311Y-182907614D02*
X184600883Y-182836185D01*
X184600883Y-182836185D02*
X184672311Y-182764757D01*
X184672311Y-182764757D02*
X184672311Y-182907614D01*
D10*
D11*
X197002200Y-191507200D02*
X197002200Y-194507200D01*
D10*
D11*
X261002200Y-191507200D02*
X261002200Y-198007200D01*
D14*
%TO.P,A1,D3*%
%TO.N,N/C*%
X107030000Y-117774100D03*
%TO.P,A1,D2*%
X107030000Y-115234100D03*
D15*
%TO.P,A1,D1*%
X107030000Y-112694100D03*
%TD*%
D16*
%TO.P,J7,1,Pin_1*%
%TO.N,/ServoB_PWM*%
X98560000Y-86650000D03*
D17*
%TO.P,J7,2,Pin_2*%
%TO.N,+5V*%
X96020000Y-86650000D03*
%TO.P,J7,3,Pin_3*%
%TO.N,Net-(J7-Pin_3)*%
X93480000Y-86650000D03*
%TD*%
%TO.P,J5,6,Pin_6*%
%TO.N,GND*%
X89400000Y-126400000D03*
%TO.P,J5,5,Pin_5*%
%TO.N,/MISO*%
X91940000Y-126400000D03*
%TO.P,J5,4,Pin_4*%
%TO.N,/CS*%
X94480000Y-126400000D03*
%TO.P,J5,3,Pin_3*%
%TO.N,/SCK*%
X97020000Y-126400000D03*
%TO.P,J5,2,Pin_2*%
%TO.N,/MOSI*%
X99560000Y-126400000D03*
D16*
%TO.P,J5,1,Pin_1*%
%TO.N,+5V*%
X102100000Y-126400000D03*
%TD*%
D18*
%TO.P,U2,9,EP*%
%TO.N,GND*%
X120200000Y-128600000D03*
X120200000Y-127400000D03*
X120200000Y-126100000D03*
X120200000Y-125000000D03*
D19*
X119600000Y-126800000D03*
D18*
X119000000Y-128600000D03*
X119000000Y-127400000D03*
X119000000Y-126100000D03*
X119000000Y-125000000D03*
%TD*%
D20*
%TO.P,U1,17,GND*%
%TO.N,GND*%
X108550000Y-89400000D03*
X107750000Y-89400000D03*
X106950000Y-89400000D03*
X108550000Y-90200000D03*
X107750000Y-90200000D03*
D21*
X107750000Y-90200000D03*
D20*
X106950000Y-90200000D03*
X108550000Y-91000000D03*
X107750000Y-91000000D03*
X106950000Y-91000000D03*
%TD*%
D16*
%TO.P,J6,1,Pin_1*%
%TO.N,/ServoA_PWM*%
X126740000Y-86850000D03*
D17*
%TO.P,J6,2,Pin_2*%
%TO.N,+5V*%
X129280000Y-86850000D03*
%TO.P,J6,3,Pin_3*%
%TO.N,Net-(J6-Pin_3)*%
X131820000Y-86850000D03*
%TD*%
D22*
%TO.N,GND*%
X125260000Y-125720000D03*
X94380000Y-99530000D03*
X92960000Y-99500000D03*
X103690000Y-91810000D03*
X119880000Y-93960000D03*
X118180000Y-93960000D03*
X116700000Y-93910000D03*
X115280000Y-93880000D03*
X131930000Y-131400000D03*
X130680000Y-131400000D03*
X128180000Y-131400000D03*
X126680000Y-131400000D03*
X135540000Y-133140000D03*
X136930000Y-126650000D03*
X94180000Y-129150000D03*
X94180000Y-130400000D03*
X94180000Y-131650000D03*
X94180000Y-132900000D03*
X95430000Y-132900000D03*
X95430000Y-131650000D03*
X95430000Y-130400000D03*
X95430000Y-129150000D03*
X94430000Y-124150000D03*
X90720000Y-93330000D03*
X90740000Y-92290000D03*
%TO.N,+3.3V*%
X99680000Y-95650000D03*
X100500000Y-106790000D03*
X126680000Y-111650000D03*
X128180000Y-93650000D03*
%TO.N,+BATT*%
X106980000Y-98050000D03*
X106980000Y-99450000D03*
X131600000Y-128500000D03*
X130400000Y-128500000D03*
X128900000Y-128500000D03*
X127600000Y-128500000D03*
%TO.N,+5V*%
X134300000Y-124900000D03*
X103600000Y-132500000D03*
X102200000Y-132500000D03*
X103600000Y-131100000D03*
X102200000Y-131100000D03*
X103600000Y-129700000D03*
X102200000Y-129700000D03*
%TO.N,Net-(U2-BOOT)*%
X118060000Y-130930000D03*
X122200000Y-130000000D03*
%TO.N,GND*%
X102800000Y-95700000D03*
X102000000Y-96400000D03*
X102000000Y-95000000D03*
%TD*%
D23*
%TO.N,Net-(U2-BOOT)*%
X118060000Y-130930000D02*
X118080000Y-130950000D01*
X118080000Y-130950000D02*
X121250000Y-130950000D01*
X121250000Y-130950000D02*
X122200000Y-130000000D01*
D24*
%TO.N,+5V*%
X134300000Y-124900000D02*
X134300000Y-128460000D01*
X134300000Y-128460000D02*
X132920000Y-129840000D01*
X132920000Y-129840000D02*
X123563496Y-129840000D01*
X123563496Y-129840000D02*
X120903496Y-132500000D01*
X120903496Y-132500000D02*
X103600000Y-132500000D01*
D23*
%TO.N,+3.3V*%
X100500000Y-106790000D02*
X100500000Y-96470000D01*
X100500000Y-96470000D02*
X99680000Y-95650000D01*
D24*
%TO.N,+5V*%
X104680000Y-95310000D02*
X120820000Y-95310000D01*
X120820000Y-95310000D02*
X129280000Y-86850000D01*
D23*
%TO.N,+3.3V*%
X126680000Y-111650000D02*
X126680000Y-95150000D01*
X126680000Y-95150000D02*
X128180000Y-93650000D01*
D24*
%TO.N,+5V*%
X102100000Y-126400000D02*
X102100000Y-100430000D01*
X102100000Y-100430000D02*
X104680000Y-97850000D01*
X104680000Y-97850000D02*
X104680000Y-95310000D01*
X104680000Y-95310000D02*
X96020000Y-86650000D01*
%TO.N,+BATT*%
X106980000Y-99450000D02*
X106980000Y-98050000D01*
X106980000Y-104650000D02*
X106980000Y-99450000D01*
X107280000Y-104950000D02*
X106980000Y-104650000D01*
X127600000Y-128500000D02*
X127600000Y-125270000D01*
X127600000Y-125270000D02*
X107280000Y-104950000D01*
%TO.N,+5V*%
X102100000Y-126400000D02*
X102200000Y-126400000D01*
%TD*%
%TA.AperFunction,Conductor*%
%TO.N,GND*%
G36*
X93008813Y-85170185D02*
G01*
X93054568Y-85222989D01*
X93064512Y-85292147D01*
X93035487Y-85355703D01*
X92980093Y-85392430D01*
X92961588Y-85398443D01*
X92961585Y-85398444D01*
X92772179Y-85494951D01*
X92600213Y-85619890D01*
X92449890Y-85770213D01*
X92324951Y-85942179D01*
X92228444Y-86131585D01*
X92162753Y-86333760D01*
X92129500Y-86543713D01*
X92129500Y-86756286D01*
X92161239Y-86956682D01*
X92162754Y-86966243D01*
X92227738Y-87166243D01*
X92228444Y-87168414D01*
X92324951Y-87357820D01*
X92449890Y-87529786D01*
X92600213Y-87680109D01*
X92772179Y-87805048D01*
X92772181Y-87805049D01*
X92772184Y-87805051D01*
X92961588Y-87901557D01*
X93163757Y-87967246D01*
X93373713Y-88000500D01*
X93373714Y-88000500D01*
X93586286Y-88000500D01*
X93586287Y-88000500D01*
X93796243Y-87967246D01*
X93998412Y-87901557D01*
X94187816Y-87805051D01*
X94239296Y-87767649D01*
X94359786Y-87680109D01*
X94359788Y-87680106D01*
X94359792Y-87680104D01*
X94510104Y-87529792D01*
X94510106Y-87529788D01*
X94510109Y-87529786D01*
X94635048Y-87357820D01*
X94635047Y-87357820D01*
X94635051Y-87357816D01*
X94639514Y-87349054D01*
X94687488Y-87298259D01*
X94755308Y-87281463D01*
X94821444Y-87303999D01*
X94860486Y-87349056D01*
X94864951Y-87357820D01*
X94989890Y-87529786D01*
X95140213Y-87680109D01*
X95312179Y-87805048D01*
X95312181Y-87805049D01*
X95312184Y-87805051D01*
X95501588Y-87901557D01*
X95703757Y-87967246D01*
X95913713Y-88000500D01*
X95913714Y-88000500D01*
X96116349Y-88000500D01*
X96183388Y-88020185D01*
X96204030Y-88036819D01*
X103793181Y-95625969D01*
X103826666Y-95687292D01*
X103829500Y-95713650D01*
X103829500Y-97446348D01*
X103809815Y-97513387D01*
X103793181Y-97534029D01*
X101439375Y-99887834D01*
X101439372Y-99887838D01*
X101377602Y-99980283D01*
X101323989Y-100025088D01*
X101254664Y-100033795D01*
X101191637Y-100003640D01*
X101154918Y-99944197D01*
X101150500Y-99911392D01*
X101150500Y-96405928D01*
X101125502Y-96280261D01*
X101125501Y-96280260D01*
X101125501Y-96280256D01*
X101076465Y-96161873D01*
X101076464Y-96161872D01*
X101076461Y-96161866D01*
X101005277Y-96055332D01*
X100979117Y-96029172D01*
X100914669Y-95964724D01*
X100497015Y-95547070D01*
X100463530Y-95485747D01*
X100463095Y-95483660D01*
X100449737Y-95416503D01*
X100425599Y-95358230D01*
X100389397Y-95270827D01*
X100389390Y-95270814D01*
X100301789Y-95139711D01*
X100301786Y-95139707D01*
X100190292Y-95028213D01*
X100190288Y-95028210D01*
X100059185Y-94940609D01*
X100059172Y-94940602D01*
X99913501Y-94880264D01*
X99913489Y-94880261D01*
X99758845Y-94849500D01*
X99758842Y-94849500D01*
X99601158Y-94849500D01*
X99601155Y-94849500D01*
X99446510Y-94880261D01*
X99446498Y-94880264D01*
X99300827Y-94940602D01*
X99300814Y-94940609D01*
X99169711Y-95028210D01*
X99169707Y-95028213D01*
X99058213Y-95139707D01*
X99058210Y-95139711D01*
X98970609Y-95270814D01*
X98970602Y-95270827D01*
X98910264Y-95416498D01*
X98910261Y-95416510D01*
X98879500Y-95571153D01*
X98879500Y-95728846D01*
X98910261Y-95883489D01*
X98910264Y-95883501D01*
X98970602Y-96029172D01*
X98970609Y-96029185D01*
X99058210Y-96160288D01*
X99058213Y-96160292D01*
X99169707Y-96271786D01*
X99169711Y-96271789D01*
X99300814Y-96359390D01*
X99300827Y-96359397D01*
X99388230Y-96395599D01*
X99446503Y-96419737D01*
X99513581Y-96433079D01*
X99575490Y-96465463D01*
X99577070Y-96467015D01*
X99813181Y-96703126D01*
X99846666Y-96764449D01*
X99849500Y-96790807D01*
X99849500Y-106285064D01*
X99829815Y-106352103D01*
X99828603Y-106353954D01*
X99790608Y-106410817D01*
X99790602Y-106410828D01*
X99730264Y-106556498D01*
X99730261Y-106556510D01*
X99699500Y-106711153D01*
X99699500Y-106868846D01*
X99730261Y-107023489D01*
X99730264Y-107023501D01*
X99790602Y-107169172D01*
X99790609Y-107169185D01*
X99878210Y-107300288D01*
X99878213Y-107300292D01*
X99989707Y-107411786D01*
X99989711Y-107411789D01*
X100120814Y-107499390D01*
X100120827Y-107499397D01*
X100266498Y-107559735D01*
X100266503Y-107559737D01*
X100421153Y-107590499D01*
X100421156Y-107590500D01*
X100421158Y-107590500D01*
X100578844Y-107590500D01*
X100578845Y-107590499D01*
X100733497Y-107559737D01*
X100879179Y-107499394D01*
X101010289Y-107411789D01*
X101010292Y-107411786D01*
X101037819Y-107384260D01*
X101099142Y-107350775D01*
X101168834Y-107355759D01*
X101224767Y-107397631D01*
X101249184Y-107463095D01*
X101249500Y-107471941D01*
X101249500Y-124799728D01*
X101229815Y-124866767D01*
X101177011Y-124912522D01*
X101164660Y-124917382D01*
X101062500Y-124951384D01*
X101062496Y-124951386D01*
X100941462Y-125029171D01*
X100941451Y-125029179D01*
X100888659Y-125074923D01*
X100794433Y-125183664D01*
X100794430Y-125183668D01*
X100734664Y-125314534D01*
X100714267Y-125383998D01*
X100713218Y-125383690D01*
X100679927Y-125440278D01*
X100617564Y-125471784D01*
X100548067Y-125464573D01*
X100507414Y-125437518D01*
X100439786Y-125369890D01*
X100267820Y-125244951D01*
X100078414Y-125148444D01*
X100078413Y-125148443D01*
X100078412Y-125148443D01*
X99876243Y-125082754D01*
X99876241Y-125082753D01*
X99876240Y-125082753D01*
X99714957Y-125057208D01*
X99666287Y-125049500D01*
X99453713Y-125049500D01*
X99405042Y-125057208D01*
X99243760Y-125082753D01*
X99041585Y-125148444D01*
X98852179Y-125244951D01*
X98680213Y-125369890D01*
X98529890Y-125520213D01*
X98404949Y-125692182D01*
X98400484Y-125700946D01*
X98352509Y-125751742D01*
X98284688Y-125768536D01*
X98218553Y-125745998D01*
X98179516Y-125700946D01*
X98175050Y-125692182D01*
X98050109Y-125520213D01*
X97899786Y-125369890D01*
X97727820Y-125244951D01*
X97538414Y-125148444D01*
X97538413Y-125148443D01*
X97538412Y-125148443D01*
X97336243Y-125082754D01*
X97336241Y-125082753D01*
X97336240Y-125082753D01*
X97174957Y-125057208D01*
X97126287Y-125049500D01*
X96913713Y-125049500D01*
X96865042Y-125057208D01*
X96703760Y-125082753D01*
X96501585Y-125148444D01*
X96312179Y-125244951D01*
X96140213Y-125369890D01*
X95989890Y-125520213D01*
X95864949Y-125692182D01*
X95860484Y-125700946D01*
X95812509Y-125751742D01*
X95744688Y-125768536D01*
X95678553Y-125745998D01*
X95639516Y-125700946D01*
X95635050Y-125692182D01*
X95510109Y-125520213D01*
X95359786Y-125369890D01*
X95187820Y-125244951D01*
X94998414Y-125148444D01*
X94998413Y-125148443D01*
X94998412Y-125148443D01*
X94796243Y-125082754D01*
X94796241Y-125082753D01*
X94796240Y-125082753D01*
X94634957Y-125057208D01*
X94586287Y-125049500D01*
X94373713Y-125049500D01*
X94325042Y-125057208D01*
X94163760Y-125082753D01*
X93961585Y-125148444D01*
X93772179Y-125244951D01*
X93600213Y-125369890D01*
X93449890Y-125520213D01*
X93324949Y-125692182D01*
X93320484Y-125700946D01*
X93272509Y-125751742D01*
X93204688Y-125768536D01*
X93138553Y-125745998D01*
X93099516Y-125700946D01*
X93095050Y-125692182D01*
X92970109Y-125520213D01*
X92819786Y-125369890D01*
X92647820Y-125244951D01*
X92458414Y-125148444D01*
X92458413Y-125148443D01*
X92458412Y-125148443D01*
X92256243Y-125082754D01*
X92256241Y-125082753D01*
X92256240Y-125082753D01*
X92094957Y-125057208D01*
X92046287Y-125049500D01*
X91833713Y-125049500D01*
X91785042Y-125057208D01*
X91623760Y-125082753D01*
X91421585Y-125148444D01*
X91232179Y-125244951D01*
X91060213Y-125369890D01*
X90909890Y-125520213D01*
X90784951Y-125692179D01*
X90688444Y-125881585D01*
X90622753Y-126083760D01*
X90589500Y-126293713D01*
X90589500Y-126506286D01*
X90622753Y-126716239D01*
X90688444Y-126918414D01*
X90784951Y-127107820D01*
X90909890Y-127279786D01*
X91060213Y-127430109D01*
X91232179Y-127555048D01*
X91232181Y-127555049D01*
X91232184Y-127555051D01*
X91421588Y-127651557D01*
X91623757Y-127717246D01*
X91833713Y-127750500D01*
X91833714Y-127750500D01*
X92046286Y-127750500D01*
X92046287Y-127750500D01*
X92256243Y-127717246D01*
X92458412Y-127651557D01*
X92647816Y-127555051D01*
X92680121Y-127531580D01*
X92819786Y-127430109D01*
X92819788Y-127430106D01*
X92819792Y-127430104D01*
X92970104Y-127279792D01*
X92970106Y-127279788D01*
X92970109Y-127279786D01*
X93095048Y-127107820D01*
X93095047Y-127107820D01*
X93095051Y-127107816D01*
X93099514Y-127099054D01*
X93147488Y-127048259D01*
X93215308Y-127031463D01*
X93281444Y-127053999D01*
X93320484Y-127099054D01*
X93324591Y-127107115D01*
X93324951Y-127107820D01*
X93449890Y-127279786D01*
X93600213Y-127430109D01*
X93772179Y-127555048D01*
X93772181Y-127555049D01*
X93772184Y-127555051D01*
X93961588Y-127651557D01*
X94163757Y-127717246D01*
X94373713Y-127750500D01*
X94373714Y-127750500D01*
X94586286Y-127750500D01*
X94586287Y-127750500D01*
X94796243Y-127717246D01*
X94998412Y-127651557D01*
X95187816Y-127555051D01*
X95220121Y-127531580D01*
X95359786Y-127430109D01*
X95359788Y-127430106D01*
X95359792Y-127430104D01*
X95510104Y-127279792D01*
X95510106Y-127279788D01*
X95510109Y-127279786D01*
X95635048Y-127107820D01*
X95635047Y-127107820D01*
X95635051Y-127107816D01*
X95639514Y-127099054D01*
X95687488Y-127048259D01*
X95755308Y-127031463D01*
X95821444Y-127053999D01*
X95860484Y-127099054D01*
X95864591Y-127107115D01*
X95864951Y-127107820D01*
X95989890Y-127279786D01*
X96140213Y-127430109D01*
X96312179Y-127555048D01*
X96312181Y-127555049D01*
X96312184Y-127555051D01*
X96501588Y-127651557D01*
X96703757Y-127717246D01*
X96913713Y-127750500D01*
X96913714Y-127750500D01*
X97126286Y-127750500D01*
X97126287Y-127750500D01*
X97336243Y-127717246D01*
X97538412Y-127651557D01*
X97727816Y-127555051D01*
X97760121Y-127531580D01*
X97899786Y-127430109D01*
X97899788Y-127430106D01*
X97899792Y-127430104D01*
X98050104Y-127279792D01*
X98050106Y-127279788D01*
X98050109Y-127279786D01*
X98175048Y-127107820D01*
X98175047Y-127107820D01*
X98175051Y-127107816D01*
X98179514Y-127099054D01*
X98227488Y-127048259D01*
X98295308Y-127031463D01*
X98361444Y-127053999D01*
X98400484Y-127099054D01*
X98404591Y-127107115D01*
X98404951Y-127107820D01*
X98529890Y-127279786D01*
X98680213Y-127430109D01*
X98852179Y-127555048D01*
X98852181Y-127555049D01*
X98852184Y-127555051D01*
X99041588Y-127651557D01*
X99243757Y-127717246D01*
X99453713Y-127750500D01*
X99453714Y-127750500D01*
X99666286Y-127750500D01*
X99666287Y-127750500D01*
X99876243Y-127717246D01*
X100078412Y-127651557D01*
X100267816Y-127555051D01*
X100392403Y-127464534D01*
X100439784Y-127430110D01*
X100439784Y-127430109D01*
X100439792Y-127430104D01*
X100499149Y-127370746D01*
X100560468Y-127337264D01*
X100630160Y-127342248D01*
X100686094Y-127384119D01*
X100710511Y-127449583D01*
X100710533Y-127449899D01*
X101087735Y-132919315D01*
X101102082Y-133008930D01*
X101112991Y-133051897D01*
X101112995Y-133051911D01*
X101143128Y-133137500D01*
X101143129Y-133137502D01*
X101143130Y-133137504D01*
X101194826Y-133217944D01*
X101220914Y-133258537D01*
X101220922Y-133258548D01*
X101266666Y-133311340D01*
X101266669Y-133311343D01*
X101266673Y-133311347D01*
X101375407Y-133405567D01*
X101375410Y-133405568D01*
X101375411Y-133405569D01*
X101469668Y-133448616D01*
X101506284Y-133465338D01*
X101573323Y-133485023D01*
X101573327Y-133485024D01*
X101715743Y-133505500D01*
X101715746Y-133505500D01*
X104175990Y-133505500D01*
X104176000Y-133505500D01*
X104283456Y-133493947D01*
X104334967Y-133482741D01*
X104369197Y-133471347D01*
X104437497Y-133448616D01*
X104437501Y-133448613D01*
X104437504Y-133448613D01*
X104504486Y-133405566D01*
X104559540Y-133370185D01*
X104626580Y-133350500D01*
X120987264Y-133350500D01*
X120987265Y-133350499D01*
X121042034Y-133339605D01*
X121151570Y-133317818D01*
X121151574Y-133317816D01*
X121151578Y-133317816D01*
X121196911Y-133299037D01*
X121306359Y-133253704D01*
X121445658Y-133160627D01*
X122074383Y-132531902D01*
X123179500Y-132531902D01*
X123179500Y-132768097D01*
X123216446Y-133001368D01*
X123289433Y-133225996D01*
X123352871Y-133350499D01*
X123396657Y-133436433D01*
X123535483Y-133627510D01*
X123702490Y-133794517D01*
X123893567Y-133933343D01*
X123992991Y-133984002D01*
X124104003Y-134040566D01*
X124104005Y-134040566D01*
X124104008Y-134040568D01*
X124224412Y-134079689D01*
X124328631Y-134113553D01*
X124561903Y-134150500D01*
X124561908Y-134150500D01*
X124798097Y-134150500D01*
X125031368Y-134113553D01*
X125255992Y-134040568D01*
X125466433Y-133933343D01*
X125657510Y-133794517D01*
X125824517Y-133627510D01*
X125963343Y-133436433D01*
X126070568Y-133225992D01*
X126143553Y-133001368D01*
X126156550Y-132919310D01*
X126180500Y-132768097D01*
X126180500Y-132531902D01*
X126143553Y-132298631D01*
X126070566Y-132074003D01*
X125963342Y-131863566D01*
X125910206Y-131790431D01*
X125824517Y-131672490D01*
X125657510Y-131505483D01*
X125466433Y-131366657D01*
X125255996Y-131259433D01*
X125031368Y-131186446D01*
X124798097Y-131149500D01*
X124798092Y-131149500D01*
X124561908Y-131149500D01*
X124561903Y-131149500D01*
X124328631Y-131186446D01*
X124104003Y-131259433D01*
X123893566Y-131366657D01*
X123785739Y-131444999D01*
X123702490Y-131505483D01*
X123702488Y-131505485D01*
X123702487Y-131505485D01*
X123535485Y-131672487D01*
X123535485Y-131672488D01*
X123535483Y-131672490D01*
X123475862Y-131754550D01*
X123396657Y-131863566D01*
X123289433Y-132074003D01*
X123216446Y-132298631D01*
X123179500Y-132531902D01*
X122074383Y-132531902D01*
X122742718Y-131863567D01*
X123879465Y-130726819D01*
X123940788Y-130693334D01*
X123967146Y-130690500D01*
X133003768Y-130690500D01*
X133003769Y-130690499D01*
X133168082Y-130657816D01*
X133246097Y-130625501D01*
X133322863Y-130593704D01*
X133462162Y-130500627D01*
X134960627Y-129002162D01*
X135053704Y-128862863D01*
X135101247Y-128748082D01*
X135117816Y-128708082D01*
X135150500Y-128543767D01*
X135150500Y-124816233D01*
X135117816Y-124651918D01*
X135053703Y-124497137D01*
X135022537Y-124450494D01*
X134960626Y-124357837D01*
X134842162Y-124239373D01*
X134702860Y-124146295D01*
X134548082Y-124082184D01*
X134548074Y-124082182D01*
X134383771Y-124049500D01*
X134383767Y-124049500D01*
X134216233Y-124049500D01*
X134216228Y-124049500D01*
X134051925Y-124082182D01*
X134051917Y-124082184D01*
X133897139Y-124146295D01*
X133757837Y-124239373D01*
X133639373Y-124357837D01*
X133546295Y-124497139D01*
X133482184Y-124651917D01*
X133482182Y-124651925D01*
X133449500Y-124816228D01*
X133449500Y-128056349D01*
X133440855Y-128085789D01*
X133434332Y-128115776D01*
X133430577Y-128120791D01*
X133429815Y-128123388D01*
X133413181Y-128144030D01*
X133297181Y-128260030D01*
X133235858Y-128293515D01*
X133166166Y-128288531D01*
X133110233Y-128246659D01*
X133085816Y-128181195D01*
X133085500Y-128172349D01*
X133085500Y-127674010D01*
X133085500Y-127674000D01*
X133073947Y-127566544D01*
X133062741Y-127515033D01*
X133062637Y-127514722D01*
X133028616Y-127412502D01*
X133028613Y-127412496D01*
X133010376Y-127384119D01*
X132950825Y-127291457D01*
X132950820Y-127291451D01*
X132905076Y-127238659D01*
X132905072Y-127238656D01*
X132905070Y-127238653D01*
X132796336Y-127144433D01*
X132796333Y-127144431D01*
X132796331Y-127144430D01*
X132665465Y-127084664D01*
X132665460Y-127084662D01*
X132665459Y-127084662D01*
X132598420Y-127064977D01*
X132598422Y-127064977D01*
X132598417Y-127064976D01*
X132536347Y-127056052D01*
X132456000Y-127044500D01*
X132455998Y-127044500D01*
X128574500Y-127044500D01*
X128507461Y-127024815D01*
X128461706Y-126972011D01*
X128450500Y-126920500D01*
X128450500Y-125186232D01*
X128450499Y-125186228D01*
X128442983Y-125148443D01*
X128417816Y-125021918D01*
X128381673Y-124934662D01*
X128353704Y-124867138D01*
X128323480Y-124821905D01*
X128260630Y-124727842D01*
X128260624Y-124727834D01*
X117975276Y-114442486D01*
X132524500Y-114442486D01*
X132524500Y-114627513D01*
X132553445Y-114810265D01*
X132610619Y-114986232D01*
X132610620Y-114986235D01*
X132684764Y-115131748D01*
X132694622Y-115151096D01*
X132803379Y-115300787D01*
X132934213Y-115431621D01*
X133083904Y-115540378D01*
X133164763Y-115581577D01*
X133248764Y-115624379D01*
X133248767Y-115624380D01*
X133336750Y-115652967D01*
X133424736Y-115681555D01*
X133607486Y-115710500D01*
X133607487Y-115710500D01*
X133792513Y-115710500D01*
X133792514Y-115710500D01*
X133975264Y-115681555D01*
X134151235Y-115624379D01*
X134316096Y-115540378D01*
X134465787Y-115431621D01*
X134596621Y-115300787D01*
X134705378Y-115151096D01*
X134789379Y-114986235D01*
X134846555Y-114810264D01*
X134875500Y-114627514D01*
X134875500Y-114442486D01*
X134846555Y-114259736D01*
X134803485Y-114127179D01*
X134789380Y-114083767D01*
X134789379Y-114083764D01*
X134740679Y-113988186D01*
X134705378Y-113918904D01*
X134596621Y-113769213D01*
X134465787Y-113638379D01*
X134316096Y-113529622D01*
X134292802Y-113517753D01*
X134151235Y-113445620D01*
X134151232Y-113445619D01*
X133975265Y-113388445D01*
X133883889Y-113373972D01*
X133792514Y-113359500D01*
X133607486Y-113359500D01*
X133546569Y-113369148D01*
X133424734Y-113388445D01*
X133248767Y-113445619D01*
X133248764Y-113445620D01*
X133083903Y-113529622D01*
X133009826Y-113583443D01*
X132934213Y-113638379D01*
X132934211Y-113638381D01*
X132934210Y-113638381D01*
X132803381Y-113769210D01*
X132803381Y-113769211D01*
X132803379Y-113769213D01*
X132777458Y-113804890D01*
X132694622Y-113918903D01*
X132610620Y-114083764D01*
X132610619Y-114083767D01*
X132553445Y-114259734D01*
X132524500Y-114442486D01*
X117975276Y-114442486D01*
X115103943Y-111571153D01*
X125879500Y-111571153D01*
X125879500Y-111728846D01*
X125910261Y-111883489D01*
X125910264Y-111883501D01*
X125970602Y-112029172D01*
X125970609Y-112029185D01*
X126058210Y-112160288D01*
X126058213Y-112160292D01*
X126169707Y-112271786D01*
X126169711Y-112271789D01*
X126300814Y-112359390D01*
X126300827Y-112359397D01*
X126446498Y-112419735D01*
X126446503Y-112419737D01*
X126601153Y-112450499D01*
X126601156Y-112450500D01*
X126601158Y-112450500D01*
X126758844Y-112450500D01*
X126758845Y-112450499D01*
X126913497Y-112419737D01*
X127059179Y-112359394D01*
X127190289Y-112271789D01*
X127301789Y-112160289D01*
X127389394Y-112029179D01*
X127449737Y-111883497D01*
X127480500Y-111728842D01*
X127480500Y-111571158D01*
X127480500Y-111571155D01*
X127480499Y-111571153D01*
X127474029Y-111538628D01*
X127449737Y-111416503D01*
X127389394Y-111270821D01*
X127351396Y-111213953D01*
X127330520Y-111147276D01*
X127330500Y-111145064D01*
X127330500Y-109592486D01*
X132524500Y-109592486D01*
X132524500Y-109777513D01*
X132553445Y-109960265D01*
X132610619Y-110136232D01*
X132610620Y-110136235D01*
X132676121Y-110264786D01*
X132694622Y-110301096D01*
X132803379Y-110450787D01*
X132934213Y-110581621D01*
X133083904Y-110690378D01*
X133164763Y-110731577D01*
X133248764Y-110774379D01*
X133248767Y-110774380D01*
X133336750Y-110802967D01*
X133424736Y-110831555D01*
X133607486Y-110860500D01*
X133607487Y-110860500D01*
X133792513Y-110860500D01*
X133792514Y-110860500D01*
X133975264Y-110831555D01*
X134151235Y-110774379D01*
X134316096Y-110690378D01*
X134465787Y-110581621D01*
X134596621Y-110450787D01*
X134705378Y-110301096D01*
X134789379Y-110136235D01*
X134846555Y-109960264D01*
X134875500Y-109777514D01*
X134875500Y-109592486D01*
X134846555Y-109409736D01*
X134817967Y-109321750D01*
X134789380Y-109233767D01*
X134789379Y-109233764D01*
X134705377Y-109068903D01*
X134705271Y-109068757D01*
X134596621Y-108919213D01*
X134465787Y-108788379D01*
X134316096Y-108679622D01*
X134311301Y-108677179D01*
X134151235Y-108595620D01*
X134151232Y-108595619D01*
X133975265Y-108538445D01*
X133883889Y-108523972D01*
X133792514Y-108509500D01*
X133607486Y-108509500D01*
X133546569Y-108519148D01*
X133424734Y-108538445D01*
X133248767Y-108595619D01*
X133248764Y-108595620D01*
X133083903Y-108679622D01*
X133002762Y-108738575D01*
X132934213Y-108788379D01*
X132934211Y-108788381D01*
X132934210Y-108788381D01*
X132803381Y-108919210D01*
X132803381Y-108919211D01*
X132803379Y-108919213D01*
X132756672Y-108983499D01*
X132694622Y-109068903D01*
X132610620Y-109233764D01*
X132610619Y-109233767D01*
X132553445Y-109409734D01*
X132524500Y-109592486D01*
X127330500Y-109592486D01*
X127330500Y-95470807D01*
X127350185Y-95403768D01*
X127366815Y-95383130D01*
X128282931Y-94467013D01*
X128344252Y-94433530D01*
X128346317Y-94433099D01*
X128413497Y-94419737D01*
X128559179Y-94359394D01*
X128690289Y-94271789D01*
X128801789Y-94160289D01*
X128889394Y-94029179D01*
X128949737Y-93883497D01*
X128980500Y-93728842D01*
X128980500Y-93571158D01*
X128980500Y-93571155D01*
X128980499Y-93571153D01*
X128949738Y-93416510D01*
X128949738Y-93416508D01*
X128949737Y-93416503D01*
X128949735Y-93416498D01*
X128889397Y-93270827D01*
X128889390Y-93270814D01*
X128801789Y-93139711D01*
X128801786Y-93139707D01*
X128690292Y-93028213D01*
X128690288Y-93028210D01*
X128559185Y-92940609D01*
X128559172Y-92940602D01*
X128413501Y-92880264D01*
X128413489Y-92880261D01*
X128258845Y-92849500D01*
X128258842Y-92849500D01*
X128101158Y-92849500D01*
X128101155Y-92849500D01*
X127946510Y-92880261D01*
X127946498Y-92880264D01*
X127800827Y-92940602D01*
X127800814Y-92940609D01*
X127669711Y-93028210D01*
X127669707Y-93028213D01*
X127558213Y-93139707D01*
X127558210Y-93139711D01*
X127470609Y-93270814D01*
X127470602Y-93270827D01*
X127410264Y-93416498D01*
X127410261Y-93416508D01*
X127396920Y-93483579D01*
X127364535Y-93545490D01*
X127362984Y-93547068D01*
X126174726Y-94735326D01*
X126103534Y-94841874D01*
X126054499Y-94960255D01*
X126054497Y-94960261D01*
X126029500Y-95085928D01*
X126029500Y-111145064D01*
X126009815Y-111212103D01*
X126008603Y-111213954D01*
X125970608Y-111270817D01*
X125970602Y-111270828D01*
X125910264Y-111416498D01*
X125910261Y-111416510D01*
X125879500Y-111571153D01*
X115103943Y-111571153D01*
X107866819Y-104334029D01*
X107833334Y-104272706D01*
X107830500Y-104246348D01*
X107830500Y-97966232D01*
X107830499Y-97966228D01*
X107797817Y-97801925D01*
X107797816Y-97801918D01*
X107733703Y-97647137D01*
X107702537Y-97600494D01*
X107640626Y-97507837D01*
X107522162Y-97389373D01*
X107382860Y-97296295D01*
X107228082Y-97232184D01*
X107228074Y-97232182D01*
X107063771Y-97199500D01*
X107063767Y-97199500D01*
X106896233Y-97199500D01*
X106896228Y-97199500D01*
X106731925Y-97232182D01*
X106731917Y-97232184D01*
X106577139Y-97296295D01*
X106437837Y-97389373D01*
X106319373Y-97507837D01*
X106226295Y-97647139D01*
X106162184Y-97801917D01*
X106162182Y-97801925D01*
X106129500Y-97966228D01*
X106129500Y-104733771D01*
X106162181Y-104898073D01*
X106162184Y-104898082D01*
X106226296Y-105052863D01*
X106226297Y-105052866D01*
X106319371Y-105192160D01*
X106319372Y-105192161D01*
X106319373Y-105192162D01*
X106615042Y-105487830D01*
X106615061Y-105487851D01*
X126713181Y-125585970D01*
X126746666Y-125647293D01*
X126749500Y-125673651D01*
X126749500Y-126920500D01*
X126729815Y-126987539D01*
X126677011Y-127033294D01*
X126625500Y-127044500D01*
X126604000Y-127044500D01*
X126603991Y-127044500D01*
X126603990Y-127044501D01*
X126496549Y-127056052D01*
X126496537Y-127056054D01*
X126445027Y-127067260D01*
X126342502Y-127101383D01*
X126342496Y-127101386D01*
X126221462Y-127179171D01*
X126221451Y-127179179D01*
X126168659Y-127224923D01*
X126074433Y-127333664D01*
X126074430Y-127333668D01*
X126014664Y-127464534D01*
X125994976Y-127531582D01*
X125989949Y-127566549D01*
X125974502Y-127673990D01*
X125974500Y-127674001D01*
X125974500Y-128826005D01*
X125975939Y-128839391D01*
X125977321Y-128852244D01*
X125964918Y-128921003D01*
X125917308Y-128972141D01*
X125854033Y-128989500D01*
X123479724Y-128989500D01*
X123315421Y-129022182D01*
X123315409Y-129022185D01*
X123283364Y-129035459D01*
X123160637Y-129086293D01*
X123160636Y-129086294D01*
X123021334Y-129179373D01*
X123021329Y-129179377D01*
X122849508Y-129351196D01*
X122788185Y-129384680D01*
X122718493Y-129379695D01*
X122692937Y-129366616D01*
X122579185Y-129290609D01*
X122579172Y-129290602D01*
X122433501Y-129230264D01*
X122433489Y-129230261D01*
X122278845Y-129199500D01*
X122278842Y-129199500D01*
X122121158Y-129199500D01*
X122121155Y-129199500D01*
X121966510Y-129230261D01*
X121966498Y-129230264D01*
X121820827Y-129290602D01*
X121820814Y-129290609D01*
X121689711Y-129378210D01*
X121689707Y-129378213D01*
X121578213Y-129489707D01*
X121578210Y-129489711D01*
X121490609Y-129620814D01*
X121490602Y-129620827D01*
X121430264Y-129766498D01*
X121430261Y-129766508D01*
X121416920Y-129833579D01*
X121384535Y-129895490D01*
X121382984Y-129897068D01*
X121016873Y-130263181D01*
X120955550Y-130296666D01*
X120929192Y-130299500D01*
X118594867Y-130299500D01*
X118527828Y-130279815D01*
X118525976Y-130278602D01*
X118439184Y-130220609D01*
X118439172Y-130220602D01*
X118293501Y-130160264D01*
X118293489Y-130160261D01*
X118138845Y-130129500D01*
X118138842Y-130129500D01*
X117981158Y-130129500D01*
X117981155Y-130129500D01*
X117826510Y-130160261D01*
X117826498Y-130160264D01*
X117680827Y-130220602D01*
X117680814Y-130220609D01*
X117549711Y-130308210D01*
X117549707Y-130308213D01*
X117438213Y-130419707D01*
X117438210Y-130419711D01*
X117350609Y-130550814D01*
X117350602Y-130550827D01*
X117290264Y-130696498D01*
X117290261Y-130696510D01*
X117259500Y-130851153D01*
X117259500Y-131008846D01*
X117290261Y-131163489D01*
X117290264Y-131163501D01*
X117350602Y-131309172D01*
X117350609Y-131309185D01*
X117438210Y-131440288D01*
X117442076Y-131444999D01*
X117440408Y-131446367D01*
X117469225Y-131499142D01*
X117464241Y-131568834D01*
X117422369Y-131624767D01*
X117356905Y-131649184D01*
X117348059Y-131649500D01*
X104929500Y-131649500D01*
X104862461Y-131629815D01*
X104816706Y-131577011D01*
X104805500Y-131525500D01*
X104805500Y-129519194D01*
X104805500Y-129519188D01*
X104799555Y-129441891D01*
X104793756Y-129404413D01*
X104776059Y-129328926D01*
X103509290Y-125333735D01*
X103499138Y-125304796D01*
X103497471Y-125300471D01*
X103493741Y-125290785D01*
X103493630Y-125290522D01*
X103481846Y-125262496D01*
X103404058Y-125141457D01*
X103404053Y-125141451D01*
X103358309Y-125088659D01*
X103358305Y-125088656D01*
X103358303Y-125088653D01*
X103249569Y-124994433D01*
X103249566Y-124994431D01*
X103249564Y-124994430D01*
X103118698Y-124934664D01*
X103118693Y-124934662D01*
X103118692Y-124934662D01*
X103073999Y-124921538D01*
X103051650Y-124914976D01*
X103050605Y-124914771D01*
X103050396Y-124914662D01*
X103048586Y-124914210D01*
X103048694Y-124913777D01*
X102988615Y-124882536D01*
X102953893Y-124821905D01*
X102950500Y-124793095D01*
X102950500Y-112037486D01*
X105729500Y-112037486D01*
X105729500Y-113350713D01*
X105735913Y-113421292D01*
X105735913Y-113421294D01*
X105735914Y-113421296D01*
X105786522Y-113583706D01*
X105844704Y-113679951D01*
X105874530Y-113729288D01*
X105994811Y-113849569D01*
X105994813Y-113849570D01*
X105994815Y-113849572D01*
X106140394Y-113937578D01*
X106227566Y-113964741D01*
X106285712Y-114003478D01*
X106313686Y-114067503D01*
X106302605Y-114136488D01*
X106263560Y-114183444D01*
X106182782Y-114242132D01*
X106038028Y-114386886D01*
X105917715Y-114552486D01*
X105824781Y-114734876D01*
X105761522Y-114929565D01*
X105729500Y-115131748D01*
X105729500Y-115336451D01*
X105761522Y-115538634D01*
X105824781Y-115733323D01*
X105888691Y-115858753D01*
X105891930Y-115865109D01*
X105917715Y-115915713D01*
X106038028Y-116081313D01*
X106182786Y-116226071D01*
X106337749Y-116338656D01*
X106348390Y-116346387D01*
X106439840Y-116392983D01*
X106441080Y-116393615D01*
X106491876Y-116441590D01*
X106508671Y-116509411D01*
X106486134Y-116575546D01*
X106441080Y-116614585D01*
X106348386Y-116661815D01*
X106182786Y-116782128D01*
X106038028Y-116926886D01*
X105917715Y-117092486D01*
X105824781Y-117274876D01*
X105761522Y-117469565D01*
X105729500Y-117671748D01*
X105729500Y-117876451D01*
X105761522Y-118078634D01*
X105824781Y-118273323D01*
X105917715Y-118455713D01*
X106038028Y-118621313D01*
X106182786Y-118766071D01*
X106337749Y-118878656D01*
X106348390Y-118886387D01*
X106464607Y-118945603D01*
X106530776Y-118979318D01*
X106530778Y-118979318D01*
X106530781Y-118979320D01*
X106635137Y-119013227D01*
X106725465Y-119042577D01*
X106826557Y-119058588D01*
X106927648Y-119074600D01*
X106927649Y-119074600D01*
X107132351Y-119074600D01*
X107132352Y-119074600D01*
X107334534Y-119042577D01*
X107529219Y-118979320D01*
X107711610Y-118886387D01*
X107804590Y-118818832D01*
X107877213Y-118766071D01*
X107877215Y-118766068D01*
X107877219Y-118766066D01*
X108021966Y-118621319D01*
X108021968Y-118621315D01*
X108021971Y-118621313D01*
X108074732Y-118548690D01*
X108142287Y-118455710D01*
X108235220Y-118273319D01*
X108298477Y-118078634D01*
X108330500Y-117876452D01*
X108330500Y-117671748D01*
X108298477Y-117469566D01*
X108235220Y-117274881D01*
X108235218Y-117274878D01*
X108235218Y-117274876D01*
X108201503Y-117208707D01*
X108142287Y-117092490D01*
X108134556Y-117081849D01*
X108021971Y-116926886D01*
X107877213Y-116782128D01*
X107711614Y-116661815D01*
X107705006Y-116658448D01*
X107618917Y-116614583D01*
X107568123Y-116566611D01*
X107551328Y-116498790D01*
X107573865Y-116432655D01*
X107618917Y-116393616D01*
X107711610Y-116346387D01*
X107732770Y-116331013D01*
X107877213Y-116226071D01*
X107877215Y-116226068D01*
X107877219Y-116226066D01*
X108021966Y-116081319D01*
X108021968Y-116081315D01*
X108021971Y-116081313D01*
X108074732Y-116008690D01*
X108142287Y-115915710D01*
X108235220Y-115733319D01*
X108298477Y-115538634D01*
X108330500Y-115336452D01*
X108330500Y-115131748D01*
X108307452Y-114986232D01*
X108298477Y-114929565D01*
X108235218Y-114734876D01*
X108201503Y-114668707D01*
X108142287Y-114552490D01*
X108117779Y-114518757D01*
X108021971Y-114386886D01*
X107877217Y-114242132D01*
X107877212Y-114242128D01*
X107796440Y-114183444D01*
X107753774Y-114128115D01*
X107747795Y-114058501D01*
X107780400Y-113996706D01*
X107832433Y-113964741D01*
X107919606Y-113937578D01*
X108065185Y-113849572D01*
X108185472Y-113729285D01*
X108273478Y-113583706D01*
X108324086Y-113421296D01*
X108330500Y-113350716D01*
X108330500Y-112037484D01*
X108324086Y-111966904D01*
X108273478Y-111804494D01*
X108185472Y-111658915D01*
X108185470Y-111658913D01*
X108185469Y-111658911D01*
X108065188Y-111538630D01*
X107919606Y-111450622D01*
X107757196Y-111400014D01*
X107757194Y-111400013D01*
X107757192Y-111400013D01*
X107707778Y-111395523D01*
X107686616Y-111393600D01*
X106373384Y-111393600D01*
X106354145Y-111395348D01*
X106302807Y-111400013D01*
X106140393Y-111450622D01*
X105994811Y-111538630D01*
X105874530Y-111658911D01*
X105786522Y-111804493D01*
X105735913Y-111966907D01*
X105729500Y-112037486D01*
X102950500Y-112037486D01*
X102950500Y-100833651D01*
X102970185Y-100766612D01*
X102986819Y-100745970D01*
X105340624Y-98392165D01*
X105340627Y-98392162D01*
X105433704Y-98252863D01*
X105497816Y-98098081D01*
X105523063Y-97971158D01*
X105530500Y-97933767D01*
X105530500Y-96284500D01*
X105550185Y-96217461D01*
X105602989Y-96171706D01*
X105654500Y-96160500D01*
X120903768Y-96160500D01*
X120903769Y-96160499D01*
X120958538Y-96149605D01*
X121068074Y-96127818D01*
X121068078Y-96127816D01*
X121068082Y-96127816D01*
X121113415Y-96109037D01*
X121222863Y-96063704D01*
X121362162Y-95970627D01*
X129095969Y-88236818D01*
X129157292Y-88203334D01*
X129183650Y-88200500D01*
X129386286Y-88200500D01*
X129386287Y-88200500D01*
X129596243Y-88167246D01*
X129798412Y-88101557D01*
X129987816Y-88005051D01*
X130009789Y-87989086D01*
X130159786Y-87880109D01*
X130159788Y-87880106D01*
X130159792Y-87880104D01*
X130310104Y-87729792D01*
X130310106Y-87729788D01*
X130310109Y-87729786D01*
X130435048Y-87557820D01*
X130435047Y-87557820D01*
X130435051Y-87557816D01*
X130439514Y-87549054D01*
X130487488Y-87498259D01*
X130555308Y-87481463D01*
X130621444Y-87503999D01*
X130660486Y-87549056D01*
X130664951Y-87557820D01*
X130789890Y-87729786D01*
X130940213Y-87880109D01*
X131112179Y-88005048D01*
X131112181Y-88005049D01*
X131112184Y-88005051D01*
X131301588Y-88101557D01*
X131503757Y-88167246D01*
X131713713Y-88200500D01*
X131713714Y-88200500D01*
X131926286Y-88200500D01*
X131926287Y-88200500D01*
X132136243Y-88167246D01*
X132338412Y-88101557D01*
X132527816Y-88005051D01*
X132549789Y-87989086D01*
X132699786Y-87880109D01*
X132699788Y-87880106D01*
X132699792Y-87880104D01*
X132850104Y-87729792D01*
X132850106Y-87729788D01*
X132850109Y-87729786D01*
X132975048Y-87557820D01*
X132975047Y-87557820D01*
X132975051Y-87557816D01*
X133071557Y-87368412D01*
X133137246Y-87166243D01*
X133170500Y-86956287D01*
X133170500Y-86743713D01*
X133137246Y-86533757D01*
X133071557Y-86331588D01*
X132975051Y-86142184D01*
X132975049Y-86142181D01*
X132975048Y-86142179D01*
X132850109Y-85970213D01*
X132699786Y-85819890D01*
X132527820Y-85694951D01*
X132338414Y-85598444D01*
X132338413Y-85598443D01*
X132338412Y-85598443D01*
X132136243Y-85532754D01*
X132136241Y-85532753D01*
X132136240Y-85532753D01*
X131974957Y-85507208D01*
X131926287Y-85499500D01*
X131713713Y-85499500D01*
X131665042Y-85507208D01*
X131503760Y-85532753D01*
X131301585Y-85598444D01*
X131112179Y-85694951D01*
X130940213Y-85819890D01*
X130789890Y-85970213D01*
X130664949Y-86142182D01*
X130660484Y-86150946D01*
X130612509Y-86201742D01*
X130544688Y-86218536D01*
X130478553Y-86195998D01*
X130439516Y-86150946D01*
X130435050Y-86142182D01*
X130310109Y-85970213D01*
X130159786Y-85819890D01*
X129987820Y-85694951D01*
X129798414Y-85598444D01*
X129798413Y-85598443D01*
X129798412Y-85598443D01*
X129596243Y-85532754D01*
X129596241Y-85532753D01*
X129596240Y-85532753D01*
X129434957Y-85507208D01*
X129386287Y-85499500D01*
X129173713Y-85499500D01*
X129125042Y-85507208D01*
X128963760Y-85532753D01*
X128761585Y-85598444D01*
X128572179Y-85694951D01*
X128400215Y-85819889D01*
X128286673Y-85933431D01*
X128225350Y-85966915D01*
X128155658Y-85961931D01*
X128099725Y-85920059D01*
X128082810Y-85889082D01*
X128033797Y-85757671D01*
X128033793Y-85757664D01*
X127947547Y-85642455D01*
X127947544Y-85642452D01*
X127832335Y-85556206D01*
X127832328Y-85556202D01*
X127697482Y-85505908D01*
X127697483Y-85505908D01*
X127637883Y-85499501D01*
X127637881Y-85499500D01*
X127637873Y-85499500D01*
X127637864Y-85499500D01*
X125842129Y-85499500D01*
X125842123Y-85499501D01*
X125782516Y-85505908D01*
X125647671Y-85556202D01*
X125647664Y-85556206D01*
X125532455Y-85642452D01*
X125532452Y-85642455D01*
X125446206Y-85757664D01*
X125446202Y-85757671D01*
X125395908Y-85892517D01*
X125389501Y-85952116D01*
X125389500Y-85952135D01*
X125389500Y-87747870D01*
X125389501Y-87747876D01*
X125395908Y-87807483D01*
X125446202Y-87942328D01*
X125446206Y-87942335D01*
X125532452Y-88057544D01*
X125532455Y-88057547D01*
X125647664Y-88143793D01*
X125647671Y-88143797D01*
X125782517Y-88194091D01*
X125782516Y-88194091D01*
X125789444Y-88194835D01*
X125842127Y-88200500D01*
X126427349Y-88200499D01*
X126494387Y-88220183D01*
X126540142Y-88272987D01*
X126550086Y-88342146D01*
X126521061Y-88405702D01*
X126515029Y-88412180D01*
X120504030Y-94423181D01*
X120442707Y-94456666D01*
X120416349Y-94459500D01*
X105083650Y-94459500D01*
X105016611Y-94439815D01*
X104995969Y-94423181D01*
X98784969Y-88212180D01*
X98751484Y-88150857D01*
X98756468Y-88081165D01*
X98798340Y-88025232D01*
X98863804Y-88000815D01*
X98872650Y-88000499D01*
X99457871Y-88000499D01*
X99457872Y-88000499D01*
X99517483Y-87994091D01*
X99652331Y-87943796D01*
X99767546Y-87857546D01*
X99853796Y-87742331D01*
X99904091Y-87607483D01*
X99910500Y-87547873D01*
X99910499Y-85752128D01*
X99904353Y-85694951D01*
X99904091Y-85692516D01*
X99853797Y-85557671D01*
X99853793Y-85557664D01*
X99767547Y-85442455D01*
X99767544Y-85442452D01*
X99675792Y-85373766D01*
X99633921Y-85317832D01*
X99628937Y-85248141D01*
X99662423Y-85186818D01*
X99723746Y-85153334D01*
X99750103Y-85150500D01*
X117563920Y-85150500D01*
X117630959Y-85170185D01*
X117676714Y-85222989D01*
X117686658Y-85292147D01*
X117657633Y-85355703D01*
X117617721Y-85386220D01*
X117468560Y-85458051D01*
X117230753Y-85607476D01*
X117011175Y-85782583D01*
X116812583Y-85981175D01*
X116637476Y-86200753D01*
X116488053Y-86438557D01*
X116366200Y-86691588D01*
X116273443Y-86956670D01*
X116273439Y-86956682D01*
X116210945Y-87230487D01*
X116210942Y-87230505D01*
X116179500Y-87509568D01*
X116179500Y-87790431D01*
X116210942Y-88069494D01*
X116210945Y-88069512D01*
X116273439Y-88343317D01*
X116273443Y-88343329D01*
X116366200Y-88608411D01*
X116488053Y-88861442D01*
X116488055Y-88861445D01*
X116637477Y-89099248D01*
X116812584Y-89318825D01*
X117011175Y-89517416D01*
X117230752Y-89692523D01*
X117468555Y-89841945D01*
X117721592Y-89963801D01*
X117920680Y-90033465D01*
X117986670Y-90056556D01*
X117986682Y-90056560D01*
X118260491Y-90119055D01*
X118260497Y-90119055D01*
X118260505Y-90119057D01*
X118446547Y-90140018D01*
X118539569Y-90150499D01*
X118539572Y-90150500D01*
X118539575Y-90150500D01*
X118820428Y-90150500D01*
X118820429Y-90150499D01*
X118963055Y-90134429D01*
X119099494Y-90119057D01*
X119099499Y-90119056D01*
X119099509Y-90119055D01*
X119373318Y-90056560D01*
X119638408Y-89963801D01*
X119891445Y-89841945D01*
X120129248Y-89692523D01*
X120348825Y-89517416D01*
X120547416Y-89318825D01*
X120722523Y-89099248D01*
X120871945Y-88861445D01*
X120993801Y-88608408D01*
X121086560Y-88343318D01*
X121149055Y-88069509D01*
X121154613Y-88020185D01*
X121164429Y-87933055D01*
X121180500Y-87790425D01*
X121180500Y-87509575D01*
X121164595Y-87368412D01*
X121149057Y-87230505D01*
X121149054Y-87230487D01*
X121086560Y-86956682D01*
X121086556Y-86956670D01*
X121063465Y-86890680D01*
X120993801Y-86691592D01*
X120871945Y-86438555D01*
X120722523Y-86200752D01*
X120547416Y-85981175D01*
X120348825Y-85782584D01*
X120310634Y-85752128D01*
X120238934Y-85694949D01*
X120129248Y-85607477D01*
X119957404Y-85499500D01*
X119891439Y-85458051D01*
X119742279Y-85386220D01*
X119690419Y-85339398D01*
X119672106Y-85271971D01*
X119693154Y-85205347D01*
X119746880Y-85160678D01*
X119796080Y-85150500D01*
X138055500Y-85150500D01*
X138122539Y-85170185D01*
X138168294Y-85222989D01*
X138179500Y-85274500D01*
X138179500Y-108738575D01*
X138159815Y-108805614D01*
X138107011Y-108851369D01*
X138037853Y-108861313D01*
X137974297Y-108832288D01*
X137945015Y-108794870D01*
X137916331Y-108738575D01*
X137885051Y-108677184D01*
X137877023Y-108666134D01*
X137760109Y-108505213D01*
X137609786Y-108354890D01*
X137437820Y-108229951D01*
X137248414Y-108133444D01*
X137248413Y-108133443D01*
X137248412Y-108133443D01*
X137046243Y-108067754D01*
X137046241Y-108067753D01*
X137046240Y-108067753D01*
X136884957Y-108042208D01*
X136836287Y-108034500D01*
X136623713Y-108034500D01*
X136575042Y-108042208D01*
X136413760Y-108067753D01*
X136211585Y-108133444D01*
X136022179Y-108229951D01*
X135850213Y-108354890D01*
X135699890Y-108505213D01*
X135574951Y-108677179D01*
X135478444Y-108866585D01*
X135412753Y-109068760D01*
X135386619Y-109233764D01*
X135379500Y-109278713D01*
X135379500Y-109491287D01*
X135412754Y-109701243D01*
X135415599Y-109710000D01*
X135478444Y-109903414D01*
X135574951Y-110092820D01*
X135699890Y-110264786D01*
X135850213Y-110415109D01*
X136022179Y-110540048D01*
X136022181Y-110540049D01*
X136022184Y-110540051D01*
X136211588Y-110636557D01*
X136413757Y-110702246D01*
X136623713Y-110735500D01*
X136623714Y-110735500D01*
X136836286Y-110735500D01*
X136836287Y-110735500D01*
X137046243Y-110702246D01*
X137248412Y-110636557D01*
X137437816Y-110540051D01*
X137459789Y-110524086D01*
X137609786Y-110415109D01*
X137609788Y-110415106D01*
X137609792Y-110415104D01*
X137760104Y-110264792D01*
X137760106Y-110264788D01*
X137760109Y-110264786D01*
X137885048Y-110092820D01*
X137885047Y-110092820D01*
X137885051Y-110092816D01*
X137945015Y-109975128D01*
X137992989Y-109924333D01*
X138060810Y-109907538D01*
X138126945Y-109930075D01*
X138170397Y-109984790D01*
X138179500Y-110031424D01*
X138179500Y-114188575D01*
X138159815Y-114255614D01*
X138107011Y-114301369D01*
X138037853Y-114311313D01*
X137974297Y-114282288D01*
X137945015Y-114244870D01*
X137916331Y-114188575D01*
X137885051Y-114127184D01*
X137853507Y-114083767D01*
X137760109Y-113955213D01*
X137609786Y-113804890D01*
X137437820Y-113679951D01*
X137248414Y-113583444D01*
X137248413Y-113583443D01*
X137248412Y-113583443D01*
X137046243Y-113517754D01*
X137046241Y-113517753D01*
X137046240Y-113517753D01*
X136884957Y-113492208D01*
X136836287Y-113484500D01*
X136623713Y-113484500D01*
X136575042Y-113492208D01*
X136413760Y-113517753D01*
X136211585Y-113583444D01*
X136022179Y-113679951D01*
X135850213Y-113804890D01*
X135699890Y-113955213D01*
X135574951Y-114127179D01*
X135478444Y-114316585D01*
X135412753Y-114518760D01*
X135379500Y-114728713D01*
X135379500Y-114941286D01*
X135412730Y-115151096D01*
X135412754Y-115151243D01*
X135472932Y-115336452D01*
X135478444Y-115353414D01*
X135574951Y-115542820D01*
X135699890Y-115714786D01*
X135850213Y-115865109D01*
X136022179Y-115990048D01*
X136022181Y-115990049D01*
X136022184Y-115990051D01*
X136211588Y-116086557D01*
X136413757Y-116152246D01*
X136623713Y-116185500D01*
X136623714Y-116185500D01*
X136836286Y-116185500D01*
X136836287Y-116185500D01*
X137046243Y-116152246D01*
X137248412Y-116086557D01*
X137437816Y-115990051D01*
X137459789Y-115974086D01*
X137609786Y-115865109D01*
X137609788Y-115865106D01*
X137609792Y-115865104D01*
X137760104Y-115714792D01*
X137760106Y-115714788D01*
X137760109Y-115714786D01*
X137885048Y-115542820D01*
X137885047Y-115542820D01*
X137885051Y-115542816D01*
X137945015Y-115425128D01*
X137992989Y-115374333D01*
X138060810Y-115357538D01*
X138126945Y-115380075D01*
X138170397Y-115434790D01*
X138179500Y-115481424D01*
X138179500Y-135025500D01*
X138159815Y-135092539D01*
X138107011Y-135138294D01*
X138055500Y-135149500D01*
X87306401Y-135149500D01*
X87239362Y-135129815D01*
X87193607Y-135077011D01*
X87182402Y-135025123D01*
X87187851Y-133233623D01*
X87207739Y-133166644D01*
X87260682Y-133121049D01*
X87311850Y-133110000D01*
X87730000Y-133110000D01*
X87730000Y-131509568D01*
X88179500Y-131509568D01*
X88179500Y-131790431D01*
X88210942Y-132069494D01*
X88210943Y-132069499D01*
X88273439Y-132343317D01*
X88273443Y-132343329D01*
X88366200Y-132608411D01*
X88488053Y-132861442D01*
X88488055Y-132861445D01*
X88637477Y-133099248D01*
X88764506Y-133258537D01*
X88811778Y-133317815D01*
X88812584Y-133318825D01*
X89011175Y-133517416D01*
X89230752Y-133692523D01*
X89468555Y-133841945D01*
X89721592Y-133963801D01*
X89920680Y-134033465D01*
X89986670Y-134056556D01*
X89986682Y-134056560D01*
X90260491Y-134119055D01*
X90260497Y-134119055D01*
X90260505Y-134119057D01*
X90446547Y-134140018D01*
X90539569Y-134150499D01*
X90539572Y-134150500D01*
X90539575Y-134150500D01*
X90820428Y-134150500D01*
X90820429Y-134150499D01*
X90963055Y-134134429D01*
X91099494Y-134119057D01*
X91099499Y-134119056D01*
X91099509Y-134119055D01*
X91373318Y-134056560D01*
X91638408Y-133963801D01*
X91891445Y-133841945D01*
X92129248Y-133692523D01*
X92348825Y-133517416D01*
X92547416Y-133318825D01*
X92722523Y-133099248D01*
X92871945Y-132861445D01*
X92993801Y-132608408D01*
X93086560Y-132343318D01*
X93149055Y-132069509D01*
X93149055Y-132069506D01*
X93149057Y-132069499D01*
X93149057Y-132069494D01*
X93180499Y-131790431D01*
X93180500Y-131790427D01*
X93180500Y-131509572D01*
X93180499Y-131509568D01*
X93149057Y-131230505D01*
X93149054Y-131230487D01*
X93086560Y-130956682D01*
X93086556Y-130956670D01*
X93063465Y-130890680D01*
X92993801Y-130691592D01*
X92871945Y-130438555D01*
X92722523Y-130200752D01*
X92547416Y-129981175D01*
X92348825Y-129782584D01*
X92328666Y-129766508D01*
X92145988Y-129620827D01*
X92129248Y-129607477D01*
X91891445Y-129458055D01*
X91891442Y-129458053D01*
X91638411Y-129336200D01*
X91373329Y-129243443D01*
X91373317Y-129243439D01*
X91099512Y-129180945D01*
X91099494Y-129180942D01*
X90820431Y-129149500D01*
X90820425Y-129149500D01*
X90539575Y-129149500D01*
X90539568Y-129149500D01*
X90260505Y-129180942D01*
X90260487Y-129180945D01*
X89986682Y-129243439D01*
X89986670Y-129243443D01*
X89721588Y-129336200D01*
X89468557Y-129458053D01*
X89230753Y-129607476D01*
X89011175Y-129782583D01*
X88812583Y-129981175D01*
X88637476Y-130200753D01*
X88488053Y-130438557D01*
X88366200Y-130691588D01*
X88273443Y-130956670D01*
X88273439Y-130956682D01*
X88210945Y-131230487D01*
X88210942Y-131230505D01*
X88179500Y-131509568D01*
X87730000Y-131509568D01*
X87730000Y-119834500D01*
X87749685Y-119767461D01*
X87802489Y-119721706D01*
X87854000Y-119710500D01*
X95795890Y-119710500D01*
X95795892Y-119710500D01*
X95923186Y-119676392D01*
X96037314Y-119610500D01*
X96130500Y-119517314D01*
X96196392Y-119403186D01*
X96230500Y-119275892D01*
X96230500Y-104944108D01*
X96196392Y-104816814D01*
X96130500Y-104702686D01*
X96037314Y-104609500D01*
X95962374Y-104566233D01*
X95923187Y-104543608D01*
X95859539Y-104526554D01*
X95795892Y-104509500D01*
X95795891Y-104509500D01*
X87854000Y-104509500D01*
X87786961Y-104489815D01*
X87741206Y-104437011D01*
X87730000Y-104385500D01*
X87730000Y-91110000D01*
X87324484Y-91110000D01*
X87257445Y-91090315D01*
X87211690Y-91037511D01*
X87200484Y-90986265D01*
X87195020Y-88433487D01*
X87188499Y-85386220D01*
X87188260Y-85274765D01*
X87207801Y-85207684D01*
X87260507Y-85161816D01*
X87312260Y-85150500D01*
X92941774Y-85150500D01*
X93008813Y-85170185D01*
G37*
%TD.AperFunction*%
%TD*%
%TA.AperFunction,Conductor*%
%TO.N,+BATT*%
G36*
X132523039Y-127569685D02*
G01*
X132568794Y-127622489D01*
X132580000Y-127674000D01*
X132580000Y-128826000D01*
X132560315Y-128893039D01*
X132507511Y-128938794D01*
X132456000Y-128950000D01*
X126604000Y-128950000D01*
X126536961Y-128930315D01*
X126491206Y-128877511D01*
X126480000Y-128826000D01*
X126480000Y-127674000D01*
X126499685Y-127606961D01*
X126552489Y-127561206D01*
X126604000Y-127550000D01*
X132456000Y-127550000D01*
X132523039Y-127569685D01*
G37*
%TD.AperFunction*%
%TD*%
%TA.AperFunction,Conductor*%
%TO.N,+5V*%
G36*
X102976272Y-125419685D02*
G01*
X103022027Y-125472489D01*
X103027432Y-125486519D01*
X103572083Y-127204263D01*
X104294201Y-129481710D01*
X104300000Y-129519188D01*
X104300000Y-132876000D01*
X104280315Y-132943039D01*
X104227511Y-132988794D01*
X104176000Y-133000000D01*
X101715743Y-133000000D01*
X101648704Y-132980315D01*
X101602949Y-132927511D01*
X101592037Y-132884531D01*
X101200294Y-127204263D01*
X101200000Y-127195732D01*
X101200000Y-125524000D01*
X101219685Y-125456961D01*
X101272489Y-125411206D01*
X101324000Y-125400000D01*
X102909233Y-125400000D01*
X102976272Y-125419685D01*
G37*
%TD.AperFunction*%
%TD*%
M02*
