M48
; DRILL file {KiCad 9.0.7-9.0.7~ubuntu24.04.1} date 2026-02-04T17:35:05-0500
; FORMAT={-:-/ absolute / metric / decimal}
; #@! TF.CreationDate,2026-02-04T17:35:05-05:00
; #@! TF.GenerationSoftware,Kicad,Pcbnew,9.0.7-9.0.7~ubuntu24.04.1
; #@! TF.FileFunction,Plated,1,2,PTH
FMAT,2
METRIC
; #@! TA.AperFunction,Plated,PTH,ComponentDrill
T1C0.200
; #@! TA.AperFunction,Plated,PTH,ViaDrill
T2C0.300
; #@! TA.AperFunction,Plated,PTH,ComponentDrill
T3C0.300
; #@! TA.AperFunction,Plated,PTH,ComponentDrill
T4C1.000
%
G90
G05
T1
X106.95Y-89.4
X106.95Y-90.2
X106.95Y-91.0
X107.75Y-89.4
X107.75Y-90.2
X107.75Y-91.0
X108.55Y-89.4
X108.55Y-90.2
X108.55Y-91.0
T2
X90.72Y-93.33
X90.74Y-92.29
X92.96Y-99.5
X94.18Y-129.15
X94.18Y-130.4
X94.18Y-131.65
X94.18Y-132.9
X94.38Y-99.53
X94.43Y-124.15
X95.43Y-129.15
X95.43Y-130.4
X95.43Y-131.65
X95.43Y-132.9
X99.68Y-95.65
X100.5Y-106.79
X102.0Y-95.0
X102.0Y-96.4
X102.2Y-129.7
X102.2Y-131.1
X102.2Y-132.5
X102.8Y-95.7
X103.6Y-129.7
X103.6Y-131.1
X103.6Y-132.5
X103.69Y-91.81
X106.98Y-98.05
X106.98Y-99.45
X115.28Y-93.88
X116.7Y-93.91
X118.06Y-130.93
X118.18Y-93.96
X119.88Y-93.96
X122.2Y-130.0
X125.26Y-125.72
X126.68Y-111.65
X126.68Y-131.4
X127.6Y-128.5
X128.18Y-93.65
X128.18Y-131.4
X128.9Y-128.5
X130.4Y-128.5
X130.68Y-131.4
X131.6Y-128.5
X131.93Y-131.4
X134.3Y-124.9
X135.54Y-133.14
X136.93Y-126.65
T3
X119.0Y-125.0
X119.0Y-126.1
X119.0Y-127.4
X119.0Y-128.6
X120.2Y-125.0
X120.2Y-126.1
X120.2Y-127.4
X120.2Y-128.6
T4
X89.4Y-126.4
X91.94Y-126.4
X93.48Y-86.65
X94.48Y-126.4
X96.02Y-86.65
X97.02Y-126.4
X98.56Y-86.65
X99.56Y-126.4
X102.1Y-126.4
X107.03Y-112.694
X107.03Y-115.234
X107.03Y-117.774
X126.74Y-86.85
X129.28Y-86.85
X131.82Y-86.85
M30
