%TF.GenerationSoftware,KiCad,Pcbnew,9.0.7-9.0.7~ubuntu24.04.1*%
%TF.CreationDate,2026-02-05T02:02:07-05:00*%
%TF.ProjectId,BasePCB,42617365-5043-4422-9e6b-696361645f70,rev?*%
%TF.SameCoordinates,Original*%
%TF.FileFunction,Soldermask,Top*%
%TF.FilePolarity,Negative*%
%FSLAX46Y46*%
G04 Gerber Fmt 4.6, Leading zero omitted, Abs format (unit mm)*
G04 Created by KiCad (PCBNEW 9.0.7-9.0.7~ubuntu24.04.1) date 2026-02-05 02:02:07*
%MOMM*%
%LPD*%
G01*
G04 APERTURE LIST*
G04 Aperture macros list*
%AMRoundRect*
0 Rectangle with rounded corners*
0 $1 Rounding radius*
0 $2 $3 $4 $5 $6 $7 $8 $9 X,Y pos of 4 corners*
0 Add a 4 corners polygon primitive as box body*
4,1,4,$2,$3,$4,$5,$6,$7,$8,$9,$2,$3,0*
0 Add four circle primitives for the rounded corners*
1,1,$1+$1,$2,$3*
1,1,$1+$1,$4,$5*
1,1,$1+$1,$6,$7*
1,1,$1+$1,$8,$9*
0 Add four rect primitives between the rounded corners*
20,1,$1+$1,$2,$3,$4,$5,0*
20,1,$1+$1,$4,$5,$6,$7,0*
20,1,$1+$1,$6,$7,$8,$9,0*
20,1,$1+$1,$8,$9,$2,$3,0*%
%AMFreePoly0*
4,1,37,0.800000,0.796148,0.878414,0.796148,1.032228,0.765552,1.177117,0.705537,1.307515,0.618408,1.418408,0.507515,1.505537,0.377117,1.565552,0.232228,1.596148,0.078414,1.596148,-0.078414,1.565552,-0.232228,1.505537,-0.377117,1.418408,-0.507515,1.307515,-0.618408,1.177117,-0.705537,1.032228,-0.765552,0.878414,-0.796148,0.800000,-0.796148,0.800000,-0.800000,-1.400000,-0.800000,
-1.403843,-0.796157,-1.439018,-0.796157,-1.511114,-0.766294,-1.566294,-0.711114,-1.596157,-0.639018,-1.596157,-0.603843,-1.600000,-0.600000,-1.600000,0.600000,-1.596157,0.603843,-1.596157,0.639018,-1.566294,0.711114,-1.511114,0.766294,-1.439018,0.796157,-1.403843,0.796157,-1.400000,0.800000,0.800000,0.800000,0.800000,0.796148,0.800000,0.796148,$1*%
%AMFreePoly1*
4,1,37,1.403843,0.796157,1.439018,0.796157,1.511114,0.766294,1.566294,0.711114,1.596157,0.639018,1.596157,0.603843,1.600000,0.600000,1.600000,-0.600000,1.596157,-0.603843,1.596157,-0.639018,1.566294,-0.711114,1.511114,-0.766294,1.439018,-0.796157,1.403843,-0.796157,1.400000,-0.800000,-0.800000,-0.800000,-0.800000,-0.796148,-0.878414,-0.796148,-1.032228,-0.765552,-1.177117,-0.705537,
-1.307515,-0.618408,-1.418408,-0.507515,-1.505537,-0.377117,-1.565552,-0.232228,-1.596148,-0.078414,-1.596148,0.078414,-1.565552,0.232228,-1.505537,0.377117,-1.418408,0.507515,-1.307515,0.618408,-1.177117,0.705537,-1.032228,0.765552,-0.878414,0.796148,-0.800000,0.796148,-0.800000,0.800000,1.400000,0.800000,1.403843,0.796157,1.403843,0.796157,$1*%
G04 Aperture macros list end*
%ADD10RoundRect,0.250000X0.650000X-0.350000X0.650000X0.350000X-0.650000X0.350000X-0.650000X-0.350000X0*%
%ADD11RoundRect,0.150000X0.625000X-0.150000X0.625000X0.150000X-0.625000X0.150000X-0.625000X-0.150000X0*%
%ADD12O,1.800000X1.100000*%
%ADD13O,1.450000X1.050000*%
%ADD14FreePoly0,270.000000*%
%ADD15RoundRect,0.800000X-0.000010X0.800000X-0.000010X-0.800000X0.000010X-0.800000X0.000010X0.800000X0*%
%ADD16FreePoly1,270.000000*%
%ADD17RoundRect,0.200000X-0.587400X0.587400X-0.587400X-0.587400X0.587400X-0.587400X0.587400X0.587400X0*%
%ADD18C,1.574800*%
%ADD19RoundRect,0.300000X-0.450000X0.450000X-0.450000X-0.450000X0.450000X-0.450000X0.450000X0.450000X0*%
%ADD20RoundRect,0.250000X0.625000X-0.400000X0.625000X0.400000X-0.625000X0.400000X-0.625000X-0.400000X0*%
%ADD21RoundRect,0.150000X0.150000X-0.587500X0.150000X0.587500X-0.150000X0.587500X-0.150000X-0.587500X0*%
%ADD22R,1.700000X1.700000*%
%ADD23C,1.700000*%
%ADD24RoundRect,0.250000X-0.350000X-0.625000X0.350000X-0.625000X0.350000X0.625000X-0.350000X0.625000X0*%
%ADD25O,1.200000X1.750000*%
%ADD26RoundRect,0.250000X0.400000X0.625000X-0.400000X0.625000X-0.400000X-0.625000X0.400000X-0.625000X0*%
G04 APERTURE END LIST*
D10*
%TO.C,J3*%
X155370000Y-85310000D03*
X155370000Y-92910000D03*
D11*
X157895000Y-86610000D03*
X157895000Y-87610000D03*
X157895000Y-88610000D03*
X157895000Y-89610000D03*
X157895000Y-90610000D03*
X157895000Y-91610000D03*
%TD*%
D12*
%TO.C,A2*%
X164570000Y-107385000D03*
D13*
X161540000Y-107685000D03*
X161540000Y-112535000D03*
D12*
X164570000Y-112835000D03*
D14*
X164700000Y-100420000D03*
D15*
X162160000Y-100420000D03*
D16*
X159620000Y-100420000D03*
D15*
X157080000Y-100420000D03*
X154540000Y-100420000D03*
X152000000Y-100420000D03*
X149460000Y-100420000D03*
D16*
X146920000Y-100420000D03*
D15*
X144380000Y-100420000D03*
X141840000Y-100420000D03*
X139300000Y-100420000D03*
X136760000Y-100420000D03*
D16*
X134220000Y-100420000D03*
D15*
X131680000Y-100420000D03*
X129140000Y-100420000D03*
X126600000Y-100420000D03*
X124060000Y-100420000D03*
D16*
X121520000Y-100420000D03*
D15*
X118980000Y-100420000D03*
X116440000Y-100420000D03*
X116440000Y-119800000D03*
X118980000Y-119800000D03*
D14*
X121520000Y-119800000D03*
D15*
X124060000Y-119800000D03*
X126600000Y-119800000D03*
X129140000Y-119800000D03*
X131680000Y-119800000D03*
D14*
X134220000Y-119800000D03*
D15*
X136760000Y-119800000D03*
X139300000Y-119800000D03*
X141840000Y-119800000D03*
X144380000Y-119800000D03*
D14*
X146920000Y-119800000D03*
D15*
X149460000Y-119800000D03*
X152000000Y-119800000D03*
X154540000Y-119800000D03*
X157080000Y-119800000D03*
D14*
X159620000Y-119800000D03*
D15*
X162160000Y-119800000D03*
X164700000Y-119800000D03*
D17*
X134870000Y-110694100D03*
D18*
X134870000Y-113234100D03*
X134870000Y-115774100D03*
D19*
X161570000Y-110110000D03*
X164870000Y-111110000D03*
X164870000Y-109110000D03*
X156570000Y-107610000D03*
X154070000Y-107610000D03*
X151570000Y-107610000D03*
%TD*%
D20*
%TO.C,R2*%
X117570000Y-96597500D03*
X117570000Y-93497500D03*
%TD*%
D11*
%TO.C,J4*%
X126095000Y-91610000D03*
X126095000Y-90610000D03*
X126095000Y-89610000D03*
X126095000Y-88610000D03*
X126095000Y-87610000D03*
X126095000Y-86610000D03*
D10*
X123570000Y-92910000D03*
X123570000Y-85310000D03*
%TD*%
D20*
%TO.C,R1*%
X163520000Y-94722500D03*
X163520000Y-91622500D03*
%TD*%
D21*
%TO.C,Q2*%
X161570000Y-89110000D03*
X163470000Y-89110000D03*
X162520000Y-87235000D03*
%TD*%
D22*
%TO.C,J7*%
X124030000Y-81110000D03*
D23*
X126570000Y-81110000D03*
X129110000Y-81110000D03*
%TD*%
D22*
%TO.C,J6*%
X157110000Y-81110000D03*
D23*
X154570000Y-81110000D03*
X152030000Y-81110000D03*
%TD*%
D24*
%TO.C,J1*%
X147570000Y-127110000D03*
D25*
X149570000Y-127110000D03*
%TD*%
D24*
%TO.C,J2*%
X155570000Y-127110000D03*
D25*
X157570000Y-127110000D03*
%TD*%
D22*
%TO.C,J10*%
X131680000Y-86110000D03*
D23*
X134220000Y-86110000D03*
X136760000Y-86110000D03*
X139300000Y-86110000D03*
X141840000Y-86110000D03*
X144380000Y-86110000D03*
X146920000Y-86110000D03*
X149460000Y-86110000D03*
%TD*%
D22*
%TO.C,J9*%
X131680000Y-96270000D03*
D23*
X134220000Y-96270000D03*
X136760000Y-96270000D03*
X139300000Y-96270000D03*
X141840000Y-96270000D03*
X144380000Y-96270000D03*
X146920000Y-96270000D03*
X149460000Y-96270000D03*
%TD*%
D26*
%TO.C,R4*%
X140820000Y-123110000D03*
X137720000Y-123110000D03*
%TD*%
%TO.C,R3*%
X145870000Y-123110000D03*
X142770000Y-123110000D03*
%TD*%
D22*
%TO.C,J8*%
X142110000Y-128610000D03*
D23*
X139570000Y-128610000D03*
X137030000Y-128610000D03*
X134490000Y-128610000D03*
%TD*%
D21*
%TO.C,Q1*%
X116670000Y-91047500D03*
X118570000Y-91047500D03*
X117620000Y-89172500D03*
%TD*%
D22*
%TO.C,J5*%
X117950000Y-124110000D03*
D23*
X120490000Y-124110000D03*
X123030000Y-124110000D03*
X125570000Y-124110000D03*
X128110000Y-124110000D03*
X130650000Y-124110000D03*
%TD*%
M02*
