M48
; DRILL file {KiCad 9.0.7-9.0.7~ubuntu24.04.1} date 2026-02-05T02:02:07-0500
; FORMAT={-:-/ absolute / inch / decimal}
; #@! TF.CreationDate,2026-02-05T02:02:07-05:00
; #@! TF.GenerationSoftware,Kicad,Pcbnew,9.0.7-9.0.7~ubuntu24.04.1
; #@! TF.FileFunction,Plated,1,2,PTH
FMAT,2
INCH
; #@! TA.AperFunction,Plated,PTH,ViaDrill
T1C0.0118
; #@! TA.AperFunction,Plated,PTH,ComponentDrill
T2C0.0295
; #@! TA.AperFunction,Plated,PTH,ComponentDrill
T3C0.0394
%
G90
G05
T1
X6.361Y-4.8272
T2
X5.8098Y-5.0043
X5.8886Y-5.0043
X6.1248Y-5.0043
X6.2035Y-5.0043
T3
X4.6437Y-4.8862
X4.7437Y-4.8862
X4.8437Y-4.8862
X4.8831Y-3.1933
X4.9437Y-4.8862
X4.9831Y-3.1933
X5.0437Y-4.8862
X5.0831Y-3.1933
X5.1437Y-4.8862
X5.1843Y-3.3902
X5.1843Y-3.7902
X5.2843Y-3.3902
X5.2843Y-3.7902
X5.2949Y-5.0634
X5.3843Y-3.3902
X5.3843Y-3.7902
X5.3949Y-5.0634
X5.4843Y-3.3902
X5.4843Y-3.7902
X5.4949Y-5.0634
X5.5843Y-3.3902
X5.5843Y-3.7902
X5.5949Y-5.0634
X5.6843Y-3.3902
X5.6843Y-3.7902
X5.7843Y-3.3902
X5.7843Y-3.7902
X5.8843Y-3.3902
X5.8843Y-3.7902
X5.9854Y-3.1933
X6.0854Y-3.1933
X6.1854Y-3.1933
M30
